<svg width="47" height="60" viewBox="0 0 47 60" fill="none" xmlns="http://www.w3.org/2000/svg">
<g id="Group">
<path id="Vector" d="M44.9238 47.1856H1.99834C0.908338 47.1856 0 46.3099 0 45.2024V1.98324C0 0.875716 0.882385 0 1.99834 0H44.9238C46.0138 0 46.9221 0.875716 46.9221 1.98324V45.2282C46.8962 46.3099 46.0138 47.1856 44.9238 47.1856Z" fill="#4C4E4E"/>
<g id="Group_2">
<path id="Vector_2" d="M20.0613 30.0314L7.55219 36.5993V24.3907L20.0613 17.8486V30.0314Z" fill="#888989"/>
<path id="Vector_3" d="M25.0701 32.762L15.5975 37.733V28.538L25.0701 23.5928V32.762Z" fill="white"/>
<path id="Vector_4" d="M31.4285 18.7507L21.878 23.7474V14.5524L31.4285 9.55566V18.7507Z" fill="white"/>
<path id="Vector_5" d="M39.344 21.6354L26.9128 28.1518V15.969L39.344 9.45264V21.6354Z" fill="#888989"/>
</g>
<g id="Group_3">
<path id="Vector_6" d="M1.5312 58.1574C1.06406 58.1574 0.700723 58.0286 0.441198 57.771C0.181673 57.5135 0.0519104 57.1529 0.0519104 56.6893C0.0519104 56.509 0.0778629 56.3029 0.129768 56.0969C0.181673 55.8908 0.233578 55.7105 0.311436 55.556H1.29763C1.21977 55.865 1.19382 56.1999 1.19382 56.5347C1.19382 56.7665 1.24573 56.9468 1.37549 57.1014C1.50525 57.2301 1.68692 57.3074 1.89454 57.3074H4.30812V52.5425H5.42408V57.2816H6.38432C6.41028 57.2816 6.41028 57.2817 6.41028 57.3074V58.1316C6.41028 58.1574 6.41028 58.1574 6.38432 58.1574H1.5312ZM1.9724 55.4787L2.38764 55.4014C2.28383 55.3499 2.20597 55.2984 2.15406 55.1954C2.10216 55.1181 2.05025 55.0151 2.05025 54.8863C2.05025 54.6803 2.12811 54.5257 2.25787 54.3969C2.41359 54.2682 2.59526 54.2166 2.85478 54.2166C3.08835 54.2166 3.29597 54.2682 3.47764 54.3454L3.32193 54.7318C3.19216 54.6545 3.0624 54.6287 2.93264 54.6287C2.82883 54.6287 2.72502 54.6545 2.67311 54.7318C2.59526 54.809 2.5693 54.8863 2.5693 54.9893C2.5693 55.1439 2.64716 55.2469 2.80288 55.3242L2.93264 55.2984C3.19216 55.2727 3.37383 55.2469 3.52955 55.2211V55.659C3.21812 55.6848 2.67311 55.7363 1.94644 55.8393V55.4787H1.9724Z" fill="#4C4E4E"/>
<path id="Vector_7" d="M6.30647 58.158C6.28052 58.158 6.28052 58.158 6.28052 58.1323V57.3081C6.28052 57.2823 6.28052 57.2823 6.30647 57.2823H9.31696C9.10934 57.102 8.97958 56.7414 8.84982 56.2263C8.77196 55.8915 8.6941 55.6596 8.53839 55.5309C8.40862 55.4021 8.201 55.3248 7.94148 55.3248C7.75981 55.3248 7.6041 55.3506 7.44838 55.4021C7.29267 55.4536 7.13695 55.5051 6.95528 55.6081L6.6179 54.7839C7.05909 54.5521 7.57814 54.4233 8.17505 54.4233C8.66815 54.4233 9.05744 54.5264 9.34291 54.7582C9.62839 54.99 9.81006 55.3506 9.88792 55.8657C10.0177 56.6126 10.1993 57.0762 10.407 57.2823H10.9001C10.926 57.2823 10.952 57.2823 10.952 57.3081V58.1323C10.952 58.158 10.926 58.158 10.9001 58.158H6.30647Z" fill="#4C4E4E"/>
<path id="Vector_8" d="M10.8482 58.158C10.8222 58.158 10.8222 58.158 10.8222 58.1322V57.308C10.8222 57.2822 10.8222 57.2822 10.8482 57.2822H11.7824V55.093H12.8984V57.2822H13.5213C13.7808 57.2822 13.9625 57.205 14.0663 57.0762C14.1701 56.9474 14.2479 56.7156 14.2479 56.4323V55.093H15.3639V56.5096C15.3639 56.6383 15.3639 56.7414 15.3379 56.8444C15.4677 56.9989 15.5715 57.1277 15.7013 57.1792C15.831 57.2565 15.9868 57.2822 16.1684 57.2822H16.6356V54.5006H17.7515V58.158H16.1944C15.7791 58.158 15.3898 57.9777 15.0265 57.5913C14.741 57.9519 14.3258 58.158 13.7808 58.158H10.8482ZM14.1701 53.7021C14.0144 53.7021 13.8846 53.6506 13.8067 53.5476C13.7289 53.4445 13.677 53.3158 13.677 53.1612C13.677 53.0067 13.7289 52.8521 13.8067 52.7749C13.8846 52.6719 14.0144 52.6203 14.1701 52.6203C14.3258 52.6203 14.4556 52.6719 14.5334 52.7749C14.6113 52.8779 14.6632 53.0067 14.6632 53.1612C14.6632 53.3158 14.6113 53.4445 14.5334 53.5476C14.4556 53.6506 14.3258 53.7021 14.1701 53.7021ZM14.8189 52.5173C14.6891 52.5173 14.6113 52.4916 14.5075 52.4143C14.4296 52.337 14.3777 52.234 14.3777 52.0795C14.3777 51.9249 14.4296 51.7961 14.5075 51.7446C14.5853 51.6674 14.6891 51.6416 14.8189 51.6416C14.9487 51.6416 15.0525 51.6931 15.1303 51.7704C15.2082 51.8477 15.2601 51.9507 15.2601 52.1052C15.2601 52.234 15.2341 52.337 15.1563 52.4401C15.0525 52.4658 14.9487 52.5173 14.8189 52.5173ZM15.4418 53.7021C15.286 53.7021 15.1563 53.6506 15.0784 53.5476C15.0006 53.4445 14.9487 53.3158 14.9487 53.1612C14.9487 53.0067 15.0006 52.8521 15.0784 52.7749C15.1563 52.6719 15.286 52.6203 15.4418 52.6203C15.5975 52.6203 15.7013 52.6719 15.8051 52.7491C15.8829 52.8522 15.9349 52.9809 15.9349 53.1355C15.9349 53.29 15.8829 53.4188 15.8051 53.5218C15.7272 53.6506 15.5975 53.7021 15.4418 53.7021Z" fill="#4C4E4E"/>
<path id="Vector_9" d="M21.9818 57.2821C22.0077 57.2821 22.0077 57.2821 22.0077 57.3078V58.132C22.0077 58.1578 22.0077 58.1578 21.9818 58.1578H21.0215V58.2866C21.0215 58.8017 20.8918 59.188 20.6063 59.4971C20.3208 59.8062 19.9575 59.935 19.4644 59.935C19.2049 59.935 18.9713 59.9092 18.7637 59.8319C18.556 59.7804 18.3225 59.6516 18.0889 59.4971L18.5301 58.7759C18.6599 58.8532 18.7896 58.9047 18.8675 58.9562C18.9713 58.982 19.101 59.0077 19.2308 59.0077C19.4384 59.0077 19.5941 58.9305 19.7239 58.7759C19.8537 58.6214 19.9056 58.4411 19.9056 58.2093V54.4746H21.0215V57.2563H21.9818V57.2821Z" fill="#4C4E4E"/>
<path id="Vector_10" d="M22.7604 57.2822C22.6306 56.9731 22.5527 56.6383 22.5527 56.2519C22.5527 56.0459 22.5787 55.8141 22.6566 55.5565C22.7344 55.2989 22.8123 55.0929 22.9161 54.9126C23.1497 54.7838 23.4092 54.6808 23.6947 54.6035C23.9542 54.5262 24.2137 54.5005 24.3954 54.5005C24.7328 54.5005 25.0442 54.5778 25.3297 54.7065C25.6151 54.8611 25.8228 55.0671 25.9785 55.3247C26.1342 55.5823 26.212 55.8913 26.212 56.2519C26.212 56.6383 26.1342 56.9731 25.9525 57.2564C25.7709 57.5397 25.5373 57.7715 25.2259 57.9261C24.9144 58.0806 24.577 58.1579 24.1878 58.1579H21.9299C21.9039 58.1579 21.9039 58.1579 21.9039 58.1321V57.3079C21.9039 57.2822 21.9039 57.2822 21.9299 57.2822H22.7604ZM23.5908 56.4065C23.5908 56.664 23.6427 56.9473 23.7725 57.2822H24.058C24.3694 57.2822 24.603 57.1791 24.8106 56.9731C25.0182 56.767 25.122 56.5352 25.122 56.2519C25.122 55.9944 25.0701 55.7883 24.9404 55.6338C24.8106 55.4792 24.6289 55.402 24.4213 55.402C24.1878 55.402 23.9542 55.4792 23.7206 55.608C23.6168 55.8398 23.5908 56.1231 23.5908 56.4065Z" fill="#4C4E4E"/>
<path id="Vector_11" d="M31.143 58.1575C30.6759 58.1575 30.3125 58.0287 30.053 57.7711C29.7935 57.5136 29.6637 57.153 29.6637 56.6894C29.6637 56.5091 29.6897 56.303 29.7416 56.097C29.7935 55.8909 29.8454 55.7106 29.9233 55.5561H30.9094C30.8316 55.8652 30.8056 56.2 30.8056 56.5348C30.8056 56.7667 30.8575 56.9469 30.9873 57.1015C31.1171 57.2303 31.2987 57.3075 31.5064 57.3075H33.4528C33.2192 57.0242 33.0895 56.6894 33.0895 56.3288C33.0895 55.7879 33.2711 55.3501 33.6604 55.0152C34.0497 54.6804 34.5687 54.5258 35.2695 54.5258H36.593V58.1832H31.143V58.1575ZM35.4511 57.2818V55.3758H35.2695C34.9321 55.3758 34.6726 55.4531 34.4909 55.6334C34.3092 55.7879 34.2054 56.0455 34.2054 56.3545C34.2054 56.6379 34.2833 56.8697 34.4649 57.0242C34.6466 57.1788 34.9061 57.256 35.2435 57.256H35.4511V57.2818ZM35.0878 53.8562C34.9321 53.8562 34.8023 53.8047 34.7245 53.7016C34.6466 53.5986 34.5947 53.4698 34.5947 53.3153C34.5947 53.1608 34.6466 53.0062 34.7245 52.929C34.8023 52.8259 34.9321 52.7744 35.0878 52.7744C35.2435 52.7744 35.3473 52.8259 35.4511 52.9032C35.529 53.0062 35.5809 53.135 35.5809 53.2895C35.5809 53.4441 35.529 53.5729 35.4511 53.6759C35.3473 53.8047 35.2176 53.8562 35.0878 53.8562Z" fill="#4C4E4E"/>
<path id="Vector_12" d="M40.7974 57.2821C40.8233 57.2821 40.8233 57.2821 40.8233 57.3078V58.132C40.8233 58.1578 40.8233 58.1578 40.7974 58.1578H39.8371V58.2866C39.8371 58.8017 39.7074 59.188 39.4219 59.4971C39.1364 59.8062 38.7471 59.935 38.28 59.935C38.0204 59.935 37.7869 59.9092 37.5792 59.8319C37.3716 59.7804 37.1381 59.6516 36.9045 59.4971L37.3457 58.7759C37.4754 58.8532 37.6052 58.9047 37.6831 58.9562C37.7869 58.982 37.9166 59.0077 38.0464 59.0077C38.254 59.0077 38.4097 58.9305 38.5395 58.7759C38.6693 58.6214 38.7212 58.4411 38.7212 58.2093V54.4746H39.8371V57.2563H40.7974V57.2821Z" fill="#4C4E4E"/>
<path id="Vector_13" d="M40.7455 58.1576C40.7195 58.1576 40.7195 58.1576 40.7195 58.1319V57.3077C40.7195 57.2819 40.7195 57.2819 40.7455 57.2819H41.8874C41.7057 57.2047 41.55 57.0501 41.4462 56.8698C41.3424 56.6638 41.2905 56.4577 41.2905 56.2259C41.2905 55.6593 41.4721 55.2472 41.8355 54.9123C42.1988 54.6033 42.7179 54.4487 43.3407 54.4487C43.5483 54.4487 43.7819 54.4745 44.0155 54.526C44.2491 54.5775 44.4567 54.629 44.5864 54.7063L44.275 55.582C44.0933 55.5047 43.9117 55.4532 43.756 55.4017C43.6002 55.376 43.4445 55.3502 43.2888 55.3502C42.9774 55.3502 42.7438 55.4275 42.5881 55.582C42.4324 55.7366 42.3286 55.9684 42.3286 56.2774C42.3286 56.5865 42.4064 56.8183 42.5881 57.0244C42.7698 57.2047 43.0033 57.3077 43.2888 57.3077H44.6643V58.2092H40.7455V58.1576Z" fill="#4C4E4E"/>
<path id="Vector_14" d="M45.4429 52.1307L45.8581 52.0534C45.7543 52.0019 45.6764 51.9504 45.6245 51.8474C45.5726 51.7701 45.5207 51.6671 45.5207 51.5383C45.5207 51.3323 45.5986 51.152 45.7543 51.0489C45.91 50.9202 46.0917 50.8687 46.3512 50.8687C46.5848 50.8687 46.7924 50.9202 46.9741 50.9974L46.8183 51.3838C46.6886 51.3323 46.5588 51.2808 46.4031 51.2808C46.2993 51.2808 46.2214 51.3065 46.1436 51.3838C46.0657 51.4353 46.0398 51.5383 46.0398 51.6413C46.0398 51.7186 46.0657 51.7959 46.1176 51.8474C46.1695 51.8989 46.2214 51.9504 46.2733 51.9762L46.4031 51.9504C46.6626 51.9247 46.8702 51.8989 47 51.8731V52.311C46.8183 52.311 46.5329 52.3625 46.1176 52.414C45.7024 52.4655 45.4688 52.4913 45.4169 52.5171V52.1307H45.4429ZM45.7543 52.9807H46.8702V58.1835H45.7543V52.9807Z" fill="#4C4E4E"/>
</g>
</g>
</svg>
