<svg width="43" height="61" viewBox="0 0 43 61" fill="none" xmlns="http://www.w3.org/2000/svg">
<g id="Group 40">
<g id="Group">
<path id="Vector" d="M10.0812 54.9114C10.0812 58.713 7.7721 60.7123 4.95612 60.7123C2.05566 60.7123 0 58.4595 0 55.1085C0 51.6167 2.1683 49.3076 5.12508 49.3076C8.13818 49.3358 10.0812 51.6449 10.0812 54.9114ZM1.52063 55.0804C1.52063 57.4458 2.78782 59.5578 5.0406 59.5578C7.29339 59.5578 8.56058 57.474 8.56058 54.9677C8.56058 52.7713 7.40602 50.4903 5.0406 50.4903C2.70334 50.4903 1.52063 52.6586 1.52063 55.0804Z" fill="#888989"/>
<path id="Vector_2" d="M11.8834 48.9136H13.3196V60.5436H11.8834V48.9136Z" fill="#888989"/>
<path id="Vector_3" d="M15.8821 60.5436V53.7007H14.7557V52.6025H15.8821V52.2364C15.8821 51.11 16.1356 50.0963 16.8114 49.4768C17.3464 48.9417 18.0786 48.7446 18.7544 48.7446C19.2613 48.7446 19.7119 48.8573 19.9935 48.9699L19.7963 50.0963C19.5711 50.0118 19.2895 49.9273 18.8671 49.9273C17.628 49.9273 17.3183 50.9974 17.3183 52.2083V52.6307H19.2331V53.7289H17.3183V60.5436H15.8821Z" fill="#888989"/>
<path id="Vector_4" d="M24.8932 60.5436L24.7806 59.558H24.7243C24.2737 60.1775 23.4289 60.7407 22.3025 60.7407C20.6974 60.7407 19.8808 59.6143 19.8808 58.4598C19.8808 56.5449 21.5704 55.503 24.6398 55.503V55.3341C24.6398 54.6864 24.4708 53.5037 22.8376 53.5037C22.1054 53.5037 21.3451 53.7289 20.7819 54.095L20.444 53.1376C21.0917 52.7152 22.0491 52.4336 23.0347 52.4336C25.4564 52.4336 26.0478 54.095 26.0478 55.672V58.6287C26.0478 59.3046 26.076 59.9804 26.1886 60.5155H24.8932V60.5436ZM24.6961 56.4886C23.1192 56.4604 21.3451 56.742 21.3451 58.2627C21.3451 59.1919 21.9646 59.6425 22.6968 59.6425C23.7387 59.6425 24.3864 58.9948 24.6116 58.319C24.668 58.1782 24.6961 58.0092 24.6961 57.8684V56.4886Z" fill="#888989"/>
<path id="Vector_5" d="M32.778 60.5436L32.6654 59.558H32.609C32.1585 60.1775 31.3137 60.7407 30.1873 60.7407C28.5822 60.7407 27.7656 59.6143 27.7656 58.4598C27.7656 56.5449 29.4552 55.503 32.5246 55.503V55.3341C32.5246 54.6864 32.3556 53.5037 30.7223 53.5037C29.9902 53.5037 29.2299 53.7289 28.6667 54.095L28.3288 53.1376C28.9764 52.7152 29.9339 52.4336 30.9195 52.4336C33.3412 52.4336 33.9326 54.095 33.9326 55.672V58.6287C33.9326 59.3046 33.9607 59.9804 34.0734 60.5155H32.778V60.5436ZM32.5809 56.4886C31.0039 56.4604 29.2299 56.742 29.2299 58.2627C29.2299 59.1919 29.8494 59.6425 30.5815 59.6425C31.6235 59.6425 32.2711 58.9948 32.4964 58.319C32.5527 58.1782 32.5809 58.0092 32.5809 57.8684V56.4886Z" fill="#888989"/>
<path id="Vector_6" d="M36.2698 48.9136H37.7059V53.8697H37.7341C37.9594 53.4473 38.3254 53.1094 38.776 52.8559C39.1984 52.6025 39.7053 52.4335 40.2403 52.4335C41.3104 52.4335 43 53.0812 43 55.8127V60.5436H41.5638V55.9817C41.5638 54.7145 41.0851 53.6163 39.7334 53.6163C38.8042 53.6163 38.072 54.2639 37.7904 55.0524C37.7059 55.2495 37.7059 55.4748 37.7059 55.7282V60.5154H36.2698V48.9136Z" fill="#888989"/>
</g>
<path id="Vector_7" d="M41.8173 21.148C41.423 15.9666 39.4237 11.3202 36.7485 6.98363C35.2842 4.61821 33.6228 2.42174 31.9332 0C31.3981 0.478717 31.1447 0.703995 30.8913 0.957433C28.019 3.80157 25.1185 6.64571 22.3025 9.54617C21.6267 10.222 21.1761 10.2783 20.5003 9.57433C17.8814 6.84283 15.2063 4.16765 12.5592 1.49247C12.1368 1.04191 11.6581 0.647675 11.1231 0.140799C10.6725 0.732155 10.2783 1.21087 9.91222 1.68959C6.36408 6.30779 3.43547 11.2358 1.88668 16.8959C-0.901141 27.0616 4.5337 37.9312 15.0936 41.5357C17.9096 42.4931 20.8101 42.7466 23.795 42.4368C34.2986 41.3949 42.6057 31.6516 41.8173 21.148ZM23.0065 15.3471C25.1185 17.2901 26.7518 19.5992 27.9626 22.1618C28.7511 23.8232 28.9482 25.6254 28.6385 27.2587C27.9063 30.8913 24.6116 33.3975 21.0917 33.2004C17.8251 33.0033 15.0091 30.5534 14.3615 27.2305C14.1362 25.9352 14.2488 24.5835 14.6712 23.3726C15.7695 20.2187 17.6562 17.6844 19.9653 15.3752C21.4577 13.8546 21.4577 13.8828 23.0065 15.3471ZM20.8382 40.1277C13.3477 39.7616 7.99735 35.9882 4.98425 29.0609C2.92859 24.3019 3.35099 19.5711 5.09689 14.8402C6.5612 10.8697 8.75767 7.29339 11.5173 3.57629C14.108 6.27963 16.5861 8.84218 19.0641 11.4047C19.2613 11.6018 19.4021 11.8271 19.5992 12.0524C18.4446 13.3477 17.2338 14.5868 16.1918 15.9384C14.0799 18.6136 12.3058 21.4578 11.8271 24.9214C11.3484 28.4132 13.2351 32.2711 16.1918 34.2141C17.9378 35.4813 19.9653 35.7348 21.2043 35.7629C21.3451 35.7629 21.4859 35.7629 21.6267 35.7629C21.6549 35.7629 21.683 35.7629 21.7112 35.7629C21.8238 35.7629 21.9364 35.7629 22.0209 35.7348C22.0772 35.7348 22.1054 35.7348 22.1617 35.7348C22.218 35.7348 22.2462 35.7348 22.2744 35.7348C22.3307 35.7348 22.3307 35.7348 22.3307 35.7348C29.089 35.0308 33.2004 28.019 30.1873 21.4014C28.8074 18.4165 26.8081 15.9666 24.5835 13.6012C24.1611 13.1506 23.7387 12.7001 23.26 12.2214C24.6961 10.7852 26.0759 9.40537 27.4276 7.99738C28.7511 6.61755 30.0465 5.20956 31.4545 3.71709C35.5095 9.23641 38.8605 14.7557 39.2829 21.4296C40.015 31.8206 31.3418 40.6346 20.8382 40.1277Z" fill="#888989"/>
</g>
</svg>
