<svg width="107" height="79" viewBox="0 0 107 79" fill="none" xmlns="http://www.w3.org/2000/svg">
<g id="Group">
<path id="Vector" d="M100.47 27.0064C75.0812 32.0299 70.6007 54.5679 53.4936 74.2546C38.2873 91.6333 6.51697 53.0744 6.51697 27.0064C6.51697 0.938455 28.376 22.9333 47.1124 5.01158C66.1203 -12.7744 124.773 22.1187 100.47 27.0064Z" fill="#E4E0E0"/>
<path id="Vector_2" d="M38.9662 7.72687C38.9662 7.31956 38.9662 6.91225 39.102 6.64071C39.645 5.01146 40.867 3.92529 42.632 3.92529C43.3108 3.92529 43.9897 4.46838 44.2612 5.14723C44.397 5.55454 44.5328 5.96185 44.397 6.36916C44.2612 7.86264 43.1751 9.49189 41.6816 9.62766C40.4597 9.62766 38.9662 9.22035 38.9662 7.72687Z" fill="#888888"/>
<path id="Vector_3" d="M37.0654 7.72722C36.5223 6.23374 35.0288 5.14757 33.3996 5.14757C30.8199 5.14757 27.6972 8.67761 25.9322 10.8499C26.068 10.1711 26.068 9.49224 26.2037 8.81338C26.3395 7.72722 26.068 6.77682 25.6606 5.82643C25.5249 5.55489 25.2533 5.41912 25.1176 5.28335C24.3029 4.87603 23.4883 4.60449 22.6737 4.60449C21.7233 4.60449 20.9087 4.74026 20.094 5.14757C19.8225 5.28335 19.6867 5.41912 19.4152 5.69066V5.82643C18.0575 8.13453 17.5144 11.393 17.2429 14.1084C16.8355 18.4531 17.3786 22.7978 17.9217 24.5628C18.329 25.7847 20.094 26.0563 21.1802 26.0563C22.1306 26.0563 23.7598 25.7847 24.3029 24.8343C24.846 23.8839 25.1176 22.9335 25.3891 21.8474C26.611 23.0693 27.9687 24.2912 29.4622 25.2416C29.8695 25.5132 30.4126 25.6489 30.9557 25.6489C32.8565 25.6489 33.9427 23.8839 33.9427 22.1189C33.9427 19.9466 31.2272 17.6385 30.2768 16.8239C31.7703 16.0092 36.115 13.5654 37.2011 11.8003C37.4727 11.2573 37.6085 10.7142 37.7442 10.1711C37.6085 9.49224 37.4727 8.54184 37.0654 7.72722ZM36.7938 10.3069C36.6581 10.8499 36.5223 11.2573 36.2508 11.6646C35.4361 13.2938 30.9557 15.7377 29.598 16.4165L28.6476 16.9596L29.3264 17.5027C30.2768 18.1816 32.8565 20.3539 32.8565 22.3904C32.8565 23.7482 32.0419 25.2416 30.5484 25.2416C30.1411 25.2416 29.7338 25.1059 29.3264 24.8343C27.9687 23.8839 26.611 22.7978 25.3891 21.4401L24.846 20.897C24.7102 20.3539 24.4387 19.675 24.3029 18.9962C24.1672 19.8108 24.3029 20.6254 24.7102 21.3043L24.5745 21.7116C24.3029 22.7978 24.0314 23.7482 23.4883 24.6986C23.081 25.3774 21.7233 25.5132 21.0444 25.5132C20.3656 25.5132 18.6006 25.3774 18.329 24.427C17.7859 22.7978 17.3786 18.5889 17.6502 14.2442C17.9217 11.5288 18.329 8.67761 19.6867 6.23374C20.3656 5.41912 21.7233 5.28335 22.5379 5.28335C25.1176 5.28335 25.6606 6.50528 25.6606 8.81338C25.6606 10.0353 25.3891 11.2573 24.9818 12.3434L24.3029 14.38L25.7964 12.2076C27.0183 10.7142 30.8199 5.82643 33.3996 5.82643C34.7573 5.82643 35.9792 6.77682 36.5223 7.99876C36.7938 8.67761 36.9296 9.49224 36.7938 10.3069Z" fill="#2093B2"/>
<path id="Vector_4" d="M44.9401 12.0717C44.5328 10.8498 43.4466 9.89941 42.0889 9.89941C40.7312 9.89941 39.645 10.714 39.2377 12.0717C39.1019 12.4791 39.1019 12.8864 38.9662 13.4295C38.6946 15.7376 38.6946 17.9099 38.8304 20.218C38.9662 22.5261 39.2377 24.6984 39.9166 25.3773C40.4596 25.9204 41.2743 26.1919 41.9531 26.3277C42.632 26.3277 43.3108 26.0561 43.7181 25.513C45.0758 23.8838 45.2116 19.8107 45.2116 17.7741C45.3474 15.7376 45.2116 13.8368 44.9401 12.0717ZM44.2612 22.7976C43.9897 23.8838 43.4466 25.3773 42.0889 25.3773C41.41 25.3773 40.867 25.1057 40.4596 24.6984C39.9166 24.1553 39.645 22.2545 39.5092 20.0822C39.3735 17.5026 39.5092 14.7872 39.9166 12.2075C40.1881 11.2571 41.1385 10.5783 42.0889 10.5783C43.0393 10.5783 43.9897 11.2571 44.1254 12.2075C44.397 13.9725 44.5328 15.7376 44.5328 17.5026C44.6685 19.4034 44.5328 21.0326 44.2612 22.7976Z" fill="#2093B2"/>
<path id="Vector_5" d="M80.7836 13.5652C80.5121 10.8498 77.7967 9.89941 75.4886 9.89941C74.2666 9.89941 73.1805 10.171 72.0943 10.5783C71.0081 10.9856 70.0577 11.936 69.6504 13.0221C69.1073 14.5156 69.2431 15.466 69.7862 16.2806C70.465 17.0953 71.4154 17.7741 72.5016 18.0457C73.3162 18.3172 73.8593 18.8603 74.2666 19.5391C74.2666 19.6749 74.2666 19.8107 74.2666 19.8107C74.1308 19.9464 73.9951 20.0822 73.8593 20.0822C73.3162 19.9464 72.9089 19.8107 72.5016 19.5391C72.0943 19.4034 71.8227 19.1318 71.4154 18.996C71.2797 18.996 71.0081 18.8603 70.8724 18.8603C70.7366 18.8603 70.465 18.8603 70.3293 18.8603C69.1073 18.8603 68.2927 19.9464 67.8854 21.0326C67.7496 21.7115 67.7496 22.3903 67.8854 23.0692C68.5643 25.3773 71.5512 26.0561 73.7235 26.0561C75.6243 26.1919 77.5251 25.3773 78.8828 23.8838C80.6478 21.8472 80.9194 18.7245 79.4259 16.4164C80.3763 15.8733 80.7836 14.7872 80.7836 13.5652ZM78.4755 23.6122C77.2536 24.97 75.6243 25.6488 73.8593 25.513C71.9585 25.513 69.2431 24.97 68.5643 22.9334C68.4285 22.3903 68.4285 21.7115 68.5643 21.1684C68.8358 20.3538 69.5146 19.4034 70.465 19.4034C71.1439 19.5391 71.687 19.6749 72.2301 20.0822C72.7731 20.3538 73.3162 20.6253 73.8593 20.7611C74.2666 20.7611 74.8097 20.4895 74.9455 20.0822C75.217 18.996 73.8593 17.9099 72.7731 17.6383C71.8227 17.3668 70.8724 16.8237 70.3293 16.0091C69.7862 15.3302 69.7862 14.5156 70.1935 13.2937C71.0081 11.2571 73.5878 10.5783 75.4886 10.5783C77.5251 10.5783 79.969 11.3929 80.2405 13.701C80.2405 14.6514 79.8332 15.6018 79.0186 16.1449C78.3397 15.6018 77.6609 15.1945 76.7105 15.1945C77.3893 15.466 78.0682 15.8733 78.6113 16.4164L79.0186 16.9595C80.2405 18.996 79.969 21.7115 78.4755 23.6122Z" fill="#2093B2"/>
<path id="Vector_6" d="M62.4545 6.36963C58.7887 6.36963 58.2456 8.94927 58.1098 12.072C57.5667 11.2574 56.4806 10.5785 54.444 10.5785C51.7286 10.5785 49.149 12.072 47.927 14.5159C47.1124 15.8736 46.7051 17.5028 46.8409 18.9963C46.9766 22.3906 49.149 26.0564 52.9505 26.0564C54.8513 25.9206 56.7521 25.3775 58.3814 24.1556C59.0602 25.106 60.1464 25.7848 61.3683 25.9206C65.3057 25.9206 66.2561 18.0459 66.2561 14.9232C66.1203 12.4793 65.5772 6.36963 62.4545 6.36963ZM61.2325 25.2418C60.0106 25.2418 59.0602 24.1556 58.6529 23.7483C59.4675 22.9337 59.7391 21.8475 59.6033 20.6255C59.3318 21.7117 58.7887 22.7979 57.9741 23.4767C56.4806 24.5629 54.7156 25.2418 52.8148 25.2418C49.4205 25.2418 47.5197 21.8475 47.3839 18.8605C47.1124 14.7874 50.2351 11.3931 54.3082 11.1216C57.1594 11.1216 57.8383 12.7509 57.9741 13.7012V14.1086C57.9741 14.3801 58.2456 14.3801 58.3814 14.3801C58.5171 14.3801 58.6529 14.2443 58.6529 14.1086V13.837V13.4297C58.5171 10.8501 58.9244 9.08504 59.4675 8.13465C60.0106 7.04848 60.961 6.77694 62.3187 6.77694C64.8984 6.77694 65.3057 12.7509 65.3057 14.6516C65.4414 17.3671 64.7626 25.2418 61.2325 25.2418ZM55.1229 16.4167C54.8513 16.2809 54.5798 16.1451 54.3082 16.1451C52.9505 16.2809 51.8644 17.3671 51.8644 18.7248C52.0001 19.6752 52.9505 19.9467 53.7652 19.9467C54.7156 19.8109 55.5302 18.7248 55.5302 17.7744C55.5302 17.5028 55.5302 17.2313 55.3944 16.9597C55.5302 16.824 55.3944 16.5524 55.1229 16.4167ZM54.9871 17.7744C54.8513 18.4532 54.444 19.4036 53.7652 19.4036C53.4936 19.4036 53.3578 19.4036 53.0863 19.2678C52.8148 19.2678 52.679 18.9963 52.679 18.7248C52.679 18.589 52.679 18.4532 52.8148 18.1817C52.9505 17.3671 53.6294 16.824 54.444 16.824C54.7156 16.824 54.9871 16.9597 54.9871 17.2313C54.9871 17.5028 54.9871 17.6386 54.9871 17.7744Z" fill="#2093B2"/>
<path id="Vector_7" d="M37.0654 7.72722C36.5223 6.23374 35.0288 5.14757 33.3996 5.14757C30.8199 5.14757 27.6972 8.67761 25.9322 10.8499C26.068 10.1711 26.068 9.49224 26.2037 8.81338C26.3395 7.72722 26.068 6.77682 25.6606 5.82643C25.5249 5.55489 25.2533 5.41912 25.1176 5.28335C24.3029 4.87603 23.4883 4.60449 22.6737 4.60449C21.7233 4.60449 20.9087 4.74026 20.094 5.14757C19.8225 5.28335 19.6867 5.41912 19.4152 5.69066V5.82643C18.0575 8.13453 17.5144 11.393 17.2429 14.1084C16.8355 18.4531 17.3786 22.7978 17.9217 24.5628C18.329 25.7847 20.094 26.0563 21.1802 26.0563C22.1306 26.0563 23.7598 25.7847 24.3029 24.8343C24.846 23.8839 25.1176 22.9335 25.3891 21.8474C26.611 23.0693 27.9687 24.2912 29.4622 25.2416C29.8695 25.5132 30.4126 25.6489 30.9557 25.6489C32.8565 25.6489 33.9427 23.8839 33.9427 22.1189C33.9427 19.9466 31.2272 17.6385 30.2768 16.8239C31.7703 16.0092 36.115 13.5654 37.2011 11.8003C37.4727 11.2573 37.6085 10.7142 37.7442 10.1711C37.6085 9.49224 37.4727 8.54184 37.0654 7.72722ZM36.7938 10.3069C36.6581 10.8499 36.5223 11.2573 36.2508 11.6646C35.4361 13.2938 30.9557 15.7377 29.598 16.4165L28.6476 16.9596L29.3264 17.5027C30.2768 18.1816 32.8565 20.3539 32.8565 22.3904C32.8565 23.7482 32.0419 25.2416 30.5484 25.2416C30.1411 25.2416 29.7338 25.1059 29.3264 24.8343C27.9687 23.8839 26.611 22.7978 25.3891 21.4401L24.846 20.897C24.7102 20.3539 24.4387 19.675 24.3029 18.9962C24.1672 19.8108 24.3029 20.6254 24.7102 21.3043L24.5745 21.7116C24.3029 22.7978 24.0314 23.7482 23.4883 24.6986C23.081 25.3774 21.7233 25.5132 21.0444 25.5132C20.3656 25.5132 18.6006 25.3774 18.329 24.427C17.7859 22.7978 17.3786 18.5889 17.6502 14.2442C17.9217 11.5288 18.329 8.67761 19.6867 6.23374C20.3656 5.41912 21.7233 5.28335 22.5379 5.28335C25.1176 5.28335 25.6606 6.50528 25.6606 8.81338C25.6606 10.0353 25.3891 11.2573 24.9818 12.3434L24.3029 14.38L25.7964 12.2076C27.0183 10.7142 30.8199 5.82643 33.3996 5.82643C34.7573 5.82643 35.9792 6.77682 36.5223 7.99876C36.7938 8.67761 36.9296 9.49224 36.7938 10.3069Z" fill="black"/>
<path id="Vector_8" d="M36.7938 10.3062C36.658 10.8493 36.5223 11.2566 36.2507 11.6639C35.4361 13.2932 30.9557 15.7371 29.598 16.4159L28.6476 16.959L29.3264 17.5021C30.2768 18.1809 32.8565 20.3533 32.8565 22.3898C32.8565 23.7475 32.0418 25.241 30.5484 25.241C30.1411 25.241 29.7337 25.1052 29.3264 24.8337C27.9687 23.8833 26.611 22.7971 25.3891 21.4394L24.846 20.8963C24.7102 20.3533 24.4387 19.6744 24.3029 18.9956C24.1671 19.8102 24.3029 20.6248 24.7102 21.3037L24.5745 21.711C24.3029 22.7971 24.0314 23.7475 23.4883 24.6979C23.081 25.3768 21.7233 25.5125 21.0444 25.5125C20.3656 25.5125 18.6005 25.3768 18.329 24.4264C17.7859 22.7971 17.3786 18.5882 17.6502 14.2436C17.9217 11.5282 18.329 8.67698 19.6867 6.23311C20.3656 5.41849 21.7233 5.28271 22.5379 5.28271C25.1175 5.28271 25.6606 6.50465 25.6606 8.81275C25.6606 10.0347 25.3891 11.2566 24.9818 12.3428L24.3029 14.3793L25.7964 12.207C27.0183 10.7135 30.8199 5.8258 33.3995 5.8258C34.7573 5.8258 35.9792 6.77619 36.5223 7.99813C36.7938 8.67698 36.9296 9.4916 36.7938 10.3062Z" fill="#888888"/>
<path id="Vector_9" d="M44.9401 12.0715C44.5328 10.8496 43.4466 9.8992 42.0889 9.8992C40.7312 9.8992 39.645 10.7138 39.2377 12.0715C39.1019 12.4788 39.1019 12.8862 38.9662 13.4292C38.6946 15.7373 38.6946 17.9097 38.8304 20.2178C38.9662 22.5259 39.2377 24.6982 39.9166 25.3771C40.4596 25.9201 41.2743 26.1917 41.9531 26.3275C42.632 26.3275 43.3108 26.0559 43.7181 25.5128C45.0758 23.8836 45.2116 19.8105 45.2116 17.7739C45.3474 15.7373 45.2116 13.8366 44.9401 12.0715ZM44.2612 22.7974C43.9897 23.8836 43.4466 25.3771 42.0889 25.3771C41.41 25.3771 40.867 25.1055 40.4596 24.6982C39.9166 24.1551 39.645 22.2543 39.5092 20.082C39.3735 17.5024 39.5092 14.7869 39.9166 12.2073C40.1881 11.2569 41.1385 10.5781 42.0889 10.5781C43.0393 10.5781 43.9897 11.2569 44.1254 12.2073C44.397 13.9723 44.5328 15.7373 44.5328 17.5024C44.6685 19.4031 44.5328 21.0324 44.2612 22.7974ZM44.2612 5.14723C43.9897 4.46838 43.3108 4.06106 42.632 3.92529C41.0027 3.92529 39.7808 5.14723 39.1019 6.64071C38.9662 7.04802 38.8304 7.31956 38.9662 7.72687C39.1019 9.22035 40.4596 9.49189 41.6816 9.49189C43.1751 9.35612 44.2612 7.72687 44.397 6.23339C44.397 5.96185 44.397 5.55454 44.2612 5.14723ZM43.7181 6.23339C43.5824 7.18379 42.7677 8.81304 41.6816 8.81304C41.0027 8.81304 40.3239 8.67727 39.9166 8.26995C39.7808 8.13418 39.645 7.86264 39.645 7.72687C39.645 7.45533 39.645 7.18379 39.7808 6.91225C40.1881 5.69031 41.2743 4.60415 42.4962 4.60415C42.9035 4.60415 43.3108 4.87569 43.5824 5.283C43.7181 5.69031 43.7181 5.96185 43.7181 6.23339Z" fill="black"/>
<path id="Vector_10" d="M44.2613 22.797C43.9897 23.8832 43.4466 25.3766 42.0889 25.3766C41.4101 25.3766 40.867 25.1051 40.4597 24.6978C39.9166 24.1547 39.6451 22.2539 39.5093 20.0816C39.3735 17.5019 39.5093 14.7865 39.9166 12.2069C40.1881 11.2565 41.1385 10.5776 42.0889 10.5776C43.0393 10.5776 43.9897 11.2565 44.1255 12.2069C44.397 13.9719 44.5328 15.7369 44.5328 17.5019C44.6686 19.4027 44.5328 21.032 44.2613 22.797Z" fill="#888888"/>
<path id="Vector_11" d="M55.5302 17.0955C55.3944 16.824 55.2586 16.6882 55.1229 16.5524C54.8513 16.4167 54.5798 16.2809 54.3082 16.2809C52.9505 16.4167 51.8644 17.5028 51.8644 18.8605C52.0001 19.8109 52.9505 20.0825 53.7652 20.0825C54.7156 19.9467 55.5302 18.8605 55.5302 17.9101C55.6659 17.6386 55.6659 17.2313 55.5302 17.0955ZM54.9871 17.7744C54.8513 18.4532 54.444 19.4036 53.7652 19.4036C53.4936 19.4036 53.3578 19.4036 53.0863 19.2678C52.8148 19.2678 52.679 18.9963 52.679 18.7248C52.679 18.589 52.679 18.4532 52.8148 18.1817C52.9505 17.3671 53.6294 16.824 54.444 16.824C54.7156 16.824 54.9871 16.9597 54.9871 17.2313C54.9871 17.5028 54.9871 17.6386 54.9871 17.7744ZM55.5302 17.0955C55.3944 16.824 55.2586 16.6882 55.1229 16.5524C54.8513 16.4167 54.5798 16.2809 54.3082 16.2809C52.9505 16.4167 51.8644 17.5028 51.8644 18.8605C52.0001 19.8109 52.9505 20.0825 53.7652 20.0825C54.7156 19.9467 55.5302 18.8605 55.5302 17.9101C55.6659 17.6386 55.6659 17.2313 55.5302 17.0955ZM54.9871 17.7744C54.8513 18.4532 54.444 19.4036 53.7652 19.4036C53.4936 19.4036 53.3578 19.4036 53.0863 19.2678C52.8148 19.2678 52.679 18.9963 52.679 18.7248C52.679 18.589 52.679 18.4532 52.8148 18.1817C52.9505 17.3671 53.6294 16.824 54.444 16.824C54.7156 16.824 54.9871 16.9597 54.9871 17.2313C54.9871 17.5028 54.9871 17.6386 54.9871 17.7744ZM55.5302 17.0955C55.3944 16.824 55.2586 16.6882 55.1229 16.5524C54.8513 16.4167 54.5798 16.2809 54.3082 16.2809C52.9505 16.4167 51.8644 17.5028 51.8644 18.8605C52.0001 19.8109 52.9505 20.0825 53.7652 20.0825C54.7156 19.9467 55.5302 18.8605 55.5302 17.9101C55.6659 17.6386 55.6659 17.2313 55.5302 17.0955ZM54.9871 17.7744C54.8513 18.4532 54.444 19.4036 53.7652 19.4036C53.4936 19.4036 53.3578 19.4036 53.0863 19.2678C52.8148 19.2678 52.679 18.9963 52.679 18.7248C52.679 18.589 52.679 18.4532 52.8148 18.1817C52.9505 17.3671 53.6294 16.824 54.444 16.824C54.7156 16.824 54.9871 16.9597 54.9871 17.2313C54.9871 17.5028 54.9871 17.6386 54.9871 17.7744ZM55.5302 17.0955C55.3944 16.824 55.2586 16.6882 55.1229 16.5524C54.8513 16.4167 54.5798 16.2809 54.3082 16.2809C52.9505 16.4167 51.8644 17.5028 51.8644 18.8605C52.0001 19.8109 52.9505 20.0825 53.7652 20.0825C54.7156 19.9467 55.5302 18.8605 55.5302 17.9101C55.6659 17.6386 55.6659 17.2313 55.5302 17.0955ZM54.9871 17.7744C54.8513 18.4532 54.444 19.4036 53.7652 19.4036C53.4936 19.4036 53.3578 19.4036 53.0863 19.2678C52.8148 19.2678 52.679 18.9963 52.679 18.7248C52.679 18.589 52.679 18.4532 52.8148 18.1817C52.9505 17.3671 53.6294 16.824 54.444 16.824C54.7156 16.824 54.9871 16.9597 54.9871 17.2313C54.9871 17.5028 54.9871 17.6386 54.9871 17.7744ZM55.5302 17.0955C55.3944 16.824 55.2586 16.6882 55.1229 16.5524C54.8513 16.4167 54.5798 16.2809 54.3082 16.2809C52.9505 16.4167 51.8644 17.5028 51.8644 18.8605C52.0001 19.8109 52.9505 20.0825 53.7652 20.0825C54.7156 19.9467 55.5302 18.8605 55.5302 17.9101C55.6659 17.6386 55.6659 17.2313 55.5302 17.0955ZM54.9871 17.7744C54.8513 18.4532 54.444 19.4036 53.7652 19.4036C53.4936 19.4036 53.3578 19.4036 53.0863 19.2678C52.8148 19.2678 52.679 18.9963 52.679 18.7248C52.679 18.589 52.679 18.4532 52.8148 18.1817C52.9505 17.3671 53.6294 16.824 54.444 16.824C54.7156 16.824 54.9871 16.9597 54.9871 17.2313C54.9871 17.5028 54.9871 17.6386 54.9871 17.7744ZM55.5302 17.0955C55.3944 16.824 55.2586 16.6882 55.1229 16.5524C54.8513 16.4167 54.5798 16.2809 54.3082 16.2809C52.9505 16.4167 51.8644 17.5028 51.8644 18.8605C52.0001 19.8109 52.9505 20.0825 53.7652 20.0825C54.7156 19.9467 55.5302 18.8605 55.5302 17.9101C55.6659 17.6386 55.6659 17.2313 55.5302 17.0955ZM54.9871 17.7744C54.8513 18.4532 54.444 19.4036 53.7652 19.4036C53.4936 19.4036 53.3578 19.4036 53.0863 19.2678C52.8148 19.2678 52.679 18.9963 52.679 18.7248C52.679 18.589 52.679 18.4532 52.8148 18.1817C52.9505 17.3671 53.6294 16.824 54.444 16.824C54.7156 16.824 54.9871 16.9597 54.9871 17.2313C54.9871 17.5028 54.9871 17.6386 54.9871 17.7744ZM55.5302 17.0955C55.3944 16.824 55.2586 16.6882 55.1229 16.5524C54.8513 16.4167 54.5798 16.2809 54.3082 16.2809C52.9505 16.4167 51.8644 17.5028 51.8644 18.8605C52.0001 19.8109 52.9505 20.0825 53.7652 20.0825C54.7156 19.9467 55.5302 18.8605 55.5302 17.9101C55.6659 17.6386 55.6659 17.2313 55.5302 17.0955ZM54.9871 17.7744C54.8513 18.4532 54.444 19.4036 53.7652 19.4036C53.4936 19.4036 53.3578 19.4036 53.0863 19.2678C52.8148 19.2678 52.679 18.9963 52.679 18.7248C52.679 18.589 52.679 18.4532 52.8148 18.1817C52.9505 17.3671 53.6294 16.824 54.444 16.824C54.7156 16.824 54.9871 16.9597 54.9871 17.2313C54.9871 17.5028 54.9871 17.6386 54.9871 17.7744ZM55.5302 17.0955C55.3944 16.824 55.2586 16.6882 55.1229 16.5524C54.8513 16.4167 54.5798 16.2809 54.3082 16.2809C52.9505 16.4167 51.8644 17.5028 51.8644 18.8605C52.0001 19.8109 52.9505 20.0825 53.7652 20.0825C54.7156 19.9467 55.5302 18.8605 55.5302 17.9101C55.6659 17.6386 55.6659 17.2313 55.5302 17.0955ZM54.9871 17.7744C54.8513 18.4532 54.444 19.4036 53.7652 19.4036C53.4936 19.4036 53.3578 19.4036 53.0863 19.2678C52.8148 19.2678 52.679 18.9963 52.679 18.7248C52.679 18.589 52.679 18.4532 52.8148 18.1817C52.9505 17.3671 53.6294 16.824 54.444 16.824C54.7156 16.824 54.9871 16.9597 54.9871 17.2313C54.9871 17.5028 54.9871 17.6386 54.9871 17.7744ZM62.4545 6.36963C58.7887 6.36963 58.2456 8.94927 58.1098 12.072C57.5667 11.2574 56.4806 10.5785 54.444 10.5785C51.7286 10.5785 49.149 12.072 47.927 14.5159C47.1124 15.8736 46.7051 17.5028 46.8409 18.9963C46.9766 22.3906 49.149 26.0564 52.9505 26.0564C54.8513 25.9206 56.7521 25.3775 58.3814 24.1556C59.0602 25.106 60.1464 25.7848 61.3683 25.9206C65.3057 25.9206 66.2561 18.0459 66.2561 14.9232C66.1203 12.4793 65.5772 6.36963 62.4545 6.36963ZM61.2325 25.2418C60.0106 25.2418 59.0602 24.1556 58.6529 23.7483C59.4675 22.9337 59.7391 21.8475 59.6033 20.6255C59.3318 21.7117 58.7887 22.7979 57.9741 23.4767C56.4806 24.5629 54.7156 25.2418 52.8148 25.2418C49.4205 25.2418 47.5197 21.8475 47.3839 18.7248C47.1124 14.6516 50.2351 11.2574 54.3082 10.9858C57.1594 10.9858 57.8383 12.6151 57.9741 13.5655V13.9728C57.9741 14.2443 58.2456 14.2443 58.3814 14.2443C58.5171 14.2443 58.6529 14.1086 58.6529 13.9728V13.7012V13.2939C58.5171 10.7143 58.9244 8.94927 59.4675 7.99888C60.0106 6.91271 60.961 6.64117 62.3187 6.64117C64.8984 6.64117 65.3057 12.6151 65.3057 14.5159C65.4414 17.3671 64.7626 25.2418 61.2325 25.2418ZM55.1229 16.4167C54.8513 16.2809 54.5798 16.1451 54.3082 16.1451C52.9505 16.2809 51.8644 17.3671 51.8644 18.7248C52.0001 19.6752 52.9505 19.9467 53.7652 19.9467C54.7156 19.8109 55.5302 18.7248 55.5302 17.7744C55.5302 17.5028 55.5302 17.2313 55.3944 16.9597C55.5302 16.824 55.3944 16.5524 55.1229 16.4167ZM54.9871 17.7744C54.8513 18.4532 54.444 19.4036 53.7652 19.4036C53.4936 19.4036 53.3578 19.4036 53.0863 19.2678C52.8148 19.2678 52.679 18.9963 52.679 18.7248C52.679 18.589 52.679 18.4532 52.8148 18.1817C52.9505 17.3671 53.6294 16.824 54.444 16.824C54.7156 16.824 54.9871 16.9597 54.9871 17.2313C54.9871 17.5028 54.9871 17.6386 54.9871 17.7744ZM55.5302 17.0955C55.3944 16.824 55.2586 16.6882 55.1229 16.5524C54.8513 16.4167 54.5798 16.2809 54.3082 16.2809C52.9505 16.4167 51.8644 17.5028 51.8644 18.8605C52.0001 19.8109 52.9505 20.0825 53.7652 20.0825C54.7156 19.9467 55.5302 18.8605 55.5302 17.9101C55.6659 17.6386 55.6659 17.2313 55.5302 17.0955ZM54.9871 17.7744C54.8513 18.4532 54.444 19.4036 53.7652 19.4036C53.4936 19.4036 53.3578 19.4036 53.0863 19.2678C52.8148 19.2678 52.679 18.9963 52.679 18.7248C52.679 18.589 52.679 18.4532 52.8148 18.1817C52.9505 17.3671 53.6294 16.824 54.444 16.824C54.7156 16.824 54.9871 16.9597 54.9871 17.2313C54.9871 17.5028 54.9871 17.6386 54.9871 17.7744ZM55.5302 17.0955C55.3944 16.824 55.2586 16.6882 55.1229 16.5524C54.8513 16.4167 54.5798 16.2809 54.3082 16.2809C52.9505 16.4167 51.8644 17.5028 51.8644 18.8605C52.0001 19.8109 52.9505 20.0825 53.7652 20.0825C54.7156 19.9467 55.5302 18.8605 55.5302 17.9101C55.6659 17.6386 55.6659 17.2313 55.5302 17.0955ZM54.9871 17.7744C54.8513 18.4532 54.444 19.4036 53.7652 19.4036C53.4936 19.4036 53.3578 19.4036 53.0863 19.2678C52.8148 19.2678 52.679 18.9963 52.679 18.7248C52.679 18.589 52.679 18.4532 52.8148 18.1817C52.9505 17.3671 53.6294 16.824 54.444 16.824C54.7156 16.824 54.9871 16.9597 54.9871 17.2313C54.9871 17.5028 54.9871 17.6386 54.9871 17.7744ZM55.5302 17.0955C55.3944 16.824 55.2586 16.6882 55.1229 16.5524C54.8513 16.4167 54.5798 16.2809 54.3082 16.2809C52.9505 16.4167 51.8644 17.5028 51.8644 18.8605C52.0001 19.8109 52.9505 20.0825 53.7652 20.0825C54.7156 19.9467 55.5302 18.8605 55.5302 17.9101C55.6659 17.6386 55.6659 17.2313 55.5302 17.0955ZM54.9871 17.7744C54.8513 18.4532 54.444 19.4036 53.7652 19.4036C53.4936 19.4036 53.3578 19.4036 53.0863 19.2678C52.8148 19.2678 52.679 18.9963 52.679 18.7248C52.679 18.589 52.679 18.4532 52.8148 18.1817C52.9505 17.3671 53.6294 16.824 54.444 16.824C54.7156 16.824 54.9871 16.9597 54.9871 17.2313C54.9871 17.5028 54.9871 17.6386 54.9871 17.7744ZM55.5302 17.0955C55.3944 16.824 55.2586 16.6882 55.1229 16.5524C54.8513 16.4167 54.5798 16.2809 54.3082 16.2809C52.9505 16.4167 51.8644 17.5028 51.8644 18.8605C52.0001 19.8109 52.9505 20.0825 53.7652 20.0825C54.7156 19.9467 55.5302 18.8605 55.5302 17.9101C55.6659 17.6386 55.6659 17.2313 55.5302 17.0955ZM54.9871 17.7744C54.8513 18.4532 54.444 19.4036 53.7652 19.4036C53.4936 19.4036 53.3578 19.4036 53.0863 19.2678C52.8148 19.2678 52.679 18.9963 52.679 18.7248C52.679 18.589 52.679 18.4532 52.8148 18.1817C52.9505 17.3671 53.6294 16.824 54.444 16.824C54.7156 16.824 54.9871 16.9597 54.9871 17.2313C54.9871 17.5028 54.9871 17.6386 54.9871 17.7744ZM55.5302 17.0955C55.3944 16.824 55.2586 16.6882 55.1229 16.5524C54.8513 16.4167 54.5798 16.2809 54.3082 16.2809C52.9505 16.4167 51.8644 17.5028 51.8644 18.8605C52.0001 19.8109 52.9505 20.0825 53.7652 20.0825C54.7156 19.9467 55.5302 18.8605 55.5302 17.9101C55.6659 17.6386 55.6659 17.2313 55.5302 17.0955ZM54.9871 17.7744C54.8513 18.4532 54.444 19.4036 53.7652 19.4036C53.4936 19.4036 53.3578 19.4036 53.0863 19.2678C52.8148 19.2678 52.679 18.9963 52.679 18.7248C52.679 18.589 52.679 18.4532 52.8148 18.1817C52.9505 17.3671 53.6294 16.824 54.444 16.824C54.7156 16.824 54.9871 16.9597 54.9871 17.2313C54.9871 17.5028 54.9871 17.6386 54.9871 17.7744ZM55.5302 17.0955C55.3944 16.824 55.2586 16.6882 55.1229 16.5524C54.8513 16.4167 54.5798 16.2809 54.3082 16.2809C52.9505 16.4167 51.8644 17.5028 51.8644 18.8605C52.0001 19.8109 52.9505 20.0825 53.7652 20.0825C54.7156 19.9467 55.5302 18.8605 55.5302 17.9101C55.6659 17.6386 55.6659 17.2313 55.5302 17.0955ZM54.9871 17.7744C54.8513 18.4532 54.444 19.4036 53.7652 19.4036C53.4936 19.4036 53.3578 19.4036 53.0863 19.2678C52.8148 19.2678 52.679 18.9963 52.679 18.7248C52.679 18.589 52.679 18.4532 52.8148 18.1817C52.9505 17.3671 53.6294 16.824 54.444 16.824C54.7156 16.824 54.9871 16.9597 54.9871 17.2313C54.9871 17.5028 54.9871 17.6386 54.9871 17.7744ZM55.5302 17.0955C55.3944 16.824 55.2586 16.6882 55.1229 16.5524C54.8513 16.4167 54.5798 16.2809 54.3082 16.2809C52.9505 16.4167 51.8644 17.5028 51.8644 18.8605C52.0001 19.8109 52.9505 20.0825 53.7652 20.0825C54.7156 19.9467 55.5302 18.8605 55.5302 17.9101C55.6659 17.6386 55.6659 17.2313 55.5302 17.0955ZM54.9871 17.7744C54.8513 18.4532 54.444 19.4036 53.7652 19.4036C53.4936 19.4036 53.3578 19.4036 53.0863 19.2678C52.8148 19.2678 52.679 18.9963 52.679 18.7248C52.679 18.589 52.679 18.4532 52.8148 18.1817C52.9505 17.3671 53.6294 16.824 54.444 16.824C54.7156 16.824 54.9871 16.9597 54.9871 17.2313C54.9871 17.5028 54.9871 17.6386 54.9871 17.7744ZM55.5302 17.0955C55.3944 16.824 55.2586 16.6882 55.1229 16.5524C54.8513 16.4167 54.5798 16.2809 54.3082 16.2809C52.9505 16.4167 51.8644 17.5028 51.8644 18.8605C52.0001 19.8109 52.9505 20.0825 53.7652 20.0825C54.7156 19.9467 55.5302 18.8605 55.5302 17.9101C55.6659 17.6386 55.6659 17.2313 55.5302 17.0955ZM54.9871 17.7744C54.8513 18.4532 54.444 19.4036 53.7652 19.4036C53.4936 19.4036 53.3578 19.4036 53.0863 19.2678C52.8148 19.2678 52.679 18.9963 52.679 18.7248C52.679 18.589 52.679 18.4532 52.8148 18.1817C52.9505 17.3671 53.6294 16.824 54.444 16.824C54.7156 16.824 54.9871 16.9597 54.9871 17.2313C54.9871 17.5028 54.9871 17.6386 54.9871 17.7744Z" fill="black"/>
<path id="Vector_12" d="M62.4545 7.04834C61.0968 7.04834 60.1464 7.31988 59.6033 8.40605C59.0602 9.49221 58.6529 11.1215 58.7887 13.7011V14.1084V14.38C58.7887 14.5157 58.6529 14.6515 58.5171 14.6515C58.3813 14.6515 58.1098 14.5157 58.1098 14.38V13.9726C57.974 13.0223 57.2952 11.393 54.444 11.393C50.3709 11.6645 47.2481 15.0588 47.5197 19.1319C47.6555 22.2547 49.5562 25.6489 52.9505 25.6489C54.8513 25.5132 56.6163 24.9701 58.1098 23.8839C58.9244 23.0693 59.4675 22.1189 59.739 21.0327C59.8748 22.1189 59.6033 23.205 58.7887 24.1554C59.196 24.5628 60.0106 25.6489 61.3683 25.6489C64.7626 25.6489 65.5772 17.7742 65.5772 15.3304C65.4414 13.0223 65.0341 7.04834 62.4545 7.04834ZM55.6659 17.91C55.5302 18.8604 54.8513 20.0823 53.9009 20.0823C53.0863 20.0823 52.1359 19.8108 52.0001 18.8604C52.0001 17.5027 53.0863 16.2807 54.444 16.2807C54.7155 16.2807 54.9871 16.4165 55.2586 16.5523C55.3944 16.6881 55.5302 16.9596 55.6659 17.0954C55.6659 17.3669 55.6659 17.6385 55.6659 17.91Z" fill="#888888"/>
<path id="Vector_13" d="M80.7836 13.5652C80.5121 10.8498 77.7967 9.89941 75.4886 9.89941C74.2666 9.89941 73.1805 10.171 72.0943 10.5783C71.0081 10.9856 70.0577 11.936 69.6504 13.0221C69.1073 14.5156 69.2431 15.466 69.7862 16.2806C70.465 17.0953 71.4154 17.7741 72.5016 18.0457C73.3162 18.3172 73.8593 18.8603 74.2666 19.5391C74.2666 19.6749 74.2666 19.8107 74.2666 19.8107C74.1308 19.9464 73.9951 20.0822 73.8593 20.0822C73.3162 19.9464 72.9089 19.8107 72.5016 19.5391C72.0943 19.4034 71.8227 19.1318 71.4154 18.996C71.2797 18.996 71.0081 18.8603 70.8724 18.8603C70.7366 18.8603 70.465 18.8603 70.3293 18.8603C69.1073 18.8603 68.2927 19.9464 67.8854 21.0326C67.7496 21.7115 67.7496 22.3903 67.8854 23.0692C68.5643 25.3773 71.5512 26.0561 73.7235 26.0561C75.6243 26.1919 77.5251 25.3773 78.8828 23.8838C80.6478 21.8472 80.9194 18.7245 79.4259 16.4164C80.3763 15.8733 80.7836 14.7872 80.7836 13.5652ZM78.4755 23.6122C77.2536 24.97 75.6243 25.6488 73.8593 25.513C71.9585 25.513 69.2431 24.97 68.5643 22.9334C68.4285 22.3903 68.4285 21.7115 68.5643 21.1684C68.8358 20.3538 69.5146 19.4034 70.465 19.4034C71.1439 19.5391 71.687 19.6749 72.2301 20.0822C72.7731 20.3538 73.3162 20.6253 73.8593 20.7611C74.2666 20.7611 74.8097 20.4895 74.9455 20.0822C75.217 18.996 73.8593 17.9099 72.7731 17.6383C71.8227 17.3668 70.8724 16.8237 70.3293 16.0091C69.7862 15.3302 69.7862 14.5156 70.1935 13.2937C71.0081 11.2571 73.5878 10.5783 75.4886 10.5783C77.5251 10.5783 79.969 11.3929 80.2405 13.701C80.2405 14.6514 79.8332 15.6018 79.0186 16.1449C78.3397 15.6018 77.6609 15.1945 76.7105 15.1945C77.3893 15.466 78.0682 15.8733 78.6113 16.4164L79.0186 16.9595C80.2405 18.996 79.969 21.7115 78.4755 23.6122Z" fill="black"/>
<path id="Vector_14" d="M79.0185 16.9588C80.6477 19.6742 79.8331 23.2043 77.1177 24.8335C76.1673 25.5124 74.9454 25.7839 73.7234 25.6482C71.8226 25.6482 69.1072 25.1051 68.4284 23.0685C68.2926 22.5254 68.2926 21.8466 68.4284 21.3035C68.6999 20.4889 69.3788 19.5385 70.3292 19.5385C71.008 19.6742 71.5511 19.81 72.0942 20.2173C72.6373 20.4889 73.1803 20.7604 73.7234 20.8962C74.1307 20.8962 74.6738 20.6246 74.8096 20.2173C75.0811 19.1312 73.7234 18.045 72.6373 17.7735C71.6869 17.5019 70.7365 16.9588 70.1934 16.1442C69.6503 15.4654 69.6503 14.6507 70.0576 13.4288C70.8722 11.3922 73.4519 10.7134 75.3527 10.7134C77.3892 10.7134 79.8331 11.528 80.1046 13.8361C80.1046 14.7865 79.6973 15.7369 78.8827 16.28C78.2039 15.7369 77.525 15.3296 76.5746 15.3296C77.2535 15.6011 77.9323 16.0084 78.4754 16.5515L79.0185 16.9588Z" fill="#888888"/>
<path id="Vector_15" d="M13.3055 41.9412C13.1698 41.2624 12.6267 40.7193 11.812 40.7193C10.9974 40.7193 10.1828 41.3981 10.1828 42.3485C10.1828 42.4843 10.1828 42.7558 10.1828 43.0274C10.3186 43.7062 10.9974 44.1136 11.6763 44.1136C11.9478 44.1136 12.2194 43.9778 12.4909 43.842C12.7624 43.7062 12.8982 43.5705 13.034 43.2989C13.3055 42.8916 13.4413 42.4843 13.3055 41.9412ZM12.4909 42.8916C12.3551 43.1632 11.9478 43.2989 11.6763 43.4347C11.269 43.4347 10.8617 43.1632 10.8617 42.7558V42.4843C10.8617 41.9412 11.269 41.5339 11.812 41.5339C12.2194 41.5339 12.4909 41.8055 12.6267 42.2128C12.6267 42.3485 12.6267 42.6201 12.4909 42.8916ZM13.3055 41.9412C13.1698 41.2624 12.6267 40.7193 11.812 40.7193C10.9974 40.7193 10.1828 41.3981 10.1828 42.3485C10.1828 42.4843 10.1828 42.7558 10.1828 43.0274C10.3186 43.7062 10.9974 44.1136 11.6763 44.1136C11.9478 44.1136 12.2194 43.9778 12.4909 43.842C12.7624 43.7062 12.8982 43.5705 13.034 43.2989C13.3055 42.8916 13.4413 42.4843 13.3055 41.9412ZM12.4909 42.8916C12.3551 43.1632 11.9478 43.2989 11.6763 43.4347C11.269 43.4347 10.8617 43.1632 10.8617 42.7558V42.4843C10.8617 41.9412 11.269 41.5339 11.812 41.5339C12.2194 41.5339 12.4909 41.8055 12.6267 42.2128C12.6267 42.3485 12.6267 42.6201 12.4909 42.8916ZM13.3055 41.9412C13.1698 41.2624 12.6267 40.7193 11.812 40.7193C10.9974 40.7193 10.1828 41.3981 10.1828 42.3485C10.1828 42.4843 10.1828 42.7558 10.1828 43.0274C10.3186 43.7062 10.9974 44.1136 11.6763 44.1136C11.9478 44.1136 12.2194 43.9778 12.4909 43.842C12.7624 43.7062 12.8982 43.5705 13.034 43.2989C13.3055 42.8916 13.4413 42.4843 13.3055 41.9412ZM12.4909 42.8916C12.3551 43.1632 11.9478 43.2989 11.6763 43.4347C11.269 43.4347 10.8617 43.1632 10.8617 42.7558V42.4843C10.8617 41.9412 11.269 41.5339 11.812 41.5339C12.2194 41.5339 12.4909 41.8055 12.6267 42.2128C12.6267 42.3485 12.6267 42.6201 12.4909 42.8916ZM13.3055 41.9412C13.1698 41.2624 12.6267 40.7193 11.812 40.7193C10.9974 40.7193 10.1828 41.3981 10.1828 42.3485C10.1828 42.4843 10.1828 42.7558 10.1828 43.0274C10.3186 43.7062 10.9974 44.1136 11.6763 44.1136C11.9478 44.1136 12.2194 43.9778 12.4909 43.842C12.7624 43.7062 12.8982 43.5705 13.034 43.2989C13.3055 42.8916 13.4413 42.4843 13.3055 41.9412ZM12.4909 42.8916C12.3551 43.1632 11.9478 43.2989 11.6763 43.4347C11.269 43.4347 10.8617 43.1632 10.8617 42.7558V42.4843C10.8617 41.9412 11.269 41.5339 11.812 41.5339C12.2194 41.5339 12.4909 41.8055 12.6267 42.2128C12.6267 42.3485 12.6267 42.6201 12.4909 42.8916ZM13.3055 41.9412C13.1698 41.2624 12.6267 40.7193 11.812 40.7193C10.9974 40.7193 10.1828 41.3981 10.1828 42.3485C10.1828 42.4843 10.1828 42.7558 10.1828 43.0274C10.3186 43.7062 10.9974 44.1136 11.6763 44.1136C11.9478 44.1136 12.2194 43.9778 12.4909 43.842C12.7624 43.7062 12.8982 43.5705 13.034 43.2989C13.3055 42.8916 13.4413 42.4843 13.3055 41.9412ZM12.4909 42.8916C12.3551 43.1632 11.9478 43.2989 11.6763 43.4347C11.269 43.4347 10.8617 43.1632 10.8617 42.7558V42.4843C10.8617 41.9412 11.269 41.5339 11.812 41.5339C12.2194 41.5339 12.4909 41.8055 12.6267 42.2128C12.6267 42.3485 12.6267 42.6201 12.4909 42.8916ZM13.3055 41.9412C13.1698 41.2624 12.6267 40.7193 11.812 40.7193C10.9974 40.7193 10.1828 41.3981 10.1828 42.3485C10.1828 42.4843 10.1828 42.7558 10.1828 43.0274C10.3186 43.7062 10.9974 44.1136 11.6763 44.1136C11.9478 44.1136 12.2194 43.9778 12.4909 43.842C12.7624 43.7062 12.8982 43.5705 13.034 43.2989C13.3055 42.8916 13.4413 42.4843 13.3055 41.9412ZM12.4909 42.8916C12.3551 43.1632 11.9478 43.2989 11.6763 43.4347C11.269 43.4347 10.8617 43.1632 10.8617 42.7558V42.4843C10.8617 41.9412 11.269 41.5339 11.812 41.5339C12.2194 41.5339 12.4909 41.8055 12.6267 42.2128C12.6267 42.3485 12.6267 42.6201 12.4909 42.8916ZM13.3055 41.9412C13.1698 41.2624 12.6267 40.7193 11.812 40.7193C10.9974 40.7193 10.1828 41.3981 10.1828 42.3485C10.1828 42.4843 10.1828 42.7558 10.1828 43.0274C10.3186 43.7062 10.9974 44.1136 11.6763 44.1136C11.9478 44.1136 12.2194 43.9778 12.4909 43.842C12.7624 43.7062 12.8982 43.5705 13.034 43.2989C13.3055 42.8916 13.4413 42.4843 13.3055 41.9412ZM12.4909 42.8916C12.3551 43.1632 11.9478 43.2989 11.6763 43.4347C11.269 43.4347 10.8617 43.1632 10.8617 42.7558V42.4843C10.8617 41.9412 11.269 41.5339 11.812 41.5339C12.2194 41.5339 12.4909 41.8055 12.6267 42.2128C12.6267 42.3485 12.6267 42.6201 12.4909 42.8916ZM13.3055 41.9412C13.1698 41.2624 12.6267 40.7193 11.812 40.7193C10.9974 40.7193 10.1828 41.3981 10.1828 42.3485C10.1828 42.4843 10.1828 42.7558 10.1828 43.0274C10.3186 43.7062 10.9974 44.1136 11.6763 44.1136C11.9478 44.1136 12.2194 43.9778 12.4909 43.842C12.7624 43.7062 12.8982 43.5705 13.034 43.2989C13.3055 42.8916 13.4413 42.4843 13.3055 41.9412ZM12.4909 42.8916C12.3551 43.1632 11.9478 43.2989 11.6763 43.4347C11.269 43.4347 10.8617 43.1632 10.8617 42.7558V42.4843C10.8617 41.9412 11.269 41.5339 11.812 41.5339C12.2194 41.5339 12.4909 41.8055 12.6267 42.2128C12.6267 42.3485 12.6267 42.6201 12.4909 42.8916ZM19.1437 42.3485C18.8721 38.9543 16.2925 36.6462 13.034 36.1031C12.3551 35.9673 11.5405 35.9673 10.8617 35.8315C10.5901 35.8315 10.3186 35.8315 9.91126 35.8315C9.63972 35.8315 9.36818 35.8315 8.96086 35.8315C5.15929 35.9673 0.407312 37.325 0.135771 41.9412C-0.135771 45.4713 0 49.0013 0.543083 52.3956C0.678853 53.7533 1.22194 55.111 1.90079 56.1971C2.71541 57.1475 3.80158 57.6906 5.5666 57.6906C8.28201 57.6906 10.1828 56.1971 10.1828 53.4817C10.1828 52.9387 10.1828 52.2598 10.047 51.7167C9.77549 50.6305 9.50395 49.5444 9.09663 48.4582C9.91126 48.8655 10.8617 49.1371 11.812 49.1371C14.3917 49.1371 17.2429 47.9151 18.4648 45.4713C19.0079 44.6566 19.2794 43.4347 19.1437 42.3485ZM17.9217 45.1997C16.8356 47.3721 14.2559 48.4582 11.9478 48.4582C10.7259 48.594 9.63972 48.0509 8.82509 47.2363L8.14624 46.2859C7.8747 45.7428 7.60316 45.1997 7.33162 44.6566C7.33162 45.7428 7.60316 46.6932 8.14624 47.6436C8.41778 48.3224 8.55355 48.8655 8.68932 49.4086C9.09663 50.2232 9.36818 51.0379 9.50395 51.8525C9.63972 52.3956 9.63972 52.9387 9.63972 53.4817C9.50395 56.0614 7.8747 57.0118 5.5666 57.0118C4.75197 57.0118 3.93735 56.876 3.2585 56.6045C2.57964 56.1971 2.03656 55.5183 1.76502 54.8394C1.49348 54.0248 1.22194 53.2102 1.08617 52.3956C0.543083 49.0013 0.543083 45.607 0.814624 42.077C1.08617 37.5966 6.38122 36.6462 9.91126 36.6462C12.7624 36.6462 15.7494 37.0535 17.5144 39.6331C18.0575 40.4477 18.4648 41.3981 18.4648 42.3485C18.6006 43.4347 18.329 44.3851 17.9217 45.1997ZM11.812 40.8551C10.9974 40.8551 10.1828 41.5339 10.1828 42.4843C10.1828 42.6201 10.1828 42.8916 10.1828 43.1632C10.3186 43.842 10.9974 44.2493 11.6763 44.2493C11.9478 44.2493 12.2194 44.1136 12.4909 43.9778C12.7624 43.842 12.8982 43.7062 13.034 43.4347C13.3055 43.0274 13.4413 42.6201 13.3055 42.2128C13.1698 41.2624 12.6267 40.8551 11.812 40.8551ZM12.4909 42.8916C12.3551 43.1632 11.9478 43.2989 11.6763 43.4347C11.269 43.4347 10.8617 43.1632 10.8617 42.7558V42.4843C10.8617 41.9412 11.269 41.5339 11.812 41.5339C12.2194 41.5339 12.4909 41.8055 12.6267 42.2128C12.6267 42.3485 12.6267 42.6201 12.4909 42.8916ZM13.3055 41.9412C13.1698 41.2624 12.6267 40.7193 11.812 40.7193C10.9974 40.7193 10.1828 41.3981 10.1828 42.3485C10.1828 42.4843 10.1828 42.7558 10.1828 43.0274C10.3186 43.7062 10.9974 44.1136 11.6763 44.1136C11.9478 44.1136 12.2194 43.9778 12.4909 43.842C12.7624 43.7062 12.8982 43.5705 13.034 43.2989C13.3055 42.8916 13.4413 42.4843 13.3055 41.9412ZM12.4909 42.8916C12.3551 43.1632 11.9478 43.2989 11.6763 43.4347C11.269 43.4347 10.8617 43.1632 10.8617 42.7558V42.4843C10.8617 41.9412 11.269 41.5339 11.812 41.5339C12.2194 41.5339 12.4909 41.8055 12.6267 42.2128C12.6267 42.3485 12.6267 42.6201 12.4909 42.8916ZM13.3055 41.9412C13.1698 41.2624 12.6267 40.7193 11.812 40.7193C10.9974 40.7193 10.1828 41.3981 10.1828 42.3485C10.1828 42.4843 10.1828 42.7558 10.1828 43.0274C10.3186 43.7062 10.9974 44.1136 11.6763 44.1136C11.9478 44.1136 12.2194 43.9778 12.4909 43.842C12.7624 43.7062 12.8982 43.5705 13.034 43.2989C13.3055 42.8916 13.4413 42.4843 13.3055 41.9412ZM12.4909 42.8916C12.3551 43.1632 11.9478 43.2989 11.6763 43.4347C11.269 43.4347 10.8617 43.1632 10.8617 42.7558V42.4843C10.8617 41.9412 11.269 41.5339 11.812 41.5339C12.2194 41.5339 12.4909 41.8055 12.6267 42.2128C12.6267 42.3485 12.6267 42.6201 12.4909 42.8916ZM13.3055 41.9412C13.1698 41.2624 12.6267 40.7193 11.812 40.7193C10.9974 40.7193 10.1828 41.3981 10.1828 42.3485C10.1828 42.4843 10.1828 42.7558 10.1828 43.0274C10.3186 43.7062 10.9974 44.1136 11.6763 44.1136C11.9478 44.1136 12.2194 43.9778 12.4909 43.842C12.7624 43.7062 12.8982 43.5705 13.034 43.2989C13.3055 42.8916 13.4413 42.4843 13.3055 41.9412ZM12.4909 42.8916C12.3551 43.1632 11.9478 43.2989 11.6763 43.4347C11.269 43.4347 10.8617 43.1632 10.8617 42.7558V42.4843C10.8617 41.9412 11.269 41.5339 11.812 41.5339C12.2194 41.5339 12.4909 41.8055 12.6267 42.2128C12.6267 42.3485 12.6267 42.6201 12.4909 42.8916ZM13.3055 41.9412C13.1698 41.2624 12.6267 40.7193 11.812 40.7193C10.9974 40.7193 10.1828 41.3981 10.1828 42.3485C10.1828 42.4843 10.1828 42.7558 10.1828 43.0274C10.3186 43.7062 10.9974 44.1136 11.6763 44.1136C11.9478 44.1136 12.2194 43.9778 12.4909 43.842C12.7624 43.7062 12.8982 43.5705 13.034 43.2989C13.3055 42.8916 13.4413 42.4843 13.3055 41.9412ZM12.4909 42.8916C12.3551 43.1632 11.9478 43.2989 11.6763 43.4347C11.269 43.4347 10.8617 43.1632 10.8617 42.7558V42.4843C10.8617 41.9412 11.269 41.5339 11.812 41.5339C12.2194 41.5339 12.4909 41.8055 12.6267 42.2128C12.6267 42.3485 12.6267 42.6201 12.4909 42.8916ZM13.3055 41.9412C13.1698 41.2624 12.6267 40.7193 11.812 40.7193C10.9974 40.7193 10.1828 41.3981 10.1828 42.3485C10.1828 42.4843 10.1828 42.7558 10.1828 43.0274C10.3186 43.7062 10.9974 44.1136 11.6763 44.1136C11.9478 44.1136 12.2194 43.9778 12.4909 43.842C12.7624 43.7062 12.8982 43.5705 13.034 43.2989C13.3055 42.8916 13.4413 42.4843 13.3055 41.9412ZM12.4909 42.8916C12.3551 43.1632 11.9478 43.2989 11.6763 43.4347C11.269 43.4347 10.8617 43.1632 10.8617 42.7558V42.4843C10.8617 41.9412 11.269 41.5339 11.812 41.5339C12.2194 41.5339 12.4909 41.8055 12.6267 42.2128C12.6267 42.3485 12.6267 42.6201 12.4909 42.8916ZM13.3055 41.9412C13.1698 41.2624 12.6267 40.7193 11.812 40.7193C10.9974 40.7193 10.1828 41.3981 10.1828 42.3485C10.1828 42.4843 10.1828 42.7558 10.1828 43.0274C10.3186 43.7062 10.9974 44.1136 11.6763 44.1136C11.9478 44.1136 12.2194 43.9778 12.4909 43.842C12.7624 43.7062 12.8982 43.5705 13.034 43.2989C13.3055 42.8916 13.4413 42.4843 13.3055 41.9412ZM12.4909 42.8916C12.3551 43.1632 11.9478 43.2989 11.6763 43.4347C11.269 43.4347 10.8617 43.1632 10.8617 42.7558V42.4843C10.8617 41.9412 11.269 41.5339 11.812 41.5339C12.2194 41.5339 12.4909 41.8055 12.6267 42.2128C12.6267 42.3485 12.6267 42.6201 12.4909 42.8916ZM13.3055 41.9412C13.1698 41.2624 12.6267 40.7193 11.812 40.7193C10.9974 40.7193 10.1828 41.3981 10.1828 42.3485C10.1828 42.4843 10.1828 42.7558 10.1828 43.0274C10.3186 43.7062 10.9974 44.1136 11.6763 44.1136C11.9478 44.1136 12.2194 43.9778 12.4909 43.842C12.7624 43.7062 12.8982 43.5705 13.034 43.2989C13.3055 42.8916 13.4413 42.4843 13.3055 41.9412ZM12.4909 42.8916C12.3551 43.1632 11.9478 43.2989 11.6763 43.4347C11.269 43.4347 10.8617 43.1632 10.8617 42.7558V42.4843C10.8617 41.9412 11.269 41.5339 11.812 41.5339C12.2194 41.5339 12.4909 41.8055 12.6267 42.2128C12.6267 42.3485 12.6267 42.6201 12.4909 42.8916ZM13.3055 41.9412C13.1698 41.2624 12.6267 40.7193 11.812 40.7193C10.9974 40.7193 10.1828 41.3981 10.1828 42.3485C10.1828 42.4843 10.1828 42.7558 10.1828 43.0274C10.3186 43.7062 10.9974 44.1136 11.6763 44.1136C11.9478 44.1136 12.2194 43.9778 12.4909 43.842C12.7624 43.7062 12.8982 43.5705 13.034 43.2989C13.3055 42.8916 13.4413 42.4843 13.3055 41.9412ZM12.4909 42.8916C12.3551 43.1632 11.9478 43.2989 11.6763 43.4347C11.269 43.4347 10.8617 43.1632 10.8617 42.7558V42.4843C10.8617 41.9412 11.269 41.5339 11.812 41.5339C12.2194 41.5339 12.4909 41.8055 12.6267 42.2128C12.6267 42.3485 12.6267 42.6201 12.4909 42.8916Z" fill="black"/>
<path id="Vector_16" d="M27.4257 39.9051C27.0184 38.0043 26.2037 36.2393 24.0314 36.2393C23.7599 36.2393 23.4883 36.2393 23.2168 36.375L22.8095 36.5108C22.1306 36.7823 20.7729 37.7327 20.6371 40.1766C20.3656 44.114 20.5014 48.1871 20.7729 52.2602C20.9087 53.4821 21.0445 54.7041 21.316 55.926C21.5875 56.8764 21.8591 57.5553 22.4022 57.691C22.8095 57.8268 23.2168 57.9626 23.7599 57.9626C24.7103 57.9626 25.6607 57.2837 25.9322 56.4691C27.0184 54.5683 27.2899 51.174 27.2899 48.8659C27.2899 48.4586 27.2899 48.1871 27.4257 47.9155C27.6972 45.0644 27.6972 42.4847 27.4257 39.9051ZM26.7468 47.644C26.7468 47.9155 26.7468 48.1871 26.7468 48.5944C26.7468 49.1375 26.7468 49.6806 26.6111 50.2236C26.4753 51.9887 26.2037 53.7537 25.6607 55.3829C25.2534 56.3333 24.5745 57.0122 23.6241 57.0122C23.2168 57.0122 22.9453 56.8764 22.6737 56.7406C22.1306 56.4691 21.7233 54.4325 21.4518 51.8529C21.1802 47.9155 21.1802 43.8424 21.316 39.9051C21.4518 38.4116 22.2664 36.6466 23.8956 36.6466C25.6607 36.6466 26.3395 38.2758 26.6111 39.7693C27.1541 42.2132 27.0184 45.2001 26.7468 47.644Z" fill="black"/>
<path id="Vector_17" d="M37.88 48.4584C37.7443 47.9153 37.2012 47.508 36.6581 47.508C35.4362 47.508 34.4858 48.3226 34.2142 49.4088C34.0785 49.6803 34.0785 49.9518 34.0785 50.2234C34.2142 51.3096 35.1646 51.5811 36.115 51.5811C37.2012 51.4453 38.0158 50.2234 38.0158 49.273C38.0158 49.0015 38.0158 48.7299 37.88 48.4584ZM37.337 49.273C37.2012 49.9518 36.7939 50.9022 36.115 51.038C35.5719 51.038 34.8931 50.9022 34.7573 50.3592V50.0876L34.8931 49.8161C35.0289 49.1372 35.5719 48.7299 36.115 48.3226C36.2508 48.3226 36.3866 48.1868 36.5223 48.1868H36.6581C36.9296 48.1868 37.2012 48.3226 37.337 48.5941C37.337 48.8657 37.337 49.0015 37.337 49.273ZM37.88 48.4584C37.7443 47.9153 37.2012 47.508 36.6581 47.508C35.4362 47.508 34.4858 48.3226 34.2142 49.4088C34.0785 49.6803 34.0785 49.9518 34.0785 50.2234C34.2142 51.3096 35.1646 51.5811 36.115 51.5811C37.2012 51.4453 38.0158 50.2234 38.0158 49.273C38.0158 49.0015 38.0158 48.7299 37.88 48.4584ZM37.337 49.273C37.2012 49.9518 36.7939 50.9022 36.115 51.038C35.5719 51.038 34.8931 50.9022 34.7573 50.3592V50.0876L34.8931 49.8161C35.0289 49.1372 35.5719 48.7299 36.115 48.3226C36.2508 48.3226 36.3866 48.1868 36.5223 48.1868H36.6581C36.9296 48.1868 37.2012 48.3226 37.337 48.5941C37.337 48.8657 37.337 49.0015 37.337 49.273ZM37.88 48.4584C37.7443 47.9153 37.2012 47.508 36.6581 47.508C35.4362 47.508 34.4858 48.3226 34.2142 49.4088C34.0785 49.6803 34.0785 49.9518 34.0785 50.2234C34.2142 51.3096 35.1646 51.5811 36.115 51.5811C37.2012 51.4453 38.0158 50.2234 38.0158 49.273C38.0158 49.0015 38.0158 48.7299 37.88 48.4584ZM37.337 49.273C37.2012 49.9518 36.7939 50.9022 36.115 51.038C35.5719 51.038 34.8931 50.9022 34.7573 50.3592V50.0876L34.8931 49.8161C35.0289 49.1372 35.5719 48.7299 36.115 48.3226C36.2508 48.3226 36.3866 48.1868 36.5223 48.1868H36.6581C36.9296 48.1868 37.2012 48.3226 37.337 48.5941C37.337 48.8657 37.337 49.0015 37.337 49.273ZM37.88 48.4584C37.7443 47.9153 37.2012 47.508 36.6581 47.508C35.4362 47.508 34.4858 48.3226 34.2142 49.4088C34.0785 49.6803 34.0785 49.9518 34.0785 50.2234C34.2142 51.3096 35.1646 51.5811 36.115 51.5811C37.2012 51.4453 38.0158 50.2234 38.0158 49.273C38.0158 49.0015 38.0158 48.7299 37.88 48.4584ZM37.337 49.273C37.2012 49.9518 36.7939 50.9022 36.115 51.038C35.5719 51.038 34.8931 50.9022 34.7573 50.3592V50.0876L34.8931 49.8161C35.0289 49.1372 35.5719 48.7299 36.115 48.3226C36.2508 48.3226 36.3866 48.1868 36.5223 48.1868H36.6581C36.9296 48.1868 37.2012 48.3226 37.337 48.5941C37.337 48.8657 37.337 49.0015 37.337 49.273ZM37.88 48.4584C37.7443 47.9153 37.2012 47.508 36.6581 47.508C35.4362 47.508 34.4858 48.3226 34.2142 49.4088C34.0785 49.6803 34.0785 49.9518 34.0785 50.2234C34.2142 51.3096 35.1646 51.5811 36.115 51.5811C37.2012 51.4453 38.0158 50.2234 38.0158 49.273C38.0158 49.0015 38.0158 48.7299 37.88 48.4584ZM37.337 49.273C37.2012 49.9518 36.7939 50.9022 36.115 51.038C35.5719 51.038 34.8931 50.9022 34.7573 50.3592V50.0876L34.8931 49.8161C35.0289 49.1372 35.5719 48.7299 36.115 48.3226C36.2508 48.3226 36.3866 48.1868 36.5223 48.1868H36.6581C36.9296 48.1868 37.2012 48.3226 37.337 48.5941C37.337 48.8657 37.337 49.0015 37.337 49.273ZM37.88 48.4584C37.7443 47.9153 37.2012 47.508 36.6581 47.508C35.4362 47.508 34.4858 48.3226 34.2142 49.4088C34.0785 49.6803 34.0785 49.9518 34.0785 50.2234C34.2142 51.3096 35.1646 51.5811 36.115 51.5811C37.2012 51.4453 38.0158 50.2234 38.0158 49.273C38.0158 49.0015 38.0158 48.7299 37.88 48.4584ZM37.337 49.273C37.2012 49.9518 36.7939 50.9022 36.115 51.038C35.5719 51.038 34.8931 50.9022 34.7573 50.3592V50.0876L34.8931 49.8161C35.0289 49.1372 35.5719 48.7299 36.115 48.3226C36.2508 48.3226 36.3866 48.1868 36.5223 48.1868H36.6581C36.9296 48.1868 37.2012 48.3226 37.337 48.5941C37.337 48.8657 37.337 49.0015 37.337 49.273ZM37.88 48.4584C37.7443 47.9153 37.2012 47.508 36.6581 47.508C35.4362 47.508 34.4858 48.3226 34.2142 49.4088C34.0785 49.6803 34.0785 49.9518 34.0785 50.2234C34.2142 51.3096 35.1646 51.5811 36.115 51.5811C37.2012 51.4453 38.0158 50.2234 38.0158 49.273C38.0158 49.0015 38.0158 48.7299 37.88 48.4584ZM37.337 49.273C37.2012 49.9518 36.7939 50.9022 36.115 51.038C35.5719 51.038 34.8931 50.9022 34.7573 50.3592V50.0876L34.8931 49.8161C35.0289 49.1372 35.5719 48.7299 36.115 48.3226C36.2508 48.3226 36.3866 48.1868 36.5223 48.1868H36.6581C36.9296 48.1868 37.2012 48.3226 37.337 48.5941C37.337 48.8657 37.337 49.0015 37.337 49.273ZM37.88 48.4584C37.7443 47.9153 37.2012 47.508 36.6581 47.508C35.4362 47.508 34.4858 48.3226 34.2142 49.4088C34.0785 49.6803 34.0785 49.9518 34.0785 50.2234C34.2142 51.3096 35.1646 51.5811 36.115 51.5811C37.2012 51.4453 38.0158 50.2234 38.0158 49.273C38.0158 49.0015 38.0158 48.7299 37.88 48.4584ZM37.337 49.273C37.2012 49.9518 36.7939 50.9022 36.115 51.038C35.5719 51.038 34.8931 50.9022 34.7573 50.3592V50.0876L34.8931 49.8161C35.0289 49.1372 35.5719 48.7299 36.115 48.3226C36.2508 48.3226 36.3866 48.1868 36.5223 48.1868H36.6581C36.9296 48.1868 37.2012 48.3226 37.337 48.5941C37.337 48.8657 37.337 49.0015 37.337 49.273ZM37.88 48.4584C37.7443 47.9153 37.2012 47.508 36.6581 47.508C35.4362 47.508 34.4858 48.3226 34.2142 49.4088C34.0785 49.6803 34.0785 49.9518 34.0785 50.2234C34.2142 51.3096 35.1646 51.5811 36.115 51.5811C37.2012 51.4453 38.0158 50.2234 38.0158 49.273C38.0158 49.0015 38.0158 48.7299 37.88 48.4584ZM37.337 49.273C37.2012 49.9518 36.7939 50.9022 36.115 51.038C35.5719 51.038 34.8931 50.9022 34.7573 50.3592V50.0876L34.8931 49.8161C35.0289 49.1372 35.5719 48.7299 36.115 48.3226C36.2508 48.3226 36.3866 48.1868 36.5223 48.1868H36.6581C36.9296 48.1868 37.2012 48.3226 37.337 48.5941C37.337 48.8657 37.337 49.0015 37.337 49.273ZM37.88 48.4584C37.7443 47.9153 37.2012 47.508 36.6581 47.508C35.4362 47.508 34.4858 48.3226 34.2142 49.4088C34.0785 49.6803 34.0785 49.9518 34.0785 50.2234C34.2142 51.3096 35.1646 51.5811 36.115 51.5811C37.2012 51.4453 38.0158 50.2234 38.0158 49.273C38.0158 49.0015 38.0158 48.7299 37.88 48.4584ZM37.337 49.273C37.2012 49.9518 36.7939 50.9022 36.115 51.038C35.5719 51.038 34.8931 50.9022 34.7573 50.3592V50.0876L34.8931 49.8161C35.0289 49.1372 35.5719 48.7299 36.115 48.3226C36.2508 48.3226 36.3866 48.1868 36.5223 48.1868H36.6581C36.9296 48.1868 37.2012 48.3226 37.337 48.5941C37.337 48.8657 37.337 49.0015 37.337 49.273ZM46.0263 54.4323C45.7547 53.3461 44.8043 51.1738 43.8539 50.4949C44.1255 49.273 44.5328 43.1633 39.6451 42.2129C39.102 42.0771 38.5589 42.0771 38.0158 42.0771C36.9296 42.0771 35.8435 42.3487 34.8931 42.756C31.9061 44.1137 29.7338 46.8291 28.9192 50.0876C28.5119 51.7169 28.6476 53.4819 29.3265 54.9754C30.1411 56.8762 32.0419 58.0981 34.0785 58.0981C36.115 58.0981 38.0158 57.2835 39.3735 55.79C39.9166 57.0119 41.1385 57.8265 42.4962 57.8265C43.8539 57.8265 45.619 56.6046 45.8905 55.2469C46.0263 54.7038 46.0263 54.568 46.0263 54.4323ZM45.3474 54.7038C45.0759 55.79 43.7182 56.7404 42.4962 56.7404C41.2743 56.7404 40.0524 55.9258 39.7808 54.5681C40.1881 53.7534 40.4597 52.803 40.7312 51.7169C40.4597 52.3957 40.0524 53.0746 39.6451 53.7534L39.102 54.4323C37.88 56.0615 35.9793 56.8762 33.9427 57.0119C32.1777 57.1477 30.4127 56.0615 29.8696 54.4323C29.3265 52.9388 29.1907 51.4453 29.598 49.9518C29.8696 49.0015 30.1411 48.0511 30.6842 47.2364C32.1777 44.6568 34.8931 42.6202 37.88 42.6202C38.4231 42.6202 38.8304 42.6202 39.3735 42.756C43.3109 43.5706 43.3109 48.4584 43.1751 50.0876L43.0393 50.7665L43.3109 50.9022C44.1255 51.3096 45.2117 53.6177 45.3474 54.5681V54.7038ZM36.6581 47.508C35.4362 47.508 34.4858 48.3226 34.2142 49.4088C34.0785 49.6803 34.0785 49.9518 34.0785 50.2234C34.2142 51.3096 35.1646 51.5811 36.115 51.5811C37.2012 51.4453 38.0158 50.2234 38.0158 49.273C38.0158 49.0015 38.0158 48.5941 37.88 48.3226C37.7443 47.9153 37.2012 47.508 36.6581 47.508ZM37.337 49.273C37.2012 49.9518 36.7939 50.9022 36.115 51.038C35.5719 51.038 34.8931 50.9022 34.7573 50.3592V50.0876L34.8931 49.8161C35.0289 49.1372 35.5719 48.7299 36.115 48.3226C36.2508 48.3226 36.3866 48.1868 36.5223 48.1868H36.6581C36.9296 48.1868 37.2012 48.3226 37.337 48.5941C37.337 48.8657 37.337 49.0015 37.337 49.273ZM37.88 48.4584C37.7443 47.9153 37.2012 47.508 36.6581 47.508C35.4362 47.508 34.4858 48.3226 34.2142 49.4088C34.0785 49.6803 34.0785 49.9518 34.0785 50.2234C34.2142 51.3096 35.1646 51.5811 36.115 51.5811C37.2012 51.4453 38.0158 50.2234 38.0158 49.273C38.0158 49.0015 38.0158 48.7299 37.88 48.4584ZM37.337 49.273C37.2012 49.9518 36.7939 50.9022 36.115 51.038C35.5719 51.038 34.8931 50.9022 34.7573 50.3592V50.0876L34.8931 49.8161C35.0289 49.1372 35.5719 48.7299 36.115 48.3226C36.2508 48.3226 36.3866 48.1868 36.5223 48.1868H36.6581C36.9296 48.1868 37.2012 48.3226 37.337 48.5941C37.337 48.8657 37.337 49.0015 37.337 49.273ZM37.88 48.4584C37.7443 47.9153 37.2012 47.508 36.6581 47.508C35.4362 47.508 34.4858 48.3226 34.2142 49.4088C34.0785 49.6803 34.0785 49.9518 34.0785 50.2234C34.2142 51.3096 35.1646 51.5811 36.115 51.5811C37.2012 51.4453 38.0158 50.2234 38.0158 49.273C38.0158 49.0015 38.0158 48.7299 37.88 48.4584ZM37.337 49.273C37.2012 49.9518 36.7939 50.9022 36.115 51.038C35.5719 51.038 34.8931 50.9022 34.7573 50.3592V50.0876L34.8931 49.8161C35.0289 49.1372 35.5719 48.7299 36.115 48.3226C36.2508 48.3226 36.3866 48.1868 36.5223 48.1868H36.6581C36.9296 48.1868 37.2012 48.3226 37.337 48.5941C37.337 48.8657 37.337 49.0015 37.337 49.273ZM37.88 48.4584C37.7443 47.9153 37.2012 47.508 36.6581 47.508C35.4362 47.508 34.4858 48.3226 34.2142 49.4088C34.0785 49.6803 34.0785 49.9518 34.0785 50.2234C34.2142 51.3096 35.1646 51.5811 36.115 51.5811C37.2012 51.4453 38.0158 50.2234 38.0158 49.273C38.0158 49.0015 38.0158 48.7299 37.88 48.4584ZM37.337 49.273C37.2012 49.9518 36.7939 50.9022 36.115 51.038C35.5719 51.038 34.8931 50.9022 34.7573 50.3592V50.0876L34.8931 49.8161C35.0289 49.1372 35.5719 48.7299 36.115 48.3226C36.2508 48.3226 36.3866 48.1868 36.5223 48.1868H36.6581C36.9296 48.1868 37.2012 48.3226 37.337 48.5941C37.337 48.8657 37.337 49.0015 37.337 49.273ZM37.88 48.4584C37.7443 47.9153 37.2012 47.508 36.6581 47.508C35.4362 47.508 34.4858 48.3226 34.2142 49.4088C34.0785 49.6803 34.0785 49.9518 34.0785 50.2234C34.2142 51.3096 35.1646 51.5811 36.115 51.5811C37.2012 51.4453 38.0158 50.2234 38.0158 49.273C38.0158 49.0015 38.0158 48.7299 37.88 48.4584ZM37.337 49.273C37.2012 49.9518 36.7939 50.9022 36.115 51.038C35.5719 51.038 34.8931 50.9022 34.7573 50.3592V50.0876L34.8931 49.8161C35.0289 49.1372 35.5719 48.7299 36.115 48.3226C36.2508 48.3226 36.3866 48.1868 36.5223 48.1868H36.6581C36.9296 48.1868 37.2012 48.3226 37.337 48.5941C37.337 48.8657 37.337 49.0015 37.337 49.273ZM37.88 48.4584C37.7443 47.9153 37.2012 47.508 36.6581 47.508C35.4362 47.508 34.4858 48.3226 34.2142 49.4088C34.0785 49.6803 34.0785 49.9518 34.0785 50.2234C34.2142 51.3096 35.1646 51.5811 36.115 51.5811C37.2012 51.4453 38.0158 50.2234 38.0158 49.273C38.0158 49.0015 38.0158 48.7299 37.88 48.4584ZM37.337 49.273C37.2012 49.9518 36.7939 50.9022 36.115 51.038C35.5719 51.038 34.8931 50.9022 34.7573 50.3592V50.0876L34.8931 49.8161C35.0289 49.1372 35.5719 48.7299 36.115 48.3226C36.2508 48.3226 36.3866 48.1868 36.5223 48.1868H36.6581C36.9296 48.1868 37.2012 48.3226 37.337 48.5941C37.337 48.8657 37.337 49.0015 37.337 49.273ZM37.88 48.4584C37.7443 47.9153 37.2012 47.508 36.6581 47.508C35.4362 47.508 34.4858 48.3226 34.2142 49.4088C34.0785 49.6803 34.0785 49.9518 34.0785 50.2234C34.2142 51.3096 35.1646 51.5811 36.115 51.5811C37.2012 51.4453 38.0158 50.2234 38.0158 49.273C38.0158 49.0015 38.0158 48.7299 37.88 48.4584ZM37.337 49.273C37.2012 49.9518 36.7939 50.9022 36.115 51.038C35.5719 51.038 34.8931 50.9022 34.7573 50.3592V50.0876L34.8931 49.8161C35.0289 49.1372 35.5719 48.7299 36.115 48.3226C36.2508 48.3226 36.3866 48.1868 36.5223 48.1868H36.6581C36.9296 48.1868 37.2012 48.3226 37.337 48.5941C37.337 48.8657 37.337 49.0015 37.337 49.273ZM37.88 48.4584C37.7443 47.9153 37.2012 47.508 36.6581 47.508C35.4362 47.508 34.4858 48.3226 34.2142 49.4088C34.0785 49.6803 34.0785 49.9518 34.0785 50.2234C34.2142 51.3096 35.1646 51.5811 36.115 51.5811C37.2012 51.4453 38.0158 50.2234 38.0158 49.273C38.0158 49.0015 38.0158 48.7299 37.88 48.4584ZM37.337 49.273C37.2012 49.9518 36.7939 50.9022 36.115 51.038C35.5719 51.038 34.8931 50.9022 34.7573 50.3592V50.0876L34.8931 49.8161C35.0289 49.1372 35.5719 48.7299 36.115 48.3226C36.2508 48.3226 36.3866 48.1868 36.5223 48.1868H36.6581C36.9296 48.1868 37.2012 48.3226 37.337 48.5941C37.337 48.8657 37.337 49.0015 37.337 49.273ZM37.88 48.4584C37.7443 47.9153 37.2012 47.508 36.6581 47.508C35.4362 47.508 34.4858 48.3226 34.2142 49.4088C34.0785 49.6803 34.0785 49.9518 34.0785 50.2234C34.2142 51.3096 35.1646 51.5811 36.115 51.5811C37.2012 51.4453 38.0158 50.2234 38.0158 49.273C38.0158 49.0015 38.0158 48.7299 37.88 48.4584ZM37.337 49.273C37.2012 49.9518 36.7939 50.9022 36.115 51.038C35.5719 51.038 34.8931 50.9022 34.7573 50.3592V50.0876L34.8931 49.8161C35.0289 49.1372 35.5719 48.7299 36.115 48.3226C36.2508 48.3226 36.3866 48.1868 36.5223 48.1868H36.6581C36.9296 48.1868 37.2012 48.3226 37.337 48.5941C37.337 48.8657 37.337 49.0015 37.337 49.273Z" fill="black"/>
<path id="Vector_18" d="M61.9115 46.8291C61.5042 44.3853 59.7392 42.4845 57.2953 42.4845C55.9376 42.4845 54.5799 43.0275 53.6295 43.9779C53.6295 43.2991 53.2222 42.756 52.6791 42.4845C52.136 42.2129 51.5929 42.0771 50.9141 42.0771C48.606 42.0771 47.7913 43.2991 47.5198 45.4714C47.384 47.6437 47.384 49.6803 47.5198 51.8526C47.6556 53.8892 47.9271 55.79 48.4702 56.6046C49.0133 57.4192 49.9637 57.8265 50.9141 57.8265C51.8645 57.8265 53.3579 57.4192 53.4937 56.1973C53.4937 55.6542 53.4937 54.9754 53.3579 54.4323C53.0864 52.3957 52.8149 49.5445 54.7156 49.1372H54.8514C55.8018 49.1372 56.2091 50.2234 56.3449 51.5811C56.4807 52.803 56.6164 54.1607 56.4807 55.3827V55.6542C56.4807 57.1477 57.7026 57.8265 58.9245 57.8265C61.6399 57.8265 62.3188 55.3827 62.3188 53.0746C62.4546 50.9022 62.3188 48.8657 61.9115 46.8291ZM61.7757 52.9388C61.6399 54.8396 61.3684 57.1477 59.0603 57.1477C58.5172 57.1477 57.8384 57.0119 57.4311 56.4688C57.2953 56.1973 57.1595 55.9258 57.1595 55.6542V55.3827C57.1595 54.025 57.1595 52.6673 57.0237 51.4453C56.7522 49.8161 56.2091 48.4584 54.8514 48.4584H54.5799C52.0002 48.8657 52.4075 52.1242 52.6791 54.4323C52.8149 54.9754 52.8149 55.5184 52.8149 56.0615C52.6791 56.4688 52.4075 56.7404 52.136 56.8762C51.5929 57.0119 51.3214 57.0119 50.9141 57.0119C50.2352 57.0119 49.5564 56.7404 49.0133 56.1973C48.606 55.5184 48.3344 53.7534 48.1987 51.7169C47.9271 49.6803 47.9271 47.6437 48.1987 45.4714C48.4702 43.5706 49.0133 42.6202 50.9141 42.6202H51.1856H51.4571C52.136 42.6202 52.6791 43.0275 52.8149 43.5706C52.9506 43.8422 52.9506 44.2495 52.9506 44.521V44.7926C52.4075 45.4714 52.136 46.4218 52.0002 47.2364C52.2718 46.4218 52.8149 45.743 53.2222 45.1999L53.4937 44.9283C54.4441 43.8422 55.666 43.1633 57.1595 43.1633C59.3318 43.1633 60.8253 44.9283 61.2326 46.9649C61.6399 49.0015 61.7757 50.9022 61.7757 52.9388Z" fill="black"/>
<path id="Vector_19" d="M74.4024 46.15C74.2666 45.8784 74.1308 45.7426 73.995 45.4711C73.5877 45.0638 73.0446 44.6565 72.3658 44.6565C72.23 44.6565 72.0943 44.6565 71.8227 44.6565C71.2796 44.5207 70.7365 44.928 70.465 45.3353C70.3292 45.6069 70.3292 45.7426 70.3292 46.0142C70.3292 47.3719 71.2796 48.0507 72.5016 48.0507C73.0446 48.0507 73.5877 47.915 73.995 47.5077C74.4024 47.2361 74.5381 46.693 74.4024 46.15ZM73.5877 47.1003C73.3162 47.3719 72.9089 47.5077 72.3658 47.3719C71.4154 47.3719 71.0081 46.8288 71.0081 46.0142C71.0081 45.4711 71.4154 45.3353 71.9585 45.3353C72.7731 45.3353 73.452 45.7426 73.8593 46.4215C73.8593 46.5573 73.8593 46.8288 73.5877 47.1003ZM74.4024 46.15C74.2666 45.8784 74.1308 45.7426 73.995 45.4711C73.5877 45.0638 73.0446 44.6565 72.3658 44.6565C72.23 44.6565 72.0943 44.6565 71.8227 44.6565C71.2796 44.5207 70.7365 44.928 70.465 45.3353C70.3292 45.6069 70.3292 45.7426 70.3292 46.0142C70.3292 47.3719 71.2796 48.0507 72.5016 48.0507C73.0446 48.0507 73.5877 47.915 73.995 47.5077C74.4024 47.2361 74.5381 46.693 74.4024 46.15ZM73.5877 47.1003C73.3162 47.3719 72.9089 47.5077 72.3658 47.3719C71.4154 47.3719 71.0081 46.8288 71.0081 46.0142C71.0081 45.4711 71.4154 45.3353 71.9585 45.3353C72.7731 45.3353 73.452 45.7426 73.8593 46.4215C73.8593 46.5573 73.8593 46.8288 73.5877 47.1003ZM74.4024 46.15C74.2666 45.8784 74.1308 45.7426 73.995 45.4711C73.5877 45.0638 73.0446 44.6565 72.3658 44.6565C72.23 44.6565 72.0943 44.6565 71.8227 44.6565C71.2796 44.5207 70.7365 44.928 70.465 45.3353C70.3292 45.6069 70.3292 45.7426 70.3292 46.0142C70.3292 47.3719 71.2796 48.0507 72.5016 48.0507C73.0446 48.0507 73.5877 47.915 73.995 47.5077C74.4024 47.2361 74.5381 46.693 74.4024 46.15ZM73.5877 47.1003C73.3162 47.3719 72.9089 47.5077 72.3658 47.3719C71.4154 47.3719 71.0081 46.8288 71.0081 46.0142C71.0081 45.4711 71.4154 45.3353 71.9585 45.3353C72.7731 45.3353 73.452 45.7426 73.8593 46.4215C73.8593 46.5573 73.8593 46.8288 73.5877 47.1003ZM74.4024 46.15C74.2666 45.8784 74.1308 45.7426 73.995 45.4711C73.5877 45.0638 73.0446 44.6565 72.3658 44.6565C72.23 44.6565 72.0943 44.6565 71.8227 44.6565C71.2796 44.5207 70.7365 44.928 70.465 45.3353C70.3292 45.6069 70.3292 45.7426 70.3292 46.0142C70.3292 47.3719 71.2796 48.0507 72.5016 48.0507C73.0446 48.0507 73.5877 47.915 73.995 47.5077C74.4024 47.2361 74.5381 46.693 74.4024 46.15ZM73.5877 47.1003C73.3162 47.3719 72.9089 47.5077 72.3658 47.3719C71.4154 47.3719 71.0081 46.8288 71.0081 46.0142C71.0081 45.4711 71.4154 45.3353 71.9585 45.3353C72.7731 45.3353 73.452 45.7426 73.8593 46.4215C73.8593 46.5573 73.8593 46.8288 73.5877 47.1003ZM74.4024 46.15C74.2666 45.8784 74.1308 45.7426 73.995 45.4711C73.5877 45.0638 73.0446 44.6565 72.3658 44.6565C72.23 44.6565 72.0943 44.6565 71.8227 44.6565C71.2796 44.5207 70.7365 44.928 70.465 45.3353C70.3292 45.6069 70.3292 45.7426 70.3292 46.0142C70.3292 47.3719 71.2796 48.0507 72.5016 48.0507C73.0446 48.0507 73.5877 47.915 73.995 47.5077C74.4024 47.2361 74.5381 46.693 74.4024 46.15ZM73.5877 47.1003C73.3162 47.3719 72.9089 47.5077 72.3658 47.3719C71.4154 47.3719 71.0081 46.8288 71.0081 46.0142C71.0081 45.4711 71.4154 45.3353 71.9585 45.3353C72.7731 45.3353 73.452 45.7426 73.8593 46.4215C73.8593 46.5573 73.8593 46.8288 73.5877 47.1003ZM74.4024 46.15C74.2666 45.8784 74.1308 45.7426 73.995 45.4711C73.5877 45.0638 73.0446 44.6565 72.3658 44.6565C72.23 44.6565 72.0943 44.6565 71.8227 44.6565C71.2796 44.5207 70.7365 44.928 70.465 45.3353C70.3292 45.6069 70.3292 45.7426 70.3292 46.0142C70.3292 47.3719 71.2796 48.0507 72.5016 48.0507C73.0446 48.0507 73.5877 47.915 73.995 47.5077C74.4024 47.2361 74.5381 46.693 74.4024 46.15ZM73.5877 47.1003C73.3162 47.3719 72.9089 47.5077 72.3658 47.3719C71.4154 47.3719 71.0081 46.8288 71.0081 46.0142C71.0081 45.4711 71.4154 45.3353 71.9585 45.3353C72.7731 45.3353 73.452 45.7426 73.8593 46.4215C73.8593 46.5573 73.8593 46.8288 73.5877 47.1003ZM74.4024 46.15C74.2666 45.8784 74.1308 45.7426 73.995 45.4711C73.5877 45.0638 73.0446 44.6565 72.3658 44.6565C72.23 44.6565 72.0943 44.6565 71.8227 44.6565C71.2796 44.5207 70.7365 44.928 70.465 45.3353C70.3292 45.6069 70.3292 45.7426 70.3292 46.0142C70.3292 47.3719 71.2796 48.0507 72.5016 48.0507C73.0446 48.0507 73.5877 47.915 73.995 47.5077C74.4024 47.2361 74.5381 46.693 74.4024 46.15ZM73.5877 47.1003C73.3162 47.3719 72.9089 47.5077 72.3658 47.3719C71.4154 47.3719 71.0081 46.8288 71.0081 46.0142C71.0081 45.4711 71.4154 45.3353 71.9585 45.3353C72.7731 45.3353 73.452 45.7426 73.8593 46.4215C73.8593 46.5573 73.8593 46.8288 73.5877 47.1003ZM74.4024 46.15C74.2666 45.8784 74.1308 45.7426 73.995 45.4711C73.5877 45.0638 73.0446 44.6565 72.3658 44.6565C72.23 44.6565 72.0943 44.6565 71.8227 44.6565C71.2796 44.5207 70.7365 44.928 70.465 45.3353C70.3292 45.6069 70.3292 45.7426 70.3292 46.0142C70.3292 47.3719 71.2796 48.0507 72.5016 48.0507C73.0446 48.0507 73.5877 47.915 73.995 47.5077C74.4024 47.2361 74.5381 46.693 74.4024 46.15ZM73.5877 47.1003C73.3162 47.3719 72.9089 47.5077 72.3658 47.3719C71.4154 47.3719 71.0081 46.8288 71.0081 46.0142C71.0081 45.4711 71.4154 45.3353 71.9585 45.3353C72.7731 45.3353 73.452 45.7426 73.8593 46.4215C73.8593 46.5573 73.8593 46.8288 73.5877 47.1003ZM71.9585 41.2622C70.7365 41.2622 69.3788 41.398 68.1569 41.8053C66.935 42.2126 65.8488 43.163 65.1699 44.2492C64.2196 45.8784 63.6765 47.6434 63.5407 49.5442C63.4049 51.5808 63.8122 53.6173 65.0342 55.3824C66.2561 57.0116 68.2927 57.962 70.3292 57.8262C72.9089 57.8262 75.7601 57.1474 76.5747 54.2962C76.8462 53.4816 76.7105 52.6669 76.3031 51.9881C75.7601 51.3092 74.8097 50.9019 73.8593 51.0377C72.6373 51.0377 71.4154 51.445 70.465 52.2596C70.1935 51.7165 69.7861 50.7662 70.3292 49.9515C70.6008 50.0873 70.8723 50.0873 71.0081 50.2231C72.0942 50.4946 73.0446 50.7662 74.1308 50.7662C75.7601 50.7662 76.982 50.4946 77.9324 49.0011C78.4755 48.0507 78.747 46.8288 78.747 45.7426C78.8828 42.2126 74.6739 41.2622 71.9585 41.2622ZM77.5251 48.5938C76.8462 49.8158 75.6243 50.0873 74.4024 50.0873C73.452 50.0873 72.5016 49.9515 71.6869 49.68C71.2796 49.5442 70.8723 49.4084 70.6008 49.2727C69.6504 48.8654 68.9715 48.3223 68.4284 47.5077C68.7 48.4581 69.2431 49.1369 69.9219 49.68C69.5146 50.3588 69.3788 51.1735 69.6504 51.9881C69.7861 52.3954 69.9219 52.8027 70.1935 53.0743L70.465 53.4816L70.7365 53.0743C71.2796 52.2596 72.7731 51.8523 73.8593 51.8523C74.5381 51.7166 75.217 51.9881 75.7601 52.5312C76.0316 53.0743 76.1674 53.6173 75.8958 54.2962C75.217 56.7401 72.5016 57.2831 70.3292 57.2831C68.2927 57.4189 66.2561 56.3328 65.1699 54.432C64.4911 52.9385 64.0838 51.3092 64.2196 49.8158C64.3553 47.5077 65.1699 44.7922 67.0707 43.4345C68.2927 42.6199 70.3292 42.2126 71.8227 42.2126C73.995 42.2126 77.9324 42.8915 78.0682 45.7426C78.2039 46.5573 77.9324 47.6434 77.5251 48.5938ZM73.995 45.4711C73.5877 45.0638 73.0446 44.6565 72.3658 44.6565C72.23 44.6565 72.0943 44.6565 71.8227 44.6565C71.2796 44.5207 70.7365 44.928 70.465 45.3353C70.3292 45.6069 70.3292 45.7426 70.3292 46.0142C70.3292 47.3719 71.2796 48.0507 72.5016 48.0507C73.0446 48.0507 73.5877 47.915 73.995 47.5077C74.4024 47.1003 74.5381 46.5573 74.4024 46.15C74.4024 45.8784 74.2666 45.7426 73.995 45.4711ZM73.5877 47.1003C73.3162 47.3719 72.9089 47.5077 72.3658 47.3719C71.4154 47.3719 71.0081 46.8288 71.0081 46.0142C71.0081 45.4711 71.4154 45.3353 71.9585 45.3353C72.7731 45.3353 73.452 45.7426 73.8593 46.4215C73.8593 46.5573 73.8593 46.8288 73.5877 47.1003ZM74.4024 46.15C74.2666 45.8784 74.1308 45.7426 73.995 45.4711C73.5877 45.0638 73.0446 44.6565 72.3658 44.6565C72.23 44.6565 72.0943 44.6565 71.8227 44.6565C71.2796 44.5207 70.7365 44.928 70.465 45.3353C70.3292 45.6069 70.3292 45.7426 70.3292 46.0142C70.3292 47.3719 71.2796 48.0507 72.5016 48.0507C73.0446 48.0507 73.5877 47.915 73.995 47.5077C74.4024 47.2361 74.5381 46.693 74.4024 46.15ZM73.5877 47.1003C73.3162 47.3719 72.9089 47.5077 72.3658 47.3719C71.4154 47.3719 71.0081 46.8288 71.0081 46.0142C71.0081 45.4711 71.4154 45.3353 71.9585 45.3353C72.7731 45.3353 73.452 45.7426 73.8593 46.4215C73.8593 46.5573 73.8593 46.8288 73.5877 47.1003ZM74.4024 46.15C74.2666 45.8784 74.1308 45.7426 73.995 45.4711C73.5877 45.0638 73.0446 44.6565 72.3658 44.6565C72.23 44.6565 72.0943 44.6565 71.8227 44.6565C71.2796 44.5207 70.7365 44.928 70.465 45.3353C70.3292 45.6069 70.3292 45.7426 70.3292 46.0142C70.3292 47.3719 71.2796 48.0507 72.5016 48.0507C73.0446 48.0507 73.5877 47.915 73.995 47.5077C74.4024 47.2361 74.5381 46.693 74.4024 46.15ZM73.5877 47.1003C73.3162 47.3719 72.9089 47.5077 72.3658 47.3719C71.4154 47.3719 71.0081 46.8288 71.0081 46.0142C71.0081 45.4711 71.4154 45.3353 71.9585 45.3353C72.7731 45.3353 73.452 45.7426 73.8593 46.4215C73.8593 46.5573 73.8593 46.8288 73.5877 47.1003ZM74.4024 46.15C74.2666 45.8784 74.1308 45.7426 73.995 45.4711C73.5877 45.0638 73.0446 44.6565 72.3658 44.6565C72.23 44.6565 72.0943 44.6565 71.8227 44.6565C71.2796 44.5207 70.7365 44.928 70.465 45.3353C70.3292 45.6069 70.3292 45.7426 70.3292 46.0142C70.3292 47.3719 71.2796 48.0507 72.5016 48.0507C73.0446 48.0507 73.5877 47.915 73.995 47.5077C74.4024 47.2361 74.5381 46.693 74.4024 46.15ZM73.5877 47.1003C73.3162 47.3719 72.9089 47.5077 72.3658 47.3719C71.4154 47.3719 71.0081 46.8288 71.0081 46.0142C71.0081 45.4711 71.4154 45.3353 71.9585 45.3353C72.7731 45.3353 73.452 45.7426 73.8593 46.4215C73.8593 46.5573 73.8593 46.8288 73.5877 47.1003ZM74.4024 46.15C74.2666 45.8784 74.1308 45.7426 73.995 45.4711C73.5877 45.0638 73.0446 44.6565 72.3658 44.6565C72.23 44.6565 72.0943 44.6565 71.8227 44.6565C71.2796 44.5207 70.7365 44.928 70.465 45.3353C70.3292 45.6069 70.3292 45.7426 70.3292 46.0142C70.3292 47.3719 71.2796 48.0507 72.5016 48.0507C73.0446 48.0507 73.5877 47.915 73.995 47.5077C74.4024 47.2361 74.5381 46.693 74.4024 46.15ZM73.5877 47.1003C73.3162 47.3719 72.9089 47.5077 72.3658 47.3719C71.4154 47.3719 71.0081 46.8288 71.0081 46.0142C71.0081 45.4711 71.4154 45.3353 71.9585 45.3353C72.7731 45.3353 73.452 45.7426 73.8593 46.4215C73.8593 46.5573 73.8593 46.8288 73.5877 47.1003ZM74.4024 46.15C74.2666 45.8784 74.1308 45.7426 73.995 45.4711C73.5877 45.0638 73.0446 44.6565 72.3658 44.6565C72.23 44.6565 72.0943 44.6565 71.8227 44.6565C71.2796 44.5207 70.7365 44.928 70.465 45.3353C70.3292 45.6069 70.3292 45.7426 70.3292 46.0142C70.3292 47.3719 71.2796 48.0507 72.5016 48.0507C73.0446 48.0507 73.5877 47.915 73.995 47.5077C74.4024 47.2361 74.5381 46.693 74.4024 46.15ZM73.5877 47.1003C73.3162 47.3719 72.9089 47.5077 72.3658 47.3719C71.4154 47.3719 71.0081 46.8288 71.0081 46.0142C71.0081 45.4711 71.4154 45.3353 71.9585 45.3353C72.7731 45.3353 73.452 45.7426 73.8593 46.4215C73.8593 46.5573 73.8593 46.8288 73.5877 47.1003ZM74.4024 46.15C74.2666 45.8784 74.1308 45.7426 73.995 45.4711C73.5877 45.0638 73.0446 44.6565 72.3658 44.6565C72.23 44.6565 72.0943 44.6565 71.8227 44.6565C71.2796 44.5207 70.7365 44.928 70.465 45.3353C70.3292 45.6069 70.3292 45.7426 70.3292 46.0142C70.3292 47.3719 71.2796 48.0507 72.5016 48.0507C73.0446 48.0507 73.5877 47.915 73.995 47.5077C74.4024 47.2361 74.5381 46.693 74.4024 46.15ZM73.5877 47.1003C73.3162 47.3719 72.9089 47.5077 72.3658 47.3719C71.4154 47.3719 71.0081 46.8288 71.0081 46.0142C71.0081 45.4711 71.4154 45.3353 71.9585 45.3353C72.7731 45.3353 73.452 45.7426 73.8593 46.4215C73.8593 46.5573 73.8593 46.8288 73.5877 47.1003ZM74.4024 46.15C74.2666 45.8784 74.1308 45.7426 73.995 45.4711C73.5877 45.0638 73.0446 44.6565 72.3658 44.6565C72.23 44.6565 72.0943 44.6565 71.8227 44.6565C71.2796 44.5207 70.7365 44.928 70.465 45.3353C70.3292 45.6069 70.3292 45.7426 70.3292 46.0142C70.3292 47.3719 71.2796 48.0507 72.5016 48.0507C73.0446 48.0507 73.5877 47.915 73.995 47.5077C74.4024 47.2361 74.5381 46.693 74.4024 46.15ZM73.5877 47.1003C73.3162 47.3719 72.9089 47.5077 72.3658 47.3719C71.4154 47.3719 71.0081 46.8288 71.0081 46.0142C71.0081 45.4711 71.4154 45.3353 71.9585 45.3353C72.7731 45.3353 73.452 45.7426 73.8593 46.4215C73.8593 46.5573 73.8593 46.8288 73.5877 47.1003ZM74.4024 46.15C74.2666 45.8784 74.1308 45.7426 73.995 45.4711C73.5877 45.0638 73.0446 44.6565 72.3658 44.6565C72.23 44.6565 72.0943 44.6565 71.8227 44.6565C71.2796 44.5207 70.7365 44.928 70.465 45.3353C70.3292 45.6069 70.3292 45.7426 70.3292 46.0142C70.3292 47.3719 71.2796 48.0507 72.5016 48.0507C73.0446 48.0507 73.5877 47.915 73.995 47.5077C74.4024 47.2361 74.5381 46.693 74.4024 46.15ZM73.5877 47.1003C73.3162 47.3719 72.9089 47.5077 72.3658 47.3719C71.4154 47.3719 71.0081 46.8288 71.0081 46.0142C71.0081 45.4711 71.4154 45.3353 71.9585 45.3353C72.7731 45.3353 73.452 45.7426 73.8593 46.4215C73.8593 46.5573 73.8593 46.8288 73.5877 47.1003Z" fill="black"/>
<path id="Vector_20" d="M97.8906 50.9016C97.4833 49.6797 96.2614 48.8651 95.0395 49.0008C93.4102 49.0008 93.1387 50.087 92.7314 51.4447C92.4598 52.3951 92.1883 53.3455 91.5094 53.3455H91.3737C90.1517 53.074 89.8802 51.3089 89.8802 49.9512C89.8802 49.5439 89.8802 49.2724 89.8802 48.8651C90.9663 48.5935 92.0525 48.322 93.1387 47.9147C93.2744 47.9147 93.4102 47.7789 93.546 47.6431C93.8175 47.1001 93.9533 46.557 93.9533 46.0139C93.9533 45.1993 93.6818 44.2489 93.0029 43.57C92.4598 43.2985 91.9167 43.1627 91.3737 43.1627C90.9663 43.1627 90.559 43.1627 90.1517 43.2985C90.4233 42.2123 90.4233 40.9904 90.1517 39.7684C89.7444 38.1392 87.7078 38.0034 86.3501 38.0034H85.6713C83.499 38.1392 83.499 41.9408 83.499 43.2985C81.7339 43.2985 80.6478 43.7058 80.512 45.7423C80.3762 46.4212 80.6478 47.2358 81.0551 47.7789C81.5982 48.4578 82.4128 48.8651 83.3632 49.0008C83.499 49.5439 83.499 50.7659 83.6347 51.9878C84.042 56.1967 87.4363 59.3194 91.6452 59.4552C94.9037 59.4552 97.2118 57.2829 98.1622 54.2959C98.1622 53.074 98.1622 51.9878 97.8906 50.9016ZM97.076 53.8886C96.2614 56.604 94.2248 58.5048 91.2379 58.5048C87.4363 58.369 84.3136 55.5178 83.9063 51.7163C83.7705 50.6301 83.7705 49.6797 83.6347 49.1366C83.499 47.9147 83.6347 46.557 84.3136 45.4708C83.499 46.1497 83.0916 47.1001 82.9559 48.1862C82.277 48.1862 81.5982 47.7789 81.1909 47.2358C80.9193 46.8285 80.7835 46.1497 80.7835 45.6066C80.9193 44.2489 81.5982 43.8416 82.8201 43.8416C82.9559 43.8416 83.2274 43.8416 83.3632 43.8416H83.7705V43.0269C83.6347 41.9408 83.7705 38.5465 85.264 38.5465C85.5355 38.5465 85.6713 38.5465 85.9428 38.5465C86.8932 38.5465 88.794 38.5465 89.2013 39.7684C89.3371 40.9904 89.3371 42.0765 89.0656 43.2985V43.4342L88.9298 43.9773L89.4729 43.8416C90.016 43.7058 90.559 43.7058 91.1021 43.7058C92.5956 43.7058 92.8671 44.5204 93.0029 45.8781C93.0029 46.2854 93.0029 46.6927 92.7314 47.1001C92.4598 47.3716 89.7444 48.1862 89.2013 48.1862H88.9298V48.4578C88.9298 48.7293 88.9298 49.0008 88.9298 49.2724C88.9298 49.6797 88.9298 50.3585 89.0656 51.0374C89.0656 51.4447 89.2013 51.7163 89.3371 52.1236C89.6086 53.2097 90.2875 54.1601 91.5094 54.1601C92.7314 54.1601 93.0029 52.9382 93.2744 51.7163L93.4102 51.4447C93.6818 50.3586 93.8175 49.6797 95.0395 49.6797C95.9899 49.6797 96.9402 50.2228 97.3476 51.1732C97.4833 51.9878 97.4833 53.074 97.076 53.8886Z" fill="black"/>
<path id="Vector_21" d="M18.4648 42.4841C18.329 41.5337 18.0575 40.5833 17.5144 39.7687C15.7494 37.0533 12.8982 36.646 9.91125 36.646C6.38121 36.646 1.08615 37.5964 0.814612 42.0768C0.54307 45.4711 0.678841 49.0011 1.08615 52.3954C1.22192 53.21 1.49346 54.0246 1.76501 54.8393C2.03655 55.6539 2.57963 56.3327 3.25848 56.6043C4.07311 57.0116 4.88773 57.1474 5.56659 57.1474C7.87469 57.1474 9.50393 56.0612 9.6397 53.6173C9.6397 53.0742 9.6397 52.5312 9.50393 51.9881C9.36816 51.1735 9.09662 50.3588 8.82508 49.5442C8.68931 48.8654 8.41777 48.1865 8.282 47.5076C7.73892 46.5573 7.46737 45.6069 7.46737 44.5207C7.73892 45.0638 8.01046 45.6069 8.282 46.1499L8.96085 47.1003C9.77548 47.915 10.8616 48.458 12.0836 48.3223C14.3917 48.3223 16.9713 47.2361 18.0575 45.0638C18.329 44.3849 18.6006 43.4345 18.4648 42.4841ZM13.034 43.2988C12.8982 43.5703 12.7624 43.7061 12.4909 43.8418C12.2193 43.9776 11.9478 44.1134 11.6763 44.1134C10.9974 44.1134 10.4543 43.7061 10.1828 43.0272C10.1828 42.8914 10.1828 42.6199 10.1828 42.4841C10.3186 41.6695 10.9974 40.9907 11.812 40.8549C12.4909 40.8549 13.1697 41.398 13.3055 42.0768C13.4413 42.4841 13.3055 42.8914 13.034 43.2988Z" fill="#888888"/>
<path id="Vector_22" d="M26.7468 47.6434C26.7468 47.915 26.7468 48.1865 26.7468 48.5938C26.7468 49.1369 26.7468 49.68 26.611 50.2231C26.4753 51.9881 26.2037 53.7531 25.6606 55.3823C25.2533 56.3327 24.5745 57.0116 23.6241 57.0116C23.2168 57.0116 22.9452 56.8758 22.6737 56.7401C22.1306 56.4685 21.7233 54.432 21.4518 51.8523C21.1802 47.915 21.1802 43.8418 21.316 39.9045C21.4518 38.411 22.2664 36.646 23.8956 36.646C25.6607 36.646 26.3395 38.2752 26.611 39.7687C27.1541 42.2126 27.0184 45.1995 26.7468 47.6434Z" fill="#888888"/>
<path id="Vector_23" d="M27.4257 39.9051C27.0184 38.0043 26.2037 36.2393 24.0314 36.2393C23.7599 36.2393 23.4883 36.2393 23.2168 36.375L22.8095 36.5108C22.1306 36.7823 20.7729 37.7327 20.6371 40.1766C20.3656 44.114 20.5014 48.1871 20.7729 52.2602C20.9087 53.4821 21.0445 54.7041 21.316 55.926C21.5875 56.8764 21.8591 57.5553 22.4022 57.691C22.8095 57.8268 23.2168 57.9626 23.7599 57.9626C24.7103 57.9626 25.6607 57.2837 25.9322 56.4691C27.0184 54.5683 27.2899 51.174 27.2899 48.8659C27.2899 48.4586 27.2899 48.1871 27.4257 47.9155C27.6972 45.0644 27.6972 42.4847 27.4257 39.9051ZM26.7468 47.644C26.7468 47.9155 26.7468 48.1871 26.7468 48.5944C26.7468 49.1375 26.7468 49.6806 26.6111 50.2236C26.4753 51.9887 26.2037 53.7537 25.6607 55.3829C25.2534 56.3333 24.5745 57.0122 23.6241 57.0122C23.2168 57.0122 22.9453 56.8764 22.6737 56.7406C22.1306 56.4691 21.7233 54.4325 21.4518 51.8529C21.1802 47.9155 21.1802 43.8424 21.316 39.9051C21.4518 38.4116 22.2664 36.6466 23.8956 36.6466C25.6607 36.6466 26.3395 38.2758 26.6111 39.7693C27.1541 42.2132 27.0184 45.2001 26.7468 47.644Z" fill="#1D1D1B"/>
<path id="Vector_24" d="M37.88 48.4584C37.7443 47.9153 37.2012 47.508 36.6581 47.508C35.4362 47.508 34.4858 48.3226 34.2142 49.4088C34.0785 49.6803 34.0785 49.9518 34.0785 50.2234C34.2142 51.3096 35.1646 51.5811 36.115 51.5811C37.2012 51.4453 38.0158 50.2234 38.0158 49.273C38.0158 49.0015 38.0158 48.7299 37.88 48.4584ZM37.337 49.273C37.2012 49.9518 36.7939 50.9022 36.115 51.038C35.5719 51.038 34.8931 50.9022 34.7573 50.3592V50.0876L34.8931 49.8161C35.0289 49.1372 35.5719 48.7299 36.115 48.3226C36.2508 48.3226 36.3866 48.1868 36.5223 48.1868H36.6581C36.9296 48.1868 37.2012 48.3226 37.337 48.5941C37.337 48.8657 37.337 49.0015 37.337 49.273ZM37.88 48.4584C37.7443 47.9153 37.2012 47.508 36.6581 47.508C35.4362 47.508 34.4858 48.3226 34.2142 49.4088C34.0785 49.6803 34.0785 49.9518 34.0785 50.2234C34.2142 51.3096 35.1646 51.5811 36.115 51.5811C37.2012 51.4453 38.0158 50.2234 38.0158 49.273C38.0158 49.0015 38.0158 48.7299 37.88 48.4584ZM37.337 49.273C37.2012 49.9518 36.7939 50.9022 36.115 51.038C35.5719 51.038 34.8931 50.9022 34.7573 50.3592V50.0876L34.8931 49.8161C35.0289 49.1372 35.5719 48.7299 36.115 48.3226C36.2508 48.3226 36.3866 48.1868 36.5223 48.1868H36.6581C36.9296 48.1868 37.2012 48.3226 37.337 48.5941C37.337 48.8657 37.337 49.0015 37.337 49.273ZM46.0263 54.4323C45.7547 53.3461 44.8043 51.1738 43.8539 50.4949C44.1255 49.273 44.5328 43.1633 39.6451 42.2129C39.102 42.0771 38.5589 42.0771 38.0158 42.0771C36.9296 42.0771 35.8435 42.3487 34.8931 42.756C31.9061 44.1137 29.7338 46.8291 28.9192 50.0876C28.5119 51.7169 28.6476 53.4819 29.3265 54.9754C30.1411 56.8762 32.0419 58.0981 34.0785 58.0981C36.115 58.0981 38.0158 57.2835 39.3735 55.79C39.9166 57.0119 41.1385 57.8265 42.4962 57.8265C43.8539 57.8265 45.619 56.6046 45.8905 55.2469C46.0263 54.7038 46.0263 54.568 46.0263 54.4323ZM45.3474 54.7038C45.0759 55.79 43.7182 56.7404 42.4962 56.7404C41.2743 56.7404 40.0524 55.9258 39.7808 54.5681C40.1881 53.7534 40.4597 52.803 40.7312 51.7169C40.4597 52.3957 40.0524 53.0746 39.6451 53.7534L39.102 54.4323C37.88 56.0615 35.9793 56.8762 33.9427 57.0119C32.1777 57.1477 30.4127 56.0615 29.8696 54.4323C29.3265 52.9388 29.1907 51.4453 29.598 49.9518C29.8696 49.0015 30.1411 48.0511 30.6842 47.2364C32.1777 44.6568 34.8931 42.6202 37.88 42.6202C38.4231 42.6202 38.8304 42.6202 39.3735 42.756C43.3109 43.5706 43.3109 48.4584 43.1751 50.0876L43.0393 50.7665L43.3109 50.9022C44.1255 51.3096 45.2117 53.6177 45.3474 54.5681V54.7038ZM36.6581 47.508C35.4362 47.508 34.4858 48.3226 34.2142 49.4088C34.0785 49.6803 34.0785 49.9518 34.0785 50.2234C34.2142 51.3096 35.1646 51.5811 36.115 51.5811C37.2012 51.4453 38.0158 50.2234 38.0158 49.273C38.0158 49.0015 38.0158 48.5941 37.88 48.3226C37.7443 47.9153 37.2012 47.508 36.6581 47.508ZM37.337 49.273C37.2012 49.9518 36.7939 50.9022 36.115 51.038C35.5719 51.038 34.8931 50.9022 34.7573 50.3592V50.0876L34.8931 49.8161C35.0289 49.1372 35.5719 48.7299 36.115 48.3226C36.2508 48.3226 36.3866 48.1868 36.5223 48.1868H36.6581C36.9296 48.1868 37.2012 48.3226 37.337 48.5941C37.337 48.8657 37.337 49.0015 37.337 49.273ZM37.88 48.4584C37.7443 47.9153 37.2012 47.508 36.6581 47.508C35.4362 47.508 34.4858 48.3226 34.2142 49.4088C34.0785 49.6803 34.0785 49.9518 34.0785 50.2234C34.2142 51.3096 35.1646 51.5811 36.115 51.5811C37.2012 51.4453 38.0158 50.2234 38.0158 49.273C38.0158 49.0015 38.0158 48.7299 37.88 48.4584ZM37.337 49.273C37.2012 49.9518 36.7939 50.9022 36.115 51.038C35.5719 51.038 34.8931 50.9022 34.7573 50.3592V50.0876L34.8931 49.8161C35.0289 49.1372 35.5719 48.7299 36.115 48.3226C36.2508 48.3226 36.3866 48.1868 36.5223 48.1868H36.6581C36.9296 48.1868 37.2012 48.3226 37.337 48.5941C37.337 48.8657 37.337 49.0015 37.337 49.273ZM37.88 48.4584C37.7443 47.9153 37.2012 47.508 36.6581 47.508C35.4362 47.508 34.4858 48.3226 34.2142 49.4088C34.0785 49.6803 34.0785 49.9518 34.0785 50.2234C34.2142 51.3096 35.1646 51.5811 36.115 51.5811C37.2012 51.4453 38.0158 50.2234 38.0158 49.273C38.0158 49.0015 38.0158 48.7299 37.88 48.4584ZM37.337 49.273C37.2012 49.9518 36.7939 50.9022 36.115 51.038C35.5719 51.038 34.8931 50.9022 34.7573 50.3592V50.0876L34.8931 49.8161C35.0289 49.1372 35.5719 48.7299 36.115 48.3226C36.2508 48.3226 36.3866 48.1868 36.5223 48.1868H36.6581C36.9296 48.1868 37.2012 48.3226 37.337 48.5941C37.337 48.8657 37.337 49.0015 37.337 49.273Z" fill="#1D1D1B"/>
<path id="Vector_25" d="M43.4466 50.9021L43.1751 50.7664L43.3108 50.0875C43.4466 48.594 43.5824 43.7063 39.5093 42.7559C38.9662 42.6201 38.5589 42.6201 38.0158 42.6201C35.0288 42.6201 32.3134 44.6567 30.8199 47.2363C30.2769 48.0509 29.8695 49.0013 29.7338 49.9517C29.3265 51.4452 29.4622 53.0745 30.0053 54.4322C30.6842 56.0614 32.3134 57.1476 34.0784 57.0118C36.115 57.0118 38.0158 56.0614 39.2377 54.4322L39.645 53.7533C40.0524 53.0745 40.3239 52.3956 40.7312 51.7168C40.5954 52.6671 40.3239 53.6175 39.7808 54.5679C40.0523 55.7899 41.1385 56.7403 42.4962 56.7403C43.5824 56.7403 45.0759 55.7899 45.3474 54.7037V54.4322C45.2116 53.7533 44.1255 51.3094 43.4466 50.9021ZM38.0158 49.2729C37.88 50.2233 37.0654 51.581 36.115 51.581C35.1646 51.581 34.0784 51.3094 34.0784 50.2233C34.0784 49.9517 34.0784 49.6802 34.2142 49.4087C34.4858 48.3225 35.5719 47.5079 36.6581 47.5079C37.2012 47.5079 37.7442 47.9152 37.88 48.3225C38.0158 48.7298 38.0158 49.0013 38.0158 49.2729Z" fill="#888888"/>
<path id="Vector_26" d="M61.7757 52.9387C61.6399 54.8395 61.3683 57.1476 59.0602 57.1476C58.5172 57.1476 57.8383 57.0118 57.431 56.4687C57.2952 56.1972 57.1595 55.9256 57.1595 55.6541V55.3826C57.1595 54.0249 57.1595 52.6671 57.0237 51.4452C56.7521 49.816 56.2091 48.4583 54.8514 48.4583H54.5798C52.0002 48.8656 52.4075 52.1241 52.679 54.4322C52.8148 54.9752 52.8148 55.5183 52.8148 56.0614C52.679 56.4687 52.4075 56.7403 52.1359 56.876C51.5929 57.0118 51.3213 57.0118 50.914 57.0118C50.2352 57.0118 49.5563 56.7403 49.0132 56.1972C48.6059 55.5183 48.3344 53.7533 48.1986 51.7168C47.927 49.6802 47.927 47.6436 48.1986 45.4713C48.4701 43.5705 49.0132 42.6201 50.914 42.6201H51.1855H51.4571C52.1359 42.6201 52.679 43.0274 52.8148 43.5705C52.9506 43.8421 52.9506 44.2494 52.9506 44.5209V44.7924C52.4075 45.4713 52.1359 46.4217 52.0002 47.2363C52.2717 46.4217 52.8148 45.7428 53.2221 45.1998L53.4936 44.9282C54.444 43.8421 55.666 43.1632 57.1595 43.1632C59.3318 43.1632 60.8253 44.9282 61.2326 46.9648C61.6399 49.0013 61.7757 50.9021 61.7757 52.9387Z" fill="#888888"/>
<path id="Vector_27" d="M61.9115 46.8291C61.5042 44.3853 59.7392 42.4845 57.2953 42.4845C55.9376 42.4845 54.5799 43.0275 53.6295 43.9779C53.6295 43.2991 53.2222 42.756 52.6791 42.4845C52.136 42.2129 51.5929 42.0771 50.9141 42.0771C48.606 42.0771 47.7913 43.2991 47.5198 45.4714C47.384 47.6437 47.384 49.6803 47.5198 51.8526C47.6556 53.8892 47.9271 55.79 48.4702 56.6046C49.0133 57.4192 49.9637 57.8265 50.9141 57.8265C51.8645 57.8265 53.3579 57.4192 53.4937 56.1973C53.4937 55.6542 53.4937 54.9754 53.3579 54.4323C53.0864 52.3957 52.8149 49.5445 54.7156 49.1372H54.8514C55.8018 49.1372 56.2091 50.2234 56.3449 51.5811C56.4807 52.803 56.6164 54.1607 56.4807 55.3827V55.6542C56.4807 57.1477 57.7026 57.8265 58.9245 57.8265C61.6399 57.8265 62.3188 55.3827 62.3188 53.0746C62.4546 50.9022 62.3188 48.8657 61.9115 46.8291ZM61.7757 52.9388C61.6399 54.8396 61.3684 57.1477 59.0603 57.1477C58.5172 57.1477 57.8384 57.0119 57.4311 56.4688C57.2953 56.1973 57.1595 55.9258 57.1595 55.6542V55.3827C57.1595 54.025 57.1595 52.6673 57.0237 51.4453C56.7522 49.8161 56.2091 48.4584 54.8514 48.4584H54.5799C52.0002 48.8657 52.4075 52.1242 52.6791 54.4323C52.8149 54.9754 52.8149 55.5184 52.8149 56.0615C52.6791 56.4688 52.4075 56.7404 52.136 56.8762C51.5929 57.0119 51.3214 57.0119 50.9141 57.0119C50.2352 57.0119 49.5564 56.7404 49.0133 56.1973C48.606 55.5184 48.3344 53.7534 48.1987 51.7169C47.9271 49.6803 47.9271 47.6437 48.1987 45.4714C48.4702 43.5706 49.0133 42.6202 50.9141 42.6202H51.1856H51.4571C52.136 42.6202 52.6791 43.0275 52.8149 43.5706C52.9506 43.8422 52.9506 44.2495 52.9506 44.521V44.7926C52.4075 45.4714 52.136 46.4218 52.0002 47.2364C52.2718 46.4218 52.8149 45.743 53.2222 45.1999L53.4937 44.9283C54.4441 43.8422 55.666 43.1633 57.1595 43.1633C59.3318 43.1633 60.8253 44.9283 61.2326 46.9649C61.6399 49.0015 61.7757 50.9022 61.7757 52.9388Z" fill="#1D1D1B"/>
<path id="Vector_28" d="M71.9585 41.2622C70.7365 41.2622 69.3788 41.398 68.1569 41.8053C66.935 42.2126 65.8488 43.163 65.1699 44.2492C64.2196 45.8784 63.6765 47.6434 63.5407 49.5442C63.4049 51.5808 63.8122 53.6173 65.0342 55.3824C66.2561 57.0116 68.2927 57.962 70.3292 57.8262C72.9089 57.8262 75.7601 57.1474 76.5747 54.2962C76.8462 53.4816 76.7105 52.6669 76.3031 51.9881C75.7601 51.3092 74.8097 50.9019 73.8593 51.0377C72.6373 51.0377 71.4154 51.445 70.465 52.2596C70.1935 51.7165 69.7861 50.7662 70.3292 49.9515C70.6008 50.0873 70.8723 50.0873 71.0081 50.2231C72.0942 50.4946 73.0446 50.7662 74.1308 50.7662C75.7601 50.7662 76.982 50.4946 77.9324 49.0011C78.4755 48.0507 78.747 46.8288 78.747 45.7426C78.8828 42.2126 74.6739 41.2622 71.9585 41.2622ZM77.5251 48.5938C76.8462 49.8158 75.6243 50.0873 74.4024 50.0873C73.452 50.0873 72.5016 49.9515 71.6869 49.68C71.2796 49.5442 70.8723 49.4084 70.6008 49.2727C69.6504 48.8654 68.9715 48.3223 68.4284 47.5077C68.7 48.4581 69.2431 49.1369 69.9219 49.68C69.5146 50.3588 69.3788 51.1735 69.6504 51.9881C69.7861 52.3954 69.9219 52.8027 70.1935 53.0743L70.465 53.4816L70.7365 53.0743C71.2796 52.2596 72.7731 51.8523 73.8593 51.8523C74.5381 51.7166 75.217 51.9881 75.7601 52.5312C76.0316 53.0743 76.1674 53.6173 75.8958 54.2962C75.217 56.7401 72.5016 57.2831 70.3292 57.2831C68.2927 57.4189 66.2561 56.3328 65.1699 54.432C64.4911 52.9385 64.0838 51.3092 64.2196 49.8158C64.3553 47.5077 65.1699 44.7922 67.0707 43.4345C68.2927 42.6199 70.3292 42.2126 71.8227 42.2126C73.995 42.2126 77.9324 42.8915 78.0682 45.7426C78.2039 46.5573 77.9324 47.6434 77.5251 48.5938ZM73.995 45.4711C73.5877 45.0638 73.0446 44.6565 72.3658 44.6565C72.23 44.6565 72.0943 44.6565 71.8227 44.6565C71.2796 44.5207 70.7365 44.928 70.465 45.3353C70.3292 45.6069 70.3292 45.7426 70.3292 46.0142C70.3292 47.3719 71.2796 48.0507 72.5016 48.0507C73.0446 48.0507 73.5877 47.915 73.995 47.5077C74.4024 47.1003 74.5381 46.5573 74.4024 46.15C74.4024 45.8784 74.2666 45.7426 73.995 45.4711ZM73.5877 47.1003C73.3162 47.3719 72.9089 47.5077 72.3658 47.3719C71.4154 47.3719 71.0081 46.8288 71.0081 46.0142C71.0081 45.4711 71.4154 45.3353 71.9585 45.3353C72.7731 45.3353 73.452 45.7426 73.8593 46.4215C73.8593 46.5573 73.8593 46.8288 73.5877 47.1003Z" fill="#1D1D1B"/>
<path id="Vector_29" d="M71.9585 41.9409C70.465 41.9409 68.4284 42.2125 67.2065 43.1629C65.3057 44.5206 64.4911 47.3717 64.3553 49.5441C64.2195 51.1733 64.4911 52.8026 65.3057 54.1603C66.3919 55.9253 68.2926 57.0115 70.465 57.0115C72.6373 57.0115 75.4885 56.4684 76.0316 54.0245C76.3031 53.4814 76.1673 52.8026 75.8958 52.2595C75.3527 51.7164 74.6739 51.4449 73.995 51.5806C72.9088 51.5806 71.4154 51.988 70.8723 52.8026L70.6007 53.2099L70.1934 52.9383C69.9219 52.531 69.7861 52.2595 69.6504 51.8522C69.3788 51.1733 69.3788 50.2229 69.9219 49.5441C69.1073 49.001 68.5642 48.1864 68.4284 47.3717C68.9715 48.1864 69.7861 48.7295 70.6007 49.1368C71.0081 49.2725 71.2796 49.4083 71.6869 49.5441C72.6373 49.8156 73.4519 49.9514 74.4023 49.9514C75.76 49.9514 76.8462 49.8156 77.5251 48.4579C78.0681 47.5075 78.2039 46.5571 78.2039 45.471C78.2039 42.7555 74.2666 41.9409 71.9585 41.9409ZM74.1308 47.5075C73.7235 47.9148 73.1804 48.0506 72.6373 48.0506C71.4154 48.0506 70.465 47.3717 70.465 46.014C70.465 45.7425 70.465 45.471 70.6007 45.3352C70.8723 44.7921 71.4154 44.5206 71.9585 44.6563C72.0942 44.6563 72.23 44.6563 72.5015 44.6563C73.1804 44.6563 73.7235 45.0636 74.1308 45.471C74.2666 45.6067 74.4023 45.8783 74.5381 46.1498C74.5381 46.6929 74.4023 47.236 74.1308 47.5075Z" fill="#888888"/>
<path id="Vector_30" d="M97.076 53.889C96.2614 56.6044 94.2249 58.5052 91.2379 58.5052C87.4363 58.3694 84.3136 55.5182 83.9063 51.7166C83.7705 50.6305 83.7705 49.6801 83.6348 49.137C83.499 47.9151 83.6348 46.5573 84.3136 45.4712C83.499 46.15 83.0917 47.1004 82.9559 48.1866C82.277 48.1866 81.5982 47.7793 81.1909 47.2362C80.9193 46.8289 80.7836 46.15 80.7836 45.6069C80.9193 44.2492 81.5982 43.8419 82.8201 43.8419C82.9559 43.8419 83.2274 43.8419 83.3632 43.8419H83.7705V43.0273C83.6348 41.9411 83.7705 38.5469 85.264 38.5469C85.5355 38.5469 85.6713 38.5469 85.9429 38.5469C86.8932 38.5469 88.9298 38.5469 89.2013 39.7688C89.3371 40.9907 89.3371 42.0769 89.0656 43.2988V43.4346L88.9298 43.9777L89.4729 43.8419C90.016 43.7062 90.5591 43.7062 91.1021 43.7062C92.5956 43.7062 92.8672 44.5208 93.0029 45.8785C93.0029 46.2858 93.0029 46.6931 92.7314 47.1004C92.4599 47.372 89.7444 48.1866 89.2013 48.1866H88.9298V48.4581C88.9298 48.7297 88.9298 49.0012 88.9298 49.2728C88.9298 49.6801 88.9298 50.3589 89.0656 51.0378C89.0656 51.4451 89.2014 51.7166 89.3371 52.1239C89.6087 53.2101 90.2875 54.1605 91.5095 54.1605C92.7314 54.1605 93.0029 52.9386 93.2745 51.7166L93.4102 51.4451C93.6818 50.3589 93.8176 49.6801 95.0395 49.6801C95.9899 49.6801 96.9403 50.2232 97.3476 51.1735C97.4834 51.9882 97.4834 53.0743 97.076 53.889Z" fill="#888888"/>
<path id="Vector_31" d="M97.8906 50.9016C97.4833 49.6797 96.2614 48.8651 95.0395 49.0008C93.4102 49.0008 93.1387 50.087 92.7314 51.4447C92.4598 52.3951 92.1883 53.3455 91.5094 53.3455H91.3737C90.1517 53.074 89.8802 51.3089 89.8802 49.9512C89.8802 49.5439 89.8802 49.2724 89.8802 48.8651C90.9663 48.5935 92.0525 48.322 93.1387 47.9147C93.2744 47.9147 93.4102 47.7789 93.546 47.6431C93.8175 47.1001 93.9533 46.557 93.9533 46.0139C93.9533 45.1993 93.6818 44.2489 93.0029 43.57C92.4598 43.2985 91.9167 43.1627 91.3737 43.1627C90.9663 43.1627 90.559 43.1627 90.1517 43.2985C90.4233 42.2123 90.4233 40.9904 90.1517 39.7684C89.7444 38.1392 87.7078 38.0034 86.3501 38.0034H85.6713C83.499 38.1392 83.499 41.9408 83.499 43.2985C81.7339 43.2985 80.6478 43.7058 80.512 45.7423C80.3762 46.4212 80.6478 47.2358 81.0551 47.7789C81.5982 48.4578 82.4128 48.8651 83.3632 49.0008C83.499 49.5439 83.499 50.7659 83.6347 51.9878C84.042 56.1967 87.4363 59.3194 91.6452 59.4552C94.9037 59.4552 97.2118 57.2829 98.1622 54.2959C98.1622 53.074 98.1622 51.9878 97.8906 50.9016ZM97.076 53.8886C96.2614 56.604 94.2248 58.5048 91.2379 58.5048C87.4363 58.369 84.3136 55.5178 83.9063 51.7163C83.7705 50.6301 83.7705 49.6797 83.6347 49.1366C83.499 47.9147 83.6347 46.557 84.3136 45.4708C83.499 46.1497 83.0916 47.1001 82.9559 48.1862C82.277 48.1862 81.5982 47.7789 81.1909 47.2358C80.9193 46.8285 80.7835 46.1497 80.7835 45.6066C80.9193 44.2489 81.5982 43.8416 82.8201 43.8416C82.9559 43.8416 83.2274 43.8416 83.3632 43.8416H83.7705V43.0269C83.6347 41.9408 83.7705 38.5465 85.264 38.5465C85.5355 38.5465 85.6713 38.5465 85.9428 38.5465C86.8932 38.5465 88.794 38.5465 89.2013 39.7684C89.3371 40.9904 89.3371 42.0765 89.0656 43.2985V43.4342L88.9298 43.9773L89.4729 43.8416C90.016 43.7058 90.559 43.7058 91.1021 43.7058C92.5956 43.7058 92.8671 44.5204 93.0029 45.8781C93.0029 46.2854 93.0029 46.6927 92.7314 47.1001C92.4598 47.3716 89.7444 48.1862 89.2013 48.1862H88.9298V48.4578C88.9298 48.7293 88.9298 49.0008 88.9298 49.2724C88.9298 49.6797 88.9298 50.3585 89.0656 51.0374C89.0656 51.4447 89.2013 51.7163 89.3371 52.1236C89.6086 53.2097 90.2875 54.1601 91.5094 54.1601C92.7314 54.1601 93.0029 52.9382 93.2744 51.7163L93.4102 51.4447C93.6818 50.3586 93.8175 49.6797 95.0395 49.6797C95.9899 49.6797 96.9402 50.2228 97.3476 51.1732C97.4833 51.9878 97.4833 53.074 97.076 53.8886Z" fill="#1D1D1B"/>
<path id="Vector_32" d="M22.6737 7.45557C22.4021 8.13442 22.1306 8.81327 21.8591 9.35636C21.5875 10.0352 21.316 10.5783 20.9087 11.1214L20.3656 12.0718C20.2298 12.2075 20.094 12.3433 20.094 12.4791C19.9583 12.6149 19.9583 12.7506 19.8225 13.0222C19.551 13.701 19.551 14.3799 19.551 15.0587C19.6867 15.7376 19.6867 16.4164 19.6867 17.0953C19.6867 17.7741 19.8225 18.453 19.8225 19.1318C19.8225 19.4034 19.8225 19.8107 19.8225 20.218C19.8225 20.6253 19.8225 20.8969 19.8225 21.3042C19.8225 21.983 19.8225 22.7977 19.6867 23.4765L19.551 23.6123C19.1436 22.9334 18.7363 22.3903 18.4648 21.5757C18.329 21.1684 18.1932 20.8969 18.1932 20.4896C18.0575 20.0822 18.0575 19.8107 18.0575 19.4034C17.9217 18.7245 18.0575 17.9099 18.0575 17.2311C18.0575 16.8237 18.1932 16.5522 18.1932 16.1449C18.329 15.7376 18.4648 15.466 18.6006 15.0587C18.7363 14.6514 18.8721 14.3799 19.0079 13.9726C19.1436 13.5652 19.1436 13.2937 19.2794 12.8864C19.2794 12.7506 19.2794 12.4791 19.4152 12.3433C19.4152 12.2075 19.4152 11.936 19.4152 11.8002C19.4152 11.3929 19.551 10.9856 19.551 10.7141C19.551 10.5783 19.6867 10.3068 19.6867 10.171C19.8225 10.0352 19.8225 9.89944 19.9583 9.6279C20.094 9.35636 20.3656 8.94904 20.6371 8.6775C21.1802 7.99865 21.8591 7.59134 22.6737 7.45557Z" fill="#282828"/>
<path id="Vector_33" d="M75.8958 11.9357C75.2169 12.0715 74.6739 12.2073 74.1308 12.343C73.5877 12.343 73.0446 12.4788 72.5015 12.6146C71.9584 12.7503 71.5511 13.1577 71.4154 13.7007C71.1438 14.2438 71.008 14.7869 71.1438 15.33C71.008 14.7869 71.008 14.108 71.1438 13.4292C71.2796 12.7503 71.8227 12.2073 72.3658 11.9357C73.3161 11.2569 74.8096 11.1211 75.8958 11.9357Z" fill="#282828"/>
<path id="Vector_34" d="M38.0158 44.2487C37.4727 44.3845 36.9296 44.656 36.2508 44.656C35.7077 44.656 35.1646 44.7918 34.7573 44.9276C34.2142 45.0634 33.9427 45.4707 33.6711 45.878C33.3996 46.4211 33.2638 46.9641 33.2638 47.5072H33.128C32.9923 46.9641 32.8565 46.2853 32.9923 45.6064C33.128 45.3349 33.2638 44.9276 33.3996 44.656C33.6711 44.3845 33.9427 44.113 34.2142 43.9772C34.7573 43.5699 35.4361 43.4341 36.115 43.2983C36.3865 43.2983 36.7939 43.2983 37.0654 43.4341C37.4727 43.7057 37.7442 43.8414 38.0158 44.2487Z" fill="#282828"/>
<path id="Vector_35" d="M60.1464 46.4214C59.7391 46.0141 59.196 45.7426 58.6529 45.471C58.1098 45.1995 57.7025 45.0637 57.1594 44.9279C56.8879 44.9279 56.6164 44.9279 56.4806 45.0637C56.209 45.0637 56.0733 45.1995 55.8017 45.3352C55.2586 45.6068 54.8513 45.8783 54.3083 46.1499H54.1725C54.1725 45.8783 54.3083 45.471 54.444 45.1995C54.5798 44.9279 54.8513 44.6564 55.1229 44.3849C55.3944 44.1133 55.8017 43.9775 56.209 43.9775C56.6164 43.9775 56.8879 43.9775 57.2952 44.1133C57.9741 44.2491 58.5171 44.6564 58.9245 45.0637C59.4675 45.3352 59.8749 45.7426 60.1464 46.4214Z" fill="#282828"/>
<path id="Vector_36" d="M30.5484 53.2104C31.0915 53.482 31.6346 53.7535 32.0419 54.1608C32.4492 54.4324 32.8565 54.8397 33.2638 55.1112C33.6711 55.3828 34.2142 55.3828 34.7573 55.247C35.3004 55.1112 35.8435 54.7039 36.2508 54.2966L36.3865 54.4324C36.115 54.9755 35.5719 55.5185 35.0288 55.7901C34.7573 55.9259 34.35 56.0616 34.0784 56.0616C33.6711 56.0616 33.3996 56.0616 32.9923 55.9259C32.3134 55.7901 31.7703 55.5185 31.2273 54.9755C30.9557 54.7039 30.8199 54.4324 30.6842 54.1608C30.5484 54.0251 30.5484 53.6178 30.5484 53.2104Z" fill="#282828"/>
<path id="Vector_37" d="M41.5458 11.5283L41.2743 13.4291C41.2743 13.9722 41.0028 14.651 41.0028 15.1941C41.0028 15.4657 41.0028 15.873 40.867 16.1445C40.867 16.4161 40.867 16.8234 40.867 17.0949C40.867 17.3665 40.867 17.7738 40.867 18.0453C40.867 18.3169 40.867 18.7242 40.867 18.9957C40.7312 18.7242 40.7312 18.3169 40.5955 18.0453C40.5955 17.7738 40.4597 17.3665 40.4597 17.0949C40.3239 16.4161 40.3239 15.7372 40.3239 15.0584C40.3239 14.3795 40.3239 13.7007 40.4597 13.0218C40.5955 12.7503 40.7312 12.3429 40.867 12.0714C41.0028 12.0714 41.2743 11.7999 41.5458 11.5283Z" fill="#282828"/>
<path id="Vector_38" d="M23.081 38.2754C23.081 38.9542 22.9453 39.6331 22.9453 40.1762C22.9453 40.7193 22.6737 41.3981 22.5379 41.9412C22.5379 42.2127 22.4022 42.6201 22.4022 42.8916C22.4022 43.1631 22.4022 43.5704 22.4022 43.842C22.4022 44.1135 22.4022 44.5208 22.4022 44.7924C22.4022 45.0639 22.4022 45.4712 22.4022 45.7428H22.2664C22.1306 45.4712 22.1306 45.0639 21.9949 44.7924C21.8591 44.5208 21.8591 44.1135 21.7233 43.842C21.5875 43.1631 21.5875 42.4843 21.5875 41.8054C21.4518 41.1266 21.5875 40.4477 21.7233 39.7689C21.8591 39.4973 21.9949 39.09 22.1306 38.8185C22.4022 38.6827 22.6737 38.4112 23.081 38.2754Z" fill="#282828"/>
<path id="Vector_39" d="M72.23 23.6117C72.7731 23.7475 73.3161 23.8833 73.8592 23.8833C74.4023 23.8833 74.9454 23.8833 75.3527 23.7475L75.76 23.6117L76.0316 23.476L76.1673 23.3402L76.3031 23.2044L76.4389 23.0686L76.5746 22.9329L76.8462 22.6613L77.1177 22.3898C77.2535 22.254 77.525 21.9825 77.6608 21.7109H77.7966C77.7966 22.3898 77.6608 22.9329 77.2535 23.476L77.1177 23.6117L76.982 23.7475C76.8462 23.8833 76.7104 23.8833 76.5746 24.019C76.4389 24.019 76.3031 24.1548 76.1673 24.1548L75.6242 24.4264C75.0812 24.5621 74.4023 24.4264 73.8592 24.2906C73.3161 24.1548 72.7731 24.019 72.23 23.6117Z" fill="#282828"/>
<path id="Vector_40" d="M7.60315 38.2752C6.78853 38.5468 6.10967 38.9541 5.56659 39.4972C5.29505 39.7687 5.02351 40.0402 4.75197 40.3118C4.48042 40.5833 4.34465 40.8549 4.07311 41.2622V41.5337V41.6695V41.8053C4.07311 41.941 4.07311 42.2126 3.93734 42.3483C3.93734 42.7557 3.80157 43.163 3.80157 43.5703C3.6658 44.3849 3.39426 45.1995 3.25849 46.0142C3.12272 46.4215 3.12272 46.8288 2.98695 47.2361C2.71541 48.0507 2.71541 48.8653 2.85118 49.68C2.98695 50.0873 3.12272 50.4946 3.25849 50.9019C3.39426 51.3092 3.6658 51.7165 3.80157 52.1238C3.93734 52.5311 3.93734 52.9385 4.07311 53.3458C4.07311 53.8889 4.20888 54.7035 4.20888 55.6539H4.07311C3.25849 55.1108 2.71541 54.4319 2.30809 53.4815C1.90078 52.6669 1.76501 51.7165 2.03655 50.9019C2.17232 50.4946 2.17232 50.0873 2.17232 49.5442C2.17232 49.1369 2.03655 48.7296 1.90078 48.3223C1.62924 47.5076 1.49347 46.5572 1.49347 45.6068C1.49347 44.6564 1.49347 43.8418 1.62924 43.0272C1.76501 42.6199 1.90078 42.2126 2.03655 41.6695C2.17232 41.398 2.17232 41.2622 2.30809 40.9906L2.44386 40.8549V40.7191L2.71541 40.3118C3.39426 39.6329 4.07311 38.9541 4.88774 38.5468C5.29505 38.2752 5.70236 38.1395 6.24544 38.0037C6.65275 37.8679 7.19584 37.8679 7.60315 38.0037V38.2752Z" fill="#282828"/>
<path id="Vector_41" d="M52.0002 44.5213C51.5928 44.657 51.1855 44.9286 50.7782 45.2001C50.5067 45.4717 50.0994 45.879 49.9636 46.2863V46.4221V46.5578V46.8294C49.9636 47.1009 49.8278 47.2367 49.8278 47.5082L49.5563 48.8659C49.4205 49.2732 49.2847 49.8163 49.2847 50.2236C49.2847 50.7667 49.2847 51.174 49.5563 51.7171C49.6921 51.9886 49.8278 52.1244 49.8278 52.396C49.8278 52.6675 49.9636 52.8033 49.9636 53.0748C50.0994 53.6179 50.0994 54.0252 50.0994 54.5683H49.9636C49.5563 54.2968 49.149 53.7537 49.0132 53.3464C48.8774 53.0748 48.8774 52.8033 48.7417 52.5317C48.7417 52.2602 48.7417 51.9886 48.7417 51.7171C48.8774 51.174 48.7417 50.7667 48.6059 50.2236C48.4701 49.6805 48.3344 49.1375 48.3344 48.5944C48.3344 48.0513 48.3344 47.5082 48.4701 47.1009C48.4701 46.8294 48.6059 46.5578 48.7417 46.2863C48.7417 46.1505 48.8774 46.0147 48.8774 45.879L49.0132 45.6074L49.149 45.4717C49.5563 45.0643 49.9636 44.657 50.5067 44.5213C50.914 44.3855 51.4571 44.3855 52.0002 44.5213Z" fill="#282828"/>
<path id="Vector_42" d="M70.0577 42.7559C69.7861 42.8916 69.5146 43.1632 69.3788 43.4347C69.1073 43.7063 68.9715 43.842 68.7 44.1136C68.2927 44.5209 67.7496 45.064 67.3423 45.4713C67.0707 45.7428 66.935 46.0144 66.6634 46.1501C66.5277 46.2859 66.5277 46.4217 66.5277 46.5574C66.5277 46.6932 66.3919 46.829 66.3919 46.9647C66.2561 47.5078 66.1203 48.1867 66.1203 48.7298C66.1203 49.0013 66.1203 49.2728 66.1203 49.6802C66.1203 49.9517 66.1203 50.2232 66.2561 50.4948C66.3919 51.0379 66.5277 51.7167 66.7992 52.3956C67.2065 53.6175 67.478 54.8394 67.8854 56.0614C67.478 55.5183 67.0707 54.9752 66.7992 54.4321C66.5277 53.8891 66.1203 53.2102 65.8488 52.6671C65.5773 52.124 65.3057 51.4452 65.1699 50.7663C65.1699 50.6306 65.0342 50.4948 65.0342 50.2232V49.9517V49.6802C65.0342 49.2728 65.0342 49.0013 65.1699 48.594C65.3057 47.9151 65.4415 47.2363 65.8488 46.5574C65.9846 46.4217 65.9846 46.2859 66.1203 46.1501C66.2561 46.0144 66.3919 45.8786 66.5277 45.7428C66.7992 45.4713 67.0707 45.3355 67.2065 45.064C67.7496 44.6566 68.1569 44.2493 68.7 43.842C68.8358 43.4347 69.3788 43.0274 70.0577 42.7559Z" fill="#282828"/>
<path id="Vector_43" d="M52.1359 12.2075C52.0002 12.6148 51.7286 12.8864 51.5928 13.1579C51.4571 13.4295 51.1855 13.8368 51.0498 14.1083C50.914 14.2441 50.914 14.3799 50.7782 14.5156C50.6425 14.6514 50.6425 14.7872 50.5067 15.0587C50.2351 15.3302 49.9636 15.7376 49.6921 16.0091C49.4205 16.2806 49.2847 16.5522 49.149 16.8237C49.0132 17.0953 48.8774 17.5026 48.7417 17.9099C48.6059 18.3172 48.6059 18.5887 48.6059 18.9961C48.6059 19.1318 48.6059 19.4034 48.6059 19.5391C48.6059 19.6749 48.7417 19.9464 48.7417 20.0822V20.218C48.6059 20.0822 48.4701 19.9464 48.4701 19.6749C48.4701 19.5391 48.3344 19.2676 48.3344 19.1318C48.3344 18.7245 48.3344 18.3172 48.3344 17.9099C48.3344 17.5026 48.4701 17.0953 48.6059 16.688C48.7417 16.2806 48.8774 15.8733 49.149 15.6018C49.2847 15.3302 49.5563 14.9229 49.6921 14.6514C49.8278 14.5156 49.8278 14.2441 49.9636 14.1083C50.0994 13.9725 50.2351 13.701 50.3709 13.5652C50.6425 13.2937 50.914 12.8864 51.1855 12.7506C51.1855 12.4791 51.5929 12.3433 52.1359 12.2075Z" fill="#282828"/>
<path id="Vector_44" d="M48.7417 20.897C49.0133 21.3043 49.2848 21.5758 49.5563 21.8474C49.8279 22.1189 50.0994 22.5262 50.371 22.7978C50.6425 23.0693 51.0498 23.3408 51.3213 23.6124C51.5929 23.8839 52.0002 24.0197 52.4075 24.1555C52.0002 24.1555 51.4571 24.0197 51.1856 23.8839C50.7783 23.7482 50.371 23.4766 50.0994 23.2051C49.6921 22.9335 49.4206 22.662 49.149 22.2547C48.7417 21.9831 48.6059 21.4401 48.7417 20.897Z" fill="#282828"/>
<path id="Vector_45" d="M85.3998 45.4717C85.1282 46.0148 85.1282 46.6936 84.9925 47.3725C84.9925 47.9156 85.1282 48.5944 85.264 49.2733C85.264 49.6806 85.264 49.9521 85.3998 50.2237C85.3998 50.4952 85.5355 50.7667 85.5355 51.174C85.6713 51.7171 85.8071 52.396 86.0786 52.9391C86.6217 54.0252 87.3006 55.1114 88.251 55.7902C89.2013 56.6049 90.2875 57.2837 91.3737 57.9626C90.016 57.691 88.794 57.148 87.7079 56.4691C86.4859 55.6545 85.5355 54.5683 84.9925 53.3464C84.7209 52.6675 84.4494 51.9887 84.4494 51.3098C84.4494 50.9025 84.3136 50.631 84.3136 50.2237C84.3136 49.9521 84.3136 49.5448 84.3136 49.2733V48.3229C84.3136 47.9155 84.3136 47.644 84.4494 47.2367C84.5851 46.5578 84.8567 46.0148 85.3998 45.4717Z" fill="#282828"/>
</g>
</svg>
