<svg width="192" height="57" viewBox="0 0 192 57" fill="none" xmlns="http://www.w3.org/2000/svg">
<g id="Group">
<g id="Group_2">
<path id="Vector" d="M74.2317 46.5882C74.3472 47.9047 74.0238 48.228 72.7073 48.228H72.1761C70.8596 48.228 70.5363 47.9047 70.4439 46.5882L69.3122 30.1898C69.1967 28.6654 68.9195 28.2728 68.065 28.2728C67.3259 28.2728 67.0025 28.7347 66.8178 30.1898L64.9008 44.4633C64.5081 47.3042 63.6305 48.228 60.9513 48.228C58.5262 48.228 57.3945 47.258 57.0018 44.4633L55.0386 30.1898C54.8539 28.7347 54.5074 28.2728 53.7683 28.2728C53.0293 28.2728 52.6597 28.7809 52.5673 30.1898L51.4587 46.5882C51.4125 47.8585 51.043 48.228 49.7265 48.228H49.1953C47.8788 48.228 47.5554 47.9047 47.6709 46.5882L48.8719 30.1436C49.1491 26.4482 50.6041 24.9238 53.7452 24.9238C56.7016 24.9238 58.0412 26.4251 58.5031 30.1436L60.166 43.8397C60.3046 44.9484 60.4201 45.11 60.9513 45.11C61.4132 45.11 61.5518 44.9253 61.6904 43.8397L63.3533 30.1436C63.8152 26.4482 65.2241 24.9238 68.1112 24.9238C71.2754 24.9238 72.6842 26.4251 72.9845 30.1436L74.2317 46.5882Z" fill="#888989"/>
<path id="Vector_2" d="M78.2966 26.7951C78.2966 25.4786 78.62 25.1553 79.9365 25.1553H80.3984C81.7149 25.1553 82.0382 25.4786 82.0382 26.7951V46.6118C82.0382 47.9283 81.7149 48.2516 80.3984 48.2516H79.9365C78.62 48.2516 78.2966 47.9283 78.2966 46.6118V26.7951Z" fill="#888989"/>
<path id="Vector_3" d="M99.8225 39.1055L104.719 46.658C105.527 47.9052 105.319 48.2285 103.864 48.2285H103.264C101.809 48.2285 101.231 47.9052 100.423 46.658L95.7806 39.3826H91.2075V46.5887C91.2075 47.9052 90.8842 48.2285 89.5677 48.2285H89.1058C87.7893 48.2285 87.4659 47.9052 87.4659 46.5887V29.1971C87.4659 26.3563 88.667 25.1553 91.5078 25.1553H97.1202C102.525 25.1553 104.788 27.488 104.788 32.292C104.788 36.1491 103.333 38.3895 99.8225 39.1055ZM92.5702 28.6659C91.6464 28.6659 91.1845 29.1278 91.1845 30.0055V35.872H97.1202C100.007 35.872 101.07 34.8095 101.07 32.292C101.07 29.7284 100.077 28.6659 97.1202 28.6659H92.5702Z" fill="#888989"/>
<path id="Vector_4" d="M128.323 46.6576C128.647 47.9048 128.439 48.2281 127.122 48.2281H126.614C125.344 48.2281 124.951 47.951 124.559 46.6576L123.242 41.8305H113.265L111.948 46.6576C111.555 47.9279 111.163 48.2281 109.892 48.2281H109.384C108.068 48.2281 107.86 47.9048 108.183 46.6576L112.549 30.7904C113.195 28.4808 113.865 26.9102 114.581 26.1018C115.32 25.2473 116.544 24.8315 118.276 24.8315C120.009 24.8315 121.233 25.2473 121.926 26.1018C122.642 26.9102 123.311 28.4808 123.958 30.7904L128.323 46.6576ZM114.165 38.4584H122.365L120.263 30.7211C119.685 28.5963 119.408 28.1574 118.276 28.1574C117.145 28.1574 116.821 28.5732 116.244 30.7211L114.165 38.4584Z" fill="#888989"/>
<path id="Vector_5" d="M134.998 39.7521C134.998 43.3321 136.638 45.1105 140.795 45.1105C142.666 45.1105 144.214 44.8564 145.368 44.3714C146.177 44.0481 146.777 44.4407 146.777 45.5493V46.0805C146.777 47.1199 146.431 47.4894 145.322 47.9282C144.052 48.3902 142.528 48.6442 140.703 48.6442C134.282 48.6442 131.141 45.8727 131.141 39.7752V34.0935C131.141 27.9499 134.328 24.855 140.703 24.855C142.481 24.855 143.96 25.109 145.184 25.5941C146.5 26.1715 146.685 26.3331 146.685 27.4418V27.973C146.685 29.2895 146.408 29.5435 145.23 29.1509C143.844 28.6197 142.32 28.3425 140.657 28.3425C136.707 28.3425 135.021 30.1209 135.021 34.0935V39.7521H134.998Z" fill="#888989"/>
<path id="Vector_6" d="M150.658 26.7951C150.658 25.4786 150.981 25.1553 152.297 25.1553H152.759C154.076 25.1553 154.399 25.4786 154.399 26.7951V43.3783C154.399 44.256 154.861 44.7179 155.785 44.7179H163.337C164.608 44.7179 164.931 45.0412 164.931 46.3115V46.6349C164.931 47.9052 164.608 48.2285 163.337 48.2285H154.699C151.859 48.2285 150.658 47.0275 150.658 44.1867V26.7951Z" fill="#888989"/>
<path id="Vector_7" d="M172.114 38.0658V43.3549C172.114 44.2325 172.576 44.6945 173.5 44.6945H182.484C183.755 44.6945 184.078 45.0178 184.078 46.2881V46.6114C184.078 47.8817 183.755 48.2051 182.484 48.2051H172.437C169.597 48.2051 168.396 47.0041 168.396 44.1632V29.1737C168.396 26.3328 169.597 25.1318 172.437 25.1318H182.484C183.755 25.1318 184.078 25.4552 184.078 26.7255V27.0488C184.078 28.3191 183.755 28.6425 182.484 28.6425H173.5C172.576 28.6425 172.114 29.1044 172.114 29.9821V34.5321H181.052C182.323 34.5321 182.646 34.8554 182.646 36.1257V36.449C182.646 37.7193 182.323 38.0427 181.052 38.0427H172.114V38.0658Z" fill="#888989"/>
<path id="Vector_8" d="M187.381 46.2652C187.381 44.9949 188.42 43.9556 189.69 43.9556C190.961 43.9556 192 44.9949 192 46.2652C192 47.5355 190.961 48.5748 189.69 48.5748C188.397 48.5748 187.381 47.5586 187.381 46.2652Z" fill="#888989"/>
</g>
<g id="Group_3">
<path id="Vector_9" d="M47.8557 9.14928C47.8557 8.80283 47.948 8.71045 48.2945 8.71045H48.41C48.7564 8.71045 48.8488 8.80283 48.8488 9.14928V15.4546C48.8488 15.8703 49.0336 16.0551 49.4493 16.0551H52.3132C52.6366 16.0551 52.7059 16.1244 52.7059 16.4477V16.5863C52.7059 16.9097 52.6366 16.9789 52.3132 16.9789H49.2183C48.2483 16.9789 47.8557 16.5632 47.8557 15.6163V9.14928Z" fill="#888989"/>
<path id="Vector_10" d="M58.8495 13.8145C58.8033 14.1379 58.7341 14.2072 58.3876 14.2072H54.5536V14.5767C54.5536 15.7315 55.131 16.1935 56.5399 16.1935C57.1173 16.1935 57.6716 16.1242 58.2721 15.9625C58.5724 15.8701 58.6879 15.9856 58.6879 16.2859V16.4013C58.6879 16.6785 58.6417 16.7478 58.2952 16.8633C57.764 17.0249 57.1866 17.0942 56.563 17.0942C54.5536 17.0942 53.6298 16.3089 53.6298 14.4381V13.2602C53.6298 11.4587 54.5074 10.5811 56.3089 10.5811C57.995 10.5811 58.9188 11.4587 58.9188 13.1217C58.8957 13.3988 58.8726 13.6298 58.8495 13.8145ZM54.5536 13.3988H57.9719V12.9831C57.9719 11.9437 57.3945 11.4356 56.2627 11.4356C55.131 11.4356 54.5536 11.9668 54.5536 12.9831V13.3988Z" fill="#888989"/>
<path id="Vector_11" d="M59.681 11.2046C59.681 10.9043 59.7503 10.8582 60.0274 10.812L60.7434 10.7196L60.882 9.40309C60.9051 9.12593 60.9744 9.05664 61.2746 9.05664H61.367C61.6442 9.05664 61.7135 9.12593 61.7135 9.40309V10.7196H63.769C64.0924 10.7196 64.1617 10.7889 64.1617 11.1122V11.2277C64.1617 11.551 64.0924 11.6203 63.769 11.6203H61.7135V14.8538C61.7135 15.8008 62.1061 16.1934 62.8914 16.1934C63.3533 16.1934 63.7228 16.1472 64.0231 16.0779C64.3233 16.0086 64.3926 16.101 64.3926 16.4013V16.5168C64.3926 16.7708 64.3002 16.8863 64 16.9787C63.6766 17.0711 63.3071 17.1173 62.8914 17.1173C61.4594 17.1173 60.7665 16.3782 60.7665 14.8769V11.6434H60.0505C59.7503 11.6434 59.7041 11.5972 59.7041 11.297V11.2046H59.681Z" fill="#888989"/>
<path id="Vector_12" d="M65.2241 10.7195C65.1317 10.6964 65.1086 10.604 65.1086 10.4655C65.1317 10.1883 65.1779 9.74947 65.2703 9.07968C65.432 8.20201 65.663 7.76318 65.9863 7.76318C66.2635 7.76318 66.4251 7.97105 66.4251 8.2944C66.4251 8.50227 66.3097 8.87181 66.0787 9.40302C65.8246 9.95734 65.6168 10.35 65.4782 10.604C65.4089 10.6964 65.3396 10.7426 65.2241 10.7195Z" fill="#888989"/>
<path id="Vector_13" d="M67.1411 16.2857C67.1411 15.9624 67.2335 15.8931 67.5568 15.9624C68.1573 16.124 68.7809 16.2164 69.4276 16.2164C70.4208 16.2164 70.8134 16.0316 70.8134 15.5004C70.8134 15.0847 70.6056 14.8999 69.982 14.5766L68.4345 13.8375C67.5799 13.4218 67.2566 13.0291 67.2566 12.1977C67.2566 11.089 67.9726 10.604 69.4969 10.604C70.0974 10.604 70.6286 10.6733 71.0906 10.835C71.3908 10.9274 71.4601 11.0197 71.4601 11.2969V11.4124C71.4601 11.7357 71.3446 11.805 71.0444 11.7126C70.5594 11.551 70.0281 11.4817 69.4507 11.4817C68.5269 11.4817 68.1573 11.6895 68.1573 12.1977C68.1573 12.5441 68.3883 12.8444 68.8271 13.0291L70.4439 13.7682C71.3677 14.1839 71.7142 14.5997 71.7142 15.4773C71.7142 16.6091 70.952 17.1172 69.3122 17.1172C68.7117 17.1172 68.1111 17.0479 67.5106 16.8862C67.1873 16.7938 67.0949 16.6783 67.0949 16.4243V16.2857H67.1411Z" fill="#888989"/>
<path id="Vector_14" d="M85.4103 16.5401C85.4334 16.8865 85.341 16.9789 84.9946 16.9789H84.856C84.5096 16.9789 84.4403 16.9096 84.3941 16.5401L83.9553 10.2579C83.9091 9.70355 83.7705 9.54187 83.3779 9.54187C83.0545 9.54187 82.9159 9.72664 82.8235 10.2579L82.0152 15.801C81.8997 16.6555 81.5994 16.9789 80.8142 16.9789C80.0982 16.9789 79.7286 16.6555 79.6132 15.801L78.8048 10.2579C78.7124 9.70355 78.5507 9.54187 78.2274 9.54187C77.8578 9.54187 77.6962 9.72664 77.65 10.2579L77.188 16.5401C77.1418 16.8865 77.0726 16.9789 76.7261 16.9789H76.6106C76.2642 16.9789 76.1949 16.8865 76.1949 16.5401L76.6568 10.3502C76.7492 9.12614 77.2111 8.64111 78.2274 8.64111C79.1512 8.64111 79.59 9.07994 79.7517 10.3502L80.4677 15.6624C80.5139 16.0781 80.5832 16.1474 80.7911 16.1474C80.9989 16.1474 81.0682 16.055 81.1144 15.6624L81.8304 10.3502C81.9921 9.12614 82.4309 8.64111 83.3548 8.64111C84.3479 8.64111 84.8329 9.10304 84.9253 10.3502L85.4103 16.5401Z" fill="#888989"/>
<path id="Vector_15" d="M91.3923 15.0847C91.3923 16.4936 90.5839 17.0941 88.7362 17.0941C87.235 17.0941 86.3573 16.4705 86.3573 15.2002C86.3573 13.8837 87.1888 13.3525 88.9441 13.3525H90.4454V12.5903C90.4454 11.7588 89.891 11.4355 88.7824 11.4355C88.2281 11.4355 87.7893 11.4817 87.3966 11.5741C87.0964 11.6433 86.9809 11.551 86.9809 11.2507V11.1583C86.9809 10.8581 87.0502 10.7888 87.3504 10.7195C87.7431 10.6271 88.205 10.604 88.7131 10.604C90.4916 10.604 91.3692 11.2738 91.3692 12.5903V15.0847H91.3923ZM90.4223 14.0916H88.9441C87.7893 14.0916 87.3043 14.3918 87.3043 15.2002C87.3043 15.9162 87.7662 16.2857 88.7362 16.2857C89.9603 16.2857 90.4454 15.9855 90.4454 15.0616V14.0916H90.4223Z" fill="#888989"/>
<path id="Vector_16" d="M92.8704 8.47921C92.8704 8.13277 92.9628 8.06348 93.2862 8.06348H93.4247C93.7712 8.06348 93.8405 8.13277 93.8405 8.47921V16.5629C93.8405 16.9094 93.7712 16.9787 93.4247 16.9787H93.2862C92.9628 16.9787 92.8704 16.9094 92.8704 16.5629V8.47921ZM96.2194 11.0891C96.5196 10.7888 96.7044 10.7196 97.1202 10.7196H97.2818C97.6976 10.7196 97.7438 10.7888 97.4435 11.0891L95.4572 13.1678C95.2724 13.3525 95.1801 13.5142 95.1801 13.6528C95.1801 13.8145 95.2724 13.9761 95.4341 14.1378L97.6745 16.5629C97.9747 16.8863 97.9285 16.9556 97.5128 16.9556H97.3511C96.9123 16.9556 96.7506 16.8863 96.4504 16.5629L94.7412 14.7152C94.3948 14.3457 94.21 13.9761 94.21 13.6066C94.21 13.2833 94.3948 12.9368 94.7412 12.5673L96.2194 11.0891Z" fill="#888989"/>
<path id="Vector_17" d="M103.703 13.8145C103.656 14.1379 103.587 14.2072 103.241 14.2072H99.4067V14.5767C99.4067 15.7315 99.9841 16.1935 101.393 16.1935C101.97 16.1935 102.525 16.1242 103.125 15.9625C103.425 15.8701 103.541 15.9856 103.541 16.2859V16.4013C103.541 16.6785 103.495 16.7478 103.148 16.8633C102.617 17.0249 102.04 17.0942 101.416 17.0942C99.4067 17.0942 98.4828 16.3089 98.4828 14.4381V13.2602C98.4828 11.4587 99.3605 10.5811 101.162 10.5811C102.848 10.5811 103.772 11.4587 103.772 13.1217C103.749 13.3988 103.726 13.6298 103.703 13.8145ZM99.4067 13.3988H102.825V12.9831C102.825 11.9437 102.248 11.4356 101.116 11.4356C99.9841 11.4356 99.4067 11.9668 99.4067 12.9831V13.3988Z" fill="#888989"/>
<path id="Vector_18" d="M111.163 13.5605C110.886 13.4912 110.678 13.3758 110.539 13.2372C110.401 13.0986 110.193 12.7753 109.916 12.2671L108.23 9.14913C108.045 8.82578 108.114 8.7334 108.484 8.7334H108.622C109.015 8.7334 109.176 8.82578 109.338 9.17223L110.77 11.8976C110.955 12.2671 111.093 12.4981 111.209 12.6136C111.324 12.706 111.486 12.7753 111.671 12.7753C111.856 12.7753 112.017 12.7291 112.133 12.6136C112.225 12.5212 112.387 12.2902 112.572 11.9207L114.004 9.19533C114.165 8.84888 114.327 8.75649 114.72 8.75649H114.858C115.228 8.75649 115.297 8.84888 115.112 9.17223L113.403 12.244C113.126 12.7522 112.918 13.0755 112.78 13.2141C112.641 13.3758 112.433 13.4912 112.179 13.5374V16.4938C112.179 16.8402 112.087 16.9326 111.74 16.9326H111.625C111.278 16.9326 111.186 16.8402 111.186 16.4938V13.5605H111.163Z" fill="#888989"/>
<path id="Vector_19" d="M116.082 14.415V13.2371C116.082 11.4587 117.006 10.5811 118.877 10.5811C120.817 10.5811 121.648 11.4587 121.648 13.2371V14.415C121.648 16.1935 120.725 17.0711 118.877 17.0711C116.937 17.0942 116.082 16.1935 116.082 14.415ZM120.702 13.2371C120.702 11.9899 120.24 11.4818 118.877 11.4818C117.514 11.4818 117.029 11.9899 117.029 13.2371V14.415C117.029 15.6623 117.514 16.1704 118.877 16.1704C120.24 16.1704 120.702 15.6623 120.702 14.415V13.2371Z" fill="#888989"/>
<path id="Vector_20" d="M123.889 14.7155C123.889 15.7549 124.328 16.1937 125.598 16.1937C126.845 16.1937 127.284 15.778 127.284 14.7155V11.1125C127.284 10.7892 127.376 10.6968 127.7 10.6968H127.838C128.185 10.6968 128.254 10.7892 128.254 11.1125V14.7155C128.254 16.2861 127.446 17.0945 125.621 17.0945C123.866 17.0945 122.965 16.3092 122.965 14.7155V11.1125C122.965 10.7892 123.057 10.6968 123.381 10.6968H123.519C123.866 10.6968 123.935 10.7892 123.935 11.1125V14.7155H123.889Z" fill="#888989"/>
<path id="Vector_21" d="M130.61 16.563C130.61 16.9095 130.541 16.9787 130.194 16.9787H130.056C129.732 16.9787 129.64 16.9095 129.64 16.563V12.7752C129.64 11.3201 130.356 10.5811 131.811 10.5811C131.926 10.5811 132.065 10.6042 132.227 10.6042C132.55 10.6503 132.596 10.7196 132.596 11.043V11.1585C132.596 11.4818 132.527 11.528 132.204 11.4818C131.996 11.4587 131.88 11.4587 131.811 11.4587C130.91 11.4587 130.587 11.8514 130.587 12.7983V16.563H130.61Z" fill="#888989"/>
<path id="Vector_22" d="M138.209 13.1219V15.4315C138.209 15.8472 138.393 16.032 138.809 16.032H142.181C142.505 16.032 142.574 16.1013 142.574 16.4246V16.5632C142.574 16.8866 142.505 16.9558 142.181 16.9558H138.578C137.608 16.9558 137.215 16.5401 137.215 15.5932V10.0731C137.215 9.12618 137.631 8.71045 138.578 8.71045H142.181C142.505 8.71045 142.574 8.77974 142.574 9.10309V9.24167C142.574 9.56501 142.505 9.6343 142.181 9.6343H138.809C138.393 9.6343 138.209 9.81907 138.209 10.2348V12.198H141.673C141.996 12.198 142.066 12.2673 142.066 12.5906V12.7292C142.066 13.0526 141.996 13.1219 141.673 13.1219H138.209Z" fill="#888989"/>
<path id="Vector_23" d="M145.738 15.5469C145.9 16.1012 146.061 16.2398 146.477 16.2398C146.893 16.2398 147.055 16.0781 147.216 15.5469L148.348 11.1124C148.417 10.789 148.51 10.7197 148.856 10.7197H149.018C149.341 10.7197 149.41 10.8121 149.318 11.1124L148.186 15.5007C148.025 16.1243 147.84 16.54 147.609 16.771C147.401 16.9788 147.008 17.0943 146.477 17.0943C145.946 17.0943 145.553 16.9788 145.322 16.771C145.114 16.54 144.907 16.1243 144.745 15.5007L143.636 11.1124C143.544 10.8121 143.613 10.7197 143.937 10.7197H144.098C144.445 10.7197 144.537 10.789 144.606 11.1124L145.738 15.5469Z" fill="#888989"/>
<path id="Vector_24" d="M155.277 13.8145C155.231 14.1379 155.161 14.2072 154.815 14.2072H150.981V14.5767C150.981 15.7315 151.558 16.1935 152.967 16.1935C153.545 16.1935 154.099 16.1242 154.699 15.9625C155 15.8701 155.115 15.9856 155.115 16.2859V16.4013C155.115 16.6785 155.069 16.7478 154.722 16.8633C154.191 17.0249 153.614 17.0942 152.99 17.0942C150.981 17.0942 150.057 16.3089 150.057 14.4381V13.2602C150.057 11.4587 150.935 10.5811 152.736 10.5811C154.422 10.5811 155.346 11.4587 155.346 13.1217C155.323 13.3988 155.3 13.6298 155.277 13.8145ZM150.981 13.3988H154.399V12.9831C154.399 11.9437 153.822 11.4356 152.69 11.4356C151.558 11.4356 150.981 11.9668 150.981 12.9831V13.3988Z" fill="#888989"/>
<path id="Vector_25" d="M157.633 16.563C157.633 16.9095 157.563 16.9787 157.217 16.9787H157.078C156.755 16.9787 156.663 16.9095 156.663 16.563V12.96C156.663 11.3663 157.54 10.5811 159.319 10.5811C161.143 10.5811 161.952 11.3894 161.952 12.96V16.563C161.952 16.9095 161.882 16.9787 161.536 16.9787H161.374C161.028 16.9787 160.959 16.9095 160.959 16.563V12.96C160.959 11.8975 160.543 11.4818 159.272 11.4818C158.025 11.4818 157.563 11.9206 157.563 12.96V16.563H157.633Z" fill="#888989"/>
<path id="Vector_26" d="M162.899 11.2046C162.899 10.9043 162.968 10.8582 163.245 10.812L163.961 10.7196L164.1 9.40309C164.123 9.12593 164.192 9.05664 164.492 9.05664H164.585C164.862 9.05664 164.931 9.12593 164.931 9.40309V10.7196H166.987C167.31 10.7196 167.379 10.7889 167.379 11.1122V11.2277C167.379 11.551 167.31 11.6203 166.987 11.6203H164.931V14.8538C164.931 15.8008 165.324 16.1934 166.109 16.1934C166.571 16.1934 166.94 16.1472 167.241 16.0779C167.541 16.0086 167.61 16.101 167.61 16.4013V16.5168C167.61 16.7708 167.518 16.8863 167.218 16.9787C166.894 17.0711 166.525 17.1173 166.109 17.1173C164.677 17.1173 163.984 16.3782 163.984 14.8769V11.6434H163.268C162.968 11.6434 162.922 11.5972 162.922 11.297V11.2046H162.899Z" fill="#888989"/>
<path id="Vector_27" d="M178.65 16.5399C178.743 16.8632 178.673 16.9556 178.327 16.9556H178.211C177.865 16.9556 177.75 16.8863 177.657 16.5399L177.057 14.415H173.269L172.691 16.5399C172.599 16.8863 172.507 16.9556 172.137 16.9556H171.999C171.652 16.9556 171.583 16.8632 171.675 16.5399L173.384 10.4655C173.592 9.74954 173.8 9.24142 174.031 8.98736C174.262 8.71021 174.655 8.59473 175.186 8.59473C175.717 8.59473 176.087 8.71021 176.318 8.98736C176.549 9.24142 176.779 9.72645 176.964 10.4655L178.65 16.5399ZM173.523 13.5143H176.849L175.971 10.3501C175.786 9.65716 175.625 9.49548 175.186 9.49548C174.747 9.49548 174.585 9.65716 174.401 10.3501L173.523 13.5143Z" fill="#888989"/>
<path id="Vector_28" d="M179.574 16.2857C179.574 15.9624 179.667 15.8931 179.99 15.9624C180.59 16.124 181.214 16.2164 181.861 16.2164C182.854 16.2164 183.246 16.0316 183.246 15.5004C183.246 15.0847 183.039 14.8999 182.415 14.5766L180.844 13.8375C179.99 13.4218 179.667 13.0291 179.667 12.1977C179.667 11.089 180.383 10.604 181.907 10.604C182.507 10.604 183.039 10.6733 183.501 10.835C183.801 10.9274 183.893 11.0197 183.893 11.2969V11.4124C183.893 11.7357 183.778 11.805 183.477 11.7126C182.992 11.551 182.461 11.4817 181.884 11.4817C180.96 11.4817 180.59 11.6895 180.59 12.1977C180.59 12.5441 180.821 12.8444 181.26 13.0291L182.877 13.7682C183.801 14.1839 184.147 14.5997 184.147 15.4773C184.147 16.6091 183.385 17.1172 181.745 17.1172C181.145 17.1172 180.544 17.0479 179.944 16.8862C179.62 16.7938 179.528 16.6783 179.528 16.4243V16.2857H179.574Z" fill="#888989"/>
</g>
<g id="Group_4">
<path id="Vector_29" d="M8.66116 41.1377C16.3753 42.408 24.1126 43.6783 31.8268 44.9486C31.9654 44.4636 32.104 43.9555 32.2656 43.4474C24.0895 42.2925 15.9134 41.1377 7.7373 39.9829C8.01446 40.3755 8.33781 40.7682 8.66116 41.1377Z" fill="#888989"/>
<path id="Vector_30" d="M12.5413 45.595C18.4309 47.0963 24.3435 48.5744 30.2331 50.0757C30.3717 49.66 30.5334 49.198 30.6719 48.7361C24.2511 47.2579 17.8073 45.8029 11.3865 44.3247C11.7791 44.7635 12.1487 45.1793 12.5413 45.595Z" fill="#888989"/>
<path id="Vector_31" d="M20.7867 53.7255C22.773 54.4877 24.7362 55.273 26.7225 56.0352C27.092 55.8735 27.4385 55.5963 27.7387 55.2268C24.7593 54.1413 21.7568 53.0557 18.7773 51.9702C19.4702 52.6169 20.14 53.2174 20.7867 53.7255Z" fill="#888989"/>
<path id="Vector_32" d="M24.1819 55.9193C25.1981 56.335 26.0065 56.3581 26.7225 56.0347C24.7362 55.2726 22.773 54.4873 20.7867 53.7251C22.0339 54.7644 23.1657 55.5035 24.1819 55.9193Z" fill="#888989"/>
<path id="Vector_33" d="M24.1819 55.9193C25.1981 56.335 26.0065 56.3581 26.7225 56.0347C24.7362 55.2726 22.773 54.4873 20.7867 53.7251C22.0339 54.7644 23.1657 55.5035 24.1819 55.9193Z" fill="#888989"/>
<path id="Vector_34" d="M10.5088 43.3084C17.3453 44.7404 24.205 46.1724 31.0415 47.6044C31.1801 47.1424 31.3186 46.6574 31.4803 46.1724C24.1357 44.8097 16.8141 43.4701 9.46948 42.1074C9.81593 42.5001 10.1624 42.9158 10.5088 43.3084Z" fill="#888989"/>
<path id="Vector_35" d="M17.4147 50.6764C21.0639 51.9236 24.69 53.1708 28.3392 54.418C28.5471 54.0947 28.7319 53.7251 28.9397 53.3325C24.5976 51.9467 20.2555 50.5609 15.9134 49.1982C16.4446 49.7064 16.9296 50.2145 17.4147 50.6764Z" fill="#888989"/>
<path id="Vector_36" d="M14.8048 48.0434C19.655 49.4984 24.5283 50.9304 29.3786 52.3855C29.5403 51.9928 29.7019 51.5771 29.8636 51.1383C24.4129 49.6601 18.9621 48.1588 13.5345 46.6807C13.9502 47.1426 14.3891 47.6045 14.8048 48.0434Z" fill="#888989"/>
<path id="Vector_37" d="M1.06243 20.0278C2.97942 19.5197 4.89642 19.0115 6.81342 18.5034C6.39768 18.8268 6.00505 19.1963 5.61241 19.612C5.52002 19.7044 5.45073 19.7968 5.35835 19.8892C3.7878 20.2818 2.21724 20.6745 0.623596 21.0671C0.762174 20.7207 0.900752 20.3742 1.06243 20.0278Z" fill="#888989"/>
<path id="Vector_38" d="M29.2169 12.5674L28.4547 14.161C23.3043 15.4544 18.1538 16.7247 13.0264 17.995C12.703 17.6255 12.3335 17.3252 11.8947 17.1636C17.6687 15.6161 23.4428 14.0917 29.2169 12.5674Z" fill="#888989"/>
<path id="Vector_39" d="M0.0230713 25.4552C1.0855 25.2704 2.17103 25.0856 3.23346 24.9009L2.93321 25.9633C2.00936 26.1019 1.06241 26.2405 0.138553 26.379C0.0923604 26.0788 0.0461676 25.7554 0.0230713 25.4552Z" fill="#888989"/>
<path id="Vector_40" d="M17.0682 22.5681C19.7243 22.1293 22.3804 21.6673 25.0596 21.2285C24.8748 21.5981 24.7131 21.9445 24.5515 22.2679C24.4591 22.4526 24.3898 22.6143 24.2974 22.776C22.2187 23.0762 20.1401 23.3996 18.0614 23.6998C17.8535 23.4689 17.6456 23.2148 17.4147 22.9607L17.0682 22.5681Z" fill="#888989"/>
<path id="Vector_41" d="M35.5222 21.0901C34.0671 21.298 32.6121 21.5289 31.157 21.7368C31.4341 21.1363 31.6651 20.582 31.8961 20.0507C32.9123 19.8891 33.9516 19.7043 34.9679 19.5195C35.1296 20.0277 35.3143 20.5358 35.5222 21.0901Z" fill="#888989"/>
<path id="Vector_42" d="M0.0461927 23.6997C1.2934 23.4456 2.5406 23.1916 3.7878 22.9375C3.7878 22.9606 3.7878 22.9606 3.7878 22.9837L3.48755 24.023C2.33273 24.2309 1.15482 24.4619 0 24.6697C0 24.3464 0.0230964 24.023 0.0461927 23.6997Z" fill="#888989"/>
<path id="Vector_43" d="M15.336 20.6051C19.0314 19.866 22.7268 19.1038 26.4222 18.3647L26.0758 19.0807C25.9372 19.381 25.7986 19.6581 25.6601 19.9353C22.519 20.5127 19.401 21.0901 16.2599 21.6675L15.336 20.6051Z" fill="#888989"/>
<path id="Vector_44" d="M34.5522 18.3182C33.8593 18.4567 33.1895 18.5722 32.4966 18.6877C32.7506 18.0872 33.0047 17.5329 33.2357 17.0017C33.5359 16.9324 33.8131 16.8862 34.1133 16.8169C34.2288 17.3019 34.3674 17.81 34.5522 18.3182Z" fill="#888989"/>
<path id="Vector_45" d="M1.47815 30.606C1.54744 30.606 1.59363 30.606 1.66292 30.606L1.59363 30.8369C1.54744 30.7676 1.52434 30.6983 1.47815 30.606Z" fill="#888989"/>
<path id="Vector_46" d="M11.9177 30.0514C12.1718 30.3747 12.472 30.7443 12.7723 31.1369C11.2941 31.2062 9.81594 31.2524 8.33777 31.3217C8.43015 30.929 8.52254 30.5364 8.61493 30.1669C9.70045 30.0976 10.7629 30.0283 11.8484 29.959C11.8715 30.0052 11.8946 30.0283 11.9177 30.0514Z" fill="#888989"/>
<path id="Vector_47" d="M36.1689 28.4805C36.0303 29.0579 35.8918 29.6353 35.7532 30.2127C32.8661 30.3282 29.9791 30.4437 27.092 30.5591L27.808 28.9886C30.6027 28.8269 33.3743 28.6652 36.1689 28.4805Z" fill="#888989"/>
<path id="Vector_48" d="M0.277161 27.1642C1.08553 27.0487 1.89391 26.9563 2.70228 26.8408L2.40203 27.9033C1.77842 27.9725 1.15482 28.0418 0.508124 28.1111C0.438835 27.7878 0.34645 27.4875 0.277161 27.1642Z" fill="#888989"/>
<path id="Vector_49" d="M9.37709 26.7026C9.46947 26.8181 9.53876 26.9336 9.63115 27.0722C9.51567 27.0953 9.40019 27.0953 9.3078 27.1184C9.3309 26.9567 9.35399 26.8412 9.37709 26.7026Z" fill="#888989"/>
<path id="Vector_50" d="M18.8928 24.6701C20.4865 24.4623 22.1032 24.2313 23.6969 24.0234C23.5814 24.2544 23.489 24.4854 23.3735 24.6932C23.2349 24.9704 23.1195 25.2475 23.004 25.5247C21.9877 25.6402 20.9715 25.7557 19.9322 25.8711C19.655 25.5247 19.3317 25.1552 18.9621 24.7394C18.939 24.7163 18.9159 24.6932 18.8928 24.6701Z" fill="#888989"/>
<path id="Vector_51" d="M36.5384 23.9774C34.275 24.2315 32.0346 24.4856 29.7712 24.7627L30.0714 24.116C30.2331 23.7696 30.3717 23.4462 30.5334 23.1229C32.358 22.8688 34.1595 22.6378 35.9841 22.3838L36.5384 23.9774Z" fill="#888989"/>
<path id="Vector_52" d="M0.369549 21.8984C1.80152 21.5751 3.2335 21.2286 4.66547 20.9053C4.4576 21.2748 4.24974 21.6444 4.11116 22.0601C2.77157 22.3372 1.45508 22.6144 0.161682 22.9147C0.207875 22.5682 0.277164 22.2449 0.369549 21.8984Z" fill="#888989"/>
<path id="Vector_53" d="M27.808 15.4775L27.0458 17.0712C22.8885 17.9719 18.7542 18.8727 14.5969 19.7735L13.7192 18.7803C18.4078 17.6717 23.1195 16.5862 27.808 15.4775Z" fill="#888989"/>
<path id="Vector_54" d="M0.762207 28.8734C1.22413 28.8272 1.68606 28.7811 2.17108 28.7349L1.89393 29.7742C1.63987 29.7973 1.38581 29.8204 1.15485 29.8435C0.993171 29.5201 0.877689 29.1968 0.762207 28.8734Z" fill="#888989"/>
<path id="Vector_55" d="M10.8784 28.7581C10.9477 28.8505 11.04 28.9659 11.1324 29.0583C10.3702 29.1276 9.60807 29.1738 8.84589 29.2431C8.93827 28.8505 9.03066 28.4578 9.09995 28.0652C9.49258 28.019 9.86213 27.9959 10.2548 27.9497C10.4395 28.2038 10.6474 28.4809 10.8784 28.7581Z" fill="#888989"/>
<path id="Vector_56" d="M20.7867 26.9102C21.3411 26.864 21.8954 26.7947 22.4728 26.7485C22.2418 27.2567 22.0339 27.7417 21.8492 28.2036C21.8261 28.2036 21.803 28.2036 21.7799 28.2036C21.5489 27.9034 21.318 27.58 21.0639 27.2567C20.9715 27.1643 20.8791 27.0257 20.7867 26.9102Z" fill="#888989"/>
<path id="Vector_57" d="M36.908 25.3164C36.7694 25.8938 36.6308 26.4712 36.4922 27.0486C33.79 27.2565 31.0877 27.4644 28.4085 27.6722L29.1476 26.0555C31.7344 25.8245 34.3212 25.5705 36.908 25.3164Z" fill="#888989"/>
<path id="Vector_58" d="M12.218 8.66402C19.5857 5.82317 26.9534 2.98232 34.3212 0.141465C33.4666 -0.0202093 32.4966 -0.0433057 31.4572 0.0721761C26.3067 2.08156 21.1793 4.13713 16.075 6.16961C14.7355 6.97799 13.4421 7.80945 12.218 8.66402Z" fill="#888989"/>
<path id="Vector_59" d="M7.78345 12.0133C17.5532 8.50262 27.323 4.96887 37.0927 1.43513C36.7232 1.08869 36.2844 0.81153 35.8224 0.580566C27.2075 3.81406 18.5925 7.04755 9.9545 10.281C9.19232 10.8584 8.47634 11.4359 7.78345 12.0133Z" fill="#888989"/>
<path id="Vector_60" d="M30.6489 9.63428C30.5334 9.81905 30.441 10.0038 30.3486 10.2117L29.8405 11.251C20.3941 13.884 10.9708 16.517 1.52435 19.15C1.73222 18.7804 1.96318 18.3878 2.21724 18.0183C11.6867 15.2236 21.1563 12.4289 30.6489 9.63428Z" fill="#888989"/>
<path id="Vector_61" d="M3.90326 15.8011C13.8578 12.5907 23.8123 9.38032 33.7899 6.16992C33.1894 6.56256 32.6582 7.00139 32.1963 7.50951C31.9884 7.74047 31.7806 7.99453 31.5958 8.24859C22.0108 11.1587 12.4489 14.1151 2.88702 17.0483C3.21037 16.6326 3.53372 16.2168 3.90326 15.8011Z" fill="#888989"/>
<path id="Vector_62" d="M4.89642 14.7154C16.0982 10.9738 27.2999 7.20907 38.5016 3.46746C38.3168 3.02863 38.0859 2.636 37.8318 2.28955C27.3461 5.96187 16.8372 9.61109 6.35149 13.2834C5.82028 13.7684 5.33525 14.2304 4.89642 14.7154Z" fill="#888989"/>
<path id="Vector_63" d="M33.813 37.6962C33.6744 38.2505 33.5128 38.7818 33.3742 39.313C24.5283 38.597 15.6824 37.9041 6.83649 37.1881L7.09055 36.1719C10.5319 36.3797 13.9502 36.5645 17.3915 36.7493C17.5763 36.911 17.7611 37.0495 17.9458 37.1419C18.3154 37.3267 18.6849 37.4422 19.0545 37.4653C19.424 37.4884 19.8397 37.4422 20.2555 37.3036C20.5326 37.2112 20.856 37.0957 21.1793 36.9802C25.406 37.2343 29.6095 37.4653 33.813 37.6962Z" fill="#888989"/>
<path id="Vector_64" d="M13.5576 32.1069L14.5507 33.331C12.3104 33.331 10.07 33.331 7.80658 33.331C7.89897 32.9384 7.99135 32.5689 8.08374 32.2224C9.93144 32.1993 11.733 32.1531 13.5576 32.1069Z" fill="#888989"/>
<path id="Vector_65" d="M35.3836 31.6221C35.245 32.1995 35.1065 32.7538 34.9448 33.3312C31.873 33.3312 28.7781 33.3312 25.7062 33.3543C25.9603 32.9386 26.2144 32.4535 26.4684 31.8992L26.4915 31.853C29.4709 31.7606 32.4273 31.6914 35.3836 31.6221Z" fill="#888989"/>
<path id="Vector_66" d="M33.0278 40.6298C32.8892 41.161 32.7506 41.6922 32.589 42.2003C24.0433 41.161 15.5208 40.1216 6.97511 39.0823C6.81344 38.8744 6.65176 38.6897 6.51318 38.4818L6.62867 38.043C15.4284 38.8975 24.2281 39.7752 33.0278 40.6298Z" fill="#888989"/>
<path id="Vector_67" d="M15.4053 34.3704L16.4677 35.6638C13.419 35.5483 10.3934 35.4328 7.34467 35.3173L7.62182 34.2549C10.2086 34.3011 12.7954 34.3242 15.4053 34.3704Z" fill="#888989"/>
<path id="Vector_68" d="M34.5983 34.6939C34.4598 35.2482 34.2981 35.8025 34.1595 36.3568C30.5334 36.2183 26.9073 36.0797 23.2811 35.9411C23.6507 35.7101 23.9971 35.433 24.3205 35.1096C24.5052 34.9249 24.69 34.7401 24.8517 34.5322C28.1083 34.5784 31.3418 34.6477 34.5983 34.6939Z" fill="#888989"/>
</g>
</g>
</svg>
