<svg width="79" height="74" viewBox="0 0 79 74" fill="none" xmlns="http://www.w3.org/2000/svg">
<g id="Group">
<g id="Group_2">
<path id="Vector" d="M8.44376 55.3408C3.58086 55.3408 0 59.0991 0 64.8353C0 70.3078 3.35982 74.0001 8.17851 74.0001C12.8204 74.0001 16.6223 70.7034 16.6223 64.4837C16.6002 59.121 13.3951 55.3408 8.44376 55.3408ZM8.31114 72.088C4.61975 72.088 2.51987 68.6375 2.51987 64.7694C2.51987 60.7914 4.46503 57.2309 8.33324 57.2309C12.2457 57.2309 14.1245 60.9892 14.1245 64.5716C14.1245 68.6814 12.0246 72.088 8.31114 72.088Z" fill="#888989"/>
<path id="Vector_2" d="M27.0997 62.33C28.4038 62.33 29.288 62.6158 29.8406 62.9454L30.3711 61.1213C29.73 60.7916 28.4922 60.4619 27.0776 60.4619C22.8115 60.4619 20.0706 63.363 20.0706 67.341C20.0706 71.319 22.6346 73.9564 26.5692 73.9564C28.3154 73.9564 29.7079 73.5168 30.3269 73.2091L29.929 71.4289C29.2438 71.7146 28.3596 72.0663 27.0112 72.0663C24.4251 72.0663 22.4799 70.2201 22.4799 67.2091C22.502 64.5278 24.1156 62.33 27.0997 62.33Z" fill="#888989"/>
<path id="Vector_3" d="M40.0968 56.9893L37.7759 57.6046V60.7035H35.7644V62.5057H37.7759V69.5826C37.7759 71.1211 38.019 72.2639 38.6821 72.9672C39.2568 73.6046 40.141 73.9562 41.2462 73.9562C42.1525 73.9562 42.8819 73.8244 43.3461 73.6266L43.2356 71.8464C42.9482 71.9343 42.484 72.0002 41.8651 72.0002C40.5389 72.0002 40.0747 71.0991 40.0747 69.4727V62.4837H43.4787V60.6816H40.0747V56.9893H40.0968Z" fill="#888989"/>
<path id="Vector_4" d="M54.376 60.4399C50.7731 60.4399 47.8995 62.9894 47.8995 67.319C47.8995 71.4289 50.6183 74.0003 54.155 74.0003C57.3159 74.0003 60.6536 71.9124 60.6536 67.1212C60.6536 63.1432 58.1116 60.4399 54.376 60.4399ZM54.2655 72.2201C51.9446 72.2201 50.3089 70.0663 50.3089 67.2311C50.3089 64.7696 51.5246 62.1982 54.3318 62.1982C57.139 62.1982 58.2442 64.9894 58.2442 67.1872C58.2221 70.1102 56.5201 72.2201 54.2655 72.2201Z" fill="#888989"/>
<path id="Vector_5" d="M75.4413 64.4181V64.3301C77.6075 63.3191 78.3369 61.7367 78.3369 60.2642C78.3369 58.0884 76.6349 55.9785 73.2308 55.9785C70.1584 55.9785 67.8153 57.8466 67.8153 60.6159C67.8153 62.1104 68.6553 63.6268 70.6005 64.5279L70.6226 64.6159C68.4564 65.5169 67.1522 67.0774 67.1522 69.2752C67.1522 71.8246 69.3626 74.0004 73.0319 74.0004C76.3696 74.0004 79 71.9565 79 68.9235C78.9558 66.8136 77.6075 65.2752 75.4413 64.4181ZM70.0479 60.462C70.0479 58.9675 71.131 57.6708 73.0982 57.6708C75.2202 57.6708 76.0602 59.1214 76.0602 60.506C76.0602 62.0884 74.9108 63.1653 73.3856 63.6708C71.352 63.1433 70.0479 62.1983 70.0479 60.462ZM73.054 72.2862C70.8215 72.2862 69.4732 70.7257 69.5395 68.9675C69.5395 67.2972 70.6447 65.9565 72.7003 65.3851C75.0655 66.0444 76.5465 67.0774 76.5465 69.1873C76.5686 70.9675 75.1981 72.2862 73.054 72.2862Z" fill="#888989"/>
</g>
<path id="Vector_6" d="M40.2074 13.0773C44.7166 4.57183 50.5521 0.308105 57.7138 0.308105C63.1514 0.308105 67.5501 2.85755 70.8878 7.93446C68.0585 5.80259 64.6324 4.74765 60.6315 4.74765C57.0065 4.74765 53.6025 5.82457 50.4416 8.00039C47.3249 10.1323 44.0314 15.4509 40.6053 23.9564C38.5054 29.1432 36.8476 32.7036 35.5876 34.6377C34.1951 36.7256 32.1836 38.4838 29.5974 39.9783C26.8565 41.4508 23.7177 42.1981 20.1811 42.1981C14.3677 42.1981 9.63743 40.264 6.01236 36.3739C2.4094 32.4399 0.596863 27.7366 0.596863 22.2201C0.596863 16.4839 2.60833 11.429 6.67549 7.03336C10.7205 2.59381 15.5834 0.374039 21.2642 0.374039C28.4038 0.374039 34.7256 4.61578 40.2074 13.0773ZM38.2622 17.2311C33.753 10.7916 27.9838 7.58281 20.9547 7.58281C15.5171 7.58281 11.4279 9.03335 8.66485 11.9564C5.99026 14.7916 4.64191 18.2421 4.64191 22.374C4.64191 26.5278 6.05657 29.9564 8.908 32.6377C11.7815 35.3629 15.3624 36.7256 19.6506 36.7256C22.9662 36.7256 25.7071 36.0003 27.8954 34.5717C30.0837 33.1432 31.9626 30.7915 33.5319 27.4948C34.4824 25.4069 36.0739 22.0003 38.2622 17.2311ZM47.126 33.0553C42.0641 44.3299 35.1013 49.9783 26.2597 49.9783C21.7505 49.9783 17.6391 48.5277 13.9035 45.6047C16.0918 46.308 18.4349 46.6596 20.9547 46.6596C26.1713 46.6596 30.5479 45.3849 34.1288 42.8354C37.7096 40.242 41.0473 34.9893 44.164 27.0992C47.5238 18.5498 50.5963 13.407 53.4477 11.6927C56.2771 9.9784 59.0843 9.12126 61.8252 9.12126C66.1134 9.12126 69.9374 10.7257 73.3414 13.9125C76.7012 17.0993 78.359 21.1212 78.359 25.9784C78.359 30.3739 76.8559 34.4179 73.8277 38.1102C70.8436 41.7585 67.0196 43.6047 62.3115 43.6047C56.1886 43.5827 51.1268 40.0662 47.126 33.0553ZM48.6511 29.1652C52.011 34.3959 56.277 37.0113 61.4936 37.0113C65.2513 37.0113 68.368 36.0003 70.8436 33.9564C73.2972 31.9124 74.535 29.1432 74.535 25.6267C74.535 22.1102 73.2972 19.319 70.8436 17.2311C68.4122 15.0993 65.4723 14.0443 61.9799 14.0443C59.4158 14.0443 57.1833 14.9234 55.2824 16.6817C53.3814 18.4399 51.171 22.5938 48.6511 29.1652Z" fill="#888989"/>
</g>
</svg>
