<svg width="165" height="49" viewBox="0 0 165 49" fill="none" xmlns="http://www.w3.org/2000/svg">
<g id="Group">
<path id="Vector" d="M43.782 42.1195C43.571 42.2245 43.3073 42.277 43.2018 42.4345C42.4633 43.4845 41.8303 44.587 41.0391 45.5844C40.2478 46.5294 39.1401 46.8444 37.8214 46.5294C36.2916 46.1619 35.1839 45.2694 34.1816 44.1145C32.0189 41.7521 30.6474 38.9172 29.4342 35.9773C28.3792 33.4049 27.5352 30.7275 26.3747 28.1551C24.423 23.9027 21.9965 19.9654 17.1436 18.4954C18.5151 18.1279 19.9393 17.8654 21.3108 17.3405C25.1087 15.9755 27.9045 13.2456 27.4825 8.31081C27.2715 5.7384 26.1637 3.63848 23.9482 2.22103C22.4713 1.27607 20.836 0.64609 19.0953 0.488596C16.6688 0.226105 14.2423 0.121109 11.8159 0.0686113C8.17616 0.0161133 4.4837 0.0161133 0.791242 0.0161133C0.527494 0.0161133 0.263747 0.121109 0 0.121109C0 0.226105 0 0.331102 0.0527494 0.436098C0.474745 0.436098 0.896741 0.488596 1.26599 0.488596C3.11222 0.541094 3.69246 0.961078 3.90346 2.74601C4.11446 4.68844 4.27271 6.63087 4.27271 8.57329C4.27271 15.818 4.27271 23.0628 4.16721 30.255C4.16721 32.0924 4.00896 33.9299 3.85071 35.7673C3.69246 37.3422 3.21772 37.7097 1.68798 37.7622C1.31874 37.7622 1.00224 37.7622 0.632993 37.8147C0.474745 37.8147 0.316497 37.9197 0.105499 37.9722C0.105499 38.0247 0.105499 38.1297 0.158248 38.1822H13.5566C13.5566 38.0772 13.5566 38.0247 13.5566 37.9197C13.2929 37.8672 13.0819 37.8147 12.8181 37.8147C12.2379 37.8147 11.6576 37.8147 11.0774 37.8147C9.86415 37.8147 9.3894 37.4472 9.12565 36.2923C8.91466 35.1898 8.70366 34.0348 8.65091 32.8799C8.54541 29.6775 8.49266 26.4751 8.43991 23.2727C8.43991 21.8028 8.43991 20.2804 8.43991 18.7054C9.65315 18.7054 10.7081 18.7054 11.8159 18.7054C14.7698 18.7054 17.1436 19.9129 18.8843 22.2753C20.414 24.3752 21.4163 26.7376 22.313 29.1525C23.579 32.5649 24.7395 35.9773 26.111 39.3896C27.1132 41.9621 28.432 44.377 30.5419 46.2669C32.2827 47.8418 34.2871 48.4718 36.5554 48.1043C39.8786 47.5793 42.0413 45.3744 43.7293 42.697C43.9403 42.592 43.8348 42.3295 43.782 42.1195ZM8.54541 18.1279C8.54541 15.818 8.54541 13.4556 8.54541 11.0407C8.59816 8.20581 8.59816 5.42341 8.70366 2.58852C8.75641 0.803584 9.1784 0.541094 10.9719 0.488596C12.9236 0.436098 14.8753 0.3836 16.7743 0.90858C19.6755 1.64355 21.5218 3.37599 22.2075 6.26338C22.735 8.3633 22.735 10.4632 22.2075 12.5631C21.3108 16.0805 18.6206 18.0754 14.8753 18.1279C12.7654 18.1279 10.7081 18.1279 8.54541 18.1279Z" fill="#888989"/>
<path id="Vector_2" d="M133.299 27.4189C133.035 27.8388 132.771 28.2588 132.507 28.6788C130.028 32.6687 126.652 35.1886 121.747 35.2411C116.946 35.2411 112.99 33.5611 110.511 29.3088C108.032 25.004 108.137 20.4366 110.194 16.0268C111.935 12.2994 115.68 10.4095 119.795 10.9345C122.063 11.197 123.54 12.6669 124.964 14.2419C125.439 14.7668 125.966 15.2918 126.547 15.7118C127.496 16.3418 128.973 15.9743 129.712 15.0293C130.45 14.1369 130.345 13.1394 129.395 12.2469C128.92 11.8269 128.393 11.407 127.813 11.1445C125.228 9.83202 122.432 9.46453 119.531 9.77952C113.307 10.357 107.188 15.5543 105.605 21.5391C105.236 22.9565 104.919 24.3215 104.234 25.5814C103.126 27.6289 101.965 29.5713 100.33 31.2512C96.796 34.8211 92.5233 35.871 87.7231 34.8736C83.6614 34.0336 80.4965 31.8812 78.5447 28.1013C77.1205 25.3189 77.1732 22.4315 77.7007 19.4917C77.8062 18.9667 77.9645 18.8092 78.492 18.8092C82.1317 18.8092 85.7714 18.8092 89.4111 18.8092C92.0486 18.8092 94.6861 18.8092 97.3235 18.7567C98.5895 18.7567 99.117 18.0742 99.1698 16.8668C99.2753 14.8193 98.3785 13.1919 96.8488 11.8794C94.8443 10.1995 92.4178 9.67453 89.8859 9.67453C81.8679 9.56953 74.483 16.4468 74.1138 24.5315C73.85 29.9388 75.96 34.3486 80.9712 36.7635C86.5099 39.4409 91.9431 38.9159 96.9543 35.3461C100.489 32.8262 102.915 29.3088 104.761 25.4239C104.814 25.2664 104.919 25.1089 105.13 24.794C105.13 25.2139 105.13 25.3714 105.13 25.5289C105.394 36.0285 115.153 40.0709 122.432 37.656C127.391 35.976 130.819 32.5112 133.351 28.1013C133.457 27.9438 133.457 27.7339 133.51 27.5239C133.457 27.5239 133.404 27.4714 133.299 27.4189ZM90.3079 11.197C92.6816 11.8269 94.4223 13.9269 94.3696 15.9743C94.3696 17.3917 94.0531 17.8117 92.6288 18.0217C91.6793 18.1792 90.6771 18.1792 89.7276 18.1792C86.1934 18.2842 82.6064 18.3367 79.0722 18.3892C78.7557 18.3892 78.4392 18.3892 78.0172 18.3892C79.758 11.9319 85.8769 9.98951 90.3079 11.197Z" fill="#888989"/>
<path id="Vector_3" d="M164.949 33.403C164.58 33.0881 164.422 33.508 164.263 33.7705C163.736 34.5055 163.208 35.2405 162.575 35.8705C161.52 36.9204 160.465 36.6579 160.202 35.188C159.938 33.8755 159.885 32.4581 159.885 31.0931C159.991 27.1033 160.202 23.1659 160.254 19.1761C160.307 16.9712 159.832 14.8712 158.514 12.9813C156.667 10.4089 153.924 9.56894 150.97 9.62144C146.698 9.72643 142.953 11.4589 139.471 13.8213C138.944 14.1888 138.574 14.8187 138.258 15.3962C137.994 15.8687 138.047 16.3412 138.522 16.7612C139.629 17.6536 142.161 17.2862 142.9 16.0787C143.322 15.3962 143.691 14.6612 144.06 13.9788C145.326 11.6689 147.067 10.1464 149.863 10.0939C152.764 10.0414 154.505 11.1964 155.243 13.9788C155.612 15.4487 155.718 16.9712 155.929 18.4936C155.982 19.0186 155.823 19.2286 155.296 19.4386C152.922 20.331 150.548 21.2235 148.227 22.221C145.221 23.5334 142.267 25.0034 139.84 27.3133C138.205 28.8357 137.15 30.6207 137.414 32.9306C137.941 37.2354 142.531 39.7028 146.592 37.9179C148.913 36.8679 150.812 35.293 152.553 33.508C153.555 32.5106 154.452 31.4081 155.401 30.3057C155.401 30.7781 155.401 31.1456 155.401 31.5656C155.349 32.6681 155.243 33.7705 155.296 34.873C155.401 38.0229 157.617 39.2828 160.413 37.8129C162.101 36.9204 163.525 35.713 164.738 34.243C165.002 34.033 165.055 33.508 164.949 33.403ZM156.034 20.961C156.034 21.801 155.982 22.641 155.982 23.5334C155.982 23.7959 155.982 24.1109 155.982 24.3734C155.929 25.5283 155.876 26.6308 155.823 27.7858C155.823 27.8908 155.823 27.9433 155.823 28.0483C155.823 28.1532 155.771 28.3107 155.771 28.4157C155.665 28.8357 155.507 29.2557 155.296 29.6757C155.243 29.7807 155.19 29.8332 155.138 29.9382C154.61 30.7256 154.03 31.4606 153.397 32.1956C153.186 32.4056 152.975 32.6681 152.764 32.8781C151.867 33.7705 150.865 34.558 149.81 35.2405C147.805 36.5004 145.907 36.2904 144.06 35.083C143.638 34.8205 143.269 34.5055 142.953 34.138C142.847 34.033 142.794 33.9805 142.742 33.8755C142.267 33.3506 141.95 32.7731 141.739 32.1431C141.687 31.9331 141.634 31.7231 141.581 31.5131C141.476 30.9356 141.476 30.3057 141.528 29.6757C141.581 29.1507 141.687 28.6782 141.845 28.2582C142.32 26.9458 143.216 25.8433 144.482 25.1609C147.014 23.7434 149.704 22.536 152.342 21.276C153.555 20.6985 154.821 20.226 156.193 19.6486C156.193 20.016 156.193 20.331 156.193 20.646C156.034 20.6985 156.034 20.856 156.034 20.961Z" fill="#888989"/>
<path id="Vector_4" d="M81.1292 2.95239C80.3907 4.00235 79.3885 4.47483 78.0697 4.26484C75.907 3.94985 73.6915 3.58236 71.5288 3.31987C68.9968 3.00489 67.3088 4.15984 66.3066 6.36476C64.8824 9.35715 64.7241 12.5595 64.7241 15.8144H72.7948C72.3728 16.3394 72.0563 16.6544 71.7925 17.0744C70.7903 18.5443 69.4716 19.1743 67.6781 18.8593C66.7286 18.7018 65.7791 18.8593 64.7769 18.8593C64.7769 20.3292 64.7769 21.7992 64.7769 23.2691C64.8296 27.3115 64.8296 31.3538 64.9351 35.3962C64.9879 37.2861 65.5681 37.7586 67.5198 37.8111C67.8891 37.8111 68.2583 37.8636 68.6276 37.9161C68.6276 38.0211 68.6276 38.1261 68.6276 38.1786H57.1282C57.1282 38.1261 57.1282 38.0736 57.0754 37.9686C57.2864 37.9161 57.4974 37.8111 57.7084 37.8111C58.0249 37.7586 58.2887 37.8111 58.6052 37.7586C59.7129 37.6536 60.2932 37.2336 60.3987 36.1312C60.5569 34.9237 60.6097 33.7162 60.6097 32.4563C60.6097 28.099 60.5569 23.7416 60.5569 19.3318C60.5569 19.1743 60.5569 19.0168 60.5042 18.7018H57.5502C57.4974 18.6493 57.4974 18.5443 57.4447 18.4918C58.0777 17.6518 58.6579 16.7594 59.3437 15.9719C59.4492 15.8144 59.7657 15.8144 59.9767 15.8144C60.7152 15.9194 60.9262 15.5519 61.0844 14.9219C62.4031 9.77713 65.2516 5.57729 69.5771 2.42741C72.8475 0.0124959 76.4872 -0.459987 80.338 0.589975C81.8677 1.06246 82.0787 1.63994 81.1292 2.95239Z" fill="#888989"/>
<path id="Vector_5" d="M62.6141 2.22061C62.0338 3.69055 60.6623 4.53052 59.0798 4.26803C57.3391 4.00554 55.6511 3.69055 53.9104 3.37557C53.7521 3.32307 53.5411 3.32307 53.3829 3.32307C49.8487 3.00808 48.0552 4.16304 46.842 7.47041C46.1035 9.51784 45.576 13.6127 45.787 15.8176H53.8576C53.1719 16.5526 52.5917 17.1301 52.1169 17.76C51.4839 18.6525 50.6927 18.915 49.6377 18.8625C48.3717 18.7575 47.1057 18.8625 45.787 18.8625C45.787 18.9675 45.7342 19.0725 45.7342 19.125C45.787 24.4798 45.8397 29.8346 45.8925 35.1894C45.8925 35.3994 45.8925 35.6094 45.9452 35.7669C46.209 37.3418 46.7365 37.7618 48.3717 37.8143C48.7937 37.8143 49.2157 37.8668 49.6377 37.9193C49.6377 38.0243 49.6377 38.1293 49.6904 38.1818C49.4267 38.2343 49.1629 38.3393 48.8992 38.3393C45.6287 38.3393 42.3055 38.3393 39.035 38.3393C38.7186 38.3393 38.4021 38.2868 38.0856 38.2343C38.0856 38.1818 38.0856 38.0768 38.0328 38.0243C38.1911 37.9718 38.3493 37.8668 38.5076 37.8143C38.7713 37.7618 39.035 37.8143 39.246 37.7618C40.723 37.7093 41.356 37.1318 41.4615 35.6619C41.567 34.5594 41.567 33.4569 41.567 32.3545C41.567 28.0496 41.5143 23.7448 41.5143 19.3875C41.5143 19.1775 41.4615 18.9675 41.4615 18.705H38.5603C38.5076 18.6525 38.4548 18.5475 38.4021 18.495C39.035 17.655 39.668 16.7626 40.3538 15.9226C40.4593 15.7651 40.8285 15.8176 41.0923 15.8176C41.6725 15.8701 41.9363 15.6601 42.0418 15.0826C43.1495 10.5153 45.5232 6.68294 49.0574 3.58556C51.1674 1.74813 53.5412 0.278182 56.4424 0.0681894C58.3414 -0.0893047 60.1876 0.120687 61.9811 0.803162C62.8251 1.17065 62.9306 1.43314 62.6141 2.22061Z" fill="#888989"/>
<path id="Vector_6" d="M37.6635 6.52376C37.0305 8.0987 35.87 9.30615 34.4985 10.3561C34.3403 10.4611 34.182 10.5136 33.9183 10.5661C36.292 8.99116 37.0832 6.83874 36.6085 4.16134C35.9227 4.47633 35.3952 4.84382 34.8678 4.94881C33.7073 5.15881 32.705 4.47633 32.3358 3.42637C31.9665 2.37641 32.3885 1.11646 33.2853 0.486481C34.604 -0.405985 36.503 -0.0384989 37.2942 1.32645C38.191 3.00639 38.3492 4.73882 37.6635 6.52376Z" fill="#888989"/>
<path id="Vector_7" d="M141.37 29.624C141.423 29.099 141.528 28.6265 141.687 28.2065C141.581 28.6265 141.476 29.099 141.37 29.624C141.317 30.254 141.317 30.8839 141.423 31.4614C141.317 30.8839 141.317 30.254 141.37 29.624Z" fill="white"/>
</g>
</svg>
