<svg width="151" height="58" viewBox="0 0 151 58" fill="none" xmlns="http://www.w3.org/2000/svg">
<g id="Group 43">
<path id="Vector" d="M70.1054 37.1737C70.1054 38.7737 68.9054 40.0737 67.3054 40.1737C67.2054 40.1737 67.1054 40.1737 67.0054 40.1737C65.6054 40.0737 64.5054 38.6737 64.5054 36.9737C64.5054 32.4737 64.5054 28.0737 64.5054 23.5737C64.6054 21.2737 63.3054 19.1737 61.2054 18.2737C57.4054 16.4737 53.2054 19.1737 53.2054 23.4737C53.1054 27.7737 53.2054 32.0737 53.2054 36.3737C53.2054 36.9737 53.1054 37.6737 52.9054 38.2737C52.4054 39.4737 51.1054 40.1737 49.8054 40.0737C48.5054 39.7737 47.5054 38.5737 47.5054 37.1737C47.5054 34.9737 47.5054 32.6737 47.5054 30.4737C47.5054 28.1737 47.5054 25.8737 47.5054 23.5737C47.5054 20.2737 45.0054 17.6737 41.8054 17.7737C38.6054 17.7737 36.2054 20.2737 36.2054 23.5737C36.2054 27.7737 36.2054 31.9737 36.2054 36.1737C36.2054 36.6737 36.2054 37.0737 36.1054 37.5737C35.9054 38.9737 34.7054 40.0737 33.2054 40.1737C31.9054 40.1737 30.5054 39.0737 30.5054 37.6737C30.4054 31.4737 30.4054 25.3737 30.5054 19.1737C30.5054 17.6737 31.4054 16.4737 32.6054 15.4737C36.9054 11.7737 43.1054 10.9737 48.2054 13.5737C49.5054 14.3737 51.2054 14.3737 52.6054 13.5737C57.7054 10.9737 63.9054 11.6737 68.2054 15.4737C69.5054 16.5737 70.3054 18.1737 70.3054 19.7737C70.3054 22.5737 70.3054 25.4737 70.3054 28.2737C70.2054 31.2737 70.2054 34.2737 70.1054 37.1737Z" fill="#888989"/>
<path id="Vector_2" d="M101.605 20.9737C101.605 18.0737 100.005 15.4737 97.5054 14.0737C93.8054 11.8737 89.8054 11.4737 85.7054 12.6737C83.2054 13.3737 81.6054 12.2737 81.6054 9.67373C81.6054 7.47373 81.6054 5.17373 81.6054 2.97373C81.6054 1.57373 80.6054 0.373732 79.3054 0.0737323C78.2054 -0.126268 77.0054 0.373732 76.4054 1.37373C76.1054 1.97373 75.9054 2.67373 75.9054 3.37373C75.9054 6.47373 75.9054 9.67373 75.9054 12.7737C75.9054 13.7737 75.9054 14.7737 75.9054 15.7737C75.9054 17.9737 75.9054 20.2737 75.9054 22.4737C75.9054 24.3737 75.9054 26.1737 75.9054 28.0737C75.9054 29.8737 76.4054 31.5737 77.3054 33.0737C81.6054 39.7737 90.5054 41.7737 97.3054 37.4737C97.7054 37.1737 98.1054 36.9737 98.5054 36.6737C100.505 35.1737 101.705 32.8737 101.705 30.4737C101.705 27.4737 101.705 24.2737 101.605 20.9737ZM87.5054 34.0737C86.7054 33.4737 85.9054 32.7737 85.2054 32.0737C82.4054 28.6737 82.5054 22.8737 85.3054 19.3737C85.8054 18.7737 86.3054 18.3737 86.9054 17.9737C88.3054 17.0737 89.6054 17.7737 89.9054 19.3737C90.2054 21.4737 89.6054 23.3737 88.7054 25.1737C87.6054 27.6737 87.1054 30.1737 87.7054 32.8737C87.8054 33.1737 87.8054 33.4737 87.9054 33.6737C87.7054 33.8737 87.6054 33.9737 87.5054 34.0737ZM93.5054 32.1737C92.9054 32.9737 92.2054 33.5737 91.4054 34.1737C90.2054 34.9737 89.0054 34.2737 88.7054 32.8737C88.3054 30.8737 88.8054 28.9737 89.7054 27.1737C90.7054 24.9737 91.4054 22.6737 91.0054 20.1737C90.9054 19.5737 90.8054 18.9737 90.6054 18.2737C90.7054 18.1737 90.8054 18.0737 90.9054 17.9737C91.8054 18.7737 92.8054 19.4737 93.4054 20.3737C95.9054 23.5737 95.9054 28.8737 93.5054 32.1737Z" fill="#888989"/>
<path id="Vector_3" d="M17.3054 39.1738C12.2054 41.0738 7.60538 40.0738 3.40538 36.8738C1.20538 35.1738 -0.0946199 32.5738 0.00538014 29.7738V3.47384C0.00538014 1.57384 1.30538 0.0738354 3.00538 0.173835C4.70538 0.273835 5.80538 1.57384 5.80538 3.47384C5.80538 11.6738 5.80538 19.8738 5.80538 28.0738C5.80538 30.9738 7.10538 33.0738 9.60538 33.8738C11.4054 34.4738 13.4054 34.4738 15.2054 33.8738C17.7054 33.0738 19.1054 30.9738 19.1054 27.9738C19.1054 19.7738 19.1054 11.6738 19.1054 3.47384C19.1054 2.57384 19.4054 1.77384 19.9054 0.973835C20.5054 0.0738354 21.6054 -0.226165 22.6054 0.173835C23.7054 0.573835 24.5054 1.47384 24.6054 2.67384C24.6054 2.97384 24.6054 3.37384 24.6054 3.67384C24.6054 11.9738 24.5054 20.2738 24.7054 28.5738C24.9054 34.0738 22.2054 37.2738 17.3054 39.1738Z" fill="#888989"/>
<path id="Vector_4" d="M127.005 33.6737C123.905 34.1737 120.905 34.3737 117.805 33.8737C116.305 33.6737 115.005 32.7737 114.105 31.5737C113.405 30.5737 113.105 29.5737 113.705 28.3737C114.205 27.3737 115.305 26.6737 116.505 26.7737C118.305 26.7737 120.105 26.7737 121.805 26.7737C123.505 26.7737 125.405 26.7737 127.105 26.7737C128.905 26.7737 129.705 26.0737 130.305 24.3737C130.505 23.7737 130.605 23.1737 130.705 22.5737C131.705 16.6737 127.805 12.1737 121.905 12.0737C119.905 12.0737 117.805 12.0737 115.805 12.0737C111.205 12.1737 107.605 15.4737 107.405 19.7737C107.205 23.0737 107.305 26.3737 107.505 29.7737C107.905 34.6737 110.705 37.8737 115.405 39.0737C119.705 40.2737 123.905 39.9737 128.205 39.0737C130.105 38.6737 131.005 37.3737 130.705 35.6737C130.405 34.1737 128.905 33.3737 127.005 33.6737ZM114.205 17.8737C114.805 17.3737 115.405 16.9737 116.105 16.6737C118.105 15.9737 120.205 15.9737 122.105 16.6737C122.805 16.9737 123.505 17.3737 124.105 17.8737C125.005 18.6737 125.205 19.8737 124.805 20.8737C124.405 21.9737 123.405 22.6737 122.305 22.6737C121.205 22.6737 120.205 22.6737 119.105 22.6737C118.105 22.6737 117.105 22.6737 116.205 22.6737C115.005 22.6737 114.005 21.9737 113.605 20.8737C113.005 19.8737 113.305 18.6737 114.205 17.8737Z" fill="#888989"/>
<path id="Vector_5" d="M147.605 17.7736C144.105 17.8736 142.105 20.7736 142.205 23.7736C142.305 28.0736 142.305 32.4736 142.205 36.7736C142.105 37.6736 141.805 38.4736 141.305 39.1736C140.705 40.0736 139.505 40.3736 138.505 39.8736C137.305 39.3736 136.505 38.4736 136.505 37.0736C136.505 34.2736 136.505 31.5736 136.505 28.7736C136.505 26.4736 136.505 24.2736 136.505 21.9736C136.505 20.9736 136.605 19.9736 136.705 18.9736C137.405 15.1736 139.905 12.8736 143.705 12.2736C144.905 12.0736 146.005 11.9736 147.205 11.9736C148.905 11.9736 150.205 13.0736 150.305 14.6736C150.405 16.1736 149.305 17.4736 147.805 17.6736C147.805 17.7736 147.705 17.7736 147.605 17.7736Z" fill="#888989"/>
<path id="Vector_6" d="M83.3054 46.0735C83.4054 46.1735 83.5053 46.2735 83.6053 46.4735C83.6053 46.6735 83.6053 46.7735 83.5053 46.8735C83.4053 46.9735 83.3053 47.0735 83.2053 47.0735C83.1053 47.0735 82.9054 47.0735 82.8054 46.9735C82.5054 46.7735 82.2053 46.6735 81.9053 46.5735C81.6053 46.4735 81.2053 46.3735 80.9053 46.3735C80.4053 46.3735 79.9053 46.4735 79.5053 46.6735C79.1053 46.8735 78.7053 47.0735 78.4053 47.4735C78.1053 47.7735 77.8053 48.1735 77.7053 48.5735C77.5053 49.0735 77.4053 49.5735 77.4053 50.0735C77.4053 50.5735 77.5053 51.0735 77.7053 51.5735C77.9053 51.9735 78.1053 52.3735 78.5053 52.7735C78.8053 53.0735 79.2053 53.3735 79.6053 53.4735C80.0053 53.6735 80.5053 53.7735 81.0053 53.6735C81.3053 53.6735 81.7053 53.6735 82.0053 53.5735C82.3053 53.4735 82.6053 53.3735 82.9053 53.1735C82.9053 53.0735 83.0053 53.0735 83.1053 53.0735C83.2053 53.0735 83.3053 53.1735 83.4053 53.2735C83.5053 53.3735 83.5053 53.5735 83.5053 53.6735C83.5053 53.7735 83.4054 53.9735 83.3054 53.9735C83.1054 54.0735 82.8053 54.2735 82.6053 54.3735C82.3053 54.4735 82.0053 54.5735 81.7053 54.6735C81.4053 54.7735 81.1054 54.7735 80.8054 54.7735C80.2054 54.7735 79.6053 54.6735 79.0053 54.4735C78.5053 54.2735 78.0053 53.9735 77.5053 53.5735C77.1053 53.1735 76.7053 52.6735 76.5053 52.0735C76.2053 51.4735 76.1053 50.7735 76.1053 50.1735C76.1053 49.5735 76.2053 48.8735 76.5053 48.2735C76.7053 47.6735 77.1053 47.1735 77.5053 46.7735C77.9053 46.3735 78.4053 45.9735 79.0053 45.7735C79.6053 45.5735 80.2054 45.3735 80.8054 45.3735C81.2054 45.3735 81.7053 45.4735 82.1053 45.5735C82.5053 45.6735 82.9054 45.8735 83.3054 46.0735Z" fill="#888989"/>
<path id="Vector_7" d="M91.3053 51.1737C91.3053 51.7737 91.2053 52.4737 90.9053 52.9737C90.6053 53.4737 90.2053 53.8737 89.7053 54.2737C89.2053 54.5737 88.6053 54.7737 88.0053 54.7737C87.4053 54.7737 86.8053 54.5737 86.3053 54.2737C85.8053 53.9737 85.4053 53.5737 85.1053 52.9737C84.8053 52.3737 84.6053 51.7737 84.7053 51.1737C84.7053 50.5737 84.8053 49.8737 85.1053 49.3737C85.4053 48.8737 85.8053 48.4737 86.3053 48.0737C86.8053 47.7737 87.4053 47.5737 88.0053 47.5737C88.6053 47.5737 89.2053 47.6737 89.7053 48.0737C90.2053 48.3737 90.6053 48.7737 90.9053 49.3737C91.1053 49.9737 91.3053 50.5737 91.3053 51.1737ZM90.2053 51.1737C90.2053 50.6737 90.1053 50.2737 89.9053 49.8737C89.7053 49.4737 89.4053 49.1737 89.1053 48.9737C88.7053 48.7737 88.3053 48.6737 87.9053 48.6737C87.5053 48.6737 87.1053 48.7737 86.7053 48.9737C86.3053 49.1737 86.1053 49.4737 85.9053 49.8737C85.7053 50.2737 85.6053 50.7737 85.6053 51.1737C85.6053 51.6737 85.7053 52.0737 85.9053 52.4737C86.1053 52.8737 86.4053 53.1737 86.7053 53.3737C87.1053 53.5737 87.5053 53.6737 87.9053 53.6737C88.3053 53.6737 88.7053 53.5737 89.1053 53.3737C89.5053 53.1737 89.7053 52.8737 89.9053 52.4737C90.1053 52.1737 90.3053 51.6737 90.2053 51.1737Z" fill="#888989"/>
<path id="Vector_8" d="M96.0054 47.9736C96.1054 47.9736 96.3054 47.9736 96.4054 48.0736C96.5054 48.1736 96.5054 48.2736 96.5054 48.3736C96.5054 48.4736 96.5054 48.6736 96.4054 48.6736C96.3054 48.7736 96.2054 48.7736 96.0054 48.7736H92.7054C92.6054 48.7736 92.4054 48.7736 92.3054 48.6736C92.2054 48.5736 92.2054 48.4736 92.2054 48.3736C92.2054 48.2736 92.2054 48.0736 92.3054 47.9736C92.4054 47.8736 92.5054 47.8736 92.7054 47.8736H96.0054V47.9736ZM95.6054 44.9736C95.8054 44.9736 95.9054 44.9736 96.1054 45.0736C96.3054 45.0736 96.4054 45.1736 96.5054 45.2736C96.6054 45.3736 96.7054 45.4736 96.7054 45.6736C96.7054 45.7736 96.7054 45.9736 96.6054 45.9736C96.5054 46.0736 96.4054 46.0736 96.3054 46.0736C96.2054 46.0736 96.1054 46.0736 96.0054 45.9736C95.9054 45.9736 95.7054 45.8736 95.6054 45.8736C95.4054 45.8736 95.3054 45.8736 95.1054 45.9736C95.0054 46.0736 94.9054 46.1736 94.8054 46.2736C94.7054 46.4736 94.7054 46.5736 94.7054 46.7736V54.0736C94.7054 54.1736 94.6054 54.3736 94.6054 54.4736C94.5054 54.5736 94.4054 54.6736 94.2054 54.6736C94.1054 54.6736 93.9054 54.5736 93.8054 54.4736C93.7054 54.3736 93.7054 54.2736 93.7054 54.0736V46.8736C93.7054 46.3736 93.9054 45.8736 94.2054 45.4736C94.5054 45.1736 95.1054 44.9736 95.6054 44.9736ZM100.905 47.9736C101.005 47.9736 101.205 47.9736 101.305 48.0736C101.405 48.1736 101.405 48.2736 101.405 48.3736C101.405 48.4736 101.405 48.6736 101.305 48.6736C101.205 48.7736 101.105 48.7736 100.905 48.7736H97.6054C97.5054 48.7736 97.3054 48.7736 97.2054 48.6736C97.1054 48.5736 97.1054 48.4736 97.1054 48.3736C97.1054 48.2736 97.1054 48.0736 97.2054 47.9736C97.3054 47.8736 97.4054 47.8736 97.6054 47.8736H100.905V47.9736ZM100.505 44.9736C100.705 44.9736 100.805 44.9736 101.005 45.0736C101.205 45.0736 101.305 45.1736 101.405 45.2736C101.505 45.3736 101.605 45.4736 101.605 45.6736C101.605 45.7736 101.605 45.9736 101.505 45.9736C101.405 46.0736 101.305 46.0736 101.205 46.0736C101.105 46.0736 101.005 46.0736 100.905 45.9736C100.805 45.9736 100.605 45.8736 100.505 45.8736C100.305 45.8736 100.205 45.8736 100.005 45.9736C99.9054 46.0736 99.8054 46.1736 99.7054 46.2736C99.6054 46.4736 99.6054 46.5736 99.6054 46.7736V54.0736C99.6054 54.1736 99.5054 54.3736 99.4054 54.4736C99.3054 54.5736 99.2054 54.6736 99.0054 54.6736C98.9054 54.6736 98.7054 54.5736 98.6054 54.4736C98.5054 54.3736 98.5054 54.2736 98.5054 54.0736V46.8736C98.5054 46.3736 98.7054 45.8736 99.0054 45.4736C99.4054 45.1736 100.005 44.9736 100.505 44.9736Z" fill="#888989"/>
<path id="Vector_9" d="M105.605 54.7735C105.005 54.7735 104.305 54.6735 103.805 54.3735C103.305 54.0735 102.905 53.6735 102.605 53.1735C102.305 52.5735 102.205 51.9735 102.205 51.3735C102.205 50.6735 102.305 50.0735 102.705 49.4735C103.005 48.9735 103.405 48.5735 103.905 48.2735C104.405 47.9735 104.905 47.8735 105.405 47.8735C105.805 47.8735 106.205 47.9735 106.605 48.0735C107.005 48.1735 107.305 48.4735 107.605 48.6735C107.905 48.9735 108.105 49.2735 108.305 49.6735C108.505 50.0735 108.605 50.5735 108.605 50.9735C108.605 51.0735 108.505 51.2735 108.405 51.3735C108.305 51.4735 108.205 51.4735 108.005 51.4735H102.905L102.705 50.5735H107.705L107.505 50.7735V50.4735C107.505 50.1735 107.405 49.7735 107.205 49.5735C107.005 49.2735 106.705 49.0735 106.405 48.9735C106.105 48.8735 105.805 48.7735 105.505 48.7735C105.205 48.7735 105.005 48.7735 104.705 48.8735C104.405 48.9735 104.205 49.0735 104.005 49.2735C103.805 49.4735 103.605 49.7735 103.505 50.0735C103.405 50.4735 103.305 50.8735 103.305 51.2735C103.305 51.7735 103.405 52.1735 103.605 52.5735C103.805 52.9735 104.105 53.2735 104.505 53.4735C104.905 53.6735 105.305 53.7735 105.805 53.7735C106.105 53.7735 106.305 53.7735 106.605 53.6735C106.805 53.5735 107.005 53.4735 107.205 53.3735C107.305 53.2735 107.505 53.1735 107.605 52.9735C107.705 52.8735 107.805 52.8735 107.905 52.8735C108.005 52.8735 108.105 52.8735 108.205 52.9735C108.305 53.0735 108.305 53.1735 108.305 53.2735C108.305 53.4735 108.205 53.5735 108.105 53.6735C107.805 53.9735 107.505 54.1735 107.105 54.3735C106.505 54.6735 106.105 54.7735 105.605 54.7735Z" fill="#888989"/>
<path id="Vector_10" d="M113.005 54.7735C112.405 54.7735 111.705 54.6735 111.205 54.3735C110.705 54.0735 110.305 53.6735 110.005 53.1735C109.705 52.5735 109.605 51.9735 109.605 51.3735C109.605 50.6735 109.705 50.0735 110.105 49.4735C110.405 48.9735 110.805 48.5735 111.305 48.2735C111.805 47.9735 112.305 47.8735 112.805 47.8735C113.205 47.8735 113.605 47.9735 114.005 48.0735C114.405 48.1735 114.705 48.4735 115.005 48.6735C115.305 48.9735 115.505 49.2735 115.705 49.6735C115.905 50.0735 116.005 50.5735 116.005 50.9735C116.005 51.0735 115.905 51.2735 115.805 51.3735C115.705 51.4735 115.605 51.4735 115.405 51.4735H110.305L110.105 50.5735H115.105L114.905 50.7735V50.4735C114.905 50.1735 114.805 49.7735 114.605 49.5735C114.405 49.2735 114.105 49.0735 113.805 48.9735C113.505 48.8735 113.205 48.7735 112.905 48.7735C112.605 48.7735 112.405 48.7735 112.105 48.8735C111.805 48.9735 111.605 49.0735 111.405 49.2735C111.205 49.4735 111.005 49.7735 110.905 50.0735C110.805 50.4735 110.705 50.8735 110.705 51.2735C110.705 51.7735 110.805 52.1735 111.005 52.5735C111.205 52.9735 111.505 53.2735 111.905 53.4735C112.305 53.6735 112.705 53.7735 113.205 53.7735C113.505 53.7735 113.705 53.7735 114.005 53.6735C114.205 53.5735 114.405 53.4735 114.605 53.3735C114.705 53.2735 114.905 53.1735 115.005 52.9735C115.105 52.8735 115.205 52.8735 115.305 52.8735C115.405 52.8735 115.505 52.8735 115.605 52.9735C115.705 53.0735 115.705 53.1735 115.705 53.2735C115.705 53.4735 115.605 53.5735 115.505 53.6735C115.205 53.9735 114.905 54.1735 114.505 54.3735C113.905 54.6735 113.405 54.7735 113.005 54.7735Z" fill="#888989"/>
<path id="Vector_11" d="M123.705 54.7739C123.105 54.7739 122.505 54.6739 122.005 54.4739C121.505 54.2739 121.005 53.9739 120.605 53.5739L120.505 53.3739L120.405 53.1739C120.405 53.0739 120.505 52.8739 120.605 52.7739C120.705 52.6739 120.805 52.5739 121.005 52.5739C121.105 52.5739 121.205 52.6739 121.305 52.6739C121.605 52.9739 122.005 53.2739 122.405 53.4739C122.805 53.6739 123.305 53.7739 123.705 53.7739C124.105 53.7739 124.405 53.6739 124.705 53.5739C125.005 53.4739 125.205 53.2739 125.405 53.0739C125.605 52.8739 125.705 52.5739 125.705 52.2739C125.705 51.9739 125.605 51.6739 125.405 51.3739C125.205 51.1739 124.905 50.9739 124.605 50.7739C124.205 50.5739 123.805 50.4739 123.405 50.3739C123.005 50.2739 122.705 50.1739 122.305 49.9739C122.005 49.8739 121.705 49.6739 121.405 49.4739C121.205 49.2739 121.005 48.9739 120.805 48.7739C120.705 48.4739 120.605 48.0739 120.605 47.7739C120.605 47.2739 120.705 46.8739 121.005 46.4739C121.305 46.0739 121.605 45.7739 122.105 45.5739C122.605 45.3739 123.105 45.2739 123.705 45.2739C124.205 45.2739 124.705 45.3739 125.205 45.5739C125.605 45.6739 126.005 45.9739 126.305 46.2739C126.505 46.3739 126.505 46.5739 126.605 46.7739C126.605 46.8739 126.505 47.0739 126.405 47.1739C126.305 47.2739 126.205 47.3739 126.005 47.3739C125.905 47.3739 125.805 47.3739 125.705 47.2739C125.505 47.0739 125.305 46.9739 125.105 46.8739C124.905 46.7739 124.605 46.6739 124.405 46.5739C124.105 46.4739 123.905 46.4739 123.605 46.4739C123.205 46.4739 122.905 46.5739 122.505 46.6739C122.205 46.7739 122.005 46.9739 121.805 47.1739C121.605 47.3739 121.505 47.6739 121.505 47.9739C121.505 48.2739 121.605 48.5739 121.805 48.7739C122.005 48.9739 122.305 49.1739 122.605 49.2739C122.905 49.3739 123.305 49.5739 123.705 49.6739C124.105 49.7739 124.505 49.8739 124.905 50.0739C125.205 50.1739 125.505 50.3739 125.805 50.5739C126.105 50.7739 126.305 51.0739 126.405 51.3739C126.605 51.7739 126.605 52.1739 126.605 52.4739C126.605 52.9739 126.505 53.3739 126.205 53.7739C125.905 54.1739 125.505 54.4739 125.105 54.6739C124.805 54.6739 124.205 54.7739 123.705 54.7739Z" fill="#888989"/>
<path id="Vector_12" d="M131.605 47.7735C132.105 47.7735 132.605 47.8735 133.005 48.1735C133.305 48.3735 133.605 48.7735 133.705 49.1735C133.805 49.5735 133.905 50.0735 133.905 50.5735V54.0735C133.905 54.1735 133.805 54.3736 133.805 54.4736C133.705 54.5736 133.605 54.6735 133.405 54.6735C133.305 54.6735 133.105 54.5736 133.005 54.4736C132.905 54.3736 132.805 54.2735 132.905 54.0735V50.4736C132.905 50.1736 132.905 49.8735 132.805 49.5735C132.705 49.2735 132.505 49.0736 132.305 48.9736C132.005 48.7736 131.705 48.6735 131.405 48.7735C131.105 48.7735 130.705 48.8736 130.405 48.9736C130.105 49.0736 129.905 49.3735 129.705 49.5735C129.505 49.8735 129.405 50.1736 129.405 50.4736V54.0735C129.405 54.1735 129.305 54.3736 129.205 54.4736C129.105 54.5736 129.005 54.6735 128.805 54.6735C128.705 54.6735 128.505 54.5736 128.405 54.4736C128.305 54.3736 128.205 54.2735 128.305 54.0735V45.4736C128.305 45.3736 128.405 45.1735 128.405 45.0735C128.505 44.9735 128.605 44.8736 128.805 44.9736C128.905 44.9736 129.105 44.9735 129.205 45.0735C129.305 45.1735 129.305 45.2736 129.305 45.4736V49.3735L129.005 49.6735C129.105 49.4735 129.105 49.1736 129.305 48.9736C129.505 48.7736 129.605 48.5735 129.905 48.3735C130.105 48.1735 130.405 48.0736 130.705 47.9736C131.005 47.7736 131.305 47.7735 131.605 47.7735Z" fill="#888989"/>
<path id="Vector_13" d="M142.105 51.1737C142.105 51.7737 142.005 52.4737 141.705 52.9737C141.405 53.4737 141.005 53.8737 140.505 54.2737C140.005 54.5737 139.405 54.7737 138.805 54.7737C138.205 54.7737 137.605 54.5737 137.105 54.2737C136.605 53.9737 136.205 53.5737 135.905 52.9737C135.605 52.3737 135.405 51.7737 135.505 51.1737C135.505 50.5737 135.605 49.8737 135.905 49.3737C136.205 48.8737 136.605 48.4737 137.105 48.0737C137.605 47.7737 138.205 47.5737 138.805 47.5737C139.405 47.5737 140.005 47.6737 140.505 48.0737C141.005 48.3737 141.405 48.7737 141.705 49.3737C142.005 49.9737 142.105 50.5737 142.105 51.1737ZM141.105 51.1737C141.105 50.6737 141.005 50.2737 140.805 49.8737C140.605 49.4737 140.305 49.1737 140.005 48.9737C139.605 48.7737 139.205 48.6737 138.805 48.6737C138.405 48.6737 138.005 48.7737 137.605 48.9737C137.205 49.1737 137.005 49.4737 136.805 49.8737C136.605 50.2737 136.505 50.7737 136.505 51.1737C136.505 51.6737 136.605 52.0737 136.805 52.4737C137.005 52.8737 137.305 53.1737 137.605 53.3737C138.005 53.5737 138.405 53.6737 138.805 53.6737C139.205 53.6737 139.605 53.5737 140.005 53.3737C140.405 53.1737 140.605 52.8737 140.805 52.4737C141.005 52.1737 141.105 51.6737 141.105 51.1737Z" fill="#888989"/>
<path id="Vector_14" d="M147.005 47.7739C147.605 47.7739 148.105 47.8739 148.605 48.1739C149.105 48.4739 149.505 48.8739 149.705 49.3739C150.005 49.9739 150.105 50.5739 150.105 51.1739C150.105 51.7739 150.005 52.3739 149.705 52.9739C149.405 53.4739 149.105 53.8739 148.605 54.1739C148.105 54.4739 147.605 54.6739 147.005 54.5739C146.705 54.5739 146.405 54.5739 146.105 54.4739C145.805 54.3739 145.605 54.2739 145.305 54.0739C145.105 53.8739 144.905 53.7739 144.705 53.5739C144.605 53.3739 144.405 53.1739 144.405 52.9739L144.705 52.7739V56.5739C144.705 56.6739 144.705 56.8739 144.605 56.9739C144.505 57.0739 144.405 57.1739 144.205 57.1739C144.105 57.1739 143.905 57.1739 143.805 57.0739C143.705 56.9739 143.605 56.8739 143.605 56.6739V48.3739C143.605 48.2739 143.705 48.0739 143.805 47.9739C143.905 47.8739 144.005 47.7739 144.205 47.8739C144.305 47.8739 144.505 47.8739 144.605 47.9739C144.705 48.0739 144.705 48.1739 144.705 48.3739V49.5739L144.505 49.4739C144.605 49.2739 144.705 49.0739 144.805 48.8739C145.005 48.6739 145.105 48.4739 145.405 48.3739C145.605 48.1739 145.905 48.0739 146.105 47.9739C146.405 47.7739 146.705 47.7739 147.005 47.7739ZM146.905 48.7739C146.505 48.7739 146.105 48.8739 145.705 49.0739C145.405 49.2739 145.105 49.5739 144.905 49.9739C144.705 50.3739 144.605 50.7739 144.605 51.2739C144.605 51.6739 144.705 52.1739 144.905 52.5739C145.105 52.9739 145.305 53.2739 145.705 53.4739C146.005 53.6739 146.405 53.7739 146.905 53.7739C147.305 53.7739 147.705 53.6739 148.005 53.4739C148.305 53.2739 148.605 52.9739 148.805 52.5739C149.005 52.1739 149.105 51.7739 149.105 51.2739C149.105 50.8739 149.005 50.3739 148.805 49.9739C148.605 49.5739 148.405 49.2739 148.005 49.0739C147.705 48.8739 147.305 48.7739 146.905 48.7739Z" fill="#888989"/>
</g>
</svg>
