<svg width="196" height="54" viewBox="0 0 196 54" fill="none" xmlns="http://www.w3.org/2000/svg">
<g id="Group">
<path id="Vector" d="M0.500006 24.4999C1.00001 24.4999 1.50001 24.2999 1.80001 23.9999C2.20001 23.6999 2.40001 23.1999 2.40001 22.6999V5.9999C2.40001 5.4999 2.20001 5.0999 1.80001 4.7999C1.50001 4.4999 1.00001 4.2999 0.500006 4.2999H0.200006V3.9999H6.20001C6.90001 3.9999 7.50001 3.8999 8.20001 3.7999C8.70001 3.6999 9.20001 3.5999 9.70001 3.3999V7.0999H9.40001V6.6999C9.40001 5.7999 8.70001 4.9999 7.70001 4.8999H4.40001V14.0999H10C10.4 14.0999 10.7 13.8999 11 13.6999C11.3 13.3999 11.4 12.9999 11.4 12.6999V12.2999H11.7V16.9999H11.4V16.5999C11.4 16.1999 11.3 15.8999 11 15.5999C10.7 15.2999 10.4 15.1999 10 15.1999H4.40001V24.0999H10.7C12.2 24.0999 13.3 23.7999 14.1 23.0999C14.9 22.3999 15.5 21.4999 16 20.1999H16.3L14.6 24.9999H0.100006V24.6999H0.500006V24.4999Z" fill="#888989"/>
<path id="Vector_2" d="M0.5 24.5002V24.6002C1 24.6002 1.5 24.4002 1.9 24.0002H1.8L1.9 24.1002C2.3 23.7002 2.5 23.2002 2.5 22.7002V6.0002C2.5 5.5002 2.3 5.0002 1.9 4.7002V4.8002L2 4.7002C1.6 4.4002 1.1 4.2002 0.6 4.2002V4.3002V4.2002H0.3H6.2C6.9 4.2002 7.6 4.1002 8.2 4.0002V3.9002V4.0002C8.7 3.9002 9.2 3.8002 9.8 3.6002V3.5002H9.6V7.1002V6.7002C9.6 5.7002 8.8 4.9002 7.8 4.8002H4.2V14.2002H10C10.4 14.2002 10.8 14.0002 11.1 13.7002C11.4 13.4002 11.6 13.0002 11.6 12.6002H11.5H11.6V12.3002V16.7002V16.4002H11.5H11.6C11.6 16.0002 11.4 15.6002 11.2 15.3002C10.9 15.0002 10.5 14.8002 10.1 14.8002H4.2V24.0002H10.6C12.1 24.0002 13.2 23.7002 14 23.0002C14.8 22.3002 15.4 21.3002 16 20.0002V20.1002H16.1L14.5 24.6002H0.3H0.6V24.5002V24.6002L0.5 24.5002V24.4002H0.1H0V24.8002V24.9002H14.6L16.4 19.9002H16H15.9V20.0002C15.4 21.3002 14.8 22.2002 14 22.9002C13.3 23.5002 12.2 23.8002 10.7 23.8002H4.5V15.2002H10V15.0002V15.1002C10.3 15.1002 10.7 15.2002 10.9 15.5002C11.1 15.7002 11.3 16.1002 11.3 16.4002V16.8002V17.0002H11.7H11.8V12.1002H11.4H11.3V12.7002C11.3 13.0002 11.2 13.4002 10.9 13.6002C10.7 13.9002 10.3 14.0002 10 14.0002V14.1002V14.0002H4.5V5.1002H7.8V4.9002V5.0002C8.7 5.0002 9.3 5.8002 9.3 6.6002V7.1002V7.2002H9.7H9.8V3.2002L9.7 3.4002C9.2 3.6002 8.7 3.7002 8.2 3.8002C7.5 3.9002 6.9 4.0002 6.2 4.0002H0V4.4002V4.5002H0.5C0.9 4.5002 1.4 4.7002 1.7 5.0002C2.1 5.2002 2.3 5.6002 2.3 6.0002V22.6002H2.4H2.3C2.3 23.1002 2.1 23.5002 1.8 23.8002C1.5 24.1002 1 24.3002 0.6 24.3002V24.5002H0.5Z" fill="#888989"/>
<path id="Vector_3" d="M18 24.6002C18.4 24.6002 18.7 24.5002 19 24.2002C19.3 23.9002 19.4 23.6002 19.4 23.2002V10.9002C19.4 10.5002 19.2 10.2002 19 9.9002C18.7 9.6002 18.4 9.5002 18 9.5002H17.7V9.2002H22.6V9.4002H22.3C21.8 9.4002 21.3 9.6002 21.1 10.1002C21 10.3002 20.9 10.6002 20.9 10.8002V24.1002H24.1C25.2 24.1002 26 23.9002 26.6 23.4002C27.2 22.9002 27.7 22.2002 28 21.2002H28.2L26.9 24.8002H17.7V24.6002H18Z" fill="#888989"/>
<path id="Vector_4" d="M18 24.6001V24.7001C18.4 24.7001 18.8 24.5001 19.1 24.3001L19 24.2001L19.1 24.3001C19.4 24.0001 19.6 23.6001 19.6 23.2001V10.9001C19.6 10.5001 19.4 10.1001 19.1 9.8001L19 9.9001L19.1 9.8001C18.8 9.5001 18.4 9.4001 18 9.4001V9.5001V9.3001H17.8V9.2001H17.7V9.3001H22.5V9.4001H22.6V9.3001H22.3V9.4001V9.3001H22.2C21.7 9.3001 21.2 9.6001 20.9 10.1001L21 10.2001V10.1001C20.9 10.3001 20.8 10.6001 20.8 10.9001V24.3001H24.1C25.2 24.3001 26.1 24.1001 26.7 23.5001C27.3 23.0001 27.8 22.2001 28.2 21.3001H28.1V21.4001L26.9 24.8001H17.9V24.7001H17.8V24.8001H18.1L18 24.6001V24.7001V24.6001V24.5001H17.7H17.6V24.8001V24.9001H27L28.4 21.0001H28H27.9V21.1001C27.5 22.1001 27 22.8001 26.5 23.2001C26 23.7001 25.1 23.9001 24.1 23.9001H21V10.9001C21 10.7001 21.1 10.4001 21.2 10.3001C21.4 9.9001 21.8 9.7001 22.3 9.7001H22.6H22.7V9.2001V9.1001H17.6V9.4001V9.5001H18C18.3 9.5001 18.7 9.6001 18.9 9.9001C19.1 10.1001 19.3 10.5001 19.3 10.8001H19.4H19.3V23.1001H19.4H19.3C19.3 23.4001 19.1 23.8001 18.9 24.0001C18.7 24.2001 18.4 24.4001 18 24.4001V24.6001Z" fill="#888989"/>
<path id="Vector_5" d="M30.2 24.5998C30.6 24.5998 30.9 24.4998 31.2 24.1998C31.5 23.8998 31.6 23.5998 31.6 23.1998V10.6998C31.6 10.3998 31.4 9.9998 31.2 9.7998C30.9 9.5998 30.6 9.3998 30.2 9.3998H29.9V9.1998H36.4C36.9 9.1998 37.4 9.0998 37.9 9.0998C38.3 8.9998 38.7 8.9998 39.1 8.7998V11.5998H38.9V11.1998C38.9 10.4998 38.3 9.8998 37.7 9.8998H33.2V16.7998H37C37.3 16.7998 37.6 16.6998 37.8 16.4998C38 16.2998 38.1 15.9998 38.1 15.6998V15.3998H38.3V18.8998H38.1V18.5998C38.1 18.2998 38 17.9998 37.8 17.7998C37.6 17.5998 37.3 17.4998 37.1 17.4998H33.3V24.1998H36.5C37.6 24.1998 38.4 23.9998 39 23.4998C39.6 22.9998 40.1 22.2998 40.4 21.2998H40.6L39.3 24.8998H30.1V24.6998L30.2 24.5998Z" fill="#888989"/>
<path id="Vector_6" d="M30.2 24.6002V24.7002C30.6 24.7002 31 24.5002 31.3 24.3002L31.2 24.2002L31.3 24.3002C31.6 24.0002 31.8 23.6002 31.8 23.2002V10.7002C31.8 10.3002 31.6 10.0002 31.3 9.7002L31.2 9.8002L31.3 9.7002C31 9.4002 30.6 9.3002 30.2 9.3002V9.4002V9.3002H30V9.2002H29.9V9.3002H36.4C36.9 9.3002 37.4 9.2002 37.9 9.2002V9.1002V9.2002C38.3 9.1002 38.7 9.1002 39.1 8.9002V8.8002H39V11.5002H38.9V11.6002H39V11.2002C39 10.4002 38.4 9.8002 37.6 9.8002H32.9V16.9002H36.8C37.1 16.9002 37.4 16.8002 37.6 16.5002C37.8 16.3002 37.9 16.0002 37.9 15.7002H37.8H38V15.5002H38.1V15.4002H38V18.8002H37.9V18.9002H38V18.6002H37.9H38C38 18.3002 37.9 18.0002 37.7 17.8002L37.6 17.9002L37.7 17.8002C37.5 17.6002 37.2 17.4002 36.9 17.4002H33V24.3002H36.3C37.4 24.3002 38.3 24.1002 38.9 23.5002C39.5 23.0002 40 22.2002 40.4 21.3002H40.3V21.4002L39 24.7002H30V24.6002H29.9V24.7002H30.2V24.6002V24.7002V24.6002V24.5002H29.9H29.8V24.8002V24.9002H39.2L40.6 21.0002H40.2H40.1V21.1002C39.7 22.1002 39.2 22.8002 38.7 23.2002C38.2 23.7002 37.3 23.9002 36.3 23.9002H33.2V17.5002H36.9V17.4002V17.5002C37.2 17.5002 37.4 17.6002 37.6 17.8002C37.8 18.0002 37.9 18.2002 37.9 18.5002V18.8002V19.0002H38.2H38.3V15.2002H38H37.9V15.6002C37.9 15.8002 37.8 16.1002 37.6 16.3002C37.4 16.5002 37.2 16.6002 36.9 16.6002V16.7002V16.6002H33.3V10.0002H37.7V9.9002V10.0002C38.3 10.0002 38.8 10.5002 38.8 11.2002V11.6002V11.7002H39.1H39.2V8.7002H39C38.6 8.8002 38.3 8.9002 37.9 9.0002C37.4 9.1002 36.9 9.1002 36.4 9.1002H29.7V9.5002V9.6002H30.1C30.4 9.6002 30.7 9.7002 31 9.9002C31.2 10.1002 31.4 10.4002 31.4 10.7002V23.2002H31.5H31.4C31.4 23.5002 31.2 23.9002 31 24.1002C30.8 24.3002 30.5 24.5002 30.1 24.5002L30.2 24.6002Z" fill="#888989"/>
<path id="Vector_7" d="M44.5 22.8999C43 21.3999 42.3 19.4999 42.3 16.9999C42.3 14.5999 43 12.5999 44.5 11.0999C46 9.5999 47.9 8.8999 50.3 8.8999C52.2 8.8999 54.1 9.3999 55.7 10.3999L56.1 13.4999H55.9C55.6 12.2999 54.9 11.2999 53.9 10.4999C52.9 9.7999 51.7 9.4999 50.2 9.4999C48.3 9.4999 46.8 10.1999 45.6 11.4999C44.5 12.9999 43.9 14.7999 44 16.9999C44 19.1999 44.6 20.9999 45.7 22.3999C46.9 23.7999 48.4 24.3999 50.3 24.4999C51.2 24.4999 52.2 24.2999 53.1 23.9999C54 23.6999 54.7 23.1999 55.4 22.5999V18.6999C55.4 18.3999 55.3 18.0999 55.1 17.9999C54.9 17.7999 54.6 17.6999 54.3 17.6999H53.9V17.4999H58.3V17.6999H58C57.7 17.6999 57.4 17.7999 57.2 17.9999C57 18.1999 56.9 18.4999 56.9 18.6999V22.3999C56.5 22.8999 56 23.3999 55.5 23.7999C54.8 24.2999 54.1 24.5999 53.4 24.8999C52.5 25.1999 51.5 25.3999 50.5 25.3999C47.9 25.0999 46 24.3999 44.5 22.8999Z" fill="#888989"/>
<path id="Vector_8" d="M44.5 22.8998C43.1 21.3998 42.4 19.3998 42.4 16.9998C42.4 14.5998 43.1 12.6998 44.6 11.1998C46.1 9.7998 47.9 8.9998 50.3 8.9998H50.5C52.3 8.9998 54.1 9.4998 55.7 10.4998L55.8 10.3998H55.7L56.1 13.3998H56V13.4998H56.1C55.8 12.2998 55.1 11.1998 54.1 10.4998C53.1 9.7998 51.8 9.3998 50.3 9.3998C48.4 9.3998 46.8 10.0998 45.6 11.4998C44.4 12.8998 43.8 14.6998 43.8 16.8998C43.8 19.0998 44.4 20.9998 45.6 22.3998C46.8 23.7998 48.4 24.4998 50.3 24.4998C51.2 24.4998 52.2 24.2998 53.1 23.9998C54 23.6998 54.8 23.1998 55.4 22.4998V18.4998H55.3H55.4V18.3998C55.4 18.0998 55.3 17.7998 55.1 17.5998C54.9 17.3998 54.6 17.2998 54.3 17.2998H54.2V17.3998V17.2998H54V17.1998H53.9V17.2998H58.1V17.3998H58.2V17.2998H57.9V17.3998V17.2998H57.8C57.5 17.2998 57.2 17.3998 57 17.5998C56.8 17.7998 56.7 18.0998 56.7 18.2998V18.3998H56.8H56.7V22.0998H56.8L56.7 21.9998C56.3 22.4998 55.9 22.9998 55.3 23.2998L55.4 23.3998L55.3 23.2998C54.7 23.7998 53.9 24.0998 53.2 24.2998C52.3 24.5998 51.3 24.6998 50.4 24.6998H50.3C47.9 24.9998 46.1 24.1998 44.5 22.8998C45.9 24.4998 47.9 25.2998 50.3 25.2998H50.4C51.4 25.2998 52.4 25.0998 53.3 24.7998V24.6998V24.7998C54.1 24.5998 54.8 24.1998 55.5 23.6998C56 23.2998 56.5 22.7998 56.9 22.2998V18.5998V18.4998C56.9 18.2998 57 18.0998 57.1 17.9998L57 17.7998L57.1 17.8998C57.3 17.6998 57.5 17.6998 57.8 17.6998H57.9H58.2H58.3V17.3998V17.2998H53.7V17.5998V17.6998H54.2H54.3C54.5 17.6998 54.8 17.7998 55 17.8998L55.1 17.7998L55 17.8998C55.2 18.0998 55.3 18.2998 55.3 18.4998V18.5998V22.4998H55.4L55.3 22.3998C54.6 22.9998 53.9 23.4998 53 23.7998C52.2 24.0998 51.2 24.2998 50.3 24.2998C48.4 24.2998 47 23.5998 45.8 22.2998C44.7 20.9998 44.1 19.1998 44.1 16.9998C44.1 14.7998 44.7 13.0998 45.8 11.6998C46.9 10.3998 48.4 9.6998 50.3 9.6998C51.8 9.6998 53 9.9998 53.9 10.6998C54.9 11.3998 55.6 12.3998 55.8 13.5998V13.6998H56.1H56.2L55.7 10.3998C54.1 9.3998 52.3 8.8998 50.4 8.8998H50.2V8.9998V8.7998C47.8 8.7998 45.8 9.5998 44.3 11.0998C42.8 12.5998 42 14.5998 42 16.9998C42.2 19.4998 42.9 21.4998 44.5 22.8998Z" fill="#888989"/>
<path id="Vector_9" d="M74.6 24.5999H74.8V24.7999H69.8V24.5999H70C70.3 24.5999 70.5 24.4999 70.7 24.2999C70.8 24.0999 70.9 23.8999 70.9 23.6999C70.9 23.4999 70.9 23.2999 70.8 23.1999L69.4 19.3999H63.4L61.9 23.1999C61.8 23.3999 61.8 23.4999 61.8 23.6999C61.8 23.8999 61.9 24.0999 62 24.2999C62.2 24.4999 62.4 24.5999 62.7 24.5999H62.9V24.7999H58.4V24.5999H58.6C59 24.5999 59.4 24.4999 59.7 24.1999C60.1 23.8999 60.4 23.5999 60.6 23.1999L65.6 11.1999C66.2 9.9999 66.4 9.1999 66.4 8.8999H66.6L72.6 23.1999C72.8 23.5999 73.1 23.9999 73.4 24.1999C73.8 24.4999 74.2 24.5999 74.6 24.5999ZM63.6 18.6999H69.1L66.4 11.5999L63.6 18.6999Z" fill="#888989"/>
<path id="Vector_10" d="M74.6 24.5998V24.6998H74.7V24.7998H74.8V24.6998H69.9V24.5998H69.8V24.6998H70V24.5998V24.6998H70.1C70.4 24.6998 70.7 24.5998 70.8 24.3998L70.7 24.2998L70.8 24.3998C71 24.1998 71.1 23.9998 71.1 23.7998C71.1 23.5998 71.1 23.3998 71 23.1998L69.5 19.2998H63.3L61.8 23.1998C61.7 23.3998 61.7 23.5998 61.7 23.7998C61.7 23.9998 61.8 24.2998 62 24.3998L62.1 24.2998L62 24.3998C62.2 24.5998 62.5 24.7998 62.7 24.7998H62.8V24.6998V24.7998H62.9V24.8998H63V24.7998H58.6V24.6998H58.5V24.7998H58.7C59.1 24.7998 59.5 24.6998 59.9 24.3998C60.3 24.0998 60.6 23.6998 60.8 23.2998L65.8 11.2998H65.7L65.8 11.3998C66.4 10.1998 66.6 9.3998 66.6 9.0998H66.5V8.9998H66.6L72.5 23.1998C72.7 23.5998 73 23.9998 73.4 24.2998C73.7 24.4998 74.2 24.6998 74.6 24.6998V24.5998V24.4998C74.2 24.4998 73.9 24.3998 73.6 24.1998C73.2 23.9998 73 23.5998 72.8 23.1998L66.8 8.7998H66.5H66.4V8.8998C66.4 9.1998 66.1 9.8998 65.6 11.0998L60.6 23.0998H60.7L60.6 22.9998C60.4 23.3998 60.1 23.6998 59.8 23.9998C59.5 24.1998 59.1 24.2998 58.8 24.2998V24.3998V24.2998H58.6H58.5V24.5998V24.6998H63V24.3998V24.2998H62.7H62.6C62.4 24.2998 62.2 24.1998 62.1 23.9998C62 23.8998 61.9 23.6998 61.9 23.4998H61.8H61.9C61.9 23.2998 61.9 23.1998 62 22.9998H61.9H62L63.5 19.2998H69.3L70.7 22.9998H70.8H70.7C70.8 23.1998 70.8 23.2998 70.8 23.4998H70.9H70.8C70.8 23.6998 70.7 23.8998 70.6 23.9998C70.5 24.1998 70.3 24.2998 70.1 24.2998H69.9H69.8V24.5998V24.6998H75.1V24.3998V24.2998H74.8V24.5998V24.4998L74.6 24.5998ZM63.6 18.6998V18.7998H69.3L66.5 11.1998L63.5 18.7998H63.7V18.6998H63.8L66.5 11.8998L69 18.5998H63.7V18.6998H63.8H63.6Z" fill="#888989"/>
<path id="Vector_11" d="M91.8 9.3999C91.4 9.3999 91.1 9.4999 90.8 9.7999C90.5 9.9999 90.4 10.3999 90.4 10.6999V22.1999C90.4 22.9999 90.4 23.7999 90.6 24.5999V24.9999H90.4L78.3 11.9999V23.0999C78.3 23.4999 78.4 23.7999 78.7 23.9999C79 24.2999 79.3 24.3999 79.7 24.3999H80.1V24.5999H75.5V24.3999H75.9C76.3 24.3999 76.6 24.2999 76.9 23.9999C77.2 23.6999 77.3 23.3999 77.3 22.9999V11.6999C77.3 10.8999 77.3 10.0999 77.1 9.2999V8.8999H77.3L89.5 21.8999V10.8999C89.5 10.4999 89.3 10.1999 89.1 9.8999C88.8 9.5999 88.5 9.4999 88.1 9.4999H87.7V9.1999H92.3V9.3999H91.8Z" fill="#888989"/>
<path id="Vector_12" d="M91.8 9.4002V9.3002C91.4 9.3002 91 9.5002 90.8 9.7002L90.9 9.8002L90.8 9.7002C90.5 10.0002 90.3 10.3002 90.3 10.7002V22.2002V22.3002C90.3 23.1002 90.4 23.9002 90.5 24.7002H90.6H90.5V25.0002L78.2 11.8002V23.2002H78.3H78.2C78.2 23.6002 78.4 24.0002 78.6 24.2002L78.7 24.1002L78.6 24.2002C78.9 24.5002 79.2 24.6002 79.6 24.6002H79.9V24.7002H80V24.6002H75.5V24.5002H75.4V24.6002H75.8V24.5002V24.6002C76.2 24.6002 76.6 24.4002 76.8 24.2002L76.7 24.1002L76.8 24.2002C77.1 23.9002 77.2 23.6002 77.2 23.2002H77.1H77.2V11.7002V11.6002C77.2 10.8002 77.1 10.1002 77 9.3002V9.1002L89.3 22.3002V10.8002C89.3 10.4002 89.1 10.0002 88.8 9.7002L89 9.8002L89.1 9.7002C88.8 9.4002 88.5 9.3002 88.1 9.3002V9.4002V9.3002H87.8V9.2002H87.7V9.3002H92.2V9.4002H92.3V9.3002H91.9V9.4002V9.3002L91.8 9.4002V9.5002H92.2H92.3V9.2002V9.1002H87.5V9.4002V9.5002H88C88.3 9.5002 88.6 9.6002 88.9 9.9002C89.1 10.1002 89.3 10.4002 89.3 10.8002H89.4H89.3V21.5002L77.3 8.7002H77H76.9L77 9.3002C77.1 10.1002 77.2 10.8002 77.2 11.6002V11.7002V23.3002C77.2 23.6002 77.1 23.9002 76.8 24.2002C76.6 24.4002 76.3 24.6002 75.9 24.6002H75.5H75.4V24.9002V25.0002H80.2V24.7002V24.6002H79.7C79.4 24.6002 79.1 24.5002 78.8 24.2002C78.6 24.0002 78.4 23.7002 78.4 23.4002V12.5002L90.4 25.3002H90.7H90.8L90.7 24.8002C90.6 24.0002 90.5 23.2002 90.5 22.4002V22.3002V10.8002H90.4H90.5C90.5 10.5002 90.6 10.2002 90.9 9.9002C91.1 9.7002 91.4 9.5002 91.8 9.5002V9.4002Z" fill="#888989"/>
<path id="Vector_13" d="M106.3 11.1998C106.3 10.4998 105.7 9.8998 105 9.8998H100.8V23.1998C100.8 23.9998 101.5 24.5998 102.2 24.5998H102.5V24.7998H97.6V24.5998H98C98.8 24.5998 99.4 23.9998 99.4 23.1998V9.8998H95.2C94.9 9.8998 94.5 10.0998 94.3 10.2998C94.1 10.4998 93.9 10.8998 93.9 11.1998V11.5998H93.7V8.7998C94 8.8998 94.4 8.9998 94.8 9.0998C95.3 9.1998 95.8 9.1998 96.3 9.1998H103.8C104.4 9.1998 105 9.1998 105.6 8.9998C105.9 8.8998 106.2 8.8998 106.5 8.7998V11.5998H106.3V11.1998Z" fill="#888989"/>
<path id="Vector_14" d="M106.3 11.2001H106.4C106.4 10.4001 105.8 9.8001 105 9.7001H100.6V23.2001C100.6 24.0001 101.3 24.7001 102.2 24.7001H102.4V24.8001H102.5V24.7001H97.7V24.6001H97.6V24.7001H98C98.8 24.7001 99.5 24.1001 99.6 23.2001V9.7001H95.2C94.8 9.7001 94.5 9.9001 94.2 10.2001L94.3 10.3001L94.2 10.2001C93.9 10.5001 93.8 10.8001 93.8 11.2001H93.9H93.8V11.5001H93.7V11.6001H93.8V8.8001H93.7V8.9001C94.1 9.0001 94.5 9.1001 94.9 9.2001V9.1001V9.2001C95.4 9.3001 95.9 9.3001 96.4 9.3001H103.9V9.2001V9.3001H104.1C104.7 9.3001 105.2 9.2001 105.8 9.1001C106.1 9.0001 106.4 9.0001 106.7 8.9001V8.8001H106.6V11.5001H106.5V11.6001H106.6V11.2001H106.3H106.4H106.3H106.2V11.6001V11.7001H106.5H106.6V8.6001L106.4 8.7001C106.1 8.8001 105.8 8.9001 105.5 8.9001C105 9.0001 104.4 9.1001 103.9 9.1001H103.7H96.2C95.7 9.1001 95.2 9.1001 94.7 9.0001C94.3 9.0001 93.9 8.9001 93.6 8.7001L93.4 8.6001V11.7001H93.8H93.9V11.2001C93.9 10.9001 94 10.6001 94.2 10.4001C94.4 10.2001 94.7 10.0001 95 10.0001V9.9001V10.0001H99.1V23.2001H99.2H99.1C99.1 23.9001 98.5 24.4001 97.8 24.4001H97.5H97.4V24.7001V24.8001H102.5V24.5001V24.4001H102.1C101.4 24.4001 100.8 23.8001 100.8 23.1001H100.7H100.8V10.0001H104.9V9.9001V10.0001C105.5 10.0001 106 10.6001 106.1 11.2001H106.3Z" fill="#888989"/>
<path id="Vector_15" d="M134.2 24.5001H134.6V24.8001H128.1V24.5001H128.5C129 24.5001 129.5 24.3001 129.8 24.0001C130.2 23.7001 130.4 23.2001 130.4 22.7001V15.0001H118.9V22.8001C118.9 25.6001 118.2 27.4001 116.9 28.4001C116.2 28.9001 115.4 29.2001 114.5 29.4001L114.3 29.1001C115.2 28.6001 115.9 27.8001 116.3 26.9001C116.7 25.9001 116.9 24.5001 116.9 22.8001V6.2001C116.9 5.7001 116.7 5.2001 116.3 4.9001C115.9 4.6001 115.5 4.4001 115 4.4001H114.6V4.0001H121.1V4.3001H120.7C120.2 4.3001 119.7 4.5001 119.4 4.8001C119 5.1001 118.8 5.6001 118.8 6.1001V14.0001H130.3V6.7001C130.3 4.2001 130.9 2.4001 132 1.4001C132.7 0.800098 133.6 0.400098 134.7 0.100098L134.8 0.400098C133.9 0.900098 133.2 1.7001 132.8 2.6001C132.4 3.6001 132.1 5.0001 132.1 6.7001V22.6001C132.1 23.1001 132.3 23.6001 132.6 23.9001C133.2 24.3001 133.7 24.5001 134.2 24.5001Z" fill="#888989"/>
<path id="Vector_16" d="M134.2 24.5V24.6H134.4H128.2H128.5V24.5V24.6C129 24.6 129.5 24.4 129.9 24L129.8 23.9L129.9 24C130.3 23.6 130.5 23.1 130.5 22.6V14.8H118.8V22.7C118.8 25.5 118.1 27.3 116.8 28.2L116.9 28.3L116.8 28.2C116.1 28.7 115.3 29 114.5 29.2V29.3L114.6 29.2L114.5 28.9L114.4 29L114.5 29.1C115.4 28.6 116.1 27.8 116.5 26.8H116.4L116.5 26.9C116.9 25.9 117.1 24.5 117.1 22.8V6.2H117H117.1C117.1 5.7 116.9 5.2 116.5 4.8L116.4 4.9L116.5 4.8C116.1 4.4 115.6 4.2 115.1 4.2V4.3V4.2H114.9H121.1H120.8V4.3V4.2C120.3 4.2 119.8 4.4 119.4 4.8L119.5 4.9L119.4 4.8C119 5.2 118.8 5.7 118.8 6.2V14.3H130.5V6.7C130.5 4.2 131.1 2.5 132.1 1.5C132.8 0.9 133.6 0.5 134.8 0.3V0.2L134.7 0.3L134.9 0.6L135 0.5L134.9 0.4C134 0.9 133.3 1.7 132.9 2.7H133L132.9 2.6C132.5 3.6 132.2 5 132.2 6.7V22.6H132.3H132.2C132.2 23.1 132.4 23.6 132.8 24L132.9 23.9L132.8 24C133.2 24.4 133.7 24.6 134.2 24.6V24.5V24.6V24.5V24.4C133.7 24.4 133.3 24.2 133 23.9C132.7 23.6 132.5 23.1 132.5 22.7V6.7C132.5 5 132.7 3.6 133.1 2.7C133.5 1.8 134.2 1 135 0.6L135.1 0.5L134.9 0.1V0H134.8C133.6 0.3 132.7 0.7 132 1.3C130.9 2.3 130.3 4.1 130.3 6.7V14H119V6.2H118.9H119C119 5.7 119.2 5.3 119.5 5C119.8 4.7 120.2 4.5 120.7 4.5H121.1H121.2V4V3.9H114.5V4.3V4.4H115C115.5 4.4 115.9 4.6 116.2 4.9C116.5 5.2 116.7 5.6 116.7 6.1V22.7C116.7 24.4 116.5 25.8 116.1 26.7C115.7 27.6 115.1 28.4 114.2 28.8L114.1 28.9L114.3 29.3V29.4H114.4C115.3 29.2 116.1 28.9 116.8 28.4C118.2 27.4 118.9 25.5 118.9 22.7V15.1H130.1V22.7H130.2H130.1C130.1 23.2 129.9 23.6 129.5 23.9C129.2 24.2 128.8 24.4 128.3 24.4H127.9H127.8V24.8V24.9H134.5V24.5V24.4H134L134.2 24.5Z" fill="#888989"/>
<path id="Vector_17" d="M141.1 14.3999C141 14.1999 141 14.0999 141 13.8999C141 13.7999 141 13.5999 141 13.3999C141 13.1999 141 12.9999 141.1 12.6999C141.2 12.3999 141.3 12.0999 141.4 11.7999C141.5 11.4999 141.7 11.1999 141.9 10.8999C142.1 10.5999 142.4 10.2999 142.6 10.0999C142.9 9.8999 143.3 9.6999 143.6 9.4999C144.5 9.0999 145.5 8.8999 146.5 8.8999C148.8 8.8999 150.6 9.6999 152.1 11.1999C153.5 12.6999 154.2 14.5999 154.2 16.9999C154.3 19.1999 153.3 21.3999 151.7 22.7999C150 24.3999 147.9 25.0999 145.3 25.0999C142.7 25.0999 140.5 24.2999 138.8 22.7999C137.1 21.2999 136.2 19.2999 136.2 16.7999C136.2 15.2999 136.6 13.7999 137.3 12.5999C138.1 11.2999 139.2 10.2999 140.5 9.6999L140.6 9.8999C139.6 10.5999 138.9 11.4999 138.5 12.6999C138.1 13.8999 137.9 15.1999 137.9 16.4999C137.9 18.9999 138.6 20.9999 139.9 22.3999C141.3 23.7999 143 24.4999 145.2 24.4999C147.3 24.4999 149.1 23.7999 150.4 22.3999C151.8 20.9999 152.4 19.0999 152.4 16.7999C152.4 14.7999 151.9 13.0999 150.8 11.6999C149.7 10.2999 148.2 9.5999 146.2 9.5999C145.4 9.5999 144.6 9.6999 143.8 10.0999C142.6 10.5999 141.6 11.5999 141.2 12.7999C141.1 13.0999 141 13.3999 141 13.7999C141 13.9999 141 14.1999 141 14.4999L141.1 14.3999Z" fill="#888989"/>
<path id="Vector_18" d="M141.1 14.3998H141.2C141.1 14.2998 141.1 14.0998 141.1 13.8998H141H141.1C141.1 13.7998 141.1 13.5998 141.1 13.3998C141.1 13.1998 141.1 12.9998 141.2 12.6998C141.3 12.3998 141.3 12.0998 141.5 11.7998C141.6 11.4998 141.8 11.1998 142 10.8998C142.2 10.5998 142.4 10.3998 142.7 10.0998C143 9.8998 143.3 9.6998 143.7 9.4998L143.6 9.3998L143.7 9.4998C144.5 9.0998 145.4 8.8998 146.3 8.8998H146.5C148.7 8.8998 150.6 9.5998 152 11.0998C153.4 12.5998 154.1 14.4998 154.1 16.7998V16.9998C154.1 19.0998 153.2 21.0998 151.6 22.5998C149.9 24.0998 147.8 24.8998 145.2 24.8998C142.6 24.8998 140.5 24.0998 138.8 22.5998C137.1 21.0998 136.3 19.0998 136.3 16.6998V16.5998C136.3 15.1998 136.7 13.7998 137.4 12.5998L137.3 12.4998L137.4 12.5998C138.2 11.3998 139.2 10.3998 140.5 9.7998L140.4 9.6998L140.3 9.7998L140.4 9.9998L140.5 9.8998L140.4 9.7998C139.4 10.4998 138.6 11.4998 138.3 12.5998H138.4H138.3C137.9 13.7998 137.7 15.0998 137.7 16.3998V16.4998C137.7 18.9998 138.4 20.9998 139.8 22.4998C141.2 23.8998 143 24.6998 145.1 24.6998C147.3 24.6998 149.1 23.9998 150.4 22.4998C151.8 21.0998 152.5 19.1998 152.5 16.7998H152.4H152.5H152.4H152.5C152.5 14.7998 152 12.9998 150.9 11.5998C149.8 10.1998 148.2 9.4998 146.2 9.4998V9.5998V9.4998H146.1C145.3 9.4998 144.5 9.6998 143.7 9.9998V10.0998V9.9998C142.4 10.4998 141.5 11.4998 141.1 12.7998H141.2H141.1C141 13.0998 140.9 13.4998 140.9 13.7998V13.8998C141.1 13.9998 141.1 14.1998 141.1 14.3998H141.3V14.2998H141.1V14.3998H141.2H141.1V14.4998H141.3H141.4V14.3998C141.4 14.1998 141.4 13.9998 141.4 13.7998V13.6998H141.3H141.4C141.4 13.3998 141.5 13.0998 141.6 12.7998C142 11.5998 142.9 10.5998 144.1 10.1998C144.8 9.8998 145.6 9.6998 146.4 9.6998H146.5C148.4 9.6998 149.9 10.3998 151 11.6998C152.1 13.0998 152.6 14.6998 152.6 16.6998H152.7H152.6C152.6 18.9998 151.9 20.7998 150.6 22.1998C149.3 23.5998 147.6 24.2998 145.4 24.2998V24.3998V24.2998C143.3 24.2998 141.6 23.5998 140.2 22.1998C138.9 20.7998 138.2 18.8998 138.2 16.3998V16.2998C138.2 14.9998 138.4 13.7998 138.8 12.5998C139.2 11.4998 139.9 10.4998 140.8 9.8998L140.9 9.7998L140.7 9.4998L140.6 9.3998H140.5C139.2 10.0998 138 11.0998 137.3 12.2998C136.6 13.5998 136.2 14.9998 136.2 16.3998V16.4998H136.3H136.2C136.2 18.9998 137.1 20.9998 138.8 22.5998C140.5 24.1998 142.7 24.9998 145.4 24.8998C148 24.8998 150.2 24.0998 151.9 22.4998L151.8 22.3998L151.9 22.4998C153.5 20.9998 154.5 18.8998 154.5 16.6998V16.4998H154.4H154.5C154.5 14.0998 153.8 12.1998 152.3 10.5998C150.8 9.0998 149 8.2998 146.7 8.2998V8.3998V8.2998H146.5C145.6 8.2998 144.6 8.4998 143.8 8.8998C143.4 9.0998 143.1 9.2998 142.8 9.4998C142.5 9.6998 142.2 9.9998 142 10.2998C141.8 10.5998 141.6 10.8998 141.5 11.1998L141.6 11.2998L141.5 11.1998C141.4 11.4998 141.2 11.7998 141.2 12.1998H141.3H141.2C141.1 12.4998 141.1 12.7998 141.1 12.8998C141.1 13.0998 141.1 13.2998 141.1 13.3998C141.1 13.5998 141.1 13.7998 141.2 13.8998V13.9998H141.3L141.1 14.3998Z" fill="#888989"/>
<path id="Vector_19" d="M171.9 9.4002H171.5C171.2 9.4002 170.9 9.5002 170.7 9.7002C170.5 9.9002 170.3 10.2002 170.3 10.4002V19.2002C170.3 20.9002 169.7 22.3002 168.7 23.4002C167.6 24.5002 166.1 25.0002 164.3 25.0002C162.5 25.0002 161 24.5002 159.9 23.4002C158.8 22.3002 158.2 20.9002 158.2 19.2002V10.4002C158.2 10.0002 158 9.6002 157.6 9.4002C157.4 9.3002 157.2 9.3002 157 9.3002H156.6V9.2002H161.1V9.4002H160.7C160.4 9.4002 160.1 9.5002 159.9 9.7002C159.7 9.9002 159.5 10.2002 159.5 10.5002V19.0002C159.5 20.6002 159.9 21.9002 160.8 22.9002C161.7 23.9002 162.8 24.4002 164.3 24.4002C165.8 24.4002 166.9 23.9002 167.8 23.0002C168.7 22.1002 169.2 20.8002 169.2 19.3002V10.5002C169.2 10.2002 169.1 9.9002 168.8 9.7002C168.6 9.5002 168.3 9.4002 168 9.4002H167.6V9.2002H171.7L171.9 9.4002Z" fill="#888989"/>
<path id="Vector_20" d="M171.9 9.4001V9.3001H171.5V9.4001V9.3001C171.2 9.3001 170.9 9.4001 170.6 9.6001L170.7 9.7001L170.6 9.6001C170.3 9.8001 170.2 10.1001 170.2 10.4001V19.2001C170.2 20.9001 169.7 22.3001 168.6 23.3001C167.5 24.3001 166.1 24.9001 164.3 24.9001C162.5 24.9001 161.1 24.4001 159.9 23.3001C158.8 22.3001 158.2 20.9001 158.2 19.2001V10.4001H158.1H158.2V10.3001C158.2 9.9001 157.9 9.5001 157.6 9.3001C157.4 9.2001 157.2 9.2001 157 9.2001V9.3001H156.8V9.2001H156.7V9.3001H161.1V9.4001H161.2V9.3001H160.8V9.4001V9.3001C160.5 9.3001 160.2 9.4001 159.9 9.6001L160 9.7001C159.8 9.9001 159.6 10.2001 159.6 10.6001V19.0001C159.6 20.6001 160 22.0001 160.9 23.0001C161.8 24.0001 163 24.5001 164.5 24.5001C166 24.5001 167.2 24.0001 168.1 23.0001C169 22.0001 169.5 20.8001 169.5 19.2001V10.4001C169.5 10.1001 169.3 9.8001 169.1 9.5001C168.9 9.3001 168.5 9.2001 168.2 9.2001V9.3001H168V9.2001H167.9V9.3001H171.9V9.4001V9.3001V9.4001H172V9.2001V9.1001H167.6V9.4001V9.5001H168.1C168.4 9.5001 168.6 9.6001 168.8 9.8001C169 10.0001 169.1 10.2001 169.1 10.5001H169.2H169.1V19.3001C169.1 20.8001 168.7 22.0001 167.8 22.9001C166.9 23.8001 165.8 24.3001 164.4 24.3001V24.4001V24.3001C163 24.3001 161.9 23.8001 161 22.9001C160.2 21.9001 159.7 20.7001 159.7 19.1001V10.6001H159.6H159.7C159.7 10.3001 159.8 10.1001 160 9.9001C160.2 9.7001 160.4 9.6001 160.7 9.6001H161.1H161.2V9.2001V9.1001H156.4V9.4001V9.5001H156.9C157.1 9.5001 157.3 9.5001 157.4 9.6001C157.7 9.8001 157.9 10.1001 157.9 10.4001V19.2001C157.9 21.0001 158.5 22.4001 159.6 23.5001C160.8 24.6001 162.3 25.1001 164.1 25.1001C166 25.1001 167.5 24.6001 168.6 23.5001C169.7 22.4001 170.3 21.0001 170.3 19.2001V10.4001H170.2H170.3C170.3 10.1001 170.4 9.9001 170.6 9.7001C170.8 9.5001 171 9.4001 171.3 9.4001H171.7H171.8V9.3001L171.9 9.4001Z" fill="#888989"/>
<path id="Vector_21" d="M174.4 23.9C174.3 23.5 174.3 23.1 174.3 22.7C174.3 22.1 174.4 21.4 174.6 20.8H174.8C174.8 21 174.8 21.1 174.8 21.3C174.8 22.1 175.1 22.9 175.6 23.6C176.2 24.2 177 24.5 177.8 24.5C178.7 24.5 179.5 24.2 180.1 23.7C180.7 23.2 181 22.4 181 21.6C181 20.8 180.7 20.1 180.1 19.5L175.8 15.5C175 14.8 174.6 13.8 174.6 12.8C174.6 11.8 175 10.8 175.7 10.1C176.4 9.4 177.4 9 178.6 9C179.2 9 179.9 9.1 180.5 9.2H181.4V11.9H181.2C181.2 11.3 181 10.6 180.5 10.2C180 9.8 179.3 9.5 178.6 9.6C177.9 9.6 177.2 9.9 176.7 10.4C176.2 10.9 175.9 11.6 175.9 12.3C175.9 13.1 176.2 13.8 176.8 14.3L181.2 18.4C181.9 19.1 182.3 20 182.3 21.2C182.3 22.3 181.9 23.3 181.2 24.1C180.4 24.9 179.4 25.3 178.2 25.3C177.5 25.3 176.8 25.2 176.1 25C175.5 24.7 174.9 24.4 174.4 23.9Z" fill="#888989"/>
<path id="Vector_22" d="M174.4 23.8998H174.5C174.5 23.5998 174.4 23.2998 174.4 22.8998V22.6998C174.4 22.0998 174.5 21.3998 174.7 20.7998H174.6V20.8998H174.8V20.7998H174.7C174.7 20.9998 174.7 21.0998 174.7 21.2998H174.8H174.7V21.3998C174.7 22.1998 175 22.9998 175.6 23.5998C176.2 24.1998 176.9 24.4998 177.8 24.4998H177.9V24.3998V24.4998H178C178.8 24.4998 179.6 24.1998 180.3 23.5998C180.9 22.9998 181.2 22.2998 181.2 21.4998V21.3998H181.1H181.2V21.2998C181.2 20.4998 180.9 19.7998 180.3 19.1998L176 15.1998C175.3 14.5998 174.8 13.5998 174.8 12.5998V12.4998C174.8 11.5998 175.2 10.5998 175.8 9.9998C176.5 9.2998 177.4 8.8998 178.6 8.8998V8.9998C179.2 8.9998 179.9 9.0998 180.5 9.1998H181.3V11.6998H181.2V11.7998H181.3V11.6998C181.3 11.0998 181 10.3998 180.5 9.9998C180 9.5998 179.3 9.2998 178.7 9.2998H178.6V9.3998V9.2998H178.5C177.8 9.2998 177.1 9.5998 176.6 10.0998C176.1 10.5998 175.8 11.2998 175.8 11.9998V12.0998H175.9H175.8C175.8 12.8998 176.1 13.5998 176.7 14.0998L176.8 13.9998L176.7 14.0998L181.1 18.1998C181.8 18.8998 182.2 19.7998 182.2 20.8998V20.9998C182.2 21.9998 181.8 22.9998 181.1 23.6998C180.4 24.3998 179.4 24.7998 178.2 24.7998V24.8998V24.7998C177.5 24.7998 176.8 24.6998 176.1 24.4998C175.5 24.5998 175 24.2998 174.4 23.8998H174.5H174.4C174.8 24.4998 175.4 24.7998 176.1 24.8998V24.7998V24.8998C176.8 25.0998 177.5 25.1998 178.2 25.1998C179.5 25.1998 180.5 24.7998 181.3 23.9998C182.1 23.1998 182.5 22.1998 182.5 21.0998V20.9998H182.4H182.5C182.5 19.7998 182.1 18.7998 181.3 18.0998L176.9 13.9998C176.4 13.4998 176.1 12.8998 176.1 12.0998V11.9998C176.1 11.2998 176.4 10.6998 176.8 10.2998C177.3 9.7998 177.9 9.5998 178.5 9.5998H178.6H178.7C179.3 9.5998 179.9 9.7998 180.4 10.1998L180.5 10.0998L180.4 10.1998C180.8 10.5998 181.1 11.0998 181.1 11.6998V11.7998V11.8998H181.4H181.5V8.9998H180.5V9.0998V8.9998C179.9 8.8998 179.2 8.7998 178.6 8.7998C177.4 8.7998 176.4 9.1998 175.6 9.9998C174.9 10.6998 174.5 11.6998 174.5 12.6998V12.7998H174.6H174.5C174.5 13.8998 175 14.8998 175.7 15.5998L175.8 15.4998L175.7 15.5998L180 19.5998C180.5 20.0998 180.8 20.7998 180.8 21.4998V21.5998V21.6998C180.8 22.3998 180.5 23.1998 179.9 23.6998C179.3 24.1998 178.6 24.4998 177.8 24.4998H177.7H177.6C176.9 24.4998 176.1 24.1998 175.6 23.5998L175.5 23.6998L175.6 23.5998C175.1 22.9998 174.8 22.2998 174.8 21.4998V21.3998C174.8 21.1998 174.8 21.0998 174.8 20.8998V20.7998H174.5H174.4V20.8998C174.2 21.4998 174.1 22.1998 174.1 22.7998H174.2H174.1V22.9998C174.1 23.2998 174.1 23.6998 174.2 23.9998L174.4 23.8998Z" fill="#888989"/>
<path id="Vector_23" d="M185.3 24.5998C185.7 24.5998 186 24.4998 186.3 24.1998C186.6 23.8998 186.7 23.5998 186.7 23.1998V10.6998C186.7 10.3998 186.5 9.9998 186.3 9.7998C186 9.5998 185.7 9.3998 185.3 9.3998H185V9.1998H191.5C192 9.1998 192.5 9.0998 193 9.0998C193.4 8.9998 193.8 8.9998 194.1 8.7998V11.5998H194V11.1998C194 10.4998 193.4 9.8998 192.8 9.8998H188.3V16.7998H192.1C192.4 16.7998 192.7 16.6998 192.9 16.4998C193.1 16.2998 193.2 15.9998 193.2 15.6998V15.3998H193.4V18.8998H193V18.5998C193 18.2998 192.9 17.9998 192.7 17.7998C192.5 17.5998 192.2 17.4998 192 17.4998H188.2V24.1998H191.4C192.5 24.1998 193.3 23.9998 193.9 23.4998C194.6 22.8998 195.1 22.1998 195.3 21.2998H195.5L194.2 24.8998H185V24.6998L185.3 24.5998Z" fill="#888989"/>
<path id="Vector_24" d="M185.3 24.6002V24.7002C185.7 24.7002 186.1 24.5002 186.4 24.3002L186.3 24.2002L186.4 24.3002C186.7 24.0002 186.9 23.6002 186.9 23.2002V10.7002C186.9 10.3002 186.7 10.0002 186.4 9.7002L186.3 9.8002L186.4 9.7002C186.1 9.4002 185.7 9.3002 185.3 9.3002V9.4002V9.3002H185.1V9.2002H185V9.3002H191.5C192 9.3002 192.5 9.2002 193 9.2002V9.1002V9.2002C193.4 9.1002 193.8 9.1002 194.2 8.9002V8.8002H194V11.5002V11.6002H194.1V11.2002C194.1 10.4002 193.5 9.8002 192.7 9.8002H188V16.9002H191.9C192.2 16.9002 192.5 16.8002 192.7 16.5002C192.9 16.3002 193 16.0002 193 15.7002H192.9H193V15.5002H193.1V15.4002H193V18.8002V18.9002H193.1V18.6002H193H193.1C193.1 18.3002 193 18.0002 192.8 17.8002C192.6 17.6002 192.3 17.4002 192 17.4002H188V24.3002H191.3C192.4 24.3002 193.3 24.1002 193.9 23.5002C194.6 22.9002 195.1 22.1002 195.4 21.3002H195.3V21.4002L194.1 24.8002H185.1V24.7002H185V24.8002H185.3V24.6002V24.7002V24.6002V24.5002H185H184.9V24.8002V24.9002H194.4L195.8 21.0002H195.4H195.3V21.1002C195 21.9002 194.5 22.6002 193.9 23.2002L194 23.3002L193.9 23.2002C193.4 23.7002 192.5 23.9002 191.5 23.9002H188.4V17.5002H192.1V17.4002V17.5002C192.4 17.5002 192.6 17.6002 192.8 17.8002C193 18.0002 193.1 18.2002 193.1 18.4002V18.7002V19.0002H193.4H193.5V15.2002H193H192.9V15.6002C192.9 15.8002 192.8 16.1002 192.6 16.3002C192.4 16.5002 192.2 16.6002 191.9 16.6002V16.7002V16.6002H188.3V10.0002H192.7V9.9002V10.0002C193.3 10.0002 193.8 10.5002 193.8 11.2002V11.6002V11.7002H194.1H194.2V8.7002L194 8.8002C193.6 8.9002 193.3 9.0002 192.9 9.1002C192.4 9.2002 191.9 9.2002 191.4 9.2002H184.7V9.6002V9.7002H185.1C185.4 9.7002 185.7 9.8002 186 10.0002C186.2 10.2002 186.4 10.5002 186.4 10.8002V23.3002H186.5H186.4C186.4 23.6002 186.2 24.0002 186 24.2002C185.8 24.4002 185.5 24.6002 185.1 24.6002H185.3Z" fill="#888989"/>
<path id="Vector_25" d="M18.7 49.4C18.5 52.3 16.3 53.8 12.3 53.8C10.1 53.8 8.39999 53.1 7.19999 51.8C6.39999 50.8 5.89999 49.6 5.89999 48.1C5.89999 46.8 6.29999 45.6 6.99999 44.5L7.69999 44.4C6.89999 45.5 6.49999 46.8 6.49999 48.2C6.49999 49.7 6.99999 50.9 8.09999 51.9C9.09999 52.8 10.5 53.2 12.3 53.2C14.4 53.2 15.9 52.8 16.8 52.1C17.6 51.5 18.1 50.6 18.2 49.3H17.4C15 49.3 13.3 48.9 12.4 48.1C11.5 47.4 11.1 46.1 11.1 44.4C11.1 42.8 11.5 41.5 12.3 40.6C13 39.8 13.9 39.5 15.1 39.4C16.2 39.4 17.1 39.7 17.7 40.4C18.3 41.1 18.7 42 18.7 43.2V48.7H21.2V49.2H18.7V49.4ZM18 48.9V43.6C18 41.3 17 40.1 15 40.1C13.9 40.1 13.1 40.5 12.5 41.3C11.9 42.1 11.6 43.2 11.6 44.6C11.6 46.2 12 47.3 12.8 47.9C13.6 48.5 15.1 48.9 17.2 48.9H18ZM14.2 36.2C13.8 36.2 13.6 36 13.6 35.6C13.6 35.2 13.8 35.1 14.2 35.1C14.5 35.1 14.7 35.3 14.7 35.6C14.7 36 14.5 36.2 14.2 36.2ZM16.2 36.2C15.8 36.2 15.7 36 15.7 35.6C15.7 35.3 15.9 35.1 16.2 35C16.5 35 16.7 35.2 16.8 35.5V35.6C16.7 36 16.5 36.2 16.2 36.2Z" fill="#888989"/>
<path id="Vector_26" d="M18.7 49.3999H18.6C18.5 50.7999 17.9 51.8999 16.9 52.5999C15.9 53.2999 14.3 53.6999 12.3 53.6999C10.1 53.6999 8.39999 52.9999 7.29999 51.7999C6.49999 50.7999 6.09999 49.6999 6.09999 48.1999L5.99999 47.9999C5.99999 46.7999 6.39999 45.5999 7.09999 44.6999L6.99999 44.4999V44.5999L7.69999 44.4999V44.3999L7.59999 44.2999C6.79999 45.3999 6.29999 46.7999 6.29999 48.1999C6.29999 49.7999 6.89999 50.9999 7.99999 51.9999C9.09999 52.8999 10.5 53.3999 12.2 53.3999C14.3 53.3999 15.8 52.9999 16.8 52.2999C17.6 51.6999 18.1 50.6999 18.2 49.4999V49.3999H17.3C14.9 49.3999 13.2 48.9999 12.3 48.1999C11.5 47.4999 11 46.2999 11 44.5999C11 42.9999 11.4 41.7999 12.2 40.8999C12.9 40.1999 13.8 39.7999 14.9 39.7999C16 39.7999 16.8 40.0999 17.5 40.7999C18.1 41.3999 18.4 42.2999 18.4 43.4999V48.9999H21V49.2999H18.5V49.3999H18.7V49.4999H21.3V48.8999V48.7999H18.8V43.3999C18.8 42.1999 18.5 41.1999 17.8 40.4999C17.1 39.7999 16.2 39.4999 15.1 39.4999C13.9 39.4999 12.9 39.8999 12.2 40.6999C11.4 41.5999 10.9 42.8999 10.9 44.5999C10.9 46.2999 11.3 47.5999 12.2 48.3999C13.2 49.1999 14.9 49.5999 17.3 49.6999V49.5999V49.6999H18.1V49.5999H18C17.9 50.7999 17.5 51.6999 16.7 52.2999C15.8 52.9999 14.3 53.3999 12.3 53.3999C10.6 53.3999 9.19999 52.9999 8.19999 52.0999C7.09999 51.1999 6.59999 49.9999 6.59999 48.4999C6.59999 47.1999 6.99999 45.8999 7.79999 44.7999L7.99999 44.1999L6.99999 44.3999C6.29999 45.3999 5.89999 46.5999 5.89999 47.8999V47.9999H5.99999H5.79999C5.79999 49.4999 6.19999 50.6999 7.09999 51.6999C8.29999 53.0999 9.99999 53.6999 12.3 53.6999C14.3 53.6999 15.9 53.2999 17 52.5999C18.1 51.8999 18.7 50.6999 18.8 49.1999L18.7 49.3999V49.4999V49.3999ZM18 48.8999H18.1V43.5999C18.1 42.3999 17.8 41.4999 17.3 40.8999C16.8 40.2999 16 39.9999 15 39.9999C13.9 39.9999 13 40.3999 12.4 41.1999C11.8 41.9999 11.5 43.0999 11.5 44.4999C11.5 46.0999 11.9 47.2999 12.8 47.8999C13.7 48.5999 15.2 48.8999 17.3 48.8999H18H18.1V48.7999H18V48.6999H17.3V48.7999V48.6999C15.2 48.6999 13.7 48.2999 13 47.6999C12.2 47.0999 11.8 45.9999 11.8 44.4999C11.8 43.0999 12.1 42.0999 12.7 41.2999C13.3 40.4999 14.1 40.1999 15.1 40.1999C16.1 40.1999 16.8 40.4999 17.2 40.9999C17.7 41.4999 17.9 42.3999 17.9 43.4999V48.7999H18V48.6999V48.8999ZM14.2 36.1999V36.0999C14 36.0999 13.9 36.0999 13.9 35.9999C13.8 35.8999 13.8 35.7999 13.8 35.6999C13.8 35.4999 13.8 35.3999 13.9 35.3999C14 35.2999 14.1 35.2999 14.2 35.2999C14.3 35.2999 14.4 35.2999 14.5 35.3999C14.6 35.4999 14.6 35.5999 14.6 35.6999C14.6 35.8999 14.6 35.9999 14.5 35.9999C14.4 36.0999 14.4 36.0999 14.2 36.0999V36.1999V36.2999C14.4 36.2999 14.6 36.1999 14.7 36.0999C14.8 35.9999 14.9 35.7999 14.9 35.5999C14.9 35.3999 14.9 35.1999 14.7 35.0999C14.5 34.9999 14.3 34.9999 14.2 34.9999C14 34.9999 13.8 34.9999 13.7 35.1999C13.6 35.2999 13.5 35.4999 13.5 35.6999C13.5 35.8999 13.6 36.0999 13.7 36.1999C13.8 36.2999 14 36.3999 14.2 36.3999V36.1999ZM16.2 36.1999V36.0999C16 36.0999 16 36.0999 15.9 35.9999C15.8 35.8999 15.8 35.7999 15.8 35.6999C15.8 35.4999 16 35.2999 16.2 35.2999C16.4 35.2999 16.6 35.4999 16.6 35.6999H16.7H16.6V35.7999C16.6 35.9999 16.6 36.0999 16.5 36.0999C16.4 36.1999 16.4 36.1999 16.2 36.1999V36.2999C16.4 36.2999 16.6 36.1999 16.7 36.0999C16.8 35.9999 16.9 35.7999 16.9 35.5999V35.4999C16.9 35.1999 16.6 34.8999 16.2 34.8999C15.9 34.8999 15.6 35.1999 15.6 35.5999H15.7H15.6C15.6 35.7999 15.6 35.9999 15.8 36.0999C15.9 36.1999 16.1 36.2999 16.3 36.2999V36.1999H16.2Z" fill="#888989"/>
<path id="Vector_27" d="M23.8 48.8999H20.7V49.3999H23.8V48.8999Z" fill="#888989"/>
<path id="Vector_28" d="M20.7 49.4002H20.8V49.0002H23.7V49.2002H20.7V49.4002H20.8H20.7V49.5002H23.9V48.9002V48.7002H20.5V49.4002V49.5002H20.7V49.4002Z" fill="#888989"/>
<path id="Vector_29" d="M26.4 48.8999H23.3V49.3999H26.4V48.8999Z" fill="#888989"/>
<path id="Vector_30" d="M23.3 49.4002H23.5V49.0002H26.3V49.2002H23.3V49.4002H23.5H23.3V49.5002H26.6V48.9002V48.7002H23.2V49.4002V49.5002H23.3V49.4002Z" fill="#888989"/>
<path id="Vector_31" d="M29.1 48.8999H26V49.3999H29.1V48.8999Z" fill="#888989"/>
<path id="Vector_32" d="M26 49.4002H26.1V49.0002H29V49.2002H26V49.4002H26.1H26V49.5002H29.3V48.9002V48.7002H25.9V49.4002V49.5002H26V49.4002Z" fill="#888989"/>
<path id="Vector_33" d="M31.8 48.8999H28.7V49.3999H31.8V48.8999Z" fill="#888989"/>
<path id="Vector_34" d="M28.7 49.4002H28.8V49.0002H31.7V49.2002H28.7V49.4002H28.8H28.7V49.5002H31.9V48.9002V48.7002H28.5V49.4002V49.5002H28.7V49.4002Z" fill="#888989"/>
<path id="Vector_35" d="M34.4 48.8999H31.3V49.3999H34.4V48.8999Z" fill="#888989"/>
<path id="Vector_36" d="M31.3 49.4002H31.5V49.0002H34.3V49.2002H31.3V49.4002H31.5H31.3V49.5002H34.6V48.9002V48.7002H31.2V49.4002V49.5002H31.3V49.4002Z" fill="#888989"/>
<path id="Vector_37" d="M37.1 48.8999H34V49.3999H37.1V48.8999Z" fill="#888989"/>
<path id="Vector_38" d="M34 49.4002H34.1V49.0002H37V49.2002H34V49.4002H34.1H34V49.5002H37.3V48.9002V48.7002H33.9V49.4002V49.5002H34V49.4002Z" fill="#888989"/>
<path id="Vector_39" d="M39.8 48.8999H36.7V49.3999H39.8V48.8999Z" fill="#888989"/>
<path id="Vector_40" d="M36.7 49.4002H36.8V49.0002H39.7V49.2002H36.7V49.4002H36.8H36.7V49.5002H39.9V48.9002V48.7002H36.6V49.4002V49.5002H36.7V49.4002Z" fill="#888989"/>
<path id="Vector_41" d="M42.4 48.8999H39.3V49.3999H42.4V48.8999Z" fill="#888989"/>
<path id="Vector_42" d="M39.3 49.4002H39.5V49.0002H42.4V49.2002H39.3V49.4002H39.5H39.3V49.5002H42.6V48.9002V48.7002H39.2V49.4002V49.5002H39.3V49.4002Z" fill="#888989"/>
<path id="Vector_43" d="M49.2 48.8998H49.5V49.3998H49.1C47.4 49.3998 46.3 48.6998 45.8 47.2998C45.2 48.6998 44.1 49.3998 42.4 49.3998H42V48.8998H42.3C44.4 48.8998 45.5 47.7998 45.5 45.5998V40.0998L46.1 39.7998V45.5998C46.1 47.7998 47.1 48.8998 49.2 48.8998ZM44.5 51.9998C44.9 51.9998 45 52.1998 45 52.5998C45 52.8998 44.8 53.0998 44.5 53.0998C44.2 53.0998 44 52.8998 44 52.5998C44 52.1998 44.1 51.9998 44.5 51.9998ZM46.5 51.9998C46.8 51.9998 47 52.1998 47 52.5998C47 52.9998 46.8 53.0998 46.5 53.0998C46.2 53.0998 45.9 52.8998 45.9 52.5998C46 52.1998 46.1 51.9998 46.5 51.9998Z" fill="#888989"/>
<path id="Vector_44" d="M49.2 48.9001V49.0001H49.3V49.3001H49C47.4 49.3001 46.3 48.6001 45.8 47.3001V47.0001L45.7 47.3001C45.1 48.6001 44.1 49.3001 42.5 49.3001H42.2V49.0001H42.3C43.4 49.0001 44.2 48.7001 44.8 48.1001C45.4 47.5001 45.6 46.7001 45.6 45.6001V40.2001L46 40.0001V45.6001C46 46.7001 46.3 47.5001 46.8 48.1001C47.4 48.7001 48.2 49.0001 49.3 49.0001V48.9001V48.8001C48.3 48.8001 47.5 48.5001 47 48.0001C46.5 47.5001 46.2 46.7001 46.2 45.7001V39.6001L45.4 40.0001H45.3V45.6001C45.3 46.7001 45 47.5001 44.5 48.0001C44 48.5001 43.2 48.8001 42.2 48.8001H42H41.9V49.4001V49.5001H42.4C44.1 49.5001 45.3 48.8001 45.9 47.4001H45.8H45.7C46.3 48.8001 47.5 49.6001 49.2 49.5001H49.6H49.7V48.9001V48.8001H49.3V48.9001H49.2ZM44.5 52.0001V52.1001C44.7 52.1001 44.7 52.1001 44.8 52.2001C44.9 52.3001 44.9 52.4001 44.9 52.5001C44.9 52.7001 44.7 52.9001 44.5 52.9001C44.3 52.9001 44.1 52.7001 44.1 52.5001C44.1 52.3001 44.1 52.2001 44.2 52.2001C44.3 52.1001 44.3 52.1001 44.5 52.1001V52.0001V51.9001C44.3 51.9001 44.1 52.0001 44 52.1001C43.9 52.2001 43.8 52.4001 43.8 52.6001C43.8 53.0001 44.1 53.3001 44.5 53.3001C44.9 53.3001 45.2 53.0001 45.2 52.6001C45.2 52.4001 45.2 52.2001 45 52.1001C44.9 52.0001 44.7 51.9001 44.5 51.9001V52.0001ZM46.5 52.0001V52.1001C46.6 52.1001 46.7 52.1001 46.8 52.2001C46.9 52.3001 46.9 52.4001 46.9 52.5001C46.9 52.7001 46.9 52.8001 46.8 52.8001C46.7 53.0001 46.7 53.0001 46.5 53.0001C46.4 53.0001 46.2 53.0001 46.2 52.9001C46.1 52.8001 46.1 52.7001 46.1 52.6001C46.1 52.4001 46.1 52.3001 46.2 52.3001C46.3 52.2001 46.4 52.2001 46.5 52.2001V52.0001V51.9001C46.3 51.9001 46.1 52.0001 46 52.1001C45.9 52.2001 45.8 52.4001 45.8 52.6001C45.8 52.8001 45.9 53.0001 46 53.1001C46.1 53.2001 46.3 53.3001 46.5 53.3001C46.7 53.3001 46.8 53.3001 47 53.1001C47.1 53.0001 47.2 52.8001 47.2 52.6001C47.2 52.4001 47.2 52.2001 47 52.1001C46.9 52.0001 46.7 51.9001 46.5 51.9001V52.0001Z" fill="#888989"/>
<path id="Vector_45" d="M52.1 48.8999H49V49.3999H52.1V48.8999Z" fill="#888989"/>
<path id="Vector_46" d="M49 49.4002H49.2V49.0002H52V49.2002H49V49.4002H49.2H49V49.5002H52.3V48.9002V48.7002H48.9V49.4002V49.5002H49V49.4002Z" fill="#888989"/>
<path id="Vector_47" d="M54.8 48.8999H51.7V49.3999H54.8V48.8999Z" fill="#888989"/>
<path id="Vector_48" d="M51.7 49.4002H51.8V49.0002H54.7V49.2002H51.7V49.4002H51.8H51.7V49.5002H55V48.9002V48.7002H51.6V49.4002V49.5002H51.7V49.4002Z" fill="#888989"/>
<path id="Vector_49" d="M57.5 48.8999H54.4V49.3999H57.5V48.8999Z" fill="#888989"/>
<path id="Vector_50" d="M54.4 49.4002H54.5V49.0002H57.4V49.2002H54.4V49.4002H54.5H54.4V49.5002H57.6V48.9002V48.7002H54.2V49.4002V49.5002H54.4V49.4002Z" fill="#888989"/>
<path id="Vector_51" d="M60.1 48.8999H57V49.3999H60.1V48.8999Z" fill="#888989"/>
<path id="Vector_52" d="M57 49.4002H57.2V49.0002H60V49.2002H57V49.4002H57.2H57V49.5002H60.3V48.9002V48.7002H56.9V49.4002V49.5002H57V49.4002Z" fill="#888989"/>
<path id="Vector_53" d="M62.8 48.8999H59.7V49.3999H62.8V48.8999Z" fill="#888989"/>
<path id="Vector_54" d="M59.7 49.4002H59.8V49.0002H62.7V49.2002H59.7V49.4002H59.8H59.7V49.5002H63V48.9002V48.7002H59.6V49.4002V49.5002H59.7V49.4002Z" fill="#888989"/>
<path id="Vector_55" d="M65.5 48.8999H62.4V49.3999H65.5V48.8999Z" fill="#888989"/>
<path id="Vector_56" d="M62.4 49.4002H62.5V49.0002H65.4V49.2002H62.4V49.4002H62.5H62.4V49.5002H65.6V48.9002V48.7002H62.3V49.4002V49.5002H62.4V49.4002Z" fill="#888989"/>
<path id="Vector_57" d="M68.2 48.8999H65.1V49.3999H68.2V48.8999Z" fill="#888989"/>
<path id="Vector_58" d="M65.1 49.4002H65.2V49.0002H68.1V49.2002H65.1V49.4002H65.2H65.1V49.5002H68.3V48.9002V48.7002H64.9V49.4002V49.5002H65.1V49.4002Z" fill="#888989"/>
<path id="Vector_59" d="M70.8 48.8999H67.7V49.3999H70.8V48.8999Z" fill="#888989"/>
<path id="Vector_60" d="M67.7 49.4002H67.9V49.0002H70.7V49.2002H67.7V49.4002H67.9H67.7V49.5002H71V48.9002V48.7002H67.6V49.4002V49.5002H67.7V49.4002Z" fill="#888989"/>
<path id="Vector_61" d="M70.4 49.4002V48.9002H70.7C72.8 48.9002 73.9 47.8002 73.9 45.6002V40.1002L74.5 39.8002V45.6002C74.5 46.8002 74.2 47.8002 73.5 48.4002C72.9 49.0002 72 49.4002 70.9 49.4002H70.4ZM73.9 36.3002C73.6 36.3002 73.4 36.0002 73.4 35.7002C73.4 35.4002 73.6 35.2002 73.9 35.2002C74.2 35.2002 74.4 35.4002 74.4 35.8002C74.4 36.1002 74.2 36.3002 73.9 36.3002Z" fill="#888989"/>
<path id="Vector_62" d="M70.4 49.4H70.5V49H70.6C71.7 49 72.5 48.7 73.1 48.1C73.7 47.5 73.9 46.7 73.9 45.6V40.2L74.3 40V45.6C74.3 46.8 74 47.7 73.3 48.3C72.7 48.9 71.8 49.2 70.8 49.2H70.4V49.4H70.5H70.4V49.5H70.8V49.4V49.5C71.9 49.5 72.8 49.2 73.5 48.5L73.4 48.4L73.5 48.5C74.2 47.8 74.6 46.8 74.6 45.6V39.6L73.8 40H73.7V45.6C73.7 46.7 73.4 47.5 72.9 48C72.4 48.5 71.6 48.8 70.6 48.8H70.3H70.2V49.4V49.5H70.3L70.4 49.4ZM73.9 36.3V36.2C73.7 36.2 73.5 36 73.5 35.8C73.5 35.6 73.7 35.4 73.9 35.4V35.3V35.4C74 35.4 74.1 35.4 74.2 35.5C74.3 35.6 74.3 35.7 74.3 35.8C74.3 36 74.3 36.1 74.2 36.1C74.1 36.2 74.1 36.2 73.9 36.2V36.3V36.2V36.3V36.4C74.1 36.4 74.3 36.3 74.4 36.2C74.5 36.1 74.6 35.9 74.6 35.7C74.6 35.5 74.6 35.3 74.4 35.2C74.3 35.1 74.1 35 73.9 35C73.6 35 73.3 35.3 73.3 35.6C73.3 36 73.6 36.3 73.9 36.3Z" fill="#888989"/>
<path id="Vector_63" d="M87.1 34.8998L87.8 34.5998V45.7998C87.8 46.8998 87.5 47.7998 86.8 48.4998C86.2 49.1998 85.3 49.4998 84.2 49.4998H77.4L77.7 48.9998H81.5V37.9998L82.1 37.6998V48.9998H84C86 48.9998 87.1 47.8998 87.1 45.7998V34.8998ZM83 34.8998L82.7 35.3998H79.6L79.9 34.8998H80.4C80.3 34.6998 80.2 34.3998 80.2 34.1998C80.2 33.7998 80.4 33.3998 80.7 33.1998C81 32.8998 81.4 32.7998 81.8 32.7998C82.1 32.7998 82.3 32.8998 82.6 32.9998V33.4998C82.4 33.2998 82.1 33.2998 81.9 33.1998C81.6 33.1998 81.4 33.2998 81.2 33.4998C81 33.6998 80.9 33.8998 80.9 34.0998C80.9 34.3998 81 34.6998 81.2 34.9998L83 34.8998Z" fill="#888989"/>
<path id="Vector_64" d="M87.1 34.9L87.2 35L87.7 34.8V45.8C87.7 46.9 87.4 47.8 86.8 48.4C86.2 49 85.4 49.3 84.3 49.3H77.7L77.8 49H81.7V37.9L82.1 37.7V49H84.1C85.1 49 85.9 48.7 86.5 48.2C87 47.6 87.3 46.8 87.3 45.7V34.9H87.1L87.2 35L87.1 34.9H87V45.7C87 46.7 86.7 47.5 86.3 48C85.9 48.5 85.1 48.8 84.1 48.8H82.3V37.3L81.5 37.7H81.4V48.7H77.6L77.3 49.3L77.2 49.5H84.2C85.3 49.5 86.2 49.2 86.9 48.5C87.6 47.8 87.9 46.9 87.9 45.7V34.3L87.1 34.7H87V34.8H87.1V34.9ZM83 34.9L82.9 34.8L82.7 35.2H79.9L80 35H80.4H80.6L80.5 34.8C80.4 34.6 80.3 34.4 80.3 34.1H80.2H80.3C80.3 33.7 80.5 33.4 80.7 33.1C81 32.8 81.3 32.7 81.7 32.7V32.6V32.7C81.9 32.7 82.2 32.8 82.4 32.9L82.5 32.8H82.4V33.3H82.5L82.6 33.2C82.3 33.1 82 33 81.8 33C81.5 33 81.3 33.1 81 33.3L81.1 33.4L81 33.3C80.8 33.5 80.7 33.7 80.7 34C80.7 34.3 80.8 34.7 81.1 34.9H83L82.9 34.8L83 34.9V34.8H81.2V34.9L81.3 34.8C81.1 34.6 81 34.3 81 34H80.9H81C81 33.8 81.1 33.6 81.2 33.5C81.4 33.4 81.6 33.3 81.8 33.3V33.2V33.3C82 33.3 82.3 33.4 82.5 33.5L82.7 33.6V32.8V32.7H82.6C82.3 32.6 82.1 32.5 81.8 32.5C81.4 32.5 81 32.7 80.7 33L80.8 33.1L80.6 33C80.3 33.3 80.1 33.7 80.1 34.1C80.1 34.4 80.2 34.7 80.3 34.9L80.4 34.8V34.7H79.9H79.8L79.5 35.2L79.4 35.4H82.7L83 34.9L83.1 34.7H82.9V34.9H83Z" fill="#888989"/>
<path id="Vector_65" d="M92.4 49.4V34.9L93 34.5V49.4H92.4Z" fill="#888989"/>
<path id="Vector_66" d="M92.4 49.3998H92.5V34.8998L92.9 34.6998V49.1998H92.4V49.3998H92.5H92.4V49.4998H93H93.1V34.2998L92.3 34.6998L92.2 34.7998V49.4998H92.4V49.3998Z" fill="#888989"/>
<path id="Vector_67" d="M127.5 48.9001H127.8V49.4001H127.4C125.7 49.4001 124.6 48.7001 124.1 47.4001C123.5 48.8001 122.4 49.4001 120.7 49.4001H112.5C111.4 49.4001 110.6 49.1001 109.9 48.4001C109.3 47.7001 109 46.8001 109 45.7001V42.2001L109.7 41.9001V45.5001C109.7 47.8001 110.8 48.9001 112.9 48.9001H120.7C122.8 48.9001 123.8 47.8001 123.8 45.5001V40.1001L124.4 39.8001V45.6001C124.3 47.8001 125.4 48.9001 127.5 48.9001ZM114.9 38.7001C114.5 38.7001 114.3 38.5001 114.3 38.1001C114.3 37.7001 114.5 37.6001 114.9 37.6001C115.3 37.6001 115.4 37.8001 115.4 38.1001C115.4 38.5001 115.3 38.7001 114.9 38.7001ZM117 38.7001C116.6 38.7001 116.4 38.5001 116.4 38.1001C116.4 37.7001 116.6 37.6001 117 37.6001C117.3 37.6001 117.5 37.8001 117.5 38.1001C117.5 38.5001 117.3 38.7001 117 38.7001Z" fill="#888989"/>
<path id="Vector_68" d="M127.5 48.8999V48.9999H127.6V49.2999H127.3C125.7 49.2999 124.6 48.5999 124.1 47.2999L124 46.9999L123.9 47.2999C123.3 48.5999 122.3 49.2999 120.6 49.2999H112.4C111.3 49.2999 110.5 48.9999 109.9 48.2999C109.3 47.6999 109 46.7999 109 45.6999V42.2999L109.4 42.0999V45.4999C109.4 46.6999 109.7 47.4999 110.2 48.0999C110.8 48.6999 111.6 48.9999 112.7 48.9999H120.5C121.6 48.9999 122.4 48.6999 122.9 48.0999C123.5 47.4999 123.7 46.5999 123.7 45.4999V40.1999L124.1 39.9999V45.5999C124.1 46.6999 124.4 47.4999 124.9 48.0999C125.5 48.6999 126.3 48.8999 127.4 48.8999V48.7999C126.4 48.7999 125.6 48.4999 125.1 47.9999C124.6 47.4999 124.3 46.6999 124.3 45.6999V39.5999L123.5 39.9999H123.4V45.3999C123.4 46.4999 123.1 47.2999 122.6 47.8999C122.1 48.3999 121.4 48.6999 120.3 48.6999H112.5C111.5 48.6999 110.7 48.3999 110.2 47.8999C109.7 47.3999 109.4 46.4999 109.4 45.3999V41.5999L108.6 41.9999H108.5V45.4999C108.5 46.6999 108.8 47.5999 109.5 48.2999C110.2 48.9999 111 49.3999 112.1 49.3999H120.3C122 49.3999 123.2 48.6999 123.8 47.2999H123.7H123.6C124.2 48.6999 125.3 49.3999 127.1 49.3999H127.5H127.6V48.7999V48.6999H127.2V48.8999H127.5ZM114.9 38.6999V38.5999C114.7 38.5999 114.6 38.5999 114.6 38.4999C114.5 38.3999 114.5 38.2999 114.5 38.1999C114.5 37.9999 114.5 37.9999 114.6 37.8999C114.7 37.7999 114.8 37.7999 114.9 37.7999C115.1 37.7999 115.2 37.7999 115.2 37.8999C115.2 37.9999 115.3 38.0999 115.3 38.1999C115.3 38.3999 115.3 38.4999 115.2 38.5999C115.1 38.6999 115.1 38.6999 114.9 38.6999H115V38.5999H114.9V38.6999H114.8V38.7999H114.9C115.1 38.7999 115.3 38.6999 115.4 38.5999C115.5 38.4999 115.6 38.2999 115.6 38.0999C115.6 37.8999 115.6 37.6999 115.5 37.5999C115.4 37.4999 115.2 37.3999 115 37.3999C114.8 37.3999 114.6 37.3999 114.5 37.5999C114.4 37.6999 114.3 37.8999 114.3 38.0999C114.3 38.2999 114.4 38.4999 114.5 38.5999C114.6 38.6999 114.8 38.7999 115 38.7999V38.6999H114.9ZM117 38.6999V38.5999C116.8 38.5999 116.7 38.5999 116.7 38.4999C116.6 38.3999 116.6 38.2999 116.6 38.1999C116.6 37.9999 116.6 37.9999 116.7 37.8999C116.8 37.7999 116.9 37.7999 117 37.7999C117.1 37.7999 117.2 37.7999 117.3 37.8999C117.4 37.9999 117.4 38.0999 117.4 38.1999C117.4 38.3999 117.4 38.4999 117.3 38.5999C117.2 38.6999 117.2 38.6999 117 38.6999H117.1V38.5999H117V38.6999H116.9V38.7999H117C117.2 38.7999 117.4 38.6999 117.5 38.5999C117.6 38.4999 117.7 38.2999 117.7 38.0999C117.7 37.8999 117.7 37.6999 117.5 37.5999C117.4 37.4999 117.2 37.3999 117 37.3999C116.8 37.3999 116.6 37.3999 116.5 37.5999C116.4 37.6999 116.3 37.8999 116.3 38.0999C116.3 38.2999 116.4 38.4999 116.5 38.5999C116.6 38.6999 116.8 38.7999 117 38.7999V38.6999H116.9H117Z" fill="#888989"/>
<path id="Vector_69" d="M129.9 48.8999H126.8V49.3999H129.9V48.8999Z" fill="#888989"/>
<path id="Vector_70" d="M126.8 49.4002H127V49.0002H129.8V49.2002H126.8V49.4002H127H126.8V49.5002H130.1V48.9002V48.7002H126.7V49.4002V49.5002H126.8V49.4002Z" fill="#888989"/>
<path id="Vector_71" d="M132.6 48.8999H129.5V49.3999H132.6V48.8999Z" fill="#888989"/>
<path id="Vector_72" d="M129.5 49.4002H129.6V49.0002H132.5V49.2002H129.5V49.4002H129.6H129.5V49.5002H132.8V48.9002V48.7002H129.4V49.4002V49.5002H129.5V49.4002Z" fill="#888989"/>
<path id="Vector_73" d="M135.3 48.8999H132.2V49.3999H135.3V48.8999Z" fill="#888989"/>
<path id="Vector_74" d="M132.2 49.4002H132.3V49.0002H135.2V49.2002H132.2V49.4002H132.3H132.2V49.5002H135.4V48.9002V48.7002H132.1V49.4002V49.5002H132.2V49.4002Z" fill="#888989"/>
<path id="Vector_75" d="M137.9 48.8999H134.8V49.3999H137.9V48.8999Z" fill="#888989"/>
<path id="Vector_76" d="M134.8 49.4002H135V49.0002H137.8V49.2002H134.8V49.4002H135H134.8V49.5002H138.1V48.9002V48.7002H134.7V49.4002V49.5002H134.8V49.4002Z" fill="#888989"/>
<path id="Vector_77" d="M140.6 48.8999H137.5V49.3999H140.6V48.8999Z" fill="#888989"/>
<path id="Vector_78" d="M137.5 49.4002H137.6V49.0002H140.5V49.2002H137.5V49.4002H137.6H137.5V49.5002H140.8V48.9002V48.7002H137.4V49.4002V49.5002H137.5V49.4002Z" fill="#888989"/>
<path id="Vector_79" d="M143.3 48.8999H140.2V49.3999H143.3V48.8999Z" fill="#888989"/>
<path id="Vector_80" d="M140.2 49.4002H140.3V49.0002H143.2V49.2002H140.2V49.4002H140.3H140.2V49.5002H143.4V48.9002V48.7002H140.1V49.4002V49.5002H140.2V49.4002Z" fill="#888989"/>
<path id="Vector_81" d="M150.1 48.8998H150.4V49.3998H150C148.3 49.3998 147.2 48.6998 146.7 47.2998C146.1 48.6998 145 49.3998 143.3 49.3998H142.9V48.8998H143.2C145.3 48.8998 146.4 47.7998 146.4 45.5998V40.0998L147 39.7998V45.5998C146.9 47.7998 148 48.8998 150.1 48.8998ZM145.3 51.9998C145.7 51.9998 145.8 52.1998 145.8 52.5998C145.8 52.8998 145.6 53.0998 145.3 53.0998C145 53.0998 144.8 52.8998 144.8 52.5998C144.8 52.1998 145 51.9998 145.3 51.9998ZM147.3 51.9998C147.6 51.9998 147.8 52.1998 147.8 52.5998C147.8 52.9998 147.6 53.0998 147.3 53.0998C147 53.0998 146.7 52.8998 146.7 52.5998C146.8 52.1998 147 51.9998 147.3 51.9998Z" fill="#888989"/>
<path id="Vector_82" d="M150.1 48.9V49H150.2V49.3H149.9C148.3 49.3 147.2 48.6 146.7 47.3L146.6 47L146.5 47.3C145.9 48.6 144.9 49.3 143.3 49.3H143V49H143.1C144.2 49 145 48.7 145.6 48.1C146.2 47.5 146.4 46.7 146.4 45.6V40.2L146.8 40V45.6C146.8 46.7 147.1 47.6 147.6 48.1C148.2 48.7 149 49 150.1 49V48.9V48.8C149.1 48.8 148.3 48.5 147.8 48C147.3 47.5 147 46.7 147 45.6V39.5L146.2 39.9H146.1V45.5H146.2H146.1C146.1 46.6 145.8 47.3 145.3 47.9C144.8 48.4 144 48.7 143 48.7H142.7H142.6V49.3V49.4H143.1C144.8 49.4 146 48.7 146.6 47.3H146.5H146.4C147 48.7 148.2 49.5 149.9 49.4H150.3H150.4V48.8V48.7H150V48.9H150.1ZM145.3 52V52.1C145.5 52.1 145.5 52.1 145.6 52.2C145.7 52.3 145.7 52.4 145.7 52.5C145.7 52.7 145.5 52.9 145.3 52.9C145.1 52.9 144.9 52.7 144.9 52.5H144.8H144.9C144.9 52.3 144.9 52.2 145 52.2C145.1 52.1 145.2 52.1 145.3 52.1V51.8V52.1V52V52.1V51.8C145.1 51.8 144.9 51.9 144.8 52C144.7 52.1 144.6 52.3 144.6 52.5C144.6 52.9 144.9 53.2 145.3 53.2C145.7 53.2 146 52.9 146 52.5C146 52.3 146 52.1 145.8 52C145.7 51.9 145.5 51.8 145.3 51.8V52.1V52ZM147.3 52V52.1C147.4 52.1 147.5 52.1 147.6 52.2C147.7 52.3 147.7 52.4 147.7 52.5C147.7 52.7 147.7 52.8 147.6 52.8C147.6 52.9 147.5 52.9 147.3 52.9C147.2 52.9 147 52.9 147 52.8C146.9 52.7 146.9 52.6 146.9 52.5C146.9 52.3 146.9 52.2 147 52.2C147.1 52.1 147.2 52.1 147.3 52.1V51.8V52.1V52V52.1V51.8C147.1 51.8 146.9 51.9 146.8 52C146.7 52.1 146.6 52.3 146.6 52.5C146.6 52.7 146.7 52.9 146.8 53C146.9 53.1 147.1 53.2 147.3 53.2C147.5 53.2 147.7 53.2 147.8 53C147.9 52.9 148 52.7 148 52.5C148 52.3 148 52.1 147.8 52C147.7 51.9 147.5 51.8 147.3 51.8V52.1V52Z" fill="#888989"/>
<path id="Vector_83" d="M153 48.8999H149.9V49.3999H153V48.8999Z" fill="#888989"/>
<path id="Vector_84" d="M149.9 49.4002H150V49.0002H152.9V49.2002H149.9V49.4002H150H149.9V49.5002H153.1V48.9002V48.7002H149.7V49.4002V49.5002H149.9V49.4002Z" fill="#888989"/>
<path id="Vector_85" d="M155.6 48.8999H152.5V49.3999H155.6V48.8999Z" fill="#888989"/>
<path id="Vector_86" d="M152.5 49.4002H152.7V49.0002H155.5V49.2002H152.5V49.4002H152.7H152.5V49.5002H155.8V48.9002V48.7002H152.4V49.4002V49.5002H152.5V49.4002Z" fill="#888989"/>
<path id="Vector_87" d="M158.3 48.8999H155.2V49.3999H158.3V48.8999Z" fill="#888989"/>
<path id="Vector_88" d="M155.2 49.4002H155.3V49.0002H158.2V49.2002H155.2V49.4002H155.3H155.2V49.5002H158.5V48.9002V48.7002H155.1V49.4002V49.5002H155.2V49.4002Z" fill="#888989"/>
<path id="Vector_89" d="M161 48.8999H157.9V49.3999H161V48.8999Z" fill="#888989"/>
<path id="Vector_90" d="M157.9 49.4002H158V49.0002H160.9V49.2002H157.9V49.4002H158H157.9V49.5002H161.1V48.9002V48.7002H157.8V49.4002V49.5002H157.9V49.4002Z" fill="#888989"/>
<path id="Vector_91" d="M167.8 48.8998H168.1V49.3998H167.7C166 49.3998 164.9 48.6998 164.4 47.2998C163.8 48.6998 162.7 49.3998 161 49.3998H160.6V48.8998H160.9C163 48.8998 164.1 47.7998 164.1 45.5998V40.0998L164.7 39.7998V45.5998C164.6 47.7998 165.7 48.8998 167.8 48.8998ZM163.8 51.9998C164.1 51.9998 164.3 52.1998 164.3 52.5998C164.3 52.9998 164.1 53.1998 163.8 53.1998C163.5 53.1998 163.2 52.9998 163.2 52.6998C163.2 52.2998 163.4 51.9998 163.8 51.9998Z" fill="#888989"/>
<path id="Vector_92" d="M167.8 48.9V49H167.9V49.3H167.6C166 49.3 164.9 48.6 164.4 47.3L164.3 47L164.2 47.3C163.6 48.6 162.6 49.3 161 49.3H160.7V49H160.8C161.9 49 162.7 48.7 163.3 48.1C163.9 47.5 164.1 46.7 164.1 45.6V40.2L164.5 40V45.6H164.6H164.5C164.5 46.7 164.8 47.6 165.3 48.1C165.9 48.7 166.7 49 167.8 49V48.9V48.8C166.8 48.8 166 48.5 165.5 48C165 47.5 164.7 46.7 164.7 45.6V39.5L163.9 39.9H163.8V45.5C163.8 46.6 163.5 47.4 163 47.9C162.5 48.4 161.7 48.7 160.7 48.7H160.4H160.3V49.3V49.4H160.8C162.5 49.4 163.7 48.7 164.3 47.3H164.2H164.1C164.7 48.7 165.9 49.5 167.6 49.4H168H168.1V48.8V48.7H167.7V48.9H167.8ZM163.8 52V52.1C163.9 52.1 164 52.1 164.1 52.2C164.2 52.3 164.2 52.4 164.2 52.5C164.2 52.6 164.2 52.8 164.1 52.8C164 52.9 164 52.9 163.8 52.9C163.6 52.9 163.4 52.7 163.4 52.5C163.4 52.3 163.6 52.1 163.8 52.1V52L163.7 52.1H163.8V52V51.9H163.7C163.3 51.9 163.1 52.2 163.1 52.6C163.1 53 163.4 53.2 163.8 53.2V53.1V53.2C164 53.2 164.2 53.1 164.3 53C164.4 52.9 164.5 52.7 164.5 52.5C164.5 52.3 164.5 52.1 164.3 52C164.2 51.9 164 51.8 163.8 51.8V52Z" fill="#888989"/>
<path id="Vector_93" d="M170.7 48.8999H167.6V49.3999H170.7V48.8999Z" fill="#888989"/>
<path id="Vector_94" d="M167.6 49.4002H167.7V49.0002H170.6V49.2002H167.6V49.4002H167.7H167.6V49.5002H170.8V48.9002V48.7002H167.4V49.4002V49.5002H167.6V49.4002Z" fill="#888989"/>
<path id="Vector_95" d="M173.3 48.8999H170.2V49.3999H173.3V48.8999Z" fill="#888989"/>
<path id="Vector_96" d="M170.2 49.4002H170.4V49.0002H173.2V49.2002H170.2V49.4002H170.4H170.2V49.5002H173.5V48.9002V48.7002H170.1V49.4002V49.5002H170.2V49.4002Z" fill="#888989"/>
<path id="Vector_97" d="M176 48.8999H172.9V49.3999H176V48.8999Z" fill="#888989"/>
<path id="Vector_98" d="M172.9 49.4002H173V49.0002H175.9V49.2002H172.9V49.4002H173H172.9V49.5002H176.1V48.9002V48.7002H172.8V49.4002V49.5002H172.9V49.4002Z" fill="#888989"/>
<path id="Vector_99" d="M178.7 48.8999H175.6V49.3999H178.7V48.8999Z" fill="#888989"/>
<path id="Vector_100" d="M175.6 49.4002H175.7V49.0002H178.6V49.2002H175.6V49.4002H175.7H175.6V49.5002H178.8V48.9002V48.7002H175.4V49.4002V49.5002H175.6V49.4002Z" fill="#888989"/>
<path id="Vector_101" d="M181.3 48.8999H178.2V49.3999H181.3V48.8999Z" fill="#888989"/>
<path id="Vector_102" d="M178.2 49.4002H178.4V49.0002H181.2V49.2002H178.2V49.4002H178.4H178.2V49.5002H181.5V48.9002V48.7002H178.1V49.4002V49.5002H178.2V49.4002Z" fill="#888989"/>
<path id="Vector_103" d="M180.9 49.4001V48.9001H181.3C183.4 48.9001 184.4 47.8001 184.4 45.7001V34.9001L185 34.6001V45.8001C185 46.9001 184.7 47.8001 184.1 48.5001C183.5 49.2001 182.6 49.5001 181.5 49.5001H180.9V49.4001Z" fill="#888989"/>
<path id="Vector_104" d="M180.9 49.3998H181V48.9998H181.3C182.3 48.9998 183.2 48.6998 183.7 48.1998C184.2 47.5998 184.5 46.7998 184.5 45.6998V34.8998L184.9 34.6998V45.6998C184.9 46.7998 184.6 47.6998 184 48.2998C183.4 48.8998 182.6 49.1998 181.5 49.1998H180.9V49.3998H181H180.9V49.4998H181.5C182.6 49.4998 183.5 49.1998 184.2 48.4998C184.9 47.7998 185.2 46.8998 185.2 45.6998V34.2998L184.4 34.6998H184.3V45.5998C184.3 46.5998 184 47.3998 183.6 47.8998C183.1 48.3998 182.4 48.6998 181.4 48.6998H181H180.9V49.2998V49.3998H181H180.9Z" fill="#888989"/>
<path id="Vector_105" d="M189.6 49.4V34.9L190.3 34.5V49.4H189.6Z" fill="#888989"/>
<path id="Vector_106" d="M189.6 49.3998H189.8V34.8998L190.1 34.6998V49.1998H189.6V49.3998H189.8H189.6V49.4998H190.3H190.4V34.2998L189.6 34.6998L189.5 34.7998V49.4998H189.6V49.3998Z" fill="#888989"/>
</g>
</svg>
