<svg width="189" height="56" viewBox="0 0 189 56" fill="none" xmlns="http://www.w3.org/2000/svg">
<g id="Group 45">
<path id="Vector" d="M62.6791 43.6667C62.9036 40.6667 62.3424 37.6667 61.1078 34.8889L49.0982 7.77778C47.7513 5.11111 45.1698 3.33333 42.1394 2.88889L24.6301 0.222222C24.1812 0.111111 23.62 0 23.171 0C21.1507 0 19.1304 1.22222 18.2325 3.11111L0.61104 42.8889C0.61104 42.8889 -2.53165 51.4444 5.43731 52.7778L24.4057 55.8889C24.4057 55.8889 24.5179 55.8889 24.7424 55.8889C24.9669 55.8889 25.3036 55.8889 25.6403 55.7778C23.7322 55.7778 22.6098 54.6667 22.6098 54.6667C22.6098 54.6667 22.6098 54.6667 22.4976 54.5555C21.263 53.1111 20.814 51.5556 20.5895 50.2222C20.2528 48 20.7018 46.3333 20.7018 46.3333L27.3239 30.5556L31.8134 21.3333C32.5991 19.7778 34.8439 19.7778 35.5173 21.4444L40.7925 33.3333L27.8851 30.8889L41.9149 33.5556C42.1394 33.4444 42.3639 33.4444 42.5884 33.3333C42.7006 33.3333 42.8128 33.3333 42.9251 33.3333C45.0576 33.3333 47.4146 37 49.3227 41C51.1185 44.6667 52.5776 48.6667 53.251 50.4444C53.4755 51 53.5878 51.3333 53.5878 51.3333H53.8122C53.8122 51.3333 54.4857 51.5556 55.4958 51.5556C57.9651 51.5556 62.0057 50.4444 62.6791 43.6667Z" fill="#898989"/>
<path id="Vector_2" d="M49.2104 41.0002C47.3024 36.8891 44.9454 33.3335 42.8128 33.3335C42.7006 33.3335 42.5883 33.3335 42.4761 33.3335C42.2516 33.3335 42.0271 33.4446 41.8027 33.5557C40.9048 34.1113 39.6701 36.1113 38.4355 38.4446C36.0785 42.5557 33.6092 48.0002 33.1603 49.0002L53.4755 51.3335C53.4755 51.3335 53.3633 51.0002 53.1388 50.4446C52.5776 48.5557 51.1185 44.6668 49.2104 41.0002Z" fill="#646464"/>
<path id="Vector_3" d="M41.9149 33.5557C41.8027 33.6668 41.6904 33.7779 41.5782 33.889C41.5782 33.889 41.466 34.0001 41.3537 34.1112C41.017 34.4446 40.6803 34.889 40.3436 35.4446C39.7824 36.3334 39.1089 37.3334 38.4355 38.5557C38.0988 39.1112 37.8743 39.6668 37.5376 40.1112C37.0886 40.889 36.6397 41.7779 36.303 42.5557C35.9663 43.1112 35.7418 43.6668 35.5173 44.2223C34.3949 46.5557 33.497 48.5557 33.1603 49.1112C33.1603 49.2223 33.1603 49.2223 33.048 49.2223C32.7113 50.1112 32.2624 50.889 31.9257 51.4446C31.8134 51.5557 31.8134 51.7779 31.7012 51.889C31.5889 52.0001 31.5889 52.1112 31.4767 52.2223C31.3645 52.3334 31.3645 52.4446 31.2522 52.5557L31.14 52.6668L31.0277 52.7779L30.9155 52.889L30.8033 53.0001C30.691 53.1112 30.691 53.1112 30.5788 53.2223L30.4666 53.3334C30.4666 53.3334 30.3543 53.4446 30.3543 53.5557C30.2421 53.6668 30.1298 53.7779 30.0176 53.889C30.0176 53.889 30.0176 53.889 29.9054 54.0001C28.334 55.4445 26.8749 55.889 25.6403 55.889C23.7322 55.889 22.6098 54.7779 22.6098 54.7779C22.6098 54.7779 22.6098 54.7779 22.6098 54.6668C21.3752 53.2223 20.9263 51.6668 20.7018 50.2223C20.5895 49.6668 20.5895 49.1112 20.5895 48.6668C20.5895 47.2223 20.814 46.3334 20.814 46.3334L27.4361 30.5557L27.7728 30.6668H27.8851L41.9149 33.5557Z" fill="#848484"/>
<g id="Group">
<path id="Vector_4" d="M82.0964 21.1112C81.9842 22.2223 81.423 23.1112 80.3006 23.6667C79.2905 24.2223 78.0558 24.5556 76.4845 24.5556C74.4642 24.5556 73.0051 24.0001 71.9949 22.8889C71.2093 22.0001 70.8726 21.0001 70.8726 19.7778C70.8726 18.7778 71.097 17.8889 71.6582 17.1112L73.2296 16.7778C72.6684 17.6667 72.4439 18.5556 72.4439 19.5556C72.4439 20.6667 72.7806 21.5556 73.5663 22.1112C74.2397 22.7778 75.2499 23.0001 76.4845 23.0001C77.6069 23.0001 78.3926 22.7778 79.1782 22.4445C79.9639 22.1112 80.3006 21.5556 80.4129 20.8889H78.617L79.4027 19.4445H82.2087L82.0964 21.1112ZM75.3621 27.8889C74.8009 27.8889 74.4642 27.5556 74.4642 27.0001C74.4642 26.4445 74.8009 26.1112 75.3621 26.1112C75.9233 26.1112 76.26 26.4445 76.26 27.0001C76.1478 27.5556 75.9233 27.8889 75.3621 27.8889ZM77.7191 27.8889C77.1579 27.8889 76.8212 27.5556 76.8212 27.0001C76.8212 26.4445 77.1579 26.1112 77.7191 26.1112C78.2803 26.1112 78.617 26.4445 78.617 27.0001C78.617 27.5556 78.2803 27.8889 77.7191 27.8889Z" fill="#646464"/>
<path id="Vector_5" d="M93.2081 19.5558H94.4427V21.1114H92.9836C91.9735 21.1114 91.1878 20.778 90.5144 20.1114C89.8409 21.0003 88.943 21.4447 87.7084 21.4447C86.4738 21.4447 85.5759 21.0003 84.9024 20.1114C84.3412 20.778 83.5556 21.1114 82.4332 21.1114H80.9741V19.6669H82.2087C83.4433 19.6669 84.0045 19.0003 84.0045 17.778V17.2225C84.0045 15.778 84.3412 14.6669 85.0147 13.8892C85.6881 13.2225 86.4738 12.8892 87.4839 12.8892C88.7185 12.8892 89.6165 13.3336 90.2899 14.2225C90.8511 15.0003 91.0756 16.0003 91.0756 17.2225V17.778C91.4123 19.0003 91.9735 19.5558 93.2081 19.5558ZM87.8206 20.0003C88.3818 20.0003 88.943 19.778 89.2797 19.2225C89.6165 18.6669 89.8409 18.0003 89.8409 17.1114C89.8409 15.2225 89.1675 14.3336 87.8206 14.3336C86.4738 14.3336 85.9126 15.2225 85.9126 17.1114C85.9126 19.0003 86.586 20.0003 87.8206 20.0003Z" fill="#646464"/>
<path id="Vector_6" d="M93.3203 21.1113V19.6669H94.555C95.7896 19.6669 96.3508 19.0002 96.3508 17.778V14.0002L97.9221 13.1113V17.778C97.9221 18.778 97.5854 19.6669 97.0242 20.2224C96.463 20.778 95.6773 21.0002 94.7794 21.0002H93.3203V21.1113ZM94.3305 24.778C93.7693 24.778 93.4326 24.4447 93.4326 23.8891C93.4326 23.3335 93.7693 23.0002 94.3305 23.0002C94.8917 23.0002 95.2284 23.3335 95.2284 23.8891C95.2284 24.4447 94.8917 24.778 94.3305 24.778ZM96.6875 24.778C96.1263 24.778 95.7896 24.4447 95.7896 23.8891C95.7896 23.3335 96.1263 23.0002 96.6875 23.0002C97.2487 23.0002 97.5854 23.3335 97.5854 23.8891C97.5854 24.4447 97.3609 24.778 96.6875 24.778Z" fill="#646464"/>
<path id="Vector_7" d="M99.8302 21.1111L100.616 19.6667H103.983C104.432 19.6667 104.881 19.5556 104.993 19.3333C105.218 19.1111 105.33 18.6667 105.33 18.1111C105.33 16.4444 104.544 15.2222 103.085 14.3333L103.871 13C105.891 14.1111 106.901 15.8889 106.901 18.1111C106.901 20.2222 106.003 21.2222 104.207 21.2222H99.8302V21.1111Z" fill="#646464"/>
<path id="Vector_8" d="M113.187 21.1113C112.064 21.1113 111.279 20.778 110.717 20.1113C110.268 19.5558 109.932 18.778 109.932 17.8891V10.0002L111.503 9.11133V17.778C111.503 19.0002 112.064 19.6669 113.299 19.6669H114.533V21.1113H113.187Z" fill="#646464"/>
<path id="Vector_9" d="M117.115 13.2227C117.115 13.2227 117.227 13.2227 117.115 13.2227C117.227 13.2227 117.227 13.2227 117.115 13.2227C118.686 13.2227 119.809 13.6671 120.594 14.556C121.38 15.3338 121.829 16.3338 121.829 17.556V17.8893C121.829 19.0004 121.492 19.7782 120.819 20.3338C120.258 20.8893 119.472 21.1115 118.574 21.1115H113.411V19.6671H118.462C119.696 19.6671 120.258 19.0004 120.258 17.7782V17.556C120.258 16.6671 119.921 15.8893 119.135 15.4449C118.574 15.1115 117.901 14.8893 117.003 14.8893C116.329 14.8893 115.656 15.0004 114.982 15.2227V13.6671L119.023 9.22266H120.707L117.115 13.2227Z" fill="#646464"/>
<path id="Vector_10" d="M131.594 10.0002L133.165 9.11133V17.5558C133.165 18.6669 132.828 19.5558 132.155 20.1113C131.482 20.6669 130.696 21.0002 129.686 21.0002H123.288L124.074 19.5558H126.767V12.4447L128.339 11.5558V19.5558H129.461C130.808 19.5558 131.369 18.8891 131.369 17.5558V10.0002H131.594Z" fill="#646464"/>
<path id="Vector_11" d="M136.532 21.1113V10.0002L138.104 9.11133V21.1113H136.532Z" fill="#646464"/>
<path id="Vector_12" d="M150.45 19.5558H151.685V21.1113H150.225C149.552 21.1113 148.991 21.0002 148.542 20.778C148.43 22.0002 147.981 23.0002 147.307 23.6669C146.634 24.3335 145.736 24.6669 144.726 24.6669C143.94 24.6669 143.267 24.4447 142.593 24.1113V22.778C143.267 23.1113 143.828 23.3335 144.501 23.3335C145.287 23.3335 145.96 23.1113 146.409 22.5558C146.858 22.0002 147.083 21.3335 147.083 20.3335V14.0002L148.654 13.1113V18.1113C148.766 19.1113 149.327 19.5558 150.45 19.5558ZM147.532 10.8891C146.97 10.8891 146.634 10.5558 146.634 10.0002C146.634 9.44466 146.97 9.11133 147.532 9.11133C148.093 9.11133 148.43 9.44466 148.43 10.0002C148.43 10.5558 148.093 10.8891 147.532 10.8891Z" fill="#646464"/>
<path id="Vector_13" d="M154.266 13.2227C154.266 13.2227 154.378 13.2227 154.266 13.2227C155.837 13.2227 156.96 13.6671 157.745 14.556C158.531 15.3338 158.98 16.3338 158.98 17.556V17.8893C158.98 19.0004 158.643 19.7782 157.97 20.3338C157.409 20.8893 156.623 21.1115 155.725 21.1115H150.562V19.6671H155.613C156.848 19.6671 157.409 19.0004 157.409 17.7782V17.556C157.409 16.6671 157.072 15.8893 156.286 15.4449C155.725 15.1115 155.052 14.8893 154.154 14.8893C153.48 14.8893 152.807 15.0004 152.133 15.2227V13.6671L156.174 9.22266H157.858L154.266 13.2227Z" fill="#646464"/>
<path id="Vector_14" d="M166.276 19.5558H167.51V21.1113H166.163C165.49 21.1113 164.929 21.0002 164.48 20.778C164.367 22.0002 163.919 23.0002 163.245 23.6669C162.572 24.3335 161.674 24.6669 160.664 24.6669C159.878 24.6669 159.204 24.4447 158.531 24.1113V22.778C159.204 23.1113 159.766 23.3336 160.439 23.3336C161.225 23.3336 161.898 23.1113 162.347 22.5558C162.796 22.0002 163.021 21.3335 163.021 20.3335V14.0002L164.592 13.1113V18.1113C164.592 19.1113 165.265 19.5558 166.276 19.5558Z" fill="#646464"/>
<path id="Vector_15" d="M178.397 19.5558H179.632V21.1114H178.173C177.163 21.1114 176.377 20.778 175.704 20.1114C175.03 21.0003 174.132 21.4447 172.898 21.4447C171.663 21.4447 170.765 21.0003 170.092 20.1114C169.53 20.778 168.745 21.1114 167.622 21.1114H166.163V19.6669H167.398C168.633 19.6669 169.194 19.0003 169.194 17.778V17.2225C169.194 15.778 169.53 14.6669 170.204 13.8892C170.877 13.2225 171.663 12.8892 172.673 12.8892C173.908 12.8892 174.806 13.3336 175.479 14.2225C176.04 15.0003 176.265 16.0003 176.265 17.2225V17.778C176.602 19.0003 177.275 19.5558 178.397 19.5558ZM173.01 20.0003C173.571 20.0003 174.132 19.778 174.469 19.2225C174.806 18.6669 175.03 18.0003 175.03 17.1114C175.03 15.2225 174.357 14.3336 173.01 14.3336C171.663 14.3336 171.102 15.2225 171.102 17.1114C171.102 19.0003 171.775 20.0003 173.01 20.0003Z" fill="#646464"/>
<path id="Vector_16" d="M178.51 21.1113V19.6669H179.52C180.867 19.6669 181.428 19.0002 181.428 17.6669V10.0002L182.999 9.11133V17.5558C182.999 18.6669 182.662 19.5558 181.989 20.1113C181.316 20.6669 180.53 21.0002 179.52 21.0002H178.51V21.1113Z" fill="#646464"/>
<path id="Vector_17" d="M186.479 21.1113V10.0002L188.05 9.11133V21.1113H186.479Z" fill="#646464"/>
</g>
<g id="Group_2">
<path id="Vector_18" d="M98.0344 42.4446H98.7078V43.5557H97.9221C96.5753 43.5557 95.6773 43.0001 95.1161 42.0001C94.4427 42.6668 93.657 43.0001 92.7591 43.0001C91.6367 43.0001 90.8511 42.5557 90.1776 41.7779C89.6165 41.1112 89.392 40.2223 89.392 39.2223C89.392 38.0001 89.7287 37.1112 90.4021 36.3334C90.9633 35.6668 91.749 35.4446 92.6469 35.4446C93.4326 35.4446 94.106 35.6668 94.6672 36.1112V35.1112L95.9018 34.4446V40.2223C95.9018 41.7779 96.5753 42.4446 98.0344 42.4446ZM94.6672 37.6668C94.106 37.0001 93.4326 36.6668 92.6469 36.6668C91.9735 36.6668 91.5245 36.889 91.0755 37.4446C90.7388 37.889 90.5144 38.5557 90.5144 39.3334C90.5144 40.1112 90.7388 40.7779 91.0755 41.2223C91.4123 41.6668 91.9735 41.889 92.6469 41.889C93.4326 41.889 94.106 41.5557 94.6672 40.889C94.6672 40.6668 94.6672 40.4446 94.6672 40.3334V37.6668ZM92.1979 33.1112C91.6367 33.1112 91.4123 32.889 91.4123 32.3334C91.4123 31.889 91.6367 31.5557 92.1979 31.5557C92.6469 31.5557 92.8714 31.7779 92.8714 32.3334C92.9836 32.889 92.7591 33.1112 92.1979 33.1112ZM94.3305 33.1112C93.7693 33.1112 93.5448 32.889 93.5448 32.3334C93.5448 31.889 93.7693 31.5557 94.3305 31.5557C94.7794 31.5557 95.0039 31.7779 95.0039 32.3334C95.1161 32.889 94.8917 33.1112 94.3305 33.1112Z" fill="#888888"/>
<path id="Vector_19" d="M104.207 42.4448H104.881V43.5559H104.095C102.973 43.5559 102.187 43.2225 101.626 42.4448C101.065 43.2225 100.167 43.5559 99.0445 43.5559H98.2588V42.4448H98.9323C100.279 42.4448 100.953 41.7781 100.953 40.3337V36.3337L102.187 35.667V40.3337C102.187 41.7781 102.861 42.4448 104.207 42.4448ZM100.055 45.5559C100.504 45.5559 100.84 45.7781 100.84 46.3337C100.84 46.8892 100.616 47.1114 100.055 47.1114C99.4935 47.1114 99.269 46.8892 99.269 46.3337C99.269 45.7781 99.4935 45.5559 100.055 45.5559ZM102.187 45.5559C102.636 45.5559 102.973 45.7781 102.973 46.3337C102.973 46.8892 102.748 47.1114 102.187 47.1114C101.738 47.1114 101.402 46.8892 101.402 46.3337C101.402 45.7781 101.626 45.5559 102.187 45.5559Z" fill="#888888"/>
<path id="Vector_20" d="M107.462 36.0001C107.575 36.0001 107.687 36.0001 107.799 36.0001C108.922 36.0001 109.819 36.2223 110.717 36.7778C111.84 37.5556 112.401 38.6667 112.401 40.1112V40.4445C112.401 41.4445 112.064 42.3334 111.391 42.8889C110.83 43.3334 110.156 43.6667 109.258 43.6667H104.544V42.5556H109.146C110.493 42.5556 111.166 41.8889 111.166 40.4445V40.2223C111.166 39.2223 110.83 38.4445 110.044 38.0001C109.483 37.5556 108.697 37.3334 107.799 37.3334C107.126 37.3334 106.452 37.4445 105.779 37.6667V36.4445L110.044 31.7778H111.279L107.462 36.0001Z" fill="#888888"/>
<path id="Vector_21" d="M113.636 43.5559L114.197 42.4448H117.676C118.237 42.4448 118.686 42.3337 118.911 42.0003C119.135 41.667 119.247 41.2225 119.247 40.5559C119.247 38.7781 118.462 37.4448 116.89 36.5559L117.452 35.5559C119.472 36.667 120.482 38.3337 120.482 40.3337C120.482 41.7781 121.156 42.5559 122.615 42.5559H123.176V43.667H122.502C121.38 43.667 120.594 43.3337 120.033 42.5559C119.584 43.2225 118.911 43.667 117.901 43.667H113.636V43.5559ZM117.564 33.2225C117.003 33.2225 116.778 33.0003 116.778 32.4448C116.778 32.0003 117.003 31.667 117.564 31.667C118.013 31.667 118.237 31.8892 118.237 32.4448C118.35 33.0003 118.125 33.2225 117.564 33.2225Z" fill="#888888"/>
<path id="Vector_22" d="M122.951 43.5559V42.4448H123.513C124.972 42.4448 125.645 41.667 125.645 40.2225V32.3337L126.88 31.667V40.2225C126.88 41.2225 126.543 42.1114 125.982 42.667C125.421 43.2225 124.635 43.4448 123.625 43.4448H122.951V43.5559Z" fill="#888888"/>
<path id="Vector_23" d="M130.135 43.5559V32.3337L131.369 31.667V43.5559H130.135Z" fill="#888888"/>
<path id="Vector_24" d="M148.43 42.5556C148.43 44.0001 147.981 45.1112 146.97 46.0001C146.073 46.7778 144.95 47.1112 143.603 47.1112C142.032 47.1112 140.797 46.5556 139.899 45.4445C139.226 44.5556 138.889 43.5556 138.889 42.4445C138.889 41.3334 139.114 40.4445 139.675 39.7778L140.91 39.5556C140.348 40.4445 140.012 41.4445 140.012 42.4445C140.012 43.5556 140.348 44.4445 141.022 45.1112C141.695 45.7778 142.593 46.1112 143.603 46.1112C144.838 46.1112 145.736 45.7778 146.409 45.0001C146.97 44.4445 147.195 43.6667 147.195 42.6667V32.4445L148.43 31.7778V42.5556Z" fill="#888888"/>
<path id="Vector_25" d="M159.99 42.4446V43.5557H157.97C157.97 44.3335 157.745 45.1113 157.184 45.6668C156.623 46.3335 155.95 46.6668 155.164 46.8891C154.827 47.0002 154.49 47.0002 154.154 47.0002C153.48 47.0002 152.695 46.7779 152.021 46.4446V45.3335C152.695 45.6668 153.256 45.8891 153.929 45.8891C154.49 45.8891 154.939 45.7779 155.276 45.5557C155.613 45.3335 155.95 45.1113 156.286 44.6668C156.511 44.2224 156.623 43.8891 156.623 43.4446H155.052C153.705 43.3335 152.695 43.0002 151.909 42.1113C151.348 41.4446 151.123 40.5557 151.123 39.4446C151.123 38.1113 151.46 37.1113 152.133 36.3335C152.807 35.6668 153.593 35.3335 154.603 35.3335C155.725 35.3335 156.511 35.6668 157.072 36.3335C157.521 36.8891 157.858 37.6668 157.858 38.5557V42.3335H159.99V42.4446ZM156.847 38.7779C156.847 37.3335 156.174 36.5557 154.827 36.5557C154.042 36.5557 153.48 36.7779 153.144 37.3335C152.695 37.8891 152.582 38.5557 152.582 39.4446C152.582 41.3335 153.48 42.2224 155.276 42.3335C155.837 42.3335 156.286 42.3335 156.847 42.3335V38.7779Z" fill="#888888"/>
<path id="Vector_26" d="M165.602 42.4448H166.276V43.5559H165.49C164.367 43.5559 163.47 43.2225 162.908 42.4448C162.347 43.2225 161.449 43.5559 160.327 43.5559H159.653V42.4448H160.215C161.674 42.4448 162.347 41.667 162.347 40.2225V32.3337L163.582 31.667V40.3337C163.582 41.7781 164.255 42.4448 165.602 42.4448Z" fill="#888888"/>
<path id="Vector_27" d="M177.612 42.4443H178.285V43.5554H177.612C176.602 43.5554 175.704 43.4443 175.142 43.2221C174.581 42.9999 173.908 42.5554 173.459 41.9999C171.887 43.111 169.979 43.5554 167.959 43.5554H165.939V42.4443H168.071C170.765 42.4443 172.898 41.5554 174.357 39.6666C173.234 37.5554 171.887 36.5554 170.316 36.5554C169.194 36.5554 168.184 37.111 167.173 38.111V36.8888C168.184 35.8888 169.306 35.4443 170.316 35.4443C172.224 35.4443 173.908 36.7777 175.367 39.3332V40.111C175.03 40.5554 174.581 40.9999 174.132 41.3332C174.581 41.6666 175.03 41.9999 175.479 42.111C176.04 42.3332 176.826 42.4443 177.612 42.4443Z" fill="#888888"/>
<path id="Vector_28" d="M183.897 42.4448H184.57V43.5559H183.785C182.662 43.5559 181.764 43.2225 181.203 42.4448C180.642 43.2225 179.744 43.5559 178.622 43.5559H177.948V42.4448H178.51C179.969 42.4448 180.642 41.667 180.642 40.2225V32.3337L181.877 31.667V40.3337C181.877 41.7781 182.55 42.4448 183.897 42.4448Z" fill="#888888"/>
<path id="Vector_29" d="M184.122 43.5559V42.4448H184.683C186.142 42.4448 186.815 41.667 186.815 40.2225V32.3337L188.05 31.667V40.2225C188.05 41.2225 187.713 42.1114 187.152 42.667C186.591 43.2225 185.805 43.4448 184.795 43.4448H184.122V43.5559Z" fill="#888888"/>
</g>
</g>
</svg>
