<svg width="37" height="56" viewBox="0 0 37 56" fill="none" xmlns="http://www.w3.org/2000/svg">
<g id="Group">
<path id="Vector" d="M20.7679 29.46H23.6395V43.0271H12.8453V33.8014H15.6913V40.1586H20.7679V29.46Z" fill="#888989"/>
<path id="Vector_2" d="M15.6913 25.1447H32.2031L32.2287 46.4904V51.6588H4.28178V12.9214H7.12775V48.7903H29.3571V28.0391H12.8453V27.9874V12.9731V12.9214H23.6395V19.3819H20.7679V15.8157H15.6913V25.1447Z" fill="#888989"/>
<path id="Vector_3" d="M29.3827 12.9986V19.3816H32.2544V12.9986H29.3827ZM29.3827 12.9986V19.3816H32.2544V12.9986H29.3827ZM0 0V56H36.4848V0H0ZM33.6389 53.1057H2.84597V11.4998H8.53792V47.3429H27.9469V29.4601H25.0497V44.4485H11.4095V32.3286H17.1015V38.6857H19.3321V29.4601H11.3839V11.4998H25.024V20.803H19.3577V17.2626H17.1271V23.7231H33.6389V53.1057ZM33.6645 20.8288H27.9469V11.5515H33.6645V20.8288ZM33.6645 8.63129H2.84597V2.89432H33.6645V8.63129ZM32.2544 12.9986H29.3827V19.3816H32.2544V12.9986ZM32.2544 4.31564H4.30742V7.20997H32.2544V4.31564Z" fill="#888989"/>
</g>
</svg>
