<svg width="50" height="57" viewBox="0 0 50 57" fill="none" xmlns="http://www.w3.org/2000/svg">
<g id="Group 42">
<path id="Vector" d="M15.6314 45.8999C15.7545 48.2578 15.1391 50.6157 14.1544 52.7254C13.1698 54.9592 11.0774 56.4484 8.73882 56.8207C8.61574 56.8207 8.36958 56.8207 8.2465 56.8207H0.369246C0.246164 56.8207 0.246164 56.8207 0 56.8207C0.246164 56.5725 0.492328 56.4484 0.738492 56.3243C3.4463 54.2146 4.92328 50.988 4.92328 47.5132C4.92328 32.1247 4.92328 16.7361 4.92328 1.34763V0.603027H15.7545V1.09943C15.6314 15.9915 15.6314 31.0078 15.6314 45.8999Z" fill="#888888"/>
<path id="Vector_2" d="M32.7398 42.0527C32.7398 44.1624 32.7398 46.2722 32.6168 48.3819C32.6168 50.3675 32.0013 52.3531 31.0167 54.0905C29.9089 55.7038 28.1858 56.8207 26.2165 56.9448C24.8626 57.0689 23.3856 56.9448 21.9086 56.9448V0.603027H32.6168C32.6168 0.727128 32.6168 0.851229 32.6168 0.97533C32.7398 14.6264 32.7398 28.4016 32.7398 42.0527Z" fill="#888888"/>
<path id="Vector_3" d="M47.1404 23.1894C45.6634 25.5473 43.2018 27.1606 40.494 27.657C40.0017 27.7811 39.6324 27.7811 39.1401 27.7811V0.603027C40.2478 0.603027 41.3556 0.727128 42.3402 1.22353C45.048 2.21634 47.1404 4.32606 48.2482 6.93217C50.8329 12.5167 50.5867 17.9772 47.1404 23.1894Z" fill="#888888"/>
<path id="Vector_4" d="M46.7712 52.8494C45.2942 54.9592 43.0787 56.3243 40.6171 56.8207C40.2478 56.9448 39.8786 56.9448 39.5093 56.9448C39.3863 56.9448 39.2632 56.9448 39.017 56.9448V29.6426C40.1248 29.6426 41.3556 29.8908 42.3402 30.2631C44.925 31.38 47.0173 33.3656 48.1251 35.9717C50.8329 41.9286 50.5867 47.5131 46.7712 52.8494Z" fill="#888888"/>
</g>
</svg>
