<svg width="76" height="54" viewBox="0 0 76 54" fill="none" xmlns="http://www.w3.org/2000/svg">
<g id="Group 41">
<path id="Vector" d="M53.2022 1.02398L42.2913 20.1557C41.9151 20.8024 41.2701 21.1797 40.5176 21.1797H18.4271C17.6746 21.1797 17.0297 21.5569 16.6534 22.2036L0.260213 50.9282C-0.492262 52.2755 0.475206 53.9461 2.03391 53.9461C4.93631 53.9461 8.91368 53.9461 10.8486 53.9461C11.6011 53.9461 12.2461 53.5689 12.6223 52.9222L23.4795 33.9521C23.8557 33.3054 24.5007 32.9282 25.2531 32.9282H47.2362C47.9886 32.9282 48.6336 32.5509 49.0099 31.9042L63.3069 6.89823C63.6831 6.25153 63.6831 5.49704 63.3069 4.85033L60.9957 1.02398C60.6195 0.431166 59.9745 0.0539207 59.2758 0.0539207H55.0297C54.2234 2.84836e-05 53.5247 0.377274 53.2022 1.02398Z" fill="#888989"/>
<path id="Vector_2" d="M67.5529 17.9462L54.2233 41.2816C53.8471 41.9283 53.2021 42.3055 52.4496 42.3055H30.7891C30.0366 42.3055 29.3916 42.6828 29.0154 43.3295L24.6618 50.9283C23.9093 52.2756 24.8768 53.9463 26.4355 53.9463H59.5981C60.3506 53.9463 60.9956 53.569 61.3718 52.9223L75.7226 27.7546C76.0988 27.1079 76.0988 26.3534 75.7226 25.7067L71.0465 17.8385C70.2403 16.5989 68.3053 16.5989 67.5529 17.9462Z" fill="#888989"/>
<path id="Vector_3" d="M30.5203 0H39.335C40.8937 0 41.8612 1.67066 41.1087 3.01796L36.6476 10.7784C36.2714 11.4252 35.6264 11.8024 34.8739 11.8024H26.1129C24.5542 11.8024 23.5868 10.1317 24.3393 8.78443L28.7466 1.02395C29.1228 0.377245 29.7678 0 30.5203 0Z" fill="#888989"/>
</g>
</svg>
