<svg width="56" height="56" viewBox="0 0 56 56" fill="none" xmlns="http://www.w3.org/2000/svg">
<g id="Group 39">
<path id="Vector" d="M47.8671 19.1149L52.0176 15.9997C52.4882 15.6515 52.6293 15.0021 52.347 14.4939C51.9047 13.6845 51.4153 12.9033 50.8976 12.141C50.4835 11.5292 49.6177 11.4539 49.0906 11.981L45.3825 15.6891C44.9966 16.075 44.9307 16.6868 45.2131 17.1479C45.533 17.6562 45.8248 18.1832 46.0977 18.7197C46.4366 19.3596 47.2836 19.5479 47.8671 19.1149Z" fill="#888989"/>
<path id="Vector_2" d="M43.8013 6.68219L40.0932 10.3903C39.7073 10.7762 39.1049 10.8421 38.6344 10.5597C37.2415 9.69389 35.7356 8.98802 34.1357 8.4798C34.1357 8.48921 34.1357 8.48921 34.1357 8.49862C34.0039 8.47039 33.8627 8.46097 33.7215 8.46097C32.6957 8.46097 31.8487 9.19508 31.6604 10.1645C31.651 10.1645 31.6416 10.1551 31.6322 10.1551V10.3998C31.6228 10.4562 31.6228 10.5127 31.6228 10.5692C31.6228 10.6256 31.6228 10.6821 31.6322 10.7386V32.0651C31.6322 32.7145 31.1051 33.2416 30.4557 33.2416H25.3265C24.6771 33.2416 24.15 32.7145 24.15 32.0651V10.1362C24.1406 10.1362 24.1218 10.1456 24.1124 10.1456C23.9241 9.17625 23.0677 8.44215 22.0512 8.44215C21.9101 8.44215 21.7783 8.45156 21.6465 8.4798C21.6465 8.47039 21.6465 8.47039 21.6465 8.46097C21.5807 8.4798 21.5148 8.50803 21.4489 8.52686C21.4489 8.52686 21.4489 8.52686 21.4395 8.52686C21.4018 8.53627 21.3548 8.55509 21.3171 8.5645C21.3171 8.5645 21.3171 8.5645 21.3077 8.5645C19.8395 9.06331 18.4372 9.73153 17.1384 10.5409C16.6678 10.8327 16.0655 10.7668 15.6796 10.3715L11.9715 6.68219C11.4538 6.16456 11.5291 5.28929 12.1315 4.87518C16.6114 1.7976 22.0418 0 27.8864 0C33.731 0 39.1614 1.7976 43.6413 4.87518C44.2531 5.28929 44.3284 6.15515 43.8013 6.68219Z" fill="#888989"/>
<path id="Vector_3" d="M52.9682 20.0655L48.4883 23.4348C48.1306 23.6983 47.9518 24.1407 48.0271 24.583C48.2059 25.6653 48.3 26.7665 48.3 27.8959C48.3 31.8393 47.1801 35.5098 45.2507 38.6344C44.9589 39.105 45.0248 39.7262 45.4201 40.1214L49.1 43.8014C49.6271 44.3284 50.5117 44.2531 50.9353 43.632C54.0034 39.1521 55.7916 33.731 55.7916 27.8959C55.7916 25.4112 55.4716 23.0113 54.8599 20.7149C54.6246 19.8866 53.6458 19.5572 52.9682 20.0655Z" fill="#888989"/>
<path id="Vector_4" d="M27.8864 48.2908C16.6114 48.2908 7.48217 39.1711 7.48217 27.8866C7.48217 23.9432 8.60215 20.2633 10.5409 17.1386C10.8327 16.6681 10.7668 16.0657 10.3809 15.6704L6.67278 11.9623C6.15515 11.4447 5.27987 11.52 4.86577 12.1223C1.7976 16.6116 0 22.042 0 27.8866C0 43.2745 12.4985 55.773 27.8864 55.773C33.731 55.773 39.1614 53.9754 43.6413 50.8978C44.2531 50.4837 44.3284 49.6179 43.8013 49.0908L40.0932 45.3827C39.7073 44.9968 39.0955 44.9309 38.625 45.2227C35.5097 47.1709 31.8298 48.2908 27.8864 48.2908Z" fill="#888989"/>
</g>
</svg>
