<svg width="42" height="59" viewBox="0 0 42 59" fill="none" xmlns="http://www.w3.org/2000/svg">
<g id="Group 44">
<path id="Vector" d="M24.3687 25.9102C24.3687 24.4727 23.1523 23.2563 21.7148 23.2563C20.2773 23.2563 19.0609 24.4727 19.0609 25.9102C19.0609 27.3477 20.2773 28.5641 21.7148 28.5641C23.1523 28.5641 24.3687 27.3477 24.3687 25.9102Z" fill="#888888"/>
<path id="Vector_2" d="M15.7435 25.9102C15.7435 24.4727 14.5272 23.2563 13.0897 23.2563C11.6522 23.2563 10.4358 24.4727 10.4358 25.9102C10.4358 27.3477 11.6522 28.5641 13.0897 28.5641C14.5272 28.5641 15.7435 27.3477 15.7435 25.9102Z" fill="#888888"/>
<path id="Vector_3" d="M30.4505 23.145C31.888 23.145 33.1044 24.3614 33.1044 25.7989C33.1044 27.2364 31.888 28.4528 30.4505 28.4528C29.013 28.4528 27.7966 27.2364 27.7966 25.7989C27.7966 24.3614 28.9024 23.145 30.4505 23.145Z" fill="#888888"/>
<path id="Vector_4" d="M38.191 11.8666C37.7487 11.3137 37.4169 10.7608 36.864 10.2079C35.7582 8.99157 34.5419 7.88579 33.2149 7.00116C31.9986 6.22712 30.5611 5.56365 29.1236 5.12133C28.7918 5.01075 28.2389 4.90018 27.686 4.90018C27.4649 4.90018 27.2437 4.7896 26.912 4.7896C26.8014 4.7896 26.5802 4.7896 26.4697 4.7896C25.6956 4.67902 24.9216 4.67902 24.1475 4.7896H23.9264C22.4889 5.01075 21.0513 5.34249 19.7244 6.00596C18.9503 6.33769 18.2869 6.66943 17.6234 7.00116C16.2965 7.66463 15.0801 8.54926 14.0849 9.54446C12.4262 10.982 11.0993 12.6407 9.99351 14.5205C8.88773 16.2897 8.0031 18.2801 7.45021 20.3811L7.56079 20.6023L7.78195 20.4917C8.77715 18.5013 9.99351 16.7321 11.431 15.0734C12.2051 14.0782 13.2003 13.1935 14.0849 12.4195C14.1955 12.3089 14.3061 12.1983 14.4166 12.0878C14.7484 11.8666 15.0801 11.5349 15.4118 11.3137C15.633 11.2031 15.8542 11.0926 15.9647 10.8714C16.0753 10.7608 16.2965 10.6502 16.4071 10.5397C16.6282 10.4291 16.9599 10.2079 17.1811 10.0974C24.4793 6.55885 33.2149 9.54446 36.7534 16.8426C37.0852 17.5061 37.3063 18.059 37.5275 18.7225C37.6381 18.9436 37.6381 19.1648 37.7486 19.3859C37.8592 19.6071 37.8592 19.8282 37.8592 20.0494C37.8592 20.16 37.9698 20.3811 37.9698 20.4917C37.9698 20.6023 37.9698 20.8234 38.0804 20.934C38.191 22.0398 38.3015 23.1456 38.3015 24.2514C38.3015 24.6937 38.3015 25.2466 38.191 25.6889C37.8592 29.1168 36.6429 32.3236 34.8736 35.3092C32.7726 38.7371 30.2293 41.9439 27.2437 44.5978C22.5994 49.3526 16.8494 53.1123 10.8781 56.4297C15.1907 52.0065 15.3013 43.8237 15.3013 43.8237C15.633 43.9343 16.0753 44.0449 16.4071 44.1555C17.9551 44.5978 19.5032 44.7084 21.1619 44.7084C15.1907 42.6074 10.2147 38.8477 7.45021 33.8717C6.78674 32.6553 6.23385 31.3284 5.79154 30.0014L5.68096 29.4486L5.57038 29.0062C5.4598 28.6745 5.34922 28.3428 5.34922 28.011C5.23865 27.3476 5.01749 26.6841 5.01749 25.91C4.68575 23.1456 4.90691 20.3811 5.68096 17.7273C7.11848 12.1983 10.7676 7.55405 15.7436 4.7896C18.2869 3.46266 21.0513 2.68861 23.9264 2.57803C26.5803 2.57803 29.1236 2.90977 31.6669 3.68381C31.7774 3.68381 31.888 3.68382 31.888 3.57324L31.7774 3.35208C29.4553 1.80398 26.8014 0.698202 24.037 0.255888C20.7196 -0.297003 17.1811 0.0347318 14.0849 1.36167C10.8781 2.68861 8.0031 4.67902 5.79154 7.3329C4.68575 8.65984 3.69055 10.0974 2.9165 11.5349C2.14245 13.083 1.47898 14.6311 0.926093 16.2897C0.48378 17.9484 0.152045 19.6071 0.0414669 21.3763C-0.0691114 23.1456 0.0414668 24.8043 0.373202 26.5735C0.48378 27.3476 0.704936 28.1216 0.926093 28.8957C1.03667 29.2274 1.25783 29.8909 1.36841 30.2226L1.58956 30.7755L1.81072 31.3284C2.47419 32.8765 3.24824 34.4246 4.24344 35.7515C6.23385 38.516 8.77715 40.7275 11.8733 42.1651C12.5368 44.0449 12.758 45.9247 12.6474 47.9151C12.5368 49.0209 12.3157 50.1267 11.9839 51.2325C11.0993 53.9969 9.33004 56.4297 7.0079 58.0883L6.89732 58.1989L6.78674 58.4201L7.0079 58.5306C10.8781 56.9825 14.6378 55.2133 18.3975 53.2229C22.1571 51.2325 25.585 48.9103 28.9024 46.2565C32.2197 43.6026 35.2054 40.3958 37.5275 36.7467C39.9602 33.0976 41.3977 28.7851 41.7295 24.362C42.1718 20.0494 40.8448 15.6263 38.191 11.8666Z" fill="#888888"/>
</g>
</svg>
