<svg width="30" height="30" viewBox="0 0 30 30" fill="none" xmlns="http://www.w3.org/2000/svg">
<g id="behance-1-logo-svg-vector 1" clip-path="url(#clip0_553_70)">
<path id="background" d="M14.78 29.12C22.8212 29.12 29.34 22.6013 29.34 14.56C29.34 6.51873 22.8212 0 14.78 0C6.7387 0 0.219971 6.51873 0.219971 14.56C0.219971 22.6013 6.7387 29.12 14.78 29.12Z" fill="white"/>
<path id="behance" d="M10.5063 7.96289C11.1341 7.96289 11.7072 8.0188 12.2255 8.12946C12.7439 8.24011 13.1865 8.42182 13.5557 8.67458C13.925 8.92735 14.2115 9.26281 14.4154 9.68214C14.6192 10.1015 14.7205 10.6186 14.7205 11.2348C14.7205 11.8999 14.5691 12.4544 14.2674 12.8981C13.9658 13.3419 13.5185 13.7054 12.9279 13.9884C13.741 14.2225 14.3478 14.6325 14.7485 15.2173C15.1492 15.802 15.3495 16.5079 15.3495 17.3337C15.3495 17.9988 15.2202 18.5754 14.9617 19.0623C14.7031 19.5492 14.3548 19.9464 13.9168 20.2539C13.4789 20.5625 12.9803 20.7897 12.4201 20.9376C11.8563 21.0855 11.2751 21.1601 10.6927 21.1589H4.29675V7.96289H10.5063ZM10.1371 13.3035C10.6542 13.3035 11.0794 13.18 11.4125 12.9343C11.7456 12.6873 11.9122 12.2878 11.9111 11.7333C11.9111 11.4258 11.8551 11.1731 11.7445 10.9762C11.6338 10.7794 11.4859 10.6245 11.3007 10.5138C11.1155 10.4031 10.9035 10.3263 10.6635 10.2832C10.4166 10.2401 10.1662 10.2179 9.91458 10.2191H7.19943V13.3058L10.1371 13.3035ZM10.3036 18.9027C10.5774 18.9039 10.8499 18.8759 11.1167 18.82C11.3752 18.7641 11.6035 18.6721 11.8004 18.5428C11.9972 18.4135 12.1545 18.2376 12.2721 18.0163C12.3886 17.795 12.448 17.5108 12.448 17.166C12.448 16.4892 12.257 16.0047 11.8749 15.7158C11.4929 15.4258 10.9874 15.2813 10.3595 15.2813H7.19943V18.9039L10.3036 18.9027ZM19 18.6255C19.3937 19.0075 19.961 19.1986 20.7006 19.1986C21.2306 19.1986 21.6861 19.0658 22.0681 18.8014C22.4502 18.5369 22.6843 18.2562 22.7705 17.9604H25.0803C24.711 19.1065 24.1438 19.9254 23.3797 20.4181C22.6156 20.9108 21.6919 21.1577 20.6074 21.1577C19.8562 21.1577 19.1782 21.0378 18.5749 20.7978C17.9715 20.5579 17.4602 20.2154 17.0408 19.7716C16.6215 19.3278 16.2977 18.799 16.0706 18.1828C15.8434 17.5667 15.7293 16.8888 15.7293 16.1503C15.7293 15.4362 15.8457 14.7711 16.0799 14.155C16.314 13.5388 16.6471 13.0065 17.0781 12.5569C17.5091 12.1072 18.0239 11.7531 18.6215 11.4946C19.219 11.236 19.8818 11.1067 20.6086 11.1067C21.4216 11.1067 22.1298 11.2639 22.7344 11.5784C23.3377 11.8929 23.8339 12.3146 24.2218 12.8446C24.6097 13.3746 24.8904 13.9779 25.0628 14.6558C25.2352 15.3337 25.2969 16.0419 25.248 16.7816H18.3547C18.3908 17.6284 18.6063 18.2446 19 18.6255ZM21.9668 13.5994C21.6523 13.2546 21.1747 13.0822 20.5341 13.0822C20.1147 13.0822 19.7665 13.1532 19.4904 13.2942C19.2132 13.4363 18.9919 13.611 18.8253 13.8207C18.6587 14.0303 18.5423 14.2516 18.4747 14.4858C18.4071 14.7199 18.3664 14.9296 18.3547 15.1136H22.6237C22.4991 14.4497 22.2801 13.9441 21.9668 13.5994ZM17.9051 8.63265H23.2387V10.1119H17.9051V8.63265Z" fill="#282828"/>
</g>
<defs>
<clipPath id="clip0_553_70">
<rect width="29.12" height="29.12" fill="white" transform="translate(0.219971)"/>
</clipPath>
</defs>
</svg>
