<svg width="252" height="56" viewBox="0 0 252 56" fill="none" xmlns="http://www.w3.org/2000/svg">
<g id="Group 38">
<path id="Vector" d="M0 56V0H12.7182V56H0ZM30.3441 8.36132L25.4963 0H44.8878L40.0399 8.36132L35.192 16.7226L30.3441 8.36132ZM24.6284 31.0946L19.4214 34.0701V22.1382L24.6284 25.1137L29.8354 28.0893L24.6284 31.0946ZM40.0399 47.6387L44.8878 56H25.4963L30.3441 47.6387L35.192 39.2774L40.0399 47.6387Z" fill="#888989"/>
<g id="Group">
<path id="Vector_2" d="M71.222 23.7746L69.9052 20.442H63.2918L62.0349 23.7746H57.5461L64.7282 6.78418H68.7382L75.8304 23.7746H71.222ZM66.6434 11.307L64.4589 17.1391H68.7681L66.6434 11.307Z" fill="#888989"/>
<path id="Vector_3" d="M77.0873 23.7746V6.75439H81.0973V23.7746H77.0873Z" fill="#888989"/>
<path id="Vector_4" d="M90.4938 23.7746V6.75439H101.985V10.2358H94.4738V13.4196H101.566V16.7225H94.4738V20.2634H102.434V23.7746H90.4938Z" fill="#888989"/>
<path id="Vector_5" d="M104.978 23.7746V6.72461H108.988V23.7448H104.978V23.7746Z" fill="#888989"/>
<path id="Vector_6" d="M111.95 13.4492C113.357 12.1399 115.362 11.4258 117.307 11.4258C121.347 11.4258 122.843 13.3896 122.843 17.734V23.7743H119.222V22.2271H119.162C118.564 23.209 117.187 23.7743 115.751 23.7743C113.835 23.7743 111.382 22.8519 111.382 20.0251C111.382 16.5735 115.601 16.2759 119.102 16.2759V16.0677C119.102 14.8774 118.175 14.3418 116.918 14.3418C115.781 14.3418 114.673 14.9072 113.955 15.5618L111.95 13.4492ZM119.222 18.2696H118.713C116.978 18.2696 115.032 18.4779 115.032 19.9061C115.032 20.8285 115.96 21.1261 116.738 21.1261C118.324 21.1261 119.222 20.1739 119.222 18.6861V18.2696Z" fill="#888989"/>
<path id="Vector_7" d="M133.257 10.1466C132.958 10.0573 132.569 9.96803 132.18 9.96803C130.743 9.96803 130.414 11.1285 130.414 12.2295V13.4197H133.107V16.3655H130.414V23.7449H126.464V16.3952H124.279V13.4494H126.464V12.289C126.464 9.37292 127.631 6.78418 131.641 6.78418C132.329 6.78418 133.017 6.84369 133.556 7.02222L133.257 10.1466Z" fill="#888989"/>
<path id="Vector_8" d="M149.776 23.7746C144.778 23.7746 141.037 20.2932 141.037 15.2347C141.037 10.0573 144.898 6.75439 149.865 6.75439C152.14 6.75439 154.594 7.58755 155.94 9.13484L153.277 11.7831C152.529 10.7714 151.242 10.2953 149.985 10.2953C147.262 10.2953 145.317 12.408 145.317 15.2347C145.317 18.1805 147.232 20.1742 149.925 20.1742C151.451 20.1742 152.678 19.4898 153.367 18.5376L156.09 21.0966C154.653 22.7629 152.499 23.7746 149.776 23.7746Z" fill="#888989"/>
<path id="Vector_9" d="M164.02 23.7446C160.519 23.7446 157.556 21.3344 157.556 17.5256C157.556 13.7169 160.519 11.396 164.02 11.396C167.551 11.396 170.514 13.7169 170.514 17.5256C170.514 21.3344 167.551 23.7446 164.02 23.7446ZM164.02 14.5798C162.224 14.5798 161.267 16.0379 161.267 17.5256C161.267 19.0134 162.224 20.531 164.02 20.531C165.815 20.531 166.773 19.0134 166.773 17.5256C166.803 16.0379 165.815 14.5798 164.02 14.5798Z" fill="#888989"/>
<path id="Vector_10" d="M188.379 23.7743V17.2281C188.379 15.8593 188.08 14.6989 186.673 14.6989C185.327 14.6989 184.668 15.9486 184.668 17.2876V23.7446H180.718V16.9603C180.718 15.5915 180.18 14.7286 179.012 14.7286C177.756 14.7286 177.037 15.8593 177.037 17.2876V23.7743H173.057V11.396H176.858V13.4789H176.918C177.486 12.4672 178.713 11.4853 180.509 11.4853C182.244 11.4853 183.441 12.2292 184.13 13.5384C184.938 12.2887 186.195 11.4853 187.96 11.4853C191.222 11.4853 192.329 14.1335 192.329 16.3949V23.8041H188.379V23.7743Z" fill="#888989"/>
<path id="Vector_11" d="M202.983 24.1016C201.516 24.1016 200.08 23.4768 199.332 22.4353H199.302V29.5171H195.352V11.396H199.122V13.2706H199.182C199.9 12.3184 201.247 11.4555 203.012 11.4555C206.514 11.4555 208.698 14.3716 208.698 17.7339C208.698 21.0963 206.604 24.1016 202.983 24.1016ZM202.055 14.6989C200.259 14.6989 199.152 16.2462 199.152 17.7637C199.152 19.311 200.259 20.8285 202.055 20.8285C203.94 20.8285 204.868 19.2812 204.868 17.7339C204.868 16.1866 203.94 14.6989 202.055 14.6989Z" fill="#888989"/>
<path id="Vector_12" d="M211.032 13.4492C212.439 12.1399 214.444 11.4258 216.389 11.4258C220.429 11.4258 221.925 13.3896 221.925 17.734V23.7743H218.304V22.2271H218.244C217.646 23.209 216.269 23.7743 214.833 23.7743C212.918 23.7743 210.464 22.8519 210.464 20.0251C210.464 16.5735 214.683 16.2759 218.185 16.2759V16.0677C218.185 14.8774 217.257 14.3418 216 14.3418C214.863 14.3418 213.756 14.9072 213.037 15.5618L211.032 13.4492ZM218.334 18.2696H217.825C216.09 18.2696 214.145 18.4779 214.145 19.9061C214.145 20.8285 215.072 21.1261 215.85 21.1261C217.436 21.1261 218.334 20.1739 218.334 18.6861V18.2696Z" fill="#888989"/>
<path id="Vector_13" d="M232.788 23.7743V17.2281C232.788 15.9188 232.429 14.6989 230.993 14.6989C229.586 14.6989 228.868 15.8891 228.868 17.2578V23.7446H224.888V11.396H228.718V13.4491H228.778C229.347 12.3779 230.723 11.4555 232.369 11.4555C235.601 11.4555 236.768 13.955 236.768 16.3652V23.7743H232.788Z" fill="#888989"/>
<path id="Vector_14" d="M246.554 25.5597C245.596 28.0591 244.279 29.5171 241.257 29.5171C240.509 29.5171 239.671 29.3981 239.072 29.2493L239.521 25.9465C239.91 26.0655 240.419 26.1548 240.808 26.1548C242.035 26.1548 242.454 25.5894 242.843 24.548L243.232 23.566L238.294 11.396H242.693L245.297 19.4598H245.357L247.81 11.396H252L246.554 25.5597Z" fill="#888989"/>
</g>
<g id="Group_2">
<path id="Vector_15" d="M57.5162 39.7533V37.5812C57.5162 35.5578 58.5337 34.2783 60.5686 34.2783C60.8978 34.2783 61.3167 34.3081 61.6459 34.4271L61.4065 35.5876C61.1372 35.4983 60.8379 35.4388 60.5087 35.4388C59.1022 35.4388 58.803 36.4207 58.803 37.73V39.7533H60.9277V40.8543H58.803V49.2454H57.4863V40.8543V39.7533H57.5162Z" fill="#888989"/>
<path id="Vector_16" d="M67.99 49.2157C65.207 49.2157 63.202 47.1923 63.202 44.4846C63.202 41.7768 65.207 39.7832 67.99 39.7832C70.803 39.7832 72.808 41.8066 72.808 44.4846C72.808 47.1923 70.803 49.2157 67.99 49.2157ZM67.99 40.8842C65.8953 40.8842 64.5786 42.491 64.5786 44.5143C64.5786 46.5377 65.8953 48.1148 67.99 48.1148C70.0848 48.1148 71.4314 46.5377 71.4314 44.5143C71.4314 42.491 70.0848 40.8842 67.99 40.8842Z" fill="#888989"/>
<path id="Vector_17" d="M76.5187 39.7534H77.7756C77.8055 40.2295 77.8653 41.1519 77.8653 41.5388H77.8953C78.404 40.4973 79.5112 39.7832 80.798 39.7832C81.1272 39.7832 81.3965 39.8129 81.6658 39.8724L81.4863 41.0924C81.3367 41.0329 80.9177 40.9734 80.5586 40.9734C79.182 40.9734 77.9252 41.9851 77.9252 44.3655V49.1859H76.6085V41.9553C76.6085 41.509 76.5786 40.3485 76.5187 39.7534Z" fill="#888989"/>
<path id="Vector_18" d="M94.6534 39.7832C95.6409 39.7832 96.8379 40.1402 97.4364 41.6875C98.0648 40.4676 99.1421 39.7832 100.608 39.7832C102.913 39.7832 104.05 41.271 104.05 43.4729V49.1859H102.733V44.0085C102.733 42.1339 102.105 40.8544 100.399 40.8544C98.5137 40.8544 97.8254 42.5207 97.8254 44.187V49.1859H96.5087V43.7407C96.5087 41.9851 96.0898 40.8544 94.3242 40.8544C93.0673 40.8544 91.6908 41.9553 91.6908 44.3655V49.1859H90.3741V41.9851C90.3741 41.509 90.3441 40.3485 90.2843 39.7534H91.5411C91.5711 40.2295 91.6309 41.1817 91.6309 41.5388H91.6608C92.1995 40.4973 93.3666 39.7832 94.6534 39.7832Z" fill="#888989"/>
<path id="Vector_19" d="M112.579 49.2157C109.796 49.2157 107.791 47.1923 107.791 44.4846C107.791 41.7768 109.796 39.7832 112.579 39.7832C115.392 39.7832 117.397 41.8066 117.397 44.4846C117.397 47.1923 115.392 49.2157 112.579 49.2157ZM112.579 40.8842C110.484 40.8842 109.167 42.491 109.167 44.5143C109.167 46.5377 110.484 48.1148 112.579 48.1148C114.673 48.1148 116.02 46.5377 116.02 44.5143C116.02 42.491 114.673 40.8842 112.579 40.8842Z" fill="#888989"/>
<path id="Vector_20" d="M122.364 39.7534C122.394 40.2295 122.454 41.1519 122.454 41.5388H122.484C122.993 40.4973 124.309 39.7832 125.566 39.7832C127.87 39.7832 129.007 41.271 129.007 43.4729V48.9776H127.691V44.0085C127.691 42.1339 127.122 40.8544 125.237 40.8544C123.86 40.8544 122.514 41.9553 122.514 44.3655V48.9776H121.197V41.9851C121.197 41.509 121.167 40.3783 121.107 39.7534H122.364Z" fill="#888989"/>
<path id="Vector_21" d="M141.606 44.8417H134.125C134.155 46.6568 135.561 48.1148 137.416 48.1148C138.763 48.1148 139.81 47.3709 140.319 46.5675L141.307 47.3412C140.259 48.6802 138.913 49.2455 137.416 49.2455C134.723 49.2455 132.748 47.2221 132.748 44.5144C132.748 41.8066 134.723 39.813 137.297 39.813C140.14 39.813 141.606 41.8066 141.606 44.2466C141.636 44.3953 141.636 44.6036 141.606 44.8417ZM140.319 43.8002C140.229 42.1042 139.212 40.8544 137.327 40.8544C135.561 40.8544 134.274 42.2529 134.155 43.8002H140.319Z" fill="#888989"/>
<path id="Vector_22" d="M148.579 47.5792H148.608L151.392 39.7832H152.828L148.339 51.2986C147.801 52.6674 147.052 53.5898 145.496 53.5898C145.107 53.5898 144.718 53.56 144.329 53.4708L144.479 52.2805C144.778 52.3698 145.107 52.4293 145.436 52.4293C146.334 52.4293 146.783 51.864 147.172 50.8523L147.89 48.9777L144.03 39.813H145.496L148.579 47.5792Z" fill="#888989"/>
<path id="Vector_23" d="M169.885 44.8417H162.404C162.434 46.6568 163.84 48.1148 165.696 48.1148C167.042 48.1148 168.09 47.3709 168.599 46.5675L169.586 47.3412C168.539 48.6802 167.192 49.2455 165.696 49.2455C163.003 49.2455 161.027 47.2221 161.027 44.5144C161.027 41.8066 163.002 39.813 165.576 39.813C168.419 39.813 169.885 41.8066 169.885 44.2466C169.915 44.3953 169.915 44.6036 169.885 44.8417ZM168.599 43.8002C168.509 42.1042 167.491 40.8544 165.606 40.8544C163.84 40.8544 162.554 42.2529 162.434 43.8002H168.599Z" fill="#888989"/>
<path id="Vector_24" d="M175.751 44.3358L172.429 39.7534H174.105L176.559 43.4134L179.012 39.7534H180.599L177.337 44.0085L181.077 49.2157H179.372L176.529 45.2582L173.596 49.2157H172.01L175.751 44.3358Z" fill="#888989"/>
<path id="Vector_25" d="M190.354 42.0446C189.935 41.3602 189.037 40.8544 188.05 40.8544C185.955 40.8544 184.608 42.4314 184.608 44.4846C184.608 46.5079 185.925 48.085 188.05 48.085C189.187 48.085 189.965 47.6089 190.504 46.9245L191.491 47.6386C190.713 48.5908 189.606 49.1859 188.05 49.1859C185.147 49.1859 183.232 47.1626 183.232 44.4548C183.232 41.747 185.147 39.7534 188.05 39.7534C189.277 39.7534 190.623 40.2593 191.401 41.3007L190.354 42.0446Z" fill="#888989"/>
<path id="Vector_26" d="M195.89 41.4791C196.369 40.4377 197.656 39.783 198.913 39.783C201.217 39.783 202.354 41.2708 202.354 43.4727V49.2156H201.037V44.0083C201.037 42.1337 200.469 40.8542 198.584 40.8542C197.207 40.8542 195.86 41.9552 195.86 44.3654V49.1858H194.544V34.2188H195.86V41.4791H195.89Z" fill="#888989"/>
<path id="Vector_27" d="M212.439 43.1753C212.439 41.628 211.601 40.8544 210.015 40.8544C208.968 40.8544 207.98 41.271 207.322 41.8958L206.604 41.0329C207.322 40.3188 208.608 39.7534 210.165 39.7534C212.11 39.7534 213.666 40.8246 213.666 43.0265V46.9543C213.666 47.6386 213.726 48.4718 213.845 49.1859H212.678C212.589 48.5313 212.529 47.9957 212.529 47.5196H212.469C211.631 48.7098 210.643 49.2157 209.177 49.2157C207.801 49.2157 206.065 48.5016 206.065 46.4782C206.065 43.7109 209.117 43.4729 212.439 43.4729V43.1753ZM212.05 44.4846C209.895 44.4846 207.411 44.7226 207.411 46.4187C207.411 47.6982 208.519 48.1147 209.536 48.1147C211.392 48.1147 212.439 46.746 212.439 45.1392V44.4548H212.05V44.4846Z" fill="#888989"/>
<path id="Vector_28" d="M219.202 39.7832C219.232 40.2593 219.292 41.1519 219.292 41.5388H219.322C219.83 40.4973 221.147 39.7832 222.404 39.7832C224.708 39.7832 225.845 41.271 225.845 43.4729L225.875 49.2157H224.559L224.529 44.0085C224.529 42.1339 223.96 40.8544 222.075 40.8544C220.698 40.8544 219.352 41.9553 219.352 44.3655L219.382 49.1562H218.065L218.035 41.9553C218.035 41.4792 218.005 40.3783 217.945 39.7534H219.202V39.7832Z" fill="#888989"/>
<path id="Vector_29" d="M230.753 50.7927C231.471 51.7151 232.848 52.4293 234.195 52.4293C236.768 52.4293 237.726 50.8522 237.726 48.8884V47.1923H237.696C237.007 48.2932 235.601 48.9479 234.284 48.9479C231.471 48.9479 229.616 47.0137 229.616 44.3953C229.616 41.8363 231.471 39.7534 234.284 39.7534C235.601 39.7534 236.978 40.3783 237.696 41.5387H237.726V39.7236H239.042V48.8884C239.042 50.8522 238.145 53.56 234.135 53.56C232.489 53.56 230.843 52.8756 229.796 51.7449L230.753 50.7927ZM234.404 47.8767C236.439 47.8767 237.875 46.4484 237.875 44.3953C237.875 42.5207 236.439 40.8841 234.404 40.8841C232.219 40.8841 230.993 42.5207 230.993 44.3953C230.993 46.2699 232.219 47.8767 234.404 47.8767Z" fill="#888989"/>
<path id="Vector_30" d="M251.641 44.8417H244.16C244.19 46.6568 245.596 48.1148 247.451 48.1148C248.798 48.1148 249.845 47.3709 250.354 46.5675L251.342 47.3412C250.294 48.6802 248.948 49.2455 247.481 49.2455C244.788 49.2455 242.813 47.2221 242.813 44.5144C242.813 41.8066 244.788 39.813 247.362 39.813C250.204 39.813 251.671 41.8066 251.671 44.2466C251.671 44.3953 251.671 44.6036 251.641 44.8417ZM250.324 43.8002C250.234 42.1042 249.217 40.8544 247.332 40.8544C245.566 40.8544 244.279 42.2529 244.16 43.8002H250.324Z" fill="#888989"/>
</g>
</g>
</svg>
