<svg width="30" height="30" viewBox="0 0 30 30" fill="none" xmlns="http://www.w3.org/2000/svg">
<g id="facebook-round-icon-png-free-download 1" clip-path="url(#clip0_553_66)">
<g id="ELEMENTS">
<path id="Vector" d="M29.12 14.5604C29.119 11.778 28.3207 9.05416 26.8197 6.71135C25.3187 4.36853 23.1778 2.50485 20.6506 1.34095C18.1233 0.177047 15.3155 -0.238342 12.5595 0.143961C9.80344 0.526263 7.21468 1.69025 5.09964 3.49811C2.9846 5.30598 1.43186 7.68202 0.625248 10.3449C-0.181368 13.0079 -0.208083 15.8461 0.548266 18.5238C1.30462 21.2014 2.81235 23.6062 4.89299 25.4536C6.97362 27.3009 9.54002 28.5135 12.2883 28.9476V18.7663H8.58456V14.5604H12.2883V11.3505C12.2883 7.70429 14.4612 5.68778 17.7864 5.68778C18.8895 5.70196 19.9899 5.79825 21.0787 5.97585V9.55618H19.2103C18.8973 9.51427 18.5789 9.54326 18.2786 9.64099C17.9783 9.73873 17.7038 9.90271 17.4755 10.1208C17.2471 10.3389 17.0707 10.6056 16.9592 10.901C16.8478 11.1965 16.8042 11.5132 16.8317 11.8278V14.5604H20.8729L20.2309 18.7663H16.8317V28.9476C20.2572 28.4048 23.3768 26.6577 25.6293 24.0204C27.8819 21.3831 29.1196 18.0287 29.12 14.5604Z" fill="white"/>
<path id="Vector_2" d="M20.2309 18.766L20.8729 14.5601H16.8317V11.8276C16.8042 11.513 16.8478 11.1962 16.9592 10.9007C17.0707 10.6053 17.2471 10.3386 17.4755 10.1205C17.7039 9.90243 17.9783 9.73845 18.2786 9.64072C18.5789 9.54298 18.8973 9.514 19.2103 9.5559H21.0457V5.97557C19.957 5.79797 18.8565 5.70168 17.7535 5.6875C14.4612 5.6875 12.2554 7.70401 12.2554 11.3502V14.5601H8.55164V18.766H12.2554V28.9473C13.7611 29.1778 15.2931 29.1778 16.7987 28.9473V18.766H20.2309Z" fill="#282828"/>
</g>
</g>
<defs>
<clipPath id="clip0_553_66">
<rect width="29.12" height="29.12" fill="white"/>
</clipPath>
</defs>
</svg>
