<svg width="30" height="30" viewBox="0 0 30 30" fill="none" xmlns="http://www.w3.org/2000/svg">
<g id="instragram-round-icon-png-free-download 1" clip-path="url(#clip0_553_79)">
<g id="ELEMENTS">
<path id="Vector" d="M15.22 29.12C23.2613 29.12 29.78 22.6013 29.78 14.56C29.78 6.51873 23.2613 0 15.22 0C7.17877 0 0.660034 6.51873 0.660034 14.56C0.660034 22.6013 7.17877 29.12 15.22 29.12Z" fill="white"/>
<path id="Vector_2" d="M19.7386 9.05374C19.5397 9.05375 19.3452 9.11286 19.1799 9.22356C19.0146 9.33427 18.8859 9.49158 18.8101 9.67554C18.7344 9.8595 18.715 10.0618 18.7544 10.2568C18.7938 10.4518 18.8903 10.6307 19.0315 10.7708C19.1728 10.9109 19.3525 11.0059 19.5478 11.0437C19.7431 11.0815 19.9453 11.0605 20.1286 10.9832C20.3119 10.9059 20.4682 10.776 20.5775 10.6097C20.6869 10.4435 20.7444 10.2486 20.7427 10.0497C20.7427 9.91817 20.7167 9.78799 20.6662 9.66662C20.6156 9.54526 20.5415 9.4351 20.4481 9.34251C20.3548 9.24993 20.244 9.17674 20.1222 9.12718C20.0005 9.07762 19.8701 9.05266 19.7386 9.05374Z" fill="#282828"/>
<path id="Vector_3" d="M15.2942 10.3379C14.462 10.3363 13.648 10.5816 12.9553 11.0427C12.2625 11.5039 11.7222 12.1602 11.4026 12.9285C11.083 13.6969 10.9985 14.5428 11.1599 15.3592C11.3212 16.1756 11.7212 16.9258 12.309 17.5148C12.8969 18.1038 13.6463 18.5052 14.4624 18.6682C15.2785 18.8311 16.1245 18.7483 16.8935 18.4302C17.6625 18.1122 18.3199 17.5731 18.7824 16.8813C19.2449 16.1894 19.4918 15.3759 19.4918 14.5438C19.4918 13.4297 19.0498 12.3612 18.2628 11.5727C17.4759 10.7842 16.4082 10.3401 15.2942 10.3379ZM15.2942 17.2352C14.7595 17.2368 14.2364 17.0796 13.7912 16.7836C13.346 16.4876 12.9987 16.0661 12.7934 15.5724C12.588 15.0788 12.5339 14.5353 12.6378 14.0109C12.7417 13.4864 12.999 13.0046 13.377 12.6266C13.7551 12.2485 14.2368 11.9913 14.7613 11.8874C15.2857 11.7835 15.8292 11.8376 16.3229 12.043C16.8165 12.2483 17.238 12.5956 17.534 13.0408C17.8301 13.486 17.9872 14.0091 17.9856 14.5438C17.9834 15.2569 17.6992 15.9402 17.1949 16.4445C16.6906 16.9487 16.0073 17.233 15.2942 17.2352Z" fill="#282828"/>
<path id="Vector_4" d="M18.6275 23.0457H11.8125C10.4532 23.0435 9.15024 22.5025 8.18908 21.5414C7.22793 20.5802 6.68699 19.2772 6.68481 17.918V11.1359C6.68481 9.77521 7.22479 8.47012 8.18618 7.50718C9.14757 6.54425 10.4518 6.00218 11.8125 6H18.6275C19.9882 6.00218 21.2924 6.54425 22.2538 7.50718C23.2152 8.47012 23.7552 9.77521 23.7552 11.1359V17.9509C23.7443 19.3045 23.1996 20.599 22.2393 21.5531C21.2791 22.5071 19.9811 23.0435 18.6275 23.0457ZM11.8125 7.61321C10.8782 7.61321 9.98221 7.98435 9.32157 8.64498C8.66093 9.30562 8.28979 10.2016 8.28979 11.1359V17.9509C8.28979 18.8852 8.66093 19.7812 9.32157 20.4418C9.98221 21.1025 10.8782 21.4736 11.8125 21.4736H18.6275C19.5618 21.4736 20.4578 21.1025 21.1184 20.4418C21.779 19.7812 22.1502 18.8852 22.1502 17.9509V11.1359C22.1502 10.2016 21.779 9.30562 21.1184 8.64498C20.4578 7.98435 19.5618 7.61321 18.6275 7.61321H11.8125Z" fill="#282828"/>
</g>
</g>
<defs>
<clipPath id="clip0_553_79">
<rect width="29.12" height="29.12" fill="white" transform="translate(0.660034)"/>
</clipPath>
</defs>
</svg>
