<svg width="73" height="76" viewBox="0 0 73 76" fill="none" xmlns="http://www.w3.org/2000/svg">
<g id="Group 47">
<path id="Vector" d="M59.6592 14.1004C59.2727 13.7175 58.8604 13.3728 58.4223 13.0665C60.8058 16.3726 60.8058 20.8531 58.4223 24.1592L47.2264 13.0665C50.5633 10.7049 55.0855 10.7049 58.4223 13.0665C58.1131 12.6325 57.7653 12.224 57.3788 11.841C53.6038 8.1009 47.4841 8.1009 43.7091 11.841L31.1862 24.2485L28.9057 21.9891L41.4416 9.58164C44.83 6.22446 50.0995 5.87981 53.8744 8.54768C53.5652 8.11367 53.2173 7.70519 52.8308 7.32224C49.0559 3.58212 42.9361 3.58212 39.1612 7.32224L26.6382 19.7298L24.3578 17.4704L36.8808 5.06285C40.2692 1.70567 45.5386 1.36102 49.3136 4.02889C49.0043 3.59488 48.6565 3.1864 48.27 2.80346C44.8558 -0.579251 39.5219 -0.898374 35.747 1.83332C31.9592 -0.898374 26.6382 -0.566486 23.224 2.81622C22.8375 3.19917 22.4897 3.60765 22.1805 4.04165C25.5173 1.68014 30.0395 1.68014 33.3764 4.04165L22.1805 15.1344C19.797 11.8283 19.797 7.34777 22.1805 4.04165C21.7424 4.34801 21.3301 4.69267 20.9436 5.07561C17.1687 8.81574 17.1687 14.8791 20.9436 18.6192L33.4666 31.0267L31.1862 33.2861L18.6632 20.8658C15.2748 17.5087 14.9269 12.2878 17.6196 8.54768C17.1816 8.85403 16.7693 9.19869 16.3828 9.58164C12.6078 13.3218 12.6078 19.3851 16.3828 23.1252L28.9057 35.5327L26.6382 37.7921L14.1152 25.3846C10.7268 22.0274 10.379 16.8066 13.0717 13.0665C12.6336 13.3728 12.2213 13.7175 11.8348 14.1004C8.42064 17.4831 8.09855 22.7678 10.8557 26.5079C8.08567 30.2481 8.42064 35.5327 11.8348 38.9154C12.2213 39.2984 12.6336 39.643 13.0717 39.9494C10.6882 36.6433 10.6882 32.1628 13.0717 28.8567L24.2676 39.9494C20.9307 42.3109 16.4085 42.3109 13.0717 39.9494C13.3809 40.3834 13.7287 40.7919 14.1152 41.1748C17.8902 44.915 24.0099 44.915 27.7849 41.1748L40.3078 28.7673L42.5883 31.0267L30.0653 43.4342C26.6769 46.7914 21.4074 47.1361 17.6325 44.4682C17.9417 44.9022 18.2896 45.3107 18.6761 45.6936C22.451 49.4338 28.5708 49.4338 32.3457 45.6936L44.8687 33.2861L47.1491 35.5455L34.6261 47.953C31.2377 51.3102 25.9683 51.6549 22.1933 48.987C22.5025 49.421 22.8504 49.8295 23.2369 50.2124C26.6511 53.5951 31.985 53.9142 35.7599 51.1825C39.5348 53.9142 44.8687 53.5951 48.2829 50.2124C48.6694 49.8295 49.0172 49.421 49.3264 48.987C45.9896 51.3485 41.4674 51.3485 38.1305 48.987L49.3264 37.8943C51.7099 41.2004 51.7099 45.6809 49.3264 48.987C49.7645 48.6806 50.1768 48.336 50.5633 47.953C54.3382 44.2129 54.3382 38.1496 50.5633 34.4094L38.0403 22.0019L40.3207 19.7425L52.8437 32.15C56.2321 35.5072 56.58 40.7281 53.8873 44.4682C54.3253 44.1618 54.7376 43.8172 55.1241 43.4342C58.899 39.6941 58.899 33.6308 55.1241 29.8906L42.6011 17.4831L44.8816 15.2237L57.4045 27.6312C60.7929 30.9884 61.1408 36.2093 58.4481 39.9494C58.8862 39.643 59.2984 39.2984 59.6849 38.9154C63.0991 35.5327 63.4212 30.2481 60.6641 26.5079C63.3955 22.755 63.0734 17.4831 59.6592 14.1004ZM35.747 28.7673L33.4666 26.5079L35.747 24.2485L38.0274 26.5079L35.747 28.7673Z" fill="#888989"/>
<g id="Group 46">
<path id="Vector_2" d="M3.73628 65.5017L6.89279 60.2681H11.415L7.202 66.2548L11.415 75.4839H7.2793L4.77986 69.6886L3.73628 71.1948V75.4839H0V60.2681H3.73628V65.5017Z" fill="#888989"/>
<path id="Vector_3" d="M25.7288 72.5607H25.9221C27.2362 72.5607 27.7 71.5906 27.7 70.2247H31.4363V70.4034C31.4363 74.3223 29.4909 75.7647 25.7288 75.7647C21.5931 75.7647 19.7894 73.5436 19.7894 68.2717V67.493C19.7894 62.2211 21.606 60 25.7288 60C29.4909 60 31.4363 61.4424 31.4363 65.3613V66.1272H27.7C27.7 64.3656 27.4037 63.204 25.9221 63.204H25.7288C23.8607 63.204 23.5772 64.8634 23.5772 67.493V68.2717C23.5772 70.9013 23.8607 72.5607 25.7288 72.5607Z" fill="#888989"/>
<path id="Vector_4" d="M44.7194 75.4839H40.9831V60.2681H46.2783C48.8808 60.2681 51.8054 60.8553 51.8054 65.0677V65.4634C51.8054 67.9398 50.8005 69.1525 49.4477 69.7524L51.8054 75.4839H47.7728L45.7629 70.263H44.7194V75.4839ZM46.4329 67.059C47.1673 67.059 48.0305 66.7909 48.0305 65.3485V65.1953C48.0305 63.7529 47.1673 63.4848 46.4329 63.4848H44.7194V67.0718H46.4329V67.059Z" fill="#888989"/>
<path id="Vector_5" d="M66.2738 75.4839H61.3522V60.2681H66.2738C71.0923 60.2681 72.9089 62.2211 72.9089 67.4803V68.2589C72.9089 73.5308 71.1052 75.4839 66.2738 75.4839ZM66.0806 72.2799C68.6444 72.2799 69.1082 70.9013 69.1082 68.2589V67.4803C69.1082 64.8507 68.6315 63.4593 66.0806 63.4593H65.1014V72.2799H66.0806Z" fill="#888989"/>
</g>
</g>
</svg>
