<svg width="97" height="119" viewBox="0 0 97 119" fill="none" xmlns="http://www.w3.org/2000/svg">
<path d="M2.27229 16.003C0.728913 14.0206 0.0334106 11.5076 0.337907 9.01376C0.487983 7.78218 0.881013 6.59264 1.49422 5.51407C2.10742 4.43551 2.92861 3.48939 3.91017 2.73054C4.88862 1.96017 6.00974 1.39088 7.20903 1.05541C8.40832 0.719951 9.6621 0.624942 10.8982 0.775851C12.1344 0.926761 13.3285 1.32061 14.4119 1.93474C15.4952 2.54887 16.4465 3.37116 17.2108 4.35429L44.0381 38.7073C44.2398 38.9822 44.4616 39.2418 44.7017 39.4839C41.4202 40.0228 38.3264 41.3769 35.7041 43.422C33.0818 45.467 31.0147 48.1377 29.6926 51.189C29.5231 50.9208 29.3396 50.6384 29.1137 50.3419L2.27229 16.003Z" fill="#282828"/>
<path d="M94.149 102.853C94.9338 103.829 95.517 104.951 95.8647 106.155C96.2123 107.358 96.3175 108.619 96.1741 109.863C96.0308 111.107 95.6417 112.311 95.0296 113.404C94.4174 114.497 93.5943 115.457 92.608 116.229C91.6218 117.001 90.492 117.57 89.2842 117.902C88.0764 118.234 86.8147 118.323 85.5723 118.164C84.3299 118.004 83.1315 117.6 82.0467 116.973C80.9619 116.347 80.0122 115.512 79.2528 114.516L52.4255 80.1768C51.9866 79.6036 51.4738 79.0909 50.9006 78.6519C54.2626 78.1366 57.4359 76.7661 60.116 74.672C62.7961 72.5778 64.8933 69.8302 66.2063 66.6926C66.5097 67.3302 66.8839 67.9317 67.3217 68.4858L94.149 102.853Z" fill="#282828"/>
<path d="M45.3653 78.7928C44.8687 79.2094 44.4232 79.6834 44.038 80.2047L17.2108 114.515C15.6661 116.496 13.3977 117.783 10.9046 118.091C8.41161 118.4 5.89814 117.705 3.91717 116.16C1.93619 114.616 0.649986 112.347 0.341501 109.854C0.0330154 107.361 0.72752 104.848 2.27223 102.867L29.1136 68.4855C29.3698 68.1518 29.6056 67.8028 29.8196 67.4406C31.2349 70.4883 33.4038 73.1249 36.1214 75.1014C38.8391 77.0778 42.0156 78.3288 45.3512 78.7363" fill="#282828"/>
<path d="M51.55 39.6529C51.8626 39.3618 52.1507 39.0454 52.4113 38.7069L79.2386 4.35392C80.7833 2.37482 83.051 1.09041 85.5427 0.783248C88.0344 0.476087 90.5461 1.17134 92.5252 2.71605C94.5043 4.26076 95.7887 6.5284 96.0958 9.02011C96.403 11.5118 95.7077 14.0235 94.163 16.0026L67.3358 50.3415C66.9472 50.8422 66.6112 51.3816 66.3333 51.9511C65.1152 48.8178 63.1209 46.0453 60.5374 43.8941C57.954 41.7429 54.8663 40.2835 51.5642 39.6529" fill="#282828"/>
<path d="M60.6991 59.4342C60.699 61.9052 59.9656 64.3207 58.5915 66.3745C57.2175 68.4283 55.2648 70.0281 52.9808 70.9711C50.6967 71.9142 48.1842 72.158 45.7614 71.6718C43.3387 71.1856 41.1148 69.9912 39.3714 68.24C37.6281 66.4887 36.4438 64.2594 35.9686 61.8345C35.4934 59.4095 35.7486 56.8981 36.702 54.6184C37.6554 52.3386 39.264 50.3932 41.324 49.0285C43.384 47.6638 45.8028 46.9413 48.2738 46.9525C49.9135 46.9506 51.5374 47.2722 53.0526 47.8988C54.5678 48.5254 55.9445 49.4447 57.1039 50.6041C58.2633 51.7635 59.1826 53.1402 59.8092 54.6554C60.4358 56.1706 60.7574 57.7945 60.7556 59.4342" fill="#A513FF"/>
</svg>
