<svg width="97" height="119" viewBox="0 0 97 119" fill="none" xmlns="http://www.w3.org/2000/svg">
<path d="M2.27225 16.0694C0.728867 14.087 0.0333648 11.5741 0.337862 9.08023C0.487937 7.84865 0.880967 6.6591 1.49417 5.58054C2.10738 4.50198 2.92856 3.55585 3.91012 2.797C4.88857 2.02664 6.00969 1.45734 7.20898 1.12188C8.40827 0.786418 9.66206 0.691409 10.8982 0.842319C12.1343 0.993228 13.3285 1.38708 14.4118 2.00121C15.4952 2.61534 16.4464 3.43762 17.2108 4.42076L44.0381 38.7738C44.2397 39.0487 44.4616 39.3083 44.7017 39.5504C41.4201 40.0893 38.3264 41.4433 35.704 43.4884C33.0817 45.5335 31.0147 48.2041 29.6925 51.2555C29.5231 50.9872 29.3395 50.7048 29.1136 50.4083L2.27225 16.0694Z" fill="#282828"/>
<path d="M94.1489 102.919C94.9338 103.896 95.5169 105.018 95.8646 106.221C96.2122 107.425 96.3174 108.685 96.1741 109.93C96.0307 111.174 95.6417 112.377 95.0295 113.47C94.4173 114.563 93.5943 115.523 92.608 116.296C91.6217 117.068 90.4919 117.636 89.2841 117.968C88.0764 118.301 86.8147 118.39 85.5723 118.23C84.3298 118.071 83.1315 117.666 82.0466 117.04C80.9618 116.414 80.0121 115.578 79.2527 114.582L52.4255 80.2433C51.9865 79.6701 51.4738 79.1573 50.9006 78.7183C54.2626 78.203 57.4358 76.8326 60.1159 74.7384C62.7961 72.6443 64.8932 69.8966 66.2062 66.759C66.5096 67.3967 66.8838 67.9982 67.3217 68.5522L94.1489 102.919Z" fill="#282828"/>
<path d="M45.3652 78.8592C44.8687 79.2759 44.4232 79.7499 44.038 80.2712L17.2107 114.582C15.666 116.563 13.3976 117.849 10.9046 118.158C8.41157 118.466 5.89809 117.772 3.91712 116.227C1.93614 114.682 0.64994 112.414 0.341455 109.921C0.0329697 107.428 0.727474 104.914 2.27218 102.933L29.1136 68.5519C29.3698 68.2182 29.6055 67.8693 29.8195 67.5071C31.2349 70.5548 33.4038 73.1914 36.1214 75.1678C38.839 77.1443 42.0156 78.3953 45.3511 78.8028" fill="#282828"/>
<path d="M51.55 39.7194C51.8626 39.4283 52.1506 39.1119 52.4113 38.7734L79.2385 4.42039C80.7833 2.44129 83.0509 1.15688 85.5426 0.849715C88.0343 0.542554 90.546 1.2378 92.5251 2.78251C94.5042 4.32722 95.7886 6.59486 96.0958 9.08657C96.4029 11.5783 95.7077 14.09 94.163 16.0691L67.3357 50.408C66.9471 50.9086 66.6112 51.448 66.3332 52.0176C65.1152 48.8842 63.1208 46.1118 60.5374 43.9606C57.954 41.8094 54.8662 40.35 51.5641 39.7194" fill="#282828"/>
<path d="M60.699 59.5007C60.699 61.9717 59.9655 64.3872 58.5915 66.441C57.2174 68.4948 55.2647 70.0946 52.9807 71.0376C50.6967 71.9806 48.1841 72.2245 45.7614 71.7383C43.3386 71.2521 41.1147 70.0577 39.3714 68.3064C37.628 66.5552 36.4437 64.3259 35.9685 61.9009C35.4933 59.476 35.7486 56.9646 36.7019 54.6848C37.6553 52.4051 39.2639 50.4597 41.324 49.095C43.384 47.7303 45.8027 47.0077 48.2738 47.0189C49.9134 47.0171 51.5373 47.3386 53.0525 47.9653C54.5677 48.5919 55.9444 49.5112 57.1038 50.6706C58.2632 51.83 59.1826 53.2067 59.8092 54.7219C60.4358 56.2371 60.7573 57.861 60.7555 59.5007" fill="#71AA27"/>
</svg>
