<svg width="97" height="119" viewBox="0 0 97 119" fill="none" xmlns="http://www.w3.org/2000/svg">
<path d="M2.86311 16.003C1.31973 14.0206 0.624231 11.5077 0.928728 9.01383C1.0788 7.78224 1.47183 6.5927 2.08504 5.51413C2.69824 4.43557 3.51943 3.48945 4.50099 2.7306C5.47944 1.96023 6.60056 1.39094 7.79985 1.05547C8.99914 0.720012 10.2529 0.625003 11.4891 0.775912C12.7252 0.926822 13.9193 1.32067 15.0027 1.9348C16.086 2.54893 17.0373 3.37122 17.8017 4.35435L44.6289 38.7074C44.8306 38.9823 45.0524 39.2419 45.2925 39.4839C42.011 40.0229 38.9172 41.3769 36.2949 43.422C33.6726 45.4671 31.6056 48.1377 30.2834 51.1891C30.114 50.9208 29.9304 50.6384 29.7045 50.3419L2.86311 16.003Z" fill="#282828"/>
<path d="M94.7398 102.853C95.5247 103.829 96.1078 104.952 96.4555 106.155C96.8031 107.358 96.9083 108.619 96.765 109.863C96.6216 111.107 96.2326 112.311 95.6204 113.404C95.0082 114.497 94.1851 115.457 93.1989 116.229C92.2126 117.001 91.0828 117.57 89.875 117.902C88.6673 118.234 87.4056 118.323 86.1631 118.164C84.9207 118.004 83.7223 117.6 82.6375 116.974C81.5527 116.347 80.603 115.512 79.8436 114.516L53.0164 80.1769C52.5774 79.6037 52.0646 79.0909 51.4915 78.6519C54.8535 78.1366 58.0267 76.7662 60.7068 74.672C63.387 72.5779 65.4841 69.8302 66.7971 66.6926C67.1005 67.3303 67.4747 67.9318 67.9126 68.4858L94.7398 102.853Z" fill="#282828"/>
<path d="M45.9561 78.7928C45.4595 79.2095 45.014 79.6835 44.6289 80.2048L17.8016 114.515C16.2569 116.496 13.9885 117.783 11.4955 118.091C9.00243 118.4 6.48896 117.705 4.50799 116.16C2.52701 114.616 1.24081 112.347 0.932321 109.854C0.623836 107.361 1.31834 104.848 2.86305 102.867L29.7044 68.4855C29.9606 68.1518 30.1964 67.8029 30.4104 67.4407C31.8258 70.4884 33.9947 73.125 36.7123 75.1014C39.4299 77.0779 42.6065 78.3289 45.942 78.7364" fill="#282828"/>
<path d="M52.1409 39.653C52.4535 39.3619 52.7415 39.0454 53.0022 38.707L79.8294 4.35398C81.3741 2.37488 83.6418 1.09047 86.1335 0.783309C88.6252 0.476148 91.1369 1.1714 93.116 2.71611C95.0951 4.26082 96.3795 6.52846 96.6867 9.02017C96.9938 11.5119 96.2986 14.0236 94.7539 16.0027L67.9266 50.3416C67.538 50.8422 67.2021 51.3816 66.9241 51.9512C65.706 48.8178 63.7117 46.0454 61.1283 43.8942C58.5449 41.743 55.4571 40.2836 52.155 39.653" fill="#282828"/>
<path d="M61.2899 59.4343C61.2899 61.9053 60.5564 64.3208 59.1824 66.3746C57.8083 68.4284 55.8556 70.0282 53.5716 70.9712C51.2875 71.9142 48.775 72.1581 46.3522 71.6719C43.9295 71.1857 41.7056 69.9913 39.9622 68.24C38.2189 66.4888 37.0346 64.2594 36.5594 61.8345C36.0842 59.4096 36.3394 56.8982 37.2928 54.6184C38.2462 52.3387 39.8548 50.3933 41.9148 49.0286C43.9749 47.6639 46.3936 46.9413 48.8646 46.9525C50.5043 46.9507 52.1282 47.2722 53.6434 47.8988C55.1586 48.5255 56.5353 49.4448 57.6947 50.6042C58.8541 51.7636 59.7734 53.1403 60.4 54.6555C61.0266 56.1707 61.3482 57.7946 61.3464 59.4343" fill="#1D5EDD"/>
</svg>
