<svg width="30" height="30" viewBox="0 0 30 30" fill="none" xmlns="http://www.w3.org/2000/svg">
<g id="in 1" clip-path="url(#clip0_553_73)">
<path id="Vector" d="M15 29.12C6.93943 29.12 0.440002 22.6206 0.440002 14.56C0.440002 6.49943 6.93943 0 15 0C23.0606 0 29.56 6.53129 29.56 14.56C29.56 22.6206 23.0606 29.12 15 29.12Z" fill="white"/>
<g id="Group">
<path id="Vector_2" d="M7.69145 6.32422H7.44002C6.59145 6.32422 5.90002 7.01565 5.90002 7.86422C5.90002 8.71279 6.59145 9.40422 7.44002 9.40422H7.69145C8.54002 9.40422 9.23145 8.71279 9.23145 7.86422C9.23145 7.01565 8.57145 6.32422 7.69145 6.32422Z" fill="#282828"/>
<path id="Vector_3" d="M9.23145 10.2217H5.90002V22.856H9.23145V10.2217Z" fill="#282828"/>
<path id="Vector_4" d="M24.0029 12.767C23.8772 12.2328 23.6572 11.7613 23.3429 11.3528C23.0286 10.9442 22.5572 10.5985 21.96 10.347C21.3629 10.0956 20.6714 9.93848 19.9486 9.93848C18.2829 9.93848 16.8686 10.6613 15.7686 12.0756V10.2213H12.6572V22.8556H15.9886V17.1356C15.9886 15.7213 16.0829 14.747 16.24 14.2442C16.3972 13.7099 16.7114 13.3013 17.1829 12.987C17.6543 12.6728 18.1572 12.5156 18.7543 12.5156C19.1943 12.5156 19.6029 12.6413 19.9172 12.8613C20.2314 13.0813 20.4829 13.3956 20.6086 13.8042C20.7657 14.2128 20.8286 15.0928 20.8286 16.4442V22.887H24.16V15.0299C24.1914 14.0242 24.1286 13.2699 24.0029 12.767Z" fill="#282828"/>
</g>
</g>
<defs>
<clipPath id="clip0_553_73">
<rect width="29.12" height="29.12" fill="white" transform="translate(0.440002)"/>
</clipPath>
</defs>
</svg>
