<svg width="97" height="119" viewBox="0 0 97 119" fill="none" xmlns="http://www.w3.org/2000/svg">
<path d="M2.27226 16.003C0.728882 14.0206 0.0333801 11.5076 0.337877 9.01379C0.487952 7.78221 0.880983 6.59266 1.49419 5.5141C2.10739 4.43553 2.92858 3.48941 3.91014 2.73056C4.88859 1.96019 6.00971 1.3909 7.209 1.05544C8.40829 0.719974 9.66207 0.624965 10.8982 0.775874C12.1344 0.926784 13.3285 1.32063 14.4118 1.93476C15.4952 2.54889 16.4464 3.37118 17.2108 4.35432L44.0381 38.7073C44.2398 38.9823 44.4616 39.2418 44.7017 39.4839C41.4201 40.0228 38.3264 41.3769 35.7041 43.422C33.0817 45.4671 31.0147 48.1377 29.6925 51.1891C29.5231 50.9208 29.3396 50.6384 29.1136 50.3419L2.27226 16.003Z" fill="#282828"/>
<path d="M94.149 102.853C94.9338 103.829 95.517 104.952 95.8646 106.155C96.2123 107.358 96.3175 108.619 96.1741 109.863C96.0308 111.107 95.6417 112.311 95.0295 113.404C94.4174 114.497 93.5943 115.457 92.608 116.229C91.6217 117.001 90.4919 117.57 89.2842 117.902C88.0764 118.234 86.8147 118.323 85.5723 118.164C84.3299 118.004 83.1315 117.6 82.0467 116.973C80.9618 116.347 80.0122 115.512 79.2528 114.516L52.4255 80.1768C51.9865 79.6036 51.4738 79.0909 50.9006 78.6519C54.2626 78.1366 57.4358 76.7662 60.116 74.672C62.7961 72.5778 64.8932 69.8302 66.2063 66.6926C66.5097 67.3302 66.8838 67.9318 67.3217 68.4858L94.149 102.853Z" fill="#282828"/>
<path d="M45.3653 78.7928C44.8687 79.2095 44.4232 79.6834 44.038 80.2048L17.2107 114.515C15.666 116.496 13.3977 117.783 10.9046 118.091C8.41158 118.4 5.89811 117.705 3.91713 116.16C1.93616 114.616 0.649955 112.347 0.34147 109.854C0.0329849 107.361 0.727489 104.848 2.2722 102.867L29.1136 68.4855C29.3698 68.1518 29.6055 67.8029 29.8196 67.4406C31.2349 70.4883 33.4038 73.1249 36.1214 75.1014C38.839 77.0778 42.0156 78.3289 45.3511 78.7363" fill="#282828"/>
<path d="M51.55 39.653C51.8626 39.3618 52.1507 39.0454 52.4113 38.707L79.2386 4.35394C80.7833 2.37484 83.0509 1.09043 85.5426 0.783271C88.0344 0.47611 90.546 1.17136 92.5251 2.71607C94.5042 4.26078 95.7886 6.52842 96.0958 9.02013C96.403 11.5118 95.7077 14.0235 94.163 16.0026L67.3357 50.3415C66.9471 50.8422 66.6112 51.3816 66.3333 51.9512C65.1152 48.8178 63.1208 46.0453 60.5374 43.8941C57.954 41.7429 54.8663 40.2835 51.5641 39.653" fill="#282828"/>
<path d="M60.699 59.4342C60.699 61.9053 59.9655 64.3207 58.5915 66.3745C57.2175 68.4283 55.2648 70.0281 52.9807 70.9711C50.6967 71.9142 48.1841 72.158 45.7614 71.6718C43.3386 71.1856 41.1147 69.9912 39.3714 68.24C37.6281 66.4887 36.4438 64.2594 35.9686 61.8345C35.4933 59.4095 35.7486 56.8981 36.702 54.6184C37.6554 52.3387 39.264 50.3932 41.324 49.0285C43.384 47.6638 45.8028 46.9413 48.2738 46.9525C49.9134 46.9506 51.5373 47.2722 53.0525 47.8988C54.5677 48.5254 55.9444 49.4448 57.1038 50.6042C58.2633 51.7636 59.1826 53.1403 59.8092 54.6555C60.4358 56.1707 60.7574 57.7946 60.7555 59.4342" fill="#FF8500"/>
</svg>
