<svg width="30" height="30" viewBox="0 0 30 30" fill="none" xmlns="http://www.w3.org/2000/svg">
<g id="twitter-icon-png-free-download 1" clip-path="url(#clip0_553_85)">
<g id="ELEMENTS">
<path id="Vector" d="M15.44 29.12C23.4813 29.12 30 22.6013 30 14.56C30 6.51873 23.4813 0 15.44 0C7.39874 0 0.880005 6.51873 0.880005 14.56C0.880005 22.6013 7.39874 29.12 15.44 29.12Z" fill="white"/>
<path id="Vector_2" d="M23.4895 9.57212C22.9619 9.79302 22.409 9.94784 21.8434 10.033C22.1068 9.98365 22.4854 9.51451 22.6665 9.33343C22.9076 9.04543 23.0895 8.71256 23.2014 8.35399C23.2108 8.34231 23.2159 8.32779 23.2159 8.31283C23.2159 8.29787 23.2108 8.28336 23.2014 8.27168C23.1871 8.26557 23.1717 8.26242 23.1562 8.26242C23.1406 8.26242 23.1252 8.26557 23.1109 8.27168C22.5123 8.61075 21.8736 8.87344 21.2096 9.05359C21.1899 9.06602 21.1671 9.07262 21.1438 9.07262C21.1205 9.07262 21.0977 9.06602 21.0779 9.05359L20.9133 8.88898C20.6445 8.62007 20.333 8.39757 19.9915 8.23053C19.5418 8.0524 19.0588 7.97378 18.5758 8.00007C18.1075 8.03363 17.651 8.16247 17.2342 8.37868C16.8166 8.59984 16.4473 8.90203 16.1478 9.26759C15.8479 9.63449 15.632 10.0627 15.5154 10.522C15.3988 10.9813 15.3843 11.4606 15.4729 11.9261C15.4729 12.0084 15.4729 12.0166 15.407 12.0084C12.8926 11.7623 10.5598 10.5886 8.86367 8.71613C8.78136 8.6256 8.74021 8.6256 8.6826 8.71613C8.33856 9.34157 8.20711 10.0619 8.30806 10.7685C8.40901 11.4751 8.73688 12.1298 9.24228 12.6339C9.37397 12.7574 9.50566 12.8808 9.64558 12.9878C9.20664 12.9538 8.77872 12.8335 8.38629 12.6339C8.28753 12.5598 8.28753 12.5928 8.28753 12.6751C8.2758 12.801 8.2758 12.9278 8.28753 13.0537C8.36466 13.6424 8.5965 14.2001 8.95941 14.67C9.32232 15.1399 9.80333 15.5052 10.3534 15.7286C10.4894 15.7821 10.6299 15.8234 10.7732 15.8521C10.3619 15.9229 9.9416 15.9229 9.53035 15.8521C9.43982 15.8521 9.40689 15.8521 9.43982 15.9673C9.65235 16.5211 10.0028 17.0113 10.458 17.3916C10.9132 17.7719 11.458 18.0296 12.0407 18.1402L12.4028 18.1896C11.8957 18.6428 11.2854 18.965 10.625 19.1279C9.76123 19.4391 8.83971 19.5571 7.92538 19.4736C7.78546 19.4736 7.75254 19.4736 7.71138 19.4736C7.67023 19.4736 7.71138 19.5312 7.75254 19.5723C7.94184 19.6958 8.12291 19.8028 8.31222 19.9098C8.88753 20.2146 9.49481 20.4547 10.123 20.6259C11.7323 21.1099 13.4405 21.1632 15.0768 20.7804C16.7132 20.3977 18.2205 19.5923 19.4483 18.4447C20.3321 17.4871 21.016 16.3626 21.4598 15.1373C21.9035 13.9119 22.0983 12.6104 22.0327 11.3088C22.0327 11.2018 22.1479 11.1442 22.222 11.0948C22.6894 10.7467 23.1075 10.337 23.4648 9.87665C23.5206 9.80666 23.5497 9.71918 23.5471 9.62974C23.5471 9.53097 23.5471 9.5392 23.4895 9.57212Z" fill="#282828"/>
</g>
</g>
<defs>
<clipPath id="clip0_553_85">
<rect width="29.12" height="29.12" fill="white" transform="translate(0.880005)"/>
</clipPath>
</defs>
</svg>
