<svg width="88" height="52" viewBox="0 0 88 52" fill="none" xmlns="http://www.w3.org/2000/svg">
<g id="Group">
<path id="Vector" d="M23.1841 19.6091C21.1898 11.116 26.4249 2.49797 34.9008 0.499595C36.1473 0.124899 37.3937 0 38.6402 0H40.3852L30.7875 12.365L24.9292 19.6091L23.6827 21.2328C23.558 20.7332 23.3088 20.1087 23.1841 19.6091Z" fill="#888989"/>
<path id="Vector_2" d="M87.5014 31.7241C89.6204 40.2172 84.3853 48.8352 75.9093 50.8335C74.6629 51.0833 73.4164 51.3331 72.17 51.3331H22.8102L32.2833 39.218H69.9263C72.0453 39.218 73.6657 37.5943 73.6657 35.471C73.6657 33.3477 72.0453 31.7241 69.9263 31.7241H38.6402C36.3966 31.7241 34.2776 31.2245 32.2833 30.3502L40.6345 19.6089H40.8838H72.17C79.3994 19.6089 85.7564 24.6048 87.5014 31.7241Z" fill="#888989"/>
<path id="Vector_3" d="M46.4929 12.1152L55.966 0H88L78.5269 12.1152H46.4929Z" fill="#888989"/>
<path id="Vector_4" d="M28.7932 28.352C29.7904 29.2263 31.0368 29.8508 32.2833 30.4753L31.1615 31.8491L15.83 51.3333H0.124646L5.48442 44.4639L10.8442 37.5945L5.23513 18.1103L2.61756 9.2425L0 0H4.6119H12.7139L16.3286 12.365L17.0765 15.1127L17.5751 16.6115L19.6941 23.9805L20.1926 25.6042L22.4363 22.7316L22.8102 22.232L23.6827 21.2328C24.6799 23.9805 26.4249 26.4785 28.7932 28.352Z" fill="#888989"/>
<path id="Vector_5" d="M46.4929 12.1147L46.3683 12.3645L40.6345 19.6087C38.5156 19.4838 37.0198 17.7352 37.1445 15.6119C37.2691 13.6135 38.8895 12.1147 40.8838 12.1147H46.4929Z" fill="#888989"/>
</g>
</svg>
