<svg width="166" height="55" viewBox="0 0 166 55" fill="none" xmlns="http://www.w3.org/2000/svg">
<g id="Group">
<path id="Vector" d="M14.2618 17.6888C13.8195 17.9099 13.322 18.0757 12.8245 18.0757C12.4376 18.0757 12.1059 18.0205 11.7743 17.9099C11.5531 17.8546 11.3873 17.7441 11.2215 17.6335C10.4476 17.136 9.8948 16.2516 9.8948 15.2566V15.146C9.8948 14.7038 10.0054 14.3168 10.1159 13.9852C9.78424 13.8746 9.45257 13.8193 9.06562 13.8193C8.6234 13.8193 8.23645 13.9299 7.90479 14.0404C7.90479 14.151 7.90479 14.2616 7.90479 14.4274C7.90479 14.538 7.90479 14.6485 7.90479 14.7591C8.01534 16.4174 8.89979 17.8546 10.1712 18.6838C10.3923 18.8496 10.6687 18.9602 10.9451 19.126C11.6084 19.4024 12.2718 19.5683 13.0456 19.5683C13.9301 19.5683 14.704 19.3471 15.4226 19.0155C15.0909 18.4074 14.704 17.9652 14.2618 17.6888Z" fill="#888989"/>
<path id="Vector_2" d="M11.4426 41.5692C14.4276 41.0164 16.307 39.9661 19.4579 38.75C21.2268 38.0867 23.3826 37.2022 26.5887 36.76C22.6087 34.5489 17.5784 36.0414 11.0003 37.3128C7.84948 37.9209 5.03029 37.6997 3.04028 36.9259C3.37195 37.6997 3.7589 38.4736 4.14584 39.2475C4.58807 40.0767 4.97502 40.7953 5.41724 41.4587C6.79919 41.7903 8.95504 42.0667 11.4426 41.5692Z" fill="#888989"/>
<path id="Vector_3" d="M7.51782 44.6092C9.01033 46.6545 10.1159 47.7601 11.9953 49.4737C21.7243 46.0465 26.8651 39.1367 26.8651 39.1367C21.1162 42.8956 11.8848 44.8304 7.51782 44.6092Z" fill="#888989"/>
<path id="Vector_4" d="M14.317 51.5194C15.3673 52.3485 19.0709 54.3386 20.2318 55.0019C22.0559 52.4038 25.2068 48.4791 26.5335 42.896C26.3676 43.0618 21.9454 48.866 14.317 51.5194Z" fill="#888989"/>
<path id="Vector_5" d="M166 45.8252H163.955V48.368H166V45.8252Z" fill="#888989"/>
<path id="Vector_6" d="M31.0662 13.709C30.6793 13.709 30.3476 13.7643 30.016 13.8748C30.1818 14.2065 30.2371 14.6487 30.2371 15.0357V15.1462C30.1818 16.1412 29.6843 16.9704 28.9104 17.5232C28.7446 17.6337 28.5235 17.7443 28.3576 17.7996C28.026 17.9101 27.6943 17.9654 27.3073 17.9654C26.7546 17.9654 26.2571 17.7996 25.8701 17.5784C25.4279 17.8548 25.0409 18.2971 24.8198 18.7946C25.5384 19.1815 26.3123 19.3473 27.1968 19.3473C27.9154 19.3473 28.634 19.1815 29.2973 18.9051C29.5737 18.7946 29.8501 18.6287 30.0712 18.4629C31.3426 17.5785 32.2271 16.1412 32.3376 14.5382C32.3376 14.4276 32.3376 14.317 32.3376 14.2065C32.3376 14.0959 32.3376 13.9854 32.3376 13.8195C31.8954 13.8195 31.5085 13.709 31.0662 13.709Z" fill="#888989"/>
<path id="Vector_7" d="M40.0766 21.0609C40.0766 20.8398 40.0766 20.6187 40.0766 20.3976C40.0766 20.3423 40.0766 20.2871 40.0766 20.2318C40.0766 19.7896 40.0213 19.292 39.9661 18.8498C39.9108 18.4076 39.8555 17.9654 39.8002 17.5232V17.4679C39.8002 17.3573 39.7449 17.1915 39.7449 17.0809C38.8605 10.8345 36.5388 4.64336 32.9457 0C32.8905 0.0552781 32.8352 0.0552781 32.7799 0.110556C25.4832 4.91975 14.6487 4.91975 7.35198 0.110556C7.29671 0.110556 7.18615 0.0552781 7.13087 0C2.54279 6.52281 0.0552781 14.0406 0 21.7796C0 21.8901 0 22.0007 0 22.1112C0 25.3726 0.442225 28.6893 1.38195 31.9507C1.65834 32.1166 7.51782 34.383 14.1512 33.5538C16.3623 33.2774 18.6287 32.9457 20.7846 32.9457C27.031 32.6141 32.393 38.6394 30.9557 44.72C30.7346 45.9361 30.4029 46.8758 30.1266 47.4839C35.9308 41.2927 39.5791 33.1668 40.0213 24.1565C40.0766 23.5485 40.0766 22.8851 40.0766 22.2771C40.0766 22.1112 40.0766 21.9454 40.0766 21.7796C40.0766 21.5585 40.0766 21.3373 40.0766 21.0609ZM20.0659 28.1365C10.6134 27.9707 6.41226 22.7746 6.41226 22.7746C2.54279 18.0207 5.03031 13.1562 7.18615 10.4476C8.23643 8.89977 10.6134 8.84449 11.8295 10.1712C17.1362 14.8698 19.8448 22.2218 20.0659 22.7193C20.1765 22.3323 23.3826 14.1512 28.634 9.89478C29.1315 9.45255 29.7949 9.23144 30.5135 9.23144C31.5085 9.23144 32.393 9.72894 32.9457 10.4476C38.8052 17.6337 35.5991 27.1415 20.0659 28.1365Z" fill="#888989"/>
<path id="Vector_8" d="M59.9767 17.4122C59.7003 16.8594 59.3687 16.4172 58.8712 16.0302C58.3737 15.6433 57.8209 15.3116 57.1575 15.0905C56.4942 14.8141 55.7203 14.593 54.8911 14.3719C54.2278 14.2061 53.675 14.0402 53.1775 13.9297C52.68 13.7638 52.2931 13.598 51.9614 13.4322C51.6297 13.2663 51.4086 13.0452 51.2428 12.8241C51.0769 12.603 50.9664 12.2713 50.9664 11.9397C50.9664 11.3316 51.1875 10.8341 51.6297 10.5024C52.072 10.1708 52.7906 10.0049 53.675 10.0049C54.1725 10.0049 54.67 10.0602 55.1675 10.1708C55.665 10.2813 56.1073 10.4472 56.5495 10.6683C56.9917 10.8341 57.3234 11.0552 57.655 11.2211C57.9314 11.3869 58.1525 11.5527 58.2631 11.6633L59.7556 8.95465C58.9817 8.45715 58.0973 8.01492 57.1023 7.62798C56.1073 7.24103 55.0017 7.0752 53.7856 7.0752C52.9011 7.0752 52.1272 7.18575 51.3533 7.40686C50.5794 7.62798 49.9161 7.95964 49.3633 8.45715C48.8106 8.89937 48.3683 9.45215 48.0367 10.1708C47.705 10.8341 47.5392 11.608 47.5392 12.4924C47.5392 13.1558 47.6497 13.7086 47.8155 14.2061C48.0367 14.7036 48.313 15.0905 48.7 15.4775C49.0869 15.8644 49.5844 16.1408 50.1925 16.4172C50.8006 16.6936 51.5192 16.9147 52.3483 17.1358C53.0117 17.3016 53.6197 17.5228 54.1725 17.6886C54.7253 17.8544 55.1675 18.0203 55.5545 18.2414C55.9414 18.4072 56.2178 18.6836 56.4389 18.9047C56.66 19.1811 56.7706 19.4575 56.7706 19.8444C56.7706 21.0053 55.8309 21.6133 54.0067 21.6133C53.3433 21.6133 52.68 21.5581 52.072 21.3922C51.4639 21.2264 50.8558 21.0605 50.3583 20.7842C49.8608 20.563 49.4186 20.3419 49.0317 20.0655C48.6447 19.8444 48.3683 19.6233 48.2578 19.5128L46.7653 22.3872C47.7603 23.1058 48.8658 23.6586 50.1372 24.0456C51.4086 24.4325 52.68 24.5983 53.9514 24.5983C54.7806 24.5983 55.6098 24.4878 56.3284 24.322C57.1023 24.1561 57.7656 23.8245 58.3737 23.4375C58.9817 23.0506 59.4239 22.4978 59.7556 21.8344C60.0873 21.1711 60.2531 20.3972 60.2531 19.4575C60.3637 18.573 60.2531 17.9097 59.9767 17.4122Z" fill="#888989"/>
<path id="Vector_9" d="M76.5601 12.9902C76.2837 12.548 75.8415 12.161 75.344 11.8846C74.8465 11.6082 74.1832 11.4424 73.354 11.4424C72.4143 11.4424 71.5298 11.6635 70.7006 12.1057C69.8715 12.548 69.2634 13.156 68.8212 13.9852V6.68848H65.6151V24.3222H68.8212V16.9149C68.9317 16.528 69.0976 16.1963 69.374 15.8646C69.6504 15.533 69.8715 15.2566 70.1479 15.0355C70.4242 14.8144 70.7559 14.6485 71.0876 14.4827C71.4193 14.3721 71.6956 14.3169 72.0273 14.3169C72.6906 14.3169 73.2434 14.538 73.5751 15.0355C73.962 15.533 74.1279 16.2516 74.1279 17.2466V24.3222H77.334V16.4174C77.334 15.8094 77.2787 15.2013 77.1682 14.5932C77.0576 13.9852 76.8365 13.4324 76.5601 12.9902Z" fill="#888989"/>
<path id="Vector_10" d="M93.8622 13.3772C93.3094 12.7692 92.5908 12.3269 91.7617 11.94C90.9325 11.6083 90.048 11.3872 88.9977 11.3872C87.9475 11.3872 87.063 11.553 86.2338 11.94C85.4047 12.2717 84.6861 12.7692 84.1333 13.3772C83.5805 13.9853 83.1383 14.7039 82.8066 15.4778C82.4749 16.2517 82.3644 17.1361 82.3644 18.0206C82.3644 18.905 82.5302 19.7342 82.8619 20.5081C83.1935 21.282 83.6358 22.0006 84.1886 22.6087C84.7413 23.2167 85.46 23.6589 86.2891 24.0459C87.1183 24.3776 88.0027 24.5434 89.053 24.5434C90.4903 24.5434 91.7064 24.2117 92.7014 23.6037C93.6964 22.9956 94.4703 22.1664 94.9125 21.2267L92.1486 20.4528C91.9275 20.9503 91.5405 21.3925 90.9878 21.6689C90.435 22.0006 89.8269 22.1664 89.1636 22.1664C88.7214 22.1664 88.3344 22.1112 87.9475 21.9453C87.5605 21.7795 87.2288 21.6137 86.8972 21.3373C86.5655 21.0609 86.3444 20.7292 86.1233 20.3423C85.9575 19.9553 85.7916 19.5131 85.7363 19.0156H95.5206C95.5758 18.905 95.5758 18.7392 95.5758 18.5181C95.5758 18.3522 95.5758 18.1311 95.5758 17.91C95.5758 17.0809 95.41 16.2517 95.1336 15.4225C94.8572 14.6486 94.4703 13.9853 93.8622 13.3772ZM85.7363 16.915C85.7916 16.4728 85.9022 16.0306 86.068 15.6436C86.2338 15.2567 86.5102 14.925 86.7866 14.6486C87.063 14.3722 87.3947 14.1511 87.7816 13.9853C88.1686 13.8194 88.5555 13.7642 88.9977 13.7642C89.8822 13.7642 90.6561 14.0406 91.2642 14.5933C91.8722 15.1461 92.2592 15.92 92.3144 16.8597H85.7363V16.915Z" fill="#888989"/>
<path id="Vector_11" d="M49.1422 36.3179H47.0969V48.4238H49.1422V36.3179Z" fill="#888989"/>
<path id="Vector_12" d="M49.1422 31.5083H47.0969V34.0511H49.1422V31.5083Z" fill="#888989"/>
<path id="Vector_13" d="M65.0623 37.5891C64.7859 37.1469 64.399 36.7599 63.9568 36.5388C63.5145 36.2624 62.9065 36.1519 62.2431 36.1519C61.1929 36.1519 60.1978 36.4282 59.3134 36.9257C58.4289 37.4233 57.7103 38.1419 57.2128 38.971V36.373H55.3334V48.4789H57.3787V41.1269C57.5445 40.6847 57.7103 40.2424 57.9867 39.8555C58.2631 39.4685 58.5948 39.1369 58.9817 38.8605C59.3687 38.5841 59.7556 38.363 60.1426 38.1971C60.5848 38.0313 60.9717 37.976 61.414 37.976C62.2431 37.976 62.7959 38.2524 63.2381 38.8605C63.6251 39.4685 63.8462 40.4083 63.8462 41.6797V48.4789H65.8915V41.1822C65.8915 40.4635 65.8362 39.8002 65.7257 39.1369C65.5045 38.5841 65.3387 38.0313 65.0623 37.5891Z" fill="#888989"/>
<path id="Vector_14" d="M73.9621 36.3179H71.9168V48.4238H73.9621V36.3179Z" fill="#888989"/>
<path id="Vector_15" d="M73.9621 31.5083H71.9168V34.0511H73.9621V31.5083Z" fill="#888989"/>
<path id="Vector_16" d="M85.2388 46.4887C84.9071 46.5992 84.5202 46.7098 84.1332 46.7098C83.8016 46.7098 83.4699 46.5992 83.1935 46.4334C82.9171 46.2123 82.8066 45.8806 82.7513 45.4384V37.9206H85.4599V36.3175H82.7513V32.2822H80.706V36.3175H79.0477V37.9206H80.706V46.0465C80.706 46.9309 80.9824 47.539 81.5352 47.9812C82.088 48.3681 82.696 48.5893 83.4699 48.5893C83.8016 48.5893 84.1332 48.5893 84.4096 48.534C84.686 48.4787 84.9624 48.4234 85.2388 48.3129C85.5152 48.2023 85.7363 48.147 85.9021 48.0365C86.1233 47.9259 86.2891 47.8706 86.3997 47.8154L85.9021 46.2123C85.7916 46.2676 85.5705 46.3781 85.2388 46.4887Z" fill="#888989"/>
<path id="Vector_17" d="M93.2541 31.5083H91.2088V34.0511H93.2541V31.5083Z" fill="#888989"/>
<path id="Vector_18" d="M93.2541 36.3179H91.2088V48.4238H93.2541V36.3179Z" fill="#888989"/>
<path id="Vector_19" d="M109.008 45.9361V41.0163C109.008 39.4685 108.566 38.2524 107.682 37.4232C106.797 36.5941 105.526 36.1519 103.978 36.1519C102.375 36.1519 100.827 36.7046 99.2794 37.7549L99.9427 39.0816C101.269 38.1419 102.596 37.6444 103.812 37.6444C104.807 37.6444 105.636 37.9208 106.189 38.4735C106.742 39.0263 107.018 39.8002 107.018 40.7952V41.7902C106.576 41.6244 106.023 41.4586 105.415 41.348C104.807 41.2374 104.199 41.1822 103.646 41.1822C102.928 41.1822 102.209 41.2927 101.601 41.4585C100.993 41.6244 100.44 41.9008 99.998 42.2324C99.5558 42.5641 99.1688 42.9511 98.9477 43.3933C98.7266 43.8355 98.5608 44.333 98.5608 44.8858C98.5608 45.4386 98.6713 45.9361 98.8925 46.3783C99.1136 46.8205 99.39 47.2075 99.7769 47.5944C100.164 47.9261 100.551 48.2025 101.048 48.3683C101.546 48.5341 102.099 48.6447 102.651 48.6447C103.591 48.6447 104.476 48.4789 105.305 48.0919C106.134 47.705 106.797 47.1522 107.35 46.4336L107.405 47.318C107.461 47.6497 107.571 47.9261 107.848 48.2025C108.069 48.4236 108.4 48.5894 108.787 48.5894C108.953 48.5894 109.064 48.5894 109.229 48.5894C109.395 48.5894 109.561 48.5341 109.782 48.5341V46.7652C109.229 46.6547 109.008 46.3783 109.008 45.9361ZM106.963 44.72C106.963 45.0516 106.797 45.328 106.521 45.6044C106.189 46.0466 105.747 46.4336 105.084 46.71C104.476 46.9864 103.757 47.0969 103.038 47.0969C102.651 47.0969 102.32 47.0416 101.988 46.9311C101.656 46.8205 101.38 46.6547 101.159 46.4336C100.938 46.2125 100.717 45.9361 100.606 45.6597C100.496 45.3833 100.385 45.0516 100.385 44.72C100.385 44.0013 100.717 43.4486 101.325 43.0063C101.988 42.5641 102.817 42.343 103.812 42.343C104.862 42.343 105.913 42.5641 106.908 42.8958V44.72H106.963Z" fill="#888989"/>
<path id="Vector_20" d="M120.175 46.4887C119.843 46.5992 119.456 46.7098 119.069 46.7098C118.737 46.7098 118.406 46.5992 118.129 46.4334C117.853 46.2123 117.742 45.8806 117.687 45.4384V37.9206H120.396V36.3175H117.687V32.2822H115.642V36.3175H113.983V37.9206H115.642V46.0465C115.642 46.9309 115.918 47.539 116.471 47.9812C117.024 48.3681 117.632 48.5893 118.406 48.5893C118.737 48.5893 119.069 48.5893 119.345 48.534C119.622 48.4787 119.898 48.4234 120.175 48.3129C120.451 48.2023 120.672 48.147 120.838 48.0365C121.059 47.9259 121.225 47.8706 121.335 47.8154L120.838 46.2123C120.727 46.2676 120.506 46.3781 120.175 46.4887Z" fill="#888989"/>
<path id="Vector_21" d="M128.19 36.3179H126.145V48.4238H128.19V36.3179Z" fill="#888989"/>
<path id="Vector_22" d="M128.19 31.5083H126.145V34.0511H128.19V31.5083Z" fill="#888989"/>
<path id="Vector_23" d="M139.024 46.6549L135.21 36.3179H133.11L137.864 48.4238H140.075L144.829 36.3179H142.894L139.024 46.6549Z" fill="#888989"/>
<path id="Vector_24" d="M160.362 39.9657C160.085 39.1918 159.643 38.5837 159.146 37.9756C158.593 37.4229 157.985 36.9806 157.211 36.5937C156.437 36.262 155.608 36.0962 154.723 36.0962C153.784 36.0962 152.954 36.262 152.236 36.5937C151.462 36.9254 150.799 37.3676 150.301 37.9756C149.748 38.5284 149.306 39.1918 149.03 39.9657C148.753 40.7396 148.587 41.5134 148.587 42.3979C148.587 43.2271 148.753 44.0562 149.03 44.8301C149.306 45.604 149.748 46.2674 150.301 46.8201C150.854 47.3729 151.517 47.8704 152.236 48.2021C153.01 48.5338 153.839 48.6996 154.723 48.6996C155.331 48.6996 155.884 48.6443 156.437 48.4785C156.99 48.3126 157.487 48.0915 157.929 47.8151C158.372 47.5388 158.814 47.2071 159.146 46.8754C159.477 46.4885 159.754 46.1015 159.975 45.6593L158.206 45.1618C158.095 45.4935 157.874 45.7699 157.653 45.991C157.432 46.2121 157.156 46.4332 156.824 46.599C156.492 46.7649 156.161 46.9307 155.829 46.986C155.497 47.0412 155.11 47.1518 154.723 47.1518C154.171 47.1518 153.673 47.0413 153.231 46.8754C152.733 46.6543 152.346 46.3779 151.959 46.0462C151.572 45.7146 151.296 45.2724 151.075 44.7748C150.854 44.2773 150.688 43.7246 150.633 43.1165H160.693C160.693 43.0612 160.693 42.9507 160.749 42.7848C160.749 42.619 160.749 42.5084 160.749 42.3426C160.749 41.4582 160.638 40.6843 160.362 39.9657ZM150.633 41.5687C150.688 41.0159 150.799 40.4632 151.02 39.9657C151.241 39.4682 151.517 39.0812 151.904 38.7495C152.291 38.4179 152.678 38.1415 153.176 37.9204C153.673 37.6993 154.171 37.644 154.723 37.644C155.276 37.644 155.774 37.7545 156.271 37.9204C156.769 38.0862 157.156 38.3626 157.543 38.6943C157.929 39.0259 158.206 39.4682 158.427 39.9104C158.648 40.4079 158.814 40.9054 158.869 41.5134H150.633V41.5687Z" fill="#888989"/>
</g>
</svg>
